<?xml version="1.0" encoding="utf-8"?>
<!-- Generator: Adobe Illustrator 15.0.0, SVG Export Plug-In . SVG Version: 6.00 Build 0)  -->
<!DOCTYPE svg PUBLIC "-//W3C//DTD SVG 1.1//EN" "http://www.w3.org/Graphics/SVG/1.1/DTD/svg11.dtd">
<svg version="1.1" id="Layer_1" xmlns="http://www.w3.org/2000/svg" xmlns:xlink="http://www.w3.org/1999/xlink" x="0px" y="0px"
	 width="648px" height="648px" viewBox="0 0 648 648" enable-background="new 0 0 648 648" xml:space="preserve">
<polygon fill="#BE2026" stroke="#FFFEF9" stroke-miterlimit="10" points="151.117,226.16 281.835,255.894 144.031,288.3 
	11.476,258.144 "/>
<polygon fill="#BE2026" stroke="#FFFEF9" stroke-miterlimit="10" points="133.468,380.752 264.187,410.486 126.382,442.893 
	-6.165,412.736 "/>
<polygon stroke="#FFFEF9" stroke-miterlimit="10" points="144.031,288.3 126.382,442.893 -6.165,412.736 11.476,258.144 "/>
<polygon stroke="#FFFEF9" stroke-miterlimit="10" points="281.835,255.894 264.187,410.486 126.382,442.893 144.031,288.3 "/>
<path fill="#BE2026" stroke="#FFFEF9" stroke-miterlimit="10" d="M163.164,154.892"/>
<polygon stroke="#FFFEF9" stroke-miterlimit="10" points="151.117,226.16 11.476,258.144 144.031,288.3 281.835,255.894 "/>
<g>
	<path fill="#FFFFFF" d="M-134.006,366.988c-11.702-4.338-12.245,13.736-0.285,9.52
		C-122.589,380.826-122.046,362.773-134.006,366.988z"/>
	<path fill="none" stroke="#1C6030" stroke-miterlimit="10" d="M-134.006,366.988c-11.702-4.338-12.245,13.736-0.285,9.52
		C-122.589,380.826-122.046,362.773-134.006,366.988z"/>
</g>
<g>
	<path fill="#FFFFFF" d="M233.1,301.691c-11.712-4.344-12.244,13.75-0.286,9.529C244.518,315.542,245.06,297.491,233.1,301.691z"/>
	<path fill="none" stroke="#1C6030" stroke-miterlimit="10" d="M233.1,301.691c-11.712-4.344-12.244,13.75-0.286,9.529
		C244.518,315.542,245.06,297.491,233.1,301.691z"/>
</g>
<g>
	<path fill="#FFFFFF" d="M175.929,387.047c-11.715-4.318-12.247,13.756-0.285,9.52C187.364,400.906,187.896,382.832,175.929,387.047
		z"/>
	<path fill="none" stroke="#1C6030" stroke-miterlimit="10" d="M175.929,387.047c-11.715-4.318-12.247,13.756-0.285,9.52
		C187.364,400.906,187.896,382.832,175.929,387.047z"/>
</g>
<g>
	<path fill="#FFFFFF" d="M-134.004,431.234c-11.701-4.338-12.254,13.736-0.292,9.52
		C-122.586,445.072-122.044,427.02-134.004,431.234z"/>
	<path fill="none" stroke="#1C6030" stroke-miterlimit="10" d="M-134.004,431.234c-11.701-4.338-12.254,13.736-0.292,9.52
		C-122.586,445.072-122.044,427.02-134.004,431.234z"/>
</g>
<g>
	<path fill="#FFFFFF" d="M-189.899,360.09c-11.706-4.34-12.238,13.756-0.28,9.52C-178.475,373.949-177.933,355.873-189.899,360.09z"
		/>
	<path fill="none" stroke="#1C6030" stroke-miterlimit="10" d="M-189.899,360.09c-11.706-4.34-12.238,13.756-0.28,9.52
		C-178.475,373.949-177.933,355.873-189.899,360.09z"/>
</g>
<g>
	<path fill="#FFFFFF" d="M114.349,304.886c-11.703-4.338-12.245,13.736-0.291,9.52C125.775,318.746,126.308,300.671,114.349,304.886
		z"/>
	<path fill="none" stroke="#1C6030" stroke-miterlimit="10" d="M114.349,304.886c-11.703-4.338-12.245,13.736-0.291,9.52
		C125.775,318.746,126.308,300.671,114.349,304.886z"/>
</g>
<g>
	<path fill="#FFFFFF" d="M66.424,344.628c-11.705-4.322-12.237,13.73-0.28,9.531C77.849,358.481,78.381,340.409,66.424,344.628z"/>
	<path fill="none" stroke="#1C6030" stroke-miterlimit="10" d="M66.424,344.628c-11.705-4.322-12.237,13.73-0.28,9.531
		C77.849,358.481,78.381,340.409,66.424,344.628z"/>
</g>
<g>
	<path fill="#FFFFFF" d="M17.632,386.281c-11.706-4.338-12.238,13.736-0.28,9.52C29.056,400.141,29.599,382.066,17.632,386.281z"/>
	<path fill="none" stroke="#1C6030" stroke-miterlimit="10" d="M17.632,386.281c-11.706-4.338-12.238,13.736-0.28,9.52
		C29.056,400.141,29.599,382.066,17.632,386.281z"/>
</g>
<g>
	<path fill="#FFFFFF" d="M-189.896,385.925c-11.703-4.338-12.246,13.736-0.286,9.52C-178.47,399.763-177.938,381.71-189.896,385.925
		z"/>
	<path fill="none" stroke="#1C6030" stroke-miterlimit="10" d="M-189.896,385.925c-11.703-4.338-12.246,13.736-0.286,9.52
		C-178.47,399.763-177.938,381.71-189.896,385.925z"/>
</g>
<g>
	<path fill="#FFFFFF" d="M67.827,252.689c-11.695-4.338-12.248,13.735-0.28,9.52C79.252,266.527,79.784,248.473,67.827,252.689z"/>
	<path fill="none" stroke="#1C6030" stroke-miterlimit="10" d="M67.827,252.689c-11.695-4.338-12.248,13.735-0.28,9.52
		C79.252,266.527,79.784,248.473,67.827,252.689z"/>
</g>
<g>
	<path fill="#FFFFFF" d="M151.086,232.392c-11.706-4.338-12.238,13.735-0.28,9.52C162.52,246.25,163.052,228.176,151.086,232.392z"
		/>
	<path fill="none" stroke="#1C6030" stroke-miterlimit="10" d="M151.086,232.392c-11.706-4.338-12.238,13.735-0.28,9.52
		C162.52,246.25,163.052,228.176,151.086,232.392z"/>
</g>
<g>
	<path fill="#FFFFFF" d="M137.335,270.967c-11.706-4.333-12.238,13.72-0.279,9.509C148.76,284.81,149.303,266.736,137.335,270.967z"
		/>
	<path fill="none" stroke="#1C6030" stroke-miterlimit="10" d="M137.335,270.967c-11.706-4.333-12.238,13.72-0.279,9.509
		C148.76,284.81,149.303,266.736,137.335,270.967z"/>
</g>
<g>
	<path fill="#FFFFFF" d="M180.107,258.736c-11.713-4.338-12.244,13.734-0.28,9.52C191.524,272.573,192.067,254.52,180.107,258.736z"
		/>
	<path fill="none" stroke="#1C6030" stroke-miterlimit="10" d="M180.107,258.736c-11.713-4.338-12.244,13.734-0.28,9.52
		C191.524,272.573,192.067,254.52,180.107,258.736z"/>
</g>
<g>
	<path fill="#FFFFFF" d="M225.031,249.189c-11.705-4.338-12.237,13.735-0.281,9.52C236.455,263.046,236.987,244.973,225.031,249.189
		z"/>
	<path fill="none" stroke="#1C6030" stroke-miterlimit="10" d="M225.031,249.189c-11.705-4.338-12.237,13.735-0.281,9.52
		C236.455,263.046,236.987,244.973,225.031,249.189z"/>
</g>
<g>
	<path fill="#FFFFFF" d="M107.568,241.72c-11.713-4.338-12.246,13.735-0.28,9.52C118.995,255.578,119.527,237.504,107.568,241.72z"
		/>
	<path fill="none" stroke="#1C6030" stroke-miterlimit="10" d="M107.568,241.72c-11.713-4.338-12.246,13.735-0.28,9.52
		C118.995,255.578,119.527,237.504,107.568,241.72z"/>
</g>
<polygon fill="#BE2026" stroke="#FFFEF9" stroke-miterlimit="10" points="169.729,72.969 300.449,102.703 162.644,135.109 
	30.09,104.953 "/>
<polygon fill="#BE2026" stroke="#FFFEF9" stroke-miterlimit="10" points="152.081,227.56 282.8,257.294 144.995,289.702 
	12.449,259.544 "/>
<polygon stroke="#FFFEF9" stroke-miterlimit="10" points="162.644,135.109 144.995,289.702 12.449,259.544 30.09,104.953 "/>
<polygon stroke="#FFFEF9" stroke-miterlimit="10" points="300.449,102.703 282.8,257.294 144.995,289.702 162.644,135.109 "/>
<path fill="#BE2026" stroke="#FFFEF9" stroke-miterlimit="10" d="M181.776,1.701"/>
<polygon stroke="#FFFEF9" stroke-miterlimit="10" points="169.729,72.969 30.09,104.953 162.644,135.109 300.449,102.703 "/>
<g>
	<path fill="#FFFFFF" d="M190.985,164.855c-11.701-4.338-12.244,13.736-0.285,9.52C202.403,178.693,202.946,160.64,190.985,164.855z
		"/>
	<path fill="none" stroke="#1C6030" stroke-miterlimit="10" d="M190.985,164.855c-11.701-4.338-12.244,13.736-0.285,9.52
		C202.403,178.693,202.946,160.64,190.985,164.855z"/>
</g>
<g>
	<path fill="#FFFFFF" d="M251.712,148.5c-11.711-4.343-12.244,13.75-0.285,9.529C263.13,162.351,263.673,144.3,251.712,148.5z"/>
	<path fill="none" stroke="#1C6030" stroke-miterlimit="10" d="M251.712,148.5c-11.711-4.343-12.244,13.75-0.285,9.529
		C263.13,162.351,263.673,144.3,251.712,148.5z"/>
</g>
<g>
	<path fill="#FFFFFF" d="M194.542,233.855c-11.715-4.318-12.248,13.756-0.285,9.52C205.978,247.714,206.509,229.64,194.542,233.855z
		"/>
	<path fill="none" stroke="#1C6030" stroke-miterlimit="10" d="M194.542,233.855c-11.715-4.318-12.248,13.756-0.285,9.52
		C205.978,247.714,206.509,229.64,194.542,233.855z"/>
</g>
<g>
	<path fill="#FFFFFF" d="M249.423,225.855c-11.701-4.338-12.254,13.736-0.291,9.52C260.841,239.693,261.384,221.64,249.423,225.855z
		"/>
	<path fill="none" stroke="#1C6030" stroke-miterlimit="10" d="M249.423,225.855c-11.701-4.338-12.254,13.736-0.291,9.52
		C260.841,239.693,261.384,221.64,249.423,225.855z"/>
</g>
<g>
	<path fill="#FFFFFF" d="M51.715,136.576c-11.707-4.339-12.238,13.756-0.281,9.521C63.139,150.435,63.68,132.36,51.715,136.576z"/>
	<path fill="none" stroke="#1C6030" stroke-miterlimit="10" d="M51.715,136.576c-11.707-4.339-12.238,13.756-0.281,9.521
		C63.139,150.435,63.68,132.36,51.715,136.576z"/>
</g>
<g>
	<path fill="#FFFFFF" d="M126.916,152.121c-11.703-4.338-12.246,13.736-0.291,9.52C138.342,165.98,138.875,147.906,126.916,152.121z
		"/>
	<path fill="none" stroke="#1C6030" stroke-miterlimit="10" d="M126.916,152.121c-11.703-4.338-12.246,13.736-0.291,9.52
		C138.342,165.98,138.875,147.906,126.916,152.121z"/>
</g>
<g>
	<path fill="#FFFFFF" d="M78.26,186.373c-11.705-4.322-12.236,13.73-0.279,9.531C89.686,200.226,90.217,182.154,78.26,186.373z"/>
	<path fill="none" stroke="#1C6030" stroke-miterlimit="10" d="M78.26,186.373c-11.705-4.322-12.236,13.73-0.279,9.531
		C89.686,200.226,90.217,182.154,78.26,186.373z"/>
</g>
<g>
	<path fill="#FFFFFF" d="M36.246,233.089c-11.707-4.338-12.238,13.736-0.281,9.52C47.67,246.949,48.211,228.875,36.246,233.089z"/>
	<path fill="none" stroke="#1C6030" stroke-miterlimit="10" d="M36.246,233.089c-11.707-4.338-12.238,13.736-0.281,9.52
		C47.67,246.949,48.211,228.875,36.246,233.089z"/>
</g>
<g>
	<path fill="#FFFFFF" d="M115.525,252.792c-11.703-4.338-12.246,13.736-0.285,9.52C126.951,266.63,127.484,248.578,115.525,252.792z
		"/>
	<path fill="none" stroke="#1C6030" stroke-miterlimit="10" d="M115.525,252.792c-11.703-4.338-12.246,13.736-0.285,9.52
		C126.951,266.63,127.484,248.578,115.525,252.792z"/>
</g>
<g>
	<path fill="#FFFFFF" d="M86.439,99.498c-11.693-4.338-12.246,13.735-0.279,9.52C97.865,113.335,98.396,95.282,86.439,99.498z"/>
	<path fill="none" stroke="#1C6030" stroke-miterlimit="10" d="M86.439,99.498c-11.693-4.338-12.246,13.735-0.279,9.52
		C97.865,113.335,98.396,95.282,86.439,99.498z"/>
</g>
<g>
	<path fill="#FFFFFF" d="M169.698,79.201c-11.705-4.338-12.238,13.735-0.279,9.52C181.132,93.059,181.665,74.985,169.698,79.201z"/>
	<path fill="none" stroke="#1C6030" stroke-miterlimit="10" d="M169.698,79.201c-11.705-4.338-12.238,13.735-0.279,9.52
		C181.132,93.059,181.665,74.985,169.698,79.201z"/>
</g>
<g>
	<path fill="#FFFFFF" d="M155.948,117.776c-11.707-4.333-12.238,13.72-0.279,9.509C167.372,131.619,167.915,113.545,155.948,117.776
		z"/>
	<path fill="none" stroke="#1C6030" stroke-miterlimit="10" d="M155.948,117.776c-11.707-4.333-12.238,13.72-0.279,9.509
		C167.372,131.619,167.915,113.545,155.948,117.776z"/>
</g>
<g>
	<path fill="#FFFFFF" d="M198.72,105.544c-11.713-4.338-12.244,13.735-0.279,9.52C210.138,119.382,210.681,101.329,198.72,105.544z"
		/>
	<path fill="none" stroke="#1C6030" stroke-miterlimit="10" d="M198.72,105.544c-11.713-4.338-12.244,13.735-0.279,9.52
		C210.138,119.382,210.681,101.329,198.72,105.544z"/>
</g>
<g>
	<path fill="#FFFFFF" d="M243.644,95.998c-11.705-4.338-12.236,13.735-0.281,9.52C255.067,109.856,255.601,91.782,243.644,95.998z"
		/>
	<path fill="none" stroke="#1C6030" stroke-miterlimit="10" d="M243.644,95.998c-11.705-4.338-12.236,13.735-0.281,9.52
		C255.067,109.856,255.601,91.782,243.644,95.998z"/>
</g>
<g>
	<path fill="#FFFFFF" d="M126.182,88.529c-11.713-4.338-12.246,13.735-0.281,9.52C137.607,102.387,138.141,84.313,126.182,88.529z"
		/>
	<path fill="none" stroke="#1C6030" stroke-miterlimit="10" d="M126.182,88.529c-11.713-4.338-12.246,13.735-0.281,9.52
		C137.607,102.387,138.141,84.313,126.182,88.529z"/>
</g>
<g>
	<polygon fill="#BE2026" stroke="#FFFEF9" stroke-miterlimit="10" points="559.969,315.497 576.309,319.214 559.083,323.265 
		542.514,319.495 	"/>
	<polygon fill="#BE2026" stroke="#FFFEF9" stroke-miterlimit="10" points="557.763,334.821 574.103,338.538 556.877,342.589 
		540.309,338.819 	"/>
	<polygon stroke="#FFFEF9" stroke-miterlimit="10" points="559.083,323.265 556.877,342.589 540.309,338.819 542.514,319.495 	"/>
	<polygon stroke="#FFFEF9" stroke-miterlimit="10" points="576.309,319.214 574.103,338.538 556.877,342.589 559.083,323.265 	"/>
	<path fill="#BE2026" stroke="#FFFEF9" stroke-miterlimit="10" d="M561.475,306.589"/>
	<polygon stroke="#FFFEF9" stroke-miterlimit="10" points="559.969,315.497 542.514,319.495 559.083,323.265 576.309,319.214 	"/>
	<g>
		<path fill="#FFFFFF" d="M562.626,326.983c-1.463-0.543-1.531,1.717-0.036,1.189C564.053,328.713,564.121,326.456,562.626,326.983z
			"/>
		<path fill="none" stroke="#1C6030" stroke-miterlimit="10" d="M562.626,326.983c-1.463-0.543-1.531,1.717-0.036,1.189
			C564.053,328.713,564.121,326.456,562.626,326.983z"/>
	</g>
	<g>
		<path fill="#FFFFFF" d="M570.217,324.938c-1.464-0.543-1.531,1.719-0.036,1.191C571.644,326.67,571.712,324.414,570.217,324.938z"
			/>
		<path fill="none" stroke="#1C6030" stroke-miterlimit="10" d="M570.217,324.938c-1.464-0.543-1.531,1.719-0.036,1.191
			C571.644,326.67,571.712,324.414,570.217,324.938z"/>
	</g>
	<g>
		<path fill="#FFFFFF" d="M563.07,335.608c-1.465-0.54-1.531,1.72-0.036,1.189C564.5,337.341,564.566,335.081,563.07,335.608z"/>
		<path fill="none" stroke="#1C6030" stroke-miterlimit="10" d="M563.07,335.608c-1.465-0.54-1.531,1.72-0.036,1.189
			C564.5,337.341,564.566,335.081,563.07,335.608z"/>
	</g>
	<g>
		<path fill="#FFFFFF" d="M569.931,334.608c-1.463-0.543-1.532,1.717-0.036,1.189C571.357,336.338,571.426,334.081,569.931,334.608z
			"/>
		<path fill="none" stroke="#1C6030" stroke-miterlimit="10" d="M569.931,334.608c-1.463-0.543-1.532,1.717-0.036,1.189
			C571.357,336.338,571.426,334.081,569.931,334.608z"/>
	</g>
	<g>
		<path fill="#FFFFFF" d="M545.217,323.448c-1.463-0.542-1.53,1.72-0.035,1.19C546.645,325.181,546.713,322.921,545.217,323.448z"/>
		<path fill="none" stroke="#1C6030" stroke-miterlimit="10" d="M545.217,323.448c-1.463-0.542-1.53,1.72-0.035,1.19
			C546.645,325.181,546.713,322.921,545.217,323.448z"/>
	</g>
	<g>
		<path fill="#FFFFFF" d="M554.617,325.392c-1.463-0.542-1.531,1.717-0.037,1.189C556.045,327.124,556.112,324.864,554.617,325.392z
			"/>
		<path fill="none" stroke="#1C6030" stroke-miterlimit="10" d="M554.617,325.392c-1.463-0.542-1.531,1.717-0.037,1.189
			C556.045,327.124,556.112,324.864,554.617,325.392z"/>
	</g>
	<g>
		<path fill="#FFFFFF" d="M548.535,329.673c-1.463-0.54-1.529,1.717-0.035,1.191C549.963,331.404,550.029,329.146,548.535,329.673z"
			/>
		<path fill="none" stroke="#1C6030" stroke-miterlimit="10" d="M548.535,329.673c-1.463-0.54-1.529,1.717-0.035,1.191
			C549.963,331.404,550.029,329.146,548.535,329.673z"/>
	</g>
	<g>
		<path fill="#FFFFFF" d="M543.283,335.513c-1.463-0.543-1.53,1.717-0.035,1.189C544.711,337.245,544.779,334.985,543.283,335.513z"
			/>
		<path fill="none" stroke="#1C6030" stroke-miterlimit="10" d="M543.283,335.513c-1.463-0.543-1.53,1.717-0.035,1.189
			C544.711,337.245,544.779,334.985,543.283,335.513z"/>
	</g>
	<g>
		<path fill="#FFFFFF" d="M553.193,337.976c-1.463-0.543-1.531,1.717-0.036,1.189C554.621,339.705,554.688,337.448,553.193,337.976z
			"/>
		<path fill="none" stroke="#1C6030" stroke-miterlimit="10" d="M553.193,337.976c-1.463-0.543-1.531,1.717-0.036,1.189
			C554.621,339.705,554.688,337.448,553.193,337.976z"/>
	</g>
	<g>
		<path fill="#FFFFFF" d="M549.558,318.813c-1.462-0.542-1.531,1.717-0.035,1.19C550.985,320.543,551.052,318.286,549.558,318.813z"
			/>
		<path fill="none" stroke="#1C6030" stroke-miterlimit="10" d="M549.558,318.813c-1.462-0.542-1.531,1.717-0.035,1.19
			C550.985,320.543,551.052,318.286,549.558,318.813z"/>
	</g>
	<g>
		<path fill="#FFFFFF" d="M559.965,316.276c-1.463-0.542-1.53,1.717-0.035,1.19C561.394,318.008,561.461,315.749,559.965,316.276z"
			/>
		<path fill="none" stroke="#1C6030" stroke-miterlimit="10" d="M559.965,316.276c-1.463-0.542-1.53,1.717-0.035,1.19
			C561.394,318.008,561.461,315.749,559.965,316.276z"/>
	</g>
	<g>
		<path fill="#FFFFFF" d="M558.246,321.098c-1.463-0.542-1.53,1.715-0.035,1.188C559.674,322.829,559.742,320.569,558.246,321.098z"
			/>
		<path fill="none" stroke="#1C6030" stroke-miterlimit="10" d="M558.246,321.098c-1.463-0.542-1.53,1.715-0.035,1.188
			C559.674,322.829,559.742,320.569,558.246,321.098z"/>
	</g>
	<g>
		<path fill="#FFFFFF" d="M563.593,319.569c-1.464-0.542-1.531,1.717-0.035,1.19C565.02,321.299,565.088,319.042,563.593,319.569z"
			/>
		<path fill="none" stroke="#1C6030" stroke-miterlimit="10" d="M563.593,319.569c-1.464-0.542-1.531,1.717-0.035,1.19
			C565.02,321.299,565.088,319.042,563.593,319.569z"/>
	</g>
	<g>
		<path fill="#FFFFFF" d="M569.208,318.375c-1.463-0.542-1.529,1.717-0.035,1.19C570.636,320.108,570.702,317.849,569.208,318.375z"
			/>
		<path fill="none" stroke="#1C6030" stroke-miterlimit="10" d="M569.208,318.375c-1.463-0.542-1.529,1.717-0.035,1.19
			C570.636,320.108,570.702,317.849,569.208,318.375z"/>
	</g>
	<g>
		<path fill="#FFFFFF" d="M554.525,317.442c-1.464-0.542-1.531,1.717-0.035,1.19C555.953,319.174,556.021,316.915,554.525,317.442z"
			/>
		<path fill="none" stroke="#1C6030" stroke-miterlimit="10" d="M554.525,317.442c-1.464-0.542-1.531,1.717-0.035,1.19
			C555.953,319.174,556.021,316.915,554.525,317.442z"/>
	</g>
</g>
<g>
	<polygon fill="#BE2026" stroke="#FFFEF9" stroke-miterlimit="10" points="476.47,5.564 607.188,35.298 469.384,67.704 
		336.83,37.548 	"/>
	<polygon fill="#BE2026" stroke="#FFFEF9" stroke-miterlimit="10" points="458.821,160.155 589.54,189.89 451.735,222.296 
		319.189,192.14 	"/>
	<polygon stroke="#FFFEF9" stroke-miterlimit="10" points="469.384,67.704 451.735,222.296 319.189,192.14 336.83,37.548 	"/>
	<polygon stroke="#FFFEF9" stroke-miterlimit="10" points="607.188,35.298 589.54,189.89 451.735,222.296 469.384,67.704 	"/>
	<path fill="#BE2026" stroke="#FFFEF9" stroke-miterlimit="10" d="M488.517-65.705"/>
	<polygon stroke="#FFFEF9" stroke-miterlimit="10" points="476.47,5.564 336.83,37.548 469.384,67.704 607.188,35.298 	"/>
	<g>
		<path fill="#FFFFFF" d="M497.726,97.45c-11.701-4.338-12.244,13.736-0.285,9.52C509.144,111.288,509.687,93.235,497.726,97.45z"/>
		<path fill="none" stroke="#1C6030" stroke-miterlimit="10" d="M497.726,97.45c-11.701-4.338-12.244,13.736-0.285,9.52
			C509.144,111.288,509.687,93.235,497.726,97.45z"/>
	</g>
	<g>
		<path fill="#FFFFFF" d="M558.452,81.095c-11.711-4.343-12.244,13.75-0.285,9.529C569.87,94.946,570.413,76.895,558.452,81.095z"/>
		<path fill="none" stroke="#1C6030" stroke-miterlimit="10" d="M558.452,81.095c-11.711-4.343-12.244,13.75-0.285,9.529
			C569.87,94.946,570.413,76.895,558.452,81.095z"/>
	</g>
	<g>
		<path fill="#FFFFFF" d="M501.282,166.45c-11.715-4.318-12.248,13.756-0.285,9.52C512.718,180.31,513.249,162.235,501.282,166.45z"
			/>
		<path fill="none" stroke="#1C6030" stroke-miterlimit="10" d="M501.282,166.45c-11.715-4.318-12.248,13.756-0.285,9.52
			C512.718,180.31,513.249,162.235,501.282,166.45z"/>
	</g>
	<g>
		<path fill="#FFFFFF" d="M556.163,158.45c-11.701-4.338-12.254,13.736-0.291,9.52C567.581,172.288,568.124,154.235,556.163,158.45z
			"/>
		<path fill="none" stroke="#1C6030" stroke-miterlimit="10" d="M556.163,158.45c-11.701-4.338-12.254,13.736-0.291,9.52
			C567.581,172.288,568.124,154.235,556.163,158.45z"/>
	</g>
	<g>
		<path fill="#FFFFFF" d="M358.455,69.17c-11.707-4.339-12.238,13.756-0.281,9.521C369.879,83.03,370.42,64.955,358.455,69.17z"/>
		<path fill="none" stroke="#1C6030" stroke-miterlimit="10" d="M358.455,69.17c-11.707-4.339-12.238,13.756-0.281,9.521
			C369.879,83.03,370.42,64.955,358.455,69.17z"/>
	</g>
	<g>
		<path fill="#FFFFFF" d="M433.656,84.716c-11.703-4.338-12.246,13.736-0.291,9.52C445.082,98.575,445.615,80.501,433.656,84.716z"
			/>
		<path fill="none" stroke="#1C6030" stroke-miterlimit="10" d="M433.656,84.716c-11.703-4.338-12.246,13.736-0.291,9.52
			C445.082,98.575,445.615,80.501,433.656,84.716z"/>
	</g>
	<g>
		<path fill="#FFFFFF" d="M385,118.968c-11.705-4.322-12.236,13.73-0.279,9.531C396.426,132.821,396.957,114.749,385,118.968z"/>
		<path fill="none" stroke="#1C6030" stroke-miterlimit="10" d="M385,118.968c-11.705-4.322-12.236,13.73-0.279,9.531
			C396.426,132.821,396.957,114.749,385,118.968z"/>
	</g>
	<g>
		<path fill="#FFFFFF" d="M342.986,165.685c-11.707-4.338-12.238,13.736-0.281,9.52C354.41,179.544,354.951,161.47,342.986,165.685z
			"/>
		<path fill="none" stroke="#1C6030" stroke-miterlimit="10" d="M342.986,165.685c-11.707-4.338-12.238,13.736-0.281,9.52
			C354.41,179.544,354.951,161.47,342.986,165.685z"/>
	</g>
	<g>
		<path fill="#FFFFFF" d="M422.266,185.388c-11.703-4.338-12.246,13.736-0.285,9.52
			C433.691,199.226,434.225,181.173,422.266,185.388z"/>
		<path fill="none" stroke="#1C6030" stroke-miterlimit="10" d="M422.266,185.388c-11.703-4.338-12.246,13.736-0.285,9.52
			C433.691,199.226,434.225,181.173,422.266,185.388z"/>
	</g>
	<g>
		<path fill="#FFFFFF" d="M393.18,32.093c-11.693-4.338-12.246,13.735-0.279,9.52C404.605,45.93,405.137,27.877,393.18,32.093z"/>
		<path fill="none" stroke="#1C6030" stroke-miterlimit="10" d="M393.18,32.093c-11.693-4.338-12.246,13.735-0.279,9.52
			C404.605,45.93,405.137,27.877,393.18,32.093z"/>
	</g>
	<g>
		<path fill="#FFFFFF" d="M476.438,11.796c-11.705-4.338-12.238,13.735-0.279,9.52C487.872,25.654,488.405,7.58,476.438,11.796z"/>
		<path fill="none" stroke="#1C6030" stroke-miterlimit="10" d="M476.438,11.796c-11.705-4.338-12.238,13.735-0.279,9.52
			C487.872,25.654,488.405,7.58,476.438,11.796z"/>
	</g>
	<g>
		<path fill="#FFFFFF" d="M462.688,50.371c-11.707-4.333-12.238,13.72-0.279,9.509C474.112,64.213,474.655,46.14,462.688,50.371z"/>
		<path fill="none" stroke="#1C6030" stroke-miterlimit="10" d="M462.688,50.371c-11.707-4.333-12.238,13.72-0.279,9.509
			C474.112,64.213,474.655,46.14,462.688,50.371z"/>
	</g>
	<g>
		<path fill="#FFFFFF" d="M505.46,38.139c-11.713-4.338-12.244,13.735-0.279,9.52C516.878,51.977,517.421,33.924,505.46,38.139z"/>
		<path fill="none" stroke="#1C6030" stroke-miterlimit="10" d="M505.46,38.139c-11.713-4.338-12.244,13.735-0.279,9.52
			C516.878,51.977,517.421,33.924,505.46,38.139z"/>
	</g>
	<g>
		<path fill="#FFFFFF" d="M550.384,28.593c-11.705-4.338-12.236,13.735-0.281,9.52C561.808,42.451,562.341,24.377,550.384,28.593z"
			/>
		<path fill="none" stroke="#1C6030" stroke-miterlimit="10" d="M550.384,28.593c-11.705-4.338-12.236,13.735-0.281,9.52
			C561.808,42.451,562.341,24.377,550.384,28.593z"/>
	</g>
	<g>
		<path fill="#FFFFFF" d="M432.922,21.124c-11.713-4.338-12.246,13.735-0.281,9.52C444.348,34.982,444.881,16.908,432.922,21.124z"
			/>
		<path fill="none" stroke="#1C6030" stroke-miterlimit="10" d="M432.922,21.124c-11.713-4.338-12.246,13.735-0.281,9.52
			C444.348,34.982,444.881,16.908,432.922,21.124z"/>
	</g>
</g>
<path fill="#FFFEF9" d="M562.771,327.015c-0.807,0-0.807,1.25,0,1.25C563.576,328.265,563.576,327.015,562.771,327.015z"/>
<polygon fill="#BE2026" stroke="#FFFEF9" stroke-miterlimit="10" points="384.504,444.725 415.2,450.512 382.84,456.819 
	351.713,450.95 "/>
<polygon fill="#BE2026" stroke="#FFFEF9" stroke-miterlimit="10" points="380.359,474.813 411.056,480.602 378.696,486.908 
	347.57,481.039 "/>
<polygon stroke="#FFFEF9" stroke-miterlimit="10" points="382.84,456.819 378.696,486.908 347.57,481.039 351.713,450.95 "/>
<polygon stroke="#FFFEF9" stroke-miterlimit="10" points="415.2,450.512 411.056,480.602 378.696,486.908 382.84,456.819 "/>
<path fill="#BE2026" stroke="#FFFEF9" stroke-miterlimit="10" d="M387.333,430.854"/>
<polygon stroke="#FFFEF9" stroke-miterlimit="10" points="384.504,444.725 351.713,450.95 382.84,456.819 415.2,450.512 "/>
<g>
	<path fill="#FFFFFF" d="M403.756,459.426c-2.75-0.846-2.875,2.677-0.067,1.854C406.437,462.122,406.564,458.608,403.756,459.426z"
		/>
	<path fill="none" stroke="#1C6030" stroke-miterlimit="10" d="M403.756,459.426c-2.75-0.846-2.875,2.677-0.067,1.854
		C406.437,462.122,406.564,458.608,403.756,459.426z"/>
</g>
<g>
	<path fill="#FFFFFF" d="M390.331,476.039c-2.752-0.841-2.876,2.677-0.067,1.853C393.017,478.736,393.141,475.219,390.331,476.039z"
		/>
	<path fill="none" stroke="#1C6030" stroke-miterlimit="10" d="M390.331,476.039c-2.752-0.841-2.876,2.677-0.067,1.853
		C393.017,478.736,393.141,475.219,390.331,476.039z"/>
</g>
<g>
	<path fill="#FFFFFF" d="M375.87,460.048c-2.748-0.845-2.876,2.673-0.068,1.853C378.553,462.745,378.679,459.228,375.87,460.048z"/>
	<path fill="none" stroke="#1C6030" stroke-miterlimit="10" d="M375.87,460.048c-2.748-0.845-2.876,2.673-0.068,1.853
		C378.553,462.745,378.679,459.228,375.87,460.048z"/>
</g>
<g>
	<path fill="#FFFFFF" d="M364.616,467.783c-2.748-0.842-2.873,2.672-0.065,1.854C367.299,470.479,367.424,466.961,364.616,467.783z"
		/>
	<path fill="none" stroke="#1C6030" stroke-miterlimit="10" d="M364.616,467.783c-2.748-0.842-2.873,2.672-0.065,1.854
		C367.299,470.479,367.424,466.961,364.616,467.783z"/>
</g>
<g>
	<path fill="#FFFFFF" d="M353.159,475.89c-2.749-0.844-2.874,2.674-0.066,1.854C355.842,478.587,355.969,475.069,353.159,475.89z"/>
	<path fill="none" stroke="#1C6030" stroke-miterlimit="10" d="M353.159,475.89c-2.749-0.844-2.874,2.674-0.066,1.854
		C355.842,478.587,355.969,475.069,353.159,475.89z"/>
</g>
<g>
	<path fill="#FFFFFF" d="M364.946,449.888c-2.746-0.844-2.877,2.674-0.066,1.854C367.629,452.581,367.753,449.067,364.946,449.888z"
		/>
	<path fill="none" stroke="#1C6030" stroke-miterlimit="10" d="M364.946,449.888c-2.746-0.844-2.877,2.674-0.066,1.854
		C367.629,452.581,367.753,449.067,364.946,449.888z"/>
</g>
<g>
	<path fill="#FFFFFF" d="M384.497,445.938c-2.749-0.844-2.874,2.673-0.065,1.854C387.182,448.635,387.307,445.117,384.497,445.938z"
		/>
	<path fill="none" stroke="#1C6030" stroke-miterlimit="10" d="M384.497,445.938c-2.749-0.844-2.874,2.673-0.065,1.854
		C387.182,448.635,387.307,445.117,384.497,445.938z"/>
</g>
<g>
	<path fill="#FFFFFF" d="M381.268,453.446c-2.748-0.844-2.873,2.67-0.065,1.851C383.951,456.141,384.078,452.622,381.268,453.446z"
		/>
	<path fill="none" stroke="#1C6030" stroke-miterlimit="10" d="M381.268,453.446c-2.748-0.844-2.873,2.67-0.065,1.851
		C383.951,456.141,384.078,452.622,381.268,453.446z"/>
</g>
<g>
	<path fill="#FFFFFF" d="M391.313,451.064c-2.751-0.844-2.875,2.674-0.066,1.854C393.993,453.759,394.119,450.245,391.313,451.064z"
		/>
	<path fill="none" stroke="#1C6030" stroke-miterlimit="10" d="M391.313,451.064c-2.751-0.844-2.875,2.674-0.066,1.854
		C393.993,453.759,394.119,450.245,391.313,451.064z"/>
</g>
<g>
	<path fill="#FFFFFF" d="M401.861,449.207c-2.749-0.845-2.874,2.673-0.066,1.854C404.544,451.904,404.668,448.387,401.861,449.207z"
		/>
	<path fill="none" stroke="#1C6030" stroke-miterlimit="10" d="M401.861,449.207c-2.749-0.845-2.874,2.673-0.066,1.854
		C404.544,451.904,404.668,448.387,401.861,449.207z"/>
</g>
<g>
	<path fill="#FFFFFF" d="M374.278,447.753c-2.752-0.844-2.876,2.674-0.066,1.854C376.961,450.45,377.087,446.933,374.278,447.753z"
		/>
	<path fill="none" stroke="#1C6030" stroke-miterlimit="10" d="M374.278,447.753c-2.752-0.844-2.876,2.674-0.066,1.854
		C376.961,450.45,377.087,446.933,374.278,447.753z"/>
</g>
<polygon fill="#BE2026" stroke="#FFFEF9" stroke-miterlimit="10" points="388.875,414.908 419.571,420.695 387.211,427.003 
	356.084,421.134 "/>
<polygon fill="#BE2026" stroke="#FFFEF9" stroke-miterlimit="10" points="384.73,444.997 415.427,450.784 383.066,457.092 
	351.941,451.223 "/>
<polygon stroke="#FFFEF9" stroke-miterlimit="10" points="387.211,427.003 383.066,457.092 351.941,451.223 356.084,421.134 "/>
<polygon stroke="#FFFEF9" stroke-miterlimit="10" points="419.571,420.695 415.427,450.784 383.066,457.092 387.211,427.003 "/>
<polygon stroke="#FFFEF9" stroke-miterlimit="10" points="388.875,414.908 356.084,421.134 387.211,427.003 419.571,420.695 "/>
<g>
	<path fill="#FFFFFF" d="M393.866,432.792c-2.748-0.844-2.876,2.674-0.067,1.854C396.548,435.485,396.675,431.973,393.866,432.792z"
		/>
	<path fill="none" stroke="#1C6030" stroke-miterlimit="10" d="M393.866,432.792c-2.748-0.844-2.876,2.674-0.067,1.854
		C396.548,435.485,396.675,431.973,393.866,432.792z"/>
</g>
<g>
	<path fill="#FFFFFF" d="M408.126,429.609c-2.75-0.846-2.874,2.676-0.067,1.854C410.808,432.306,410.935,428.792,408.126,429.609z"
		/>
	<path fill="none" stroke="#1C6030" stroke-miterlimit="10" d="M408.126,429.609c-2.75-0.846-2.874,2.676-0.067,1.854
		C410.808,432.306,410.935,428.792,408.126,429.609z"/>
</g>
<g>
	<path fill="#FFFFFF" d="M394.701,446.222c-2.75-0.84-2.876,2.678-0.066,1.854C397.387,448.92,397.512,445.402,394.701,446.222z"/>
	<path fill="none" stroke="#1C6030" stroke-miterlimit="10" d="M394.701,446.222c-2.75-0.84-2.876,2.678-0.066,1.854
		C397.387,448.92,397.512,445.402,394.701,446.222z"/>
</g>
<g>
	<path fill="#FFFFFF" d="M407.588,444.665c-2.746-0.844-2.877,2.673-0.067,1.854C410.27,447.358,410.397,443.845,407.588,444.665z"
		/>
	<path fill="none" stroke="#1C6030" stroke-miterlimit="10" d="M407.588,444.665c-2.746-0.844-2.877,2.673-0.067,1.854
		C410.27,447.358,410.397,443.845,407.588,444.665z"/>
</g>
<g>
	<path fill="#FFFFFF" d="M361.162,427.288c-2.748-0.844-2.873,2.678-0.066,1.854C363.845,429.985,363.973,426.468,361.162,427.288z"
		/>
	<path fill="none" stroke="#1C6030" stroke-miterlimit="10" d="M361.162,427.288c-2.748-0.844-2.873,2.678-0.066,1.854
		C363.845,429.985,363.973,426.468,361.162,427.288z"/>
</g>
<g>
	<path fill="#FFFFFF" d="M378.821,430.313c-2.748-0.844-2.876,2.674-0.068,1.854C381.504,433.011,381.63,429.494,378.821,430.313z"
		/>
	<path fill="none" stroke="#1C6030" stroke-miterlimit="10" d="M378.821,430.313c-2.748-0.844-2.876,2.674-0.068,1.854
		C381.504,433.011,381.63,429.494,378.821,430.313z"/>
</g>
<g>
	<path fill="#FFFFFF" d="M367.396,436.981c-2.749-0.843-2.874,2.672-0.066,1.854C370.079,439.678,370.203,436.159,367.396,436.981z"
		/>
	<path fill="none" stroke="#1C6030" stroke-miterlimit="10" d="M367.396,436.981c-2.749-0.843-2.874,2.672-0.066,1.854
		C370.079,439.678,370.203,436.159,367.396,436.981z"/>
</g>
<g>
	<path fill="#FFFFFF" d="M357.53,446.073c-2.749-0.844-2.874,2.673-0.066,1.854C360.213,448.771,360.34,445.253,357.53,446.073z"/>
	<path fill="none" stroke="#1C6030" stroke-miterlimit="10" d="M357.53,446.073c-2.749-0.844-2.874,2.673-0.066,1.854
		C360.213,448.771,360.34,445.253,357.53,446.073z"/>
</g>
<g>
	<path fill="#FFFFFF" d="M376.146,449.908c-2.748-0.845-2.876,2.673-0.066,1.854C378.829,452.602,378.955,449.088,376.146,449.908z"
		/>
	<path fill="none" stroke="#1C6030" stroke-miterlimit="10" d="M376.146,449.908c-2.748-0.845-2.876,2.673-0.066,1.854
		C378.829,452.602,378.955,449.088,376.146,449.908z"/>
</g>
<g>
	<path fill="#FFFFFF" d="M369.316,420.071c-2.745-0.844-2.876,2.674-0.065,1.854C371.999,422.765,372.124,419.252,369.316,420.071z"
		/>
	<path fill="none" stroke="#1C6030" stroke-miterlimit="10" d="M369.316,420.071c-2.745-0.844-2.876,2.674-0.065,1.854
		C371.999,422.765,372.124,419.252,369.316,420.071z"/>
</g>
<g>
	<path fill="#FFFFFF" d="M388.867,416.121c-2.748-0.844-2.873,2.674-0.065,1.854C391.552,418.818,391.678,415.301,388.867,416.121z"
		/>
	<path fill="none" stroke="#1C6030" stroke-miterlimit="10" d="M388.867,416.121c-2.748-0.844-2.873,2.674-0.065,1.854
		C391.552,418.818,391.678,415.301,388.867,416.121z"/>
</g>
<g>
	<path fill="#FFFFFF" d="M385.639,423.63c-2.749-0.844-2.873,2.67-0.066,1.851C388.321,426.324,388.449,422.806,385.639,423.63z"/>
	<path fill="none" stroke="#1C6030" stroke-miterlimit="10" d="M385.639,423.63c-2.749-0.844-2.873,2.67-0.066,1.851
		C388.321,426.324,388.449,422.806,385.639,423.63z"/>
</g>
<g>
	<path fill="#FFFFFF" d="M395.683,421.249c-2.75-0.845-2.876,2.673-0.065,1.853C398.363,423.941,398.491,420.429,395.683,421.249z"
		/>
	<path fill="none" stroke="#1C6030" stroke-miterlimit="10" d="M395.683,421.249c-2.75-0.845-2.876,2.673-0.065,1.853
		C398.363,423.941,398.491,420.429,395.683,421.249z"/>
</g>
<g>
	<path fill="#FFFFFF" d="M406.231,419.391c-2.748-0.845-2.873,2.673-0.066,1.854C408.914,422.088,409.039,418.57,406.231,419.391z"
		/>
	<path fill="none" stroke="#1C6030" stroke-miterlimit="10" d="M406.231,419.391c-2.748-0.845-2.873,2.673-0.066,1.854
		C408.914,422.088,409.039,418.57,406.231,419.391z"/>
</g>
<g>
	<path fill="#FFFFFF" d="M378.649,417.937c-2.752-0.844-2.876,2.674-0.066,1.854C381.332,420.634,381.458,417.117,378.649,417.937z"
		/>
	<path fill="none" stroke="#1C6030" stroke-miterlimit="10" d="M378.649,417.937c-2.752-0.844-2.876,2.674-0.066,1.854
		C381.332,420.634,381.458,417.117,378.649,417.937z"/>
</g>
</svg>
