<?xml version="1.0" encoding="UTF-8" standalone="no"?>
<!-- Created with Inkscape (http://www.inkscape.org/) -->

<svg
   xmlns:dc="http://purl.org/dc/elements/1.1/"
   xmlns:cc="http://creativecommons.org/ns#"
   xmlns:rdf="http://www.w3.org/1999/02/22-rdf-syntax-ns#"
   xmlns:svg="http://www.w3.org/2000/svg"
   xmlns="http://www.w3.org/2000/svg"
   xmlns:sodipodi="http://sodipodi.sourceforge.net/DTD/sodipodi-0.dtd"
   xmlns:inkscape="http://www.inkscape.org/namespaces/inkscape"
   width="744.09448819"
   height="1052.3622047"
   id="svg2"
   version="1.1"
   inkscape:version="0.47 r22583"
   sodipodi:docname="New document 1">
  <defs
     id="defs4">
    <inkscape:perspective
       sodipodi:type="inkscape:persp3d"
       inkscape:vp_x="0 : 526.18109 : 1"
       inkscape:vp_y="0 : 1000 : 0"
       inkscape:vp_z="744.09448 : 526.18109 : 1"
       inkscape:persp3d-origin="372.04724 : 350.78739 : 1"
       id="perspective10" />
  </defs>
  <sodipodi:namedview
     id="base"
     pagecolor="#ffffff"
     bordercolor="#666666"
     borderopacity="1.0"
     inkscape:pageopacity="0.0"
     inkscape:pageshadow="2"
     inkscape:zoom="0.35"
     inkscape:cx="375"
     inkscape:cy="520"
     inkscape:document-units="px"
     inkscape:current-layer="layer1"
     showgrid="false"
     inkscape:window-width="1377"
     inkscape:window-height="784"
     inkscape:window-x="0"
     inkscape:window-y="0"
     inkscape:window-maximized="0" />
  <metadata
     id="metadata7">
    <rdf:RDF>
      <cc:Work
         rdf:about="">
        <dc:format>image/svg+xml</dc:format>
        <dc:type
           rdf:resource="http://purl.org/dc/dcmitype/StillImage" />
        <dc:title></dc:title>
      </cc:Work>
    </rdf:RDF>
  </metadata>
  <g
     inkscape:label="Layer 1"
     inkscape:groupmode="layer"
     id="layer1">
    <path
       style="fill:#000000;stroke-width:0.1;stroke-miterlimit:4;stroke-dasharray:none"
       id="path2816"
       d="m -1034.4546,967.00709 c -3.8443,-25.88916 -10.0009,-51.33441 -17.2552,-76.45565 -6.5848,-23.97943 -7.9057,-48.90656 -9.7746,-73.5769 -0.19,-2.36256 -0.3697,-4.72596 -0.57,-7.08766 -0.141,-1.66206 -0.4205,-5.01281 -0.7109,-6.97496 -0.083,-0.55785 -0.813,-1.40693 -0.3106,-1.66305 46.5472,-23.72848 39.1058,-37.1918 47.6175,-19.28057 2.1572,6.13385 5.9674,11.05611 9.7676,16.22626 4.7379,7.48968 7.09115,16.04279 12.25918,23.26039 3.6145,6.24057 8.77096,11.20211 14.66229,15.26813 5.77935,4.16716 12.42071,6.70339 19.37149,8.05554 5.49454,1.19233 10.85328,2.78931 16.27119,4.27527 0,0 -41.66716,28.5755 -41.66716,28.5755 l 0,0 c -5.34429,-1.51336 -10.70962,-2.9018 -16.13519,-4.0972 -7.4104,-1.96832 -14.4884,-5.04636 -20.6595,-9.66956 -6.073,-4.71967 -11.484,-10.0572 -15.3041,-16.82141 -4.9604,-7.29683 -7.7578,-15.52837 -12.3395,-23.03697 -4.0245,-5.37238 -8.0294,-10.58924 -10.4631,-16.91693 -8.5581,-17.16139 -1.3558,-1.08515 43.143,-27.31065 0.2752,-0.1622 -0.8261,-0.38283 -0.9541,-0.0902 -0.3491,0.79788 -0.1189,1.73812 -0.1478,2.60855 -0.053,1.59548 -0.088,3.19174 -0.098,4.78807 -0.015,2.43863 0.016,4.87733 0.024,7.316 0.6427,24.52487 2.4473,49.14621 8.66,72.97522 6.4744,25.19947 12.11753,50.60716 19.29817,75.61977 0,0 -44.68497,24.01298 -44.68497,24.01298 z" />
    <path
       sodipodi:type="arc"
       style="fill:#000000;stroke-width:0.1;stroke-miterlimit:4;stroke-dasharray:none"
       id="path2820"
       sodipodi:cx="-624.28571"
       sodipodi:cy="313.79074"
       sodipodi:rx="192.85715"
       sodipodi:ry="30"
       d="m -431.42856,313.79074 a 192.85715,30 0 1 1 -385.71429,0 192.85715,30 0 1 1 385.71429,0 z"
       transform="matrix(0.8,0,0,1,885.14287,434.28572)" />
    <path
       style="fill:#000000;stroke-width:0.1;stroke-miterlimit:4;stroke-dasharray:none"
       id="path2824"
       d="m -648.38904,938.66606 c 0.61666,-15.24977 0.56862,-30.51707 0.85219,-45.77518 0.0826,-21.40373 -0.24173,-42.81484 2.5019,-64.07537 0.39356,-2.58735 0.78713,-5.1747 1.1807,-7.76205 0,0 44.63572,-21.8156 44.63572,-21.8156 l 0,0 c -0.47415,2.58106 -0.94831,5.16211 -1.42246,7.74317 -3.28792,21.07019 -3.87159,42.36852 -3.25073,63.67155 0.28356,14.96859 0.22875,29.94696 0.85219,44.90675 0,0 -45.34951,23.10673 -45.34951,23.10673 z" />
    <path
       style="fill:#000000;stroke-width:0.1;stroke-miterlimit:4;stroke-dasharray:none"
       id="path2826"
       d="m -634.99953,925.2142 c 13.07817,-11.87802 23.90307,-25.92948 33.50709,-40.68935 6.98165,-9.57794 11.1136,-20.44879 13.84713,-31.87578 1.12475,-6.07488 0.6356,-3.046 1.47285,-9.08576 0,0 45.18116,-22.31772 45.18116,-22.31772 l 0,0 c -0.71524,6.38161 -0.26041,3.18123 -1.37275,9.59996 -2.62219,11.9802 -6.14466,23.87681 -13.74592,33.74514 -9.46878,14.75575 -20.10047,28.66949 -31.99371,41.56336 0,0 -46.89585,19.06015 -46.89585,19.06015 z" />
    <path
       style="fill:#000000;stroke-width:0.1;stroke-miterlimit:4;stroke-dasharray:none"
       id="path2828"
       d="m -635.22558,934.0857 c -14.27965,-6.21292 -24.57583,-18.3239 -34.42946,-29.94803 -10.00035,-11.06874 -18.67036,-23.25359 -27.00974,-35.59609 -1.54587,-1.69078 -2.67798,-3.69237 -4.08626,-5.48556 -0.42155,-0.53676 -0.74076,-1.25969 -1.37158,-1.52024 -0.2722,-0.11243 -0.64936,0.93419 -0.39141,0.79208 44.84934,-24.70935 42.03497,-41.63079 44.3704,-22.44633 5.11341,13.97263 12.99819,26.70304 21.15908,39.0681 4.94453,8.30482 11.26467,15.57 19.11236,21.20166 4.64607,2.86088 10.01827,3.00946 15.30533,3.14165 2.77817,0.0369 5.55653,0.007 8.33464,-0.0159 0,0 -41.09573,29.86249 -41.09573,29.86249 l 0,0 c -2.84398,-0.0187 -5.69034,-0.0242 -8.5289,-0.22931 -6.09748,-0.57796 -11.94966,-1.85164 -16.88106,-5.74551 -7.79932,-6.48752 -14.26729,-14.21759 -19.17532,-23.13859 -8.21006,-12.93504 -16.00098,-26.12903 -22.79716,-39.8694 -7.61759,-19.33034 -3.24847,-4.9015 42.72166,-30.32536 0.71812,-0.39715 4.50096,5.845 4.66764,6.09318 0.72158,1.07438 1.4578,2.13885 2.18669,3.20827 7.60889,12.48792 15.67006,24.7707 25.50498,35.64819 9.80154,10.94723 20.13176,22.31483 34.52964,26.94996 0,0 -42.1258,28.35476 -42.1258,28.35476 z" />
    <path
       style="fill:#000000;stroke-width:0.1;stroke-miterlimit:4;stroke-dasharray:none"
       id="path2830"
       d="m -379.78377,1086.8785 c 0.62032,-12.5602 0.25077,-25.1368 0.45473,-37.7052 0.10522,-16.2672 0.76999,-32.5837 -0.29139,-48.8327 -5.82508,-16.57028 -2.05893,-4.87348 45.15234,-21.70689 1.45838,-0.52 -0.1627,3.09258 -0.21186,4.64012 -0.1948,6.13255 -0.17938,12.2698 -0.16804,18.40437 0.26968,8.5117 -0.38946,17.0807 0.94889,25.5181 1.00351,4.5072 4.93965,4.3444 8.8031,4.5912 1.6405,-0.782 3.58494,-0.3713 5.24839,-1.009 0.93778,-0.3595 3.41728,-2.1097 2.54045,-1.62 -13.58393,7.5874 -26.92922,15.6081 -40.66595,22.9152 -1.38608,0.7374 2.44523,-1.988 3.50404,-3.1472 1.27165,-1.3923 2.30595,-2.984 3.45893,-4.476 7.08816,-11.5941 11.87977,-24.4108 15.9629,-37.3199 2.8717,-10.32215 4.0116,-21.0477 5.29558,-31.66203 3.36935,-34.19883 -7.92993,-15.6164 46.68523,-41.02365 -2.02193,17.86722 -3.87829,35.78246 -6.90578,53.51277 -3.03888,16.37061 -6.71178,32.66991 -11.6401,48.58151 -2.98337,9.1083 -7.55577,17.3835 -13.44645,24.8865 -14.91126,17.2099 -36.24503,31.7877 -59.12569,34.3326 -0.48767,0.029 -5.28435,0.3447 -5.78426,0.249 -4.69807,-0.8992 -10.54645,-4.9756 -14.47326,-7.3511 -14.86777,-10.6365 -28.908,-22.4888 -40.507,-36.6555 -1.52525,-2.3407 -3.36859,-4.5026 -4.57576,-7.0221 -2.88727,-6.0261 -5.55685,-16.526 -7.12877,-22.7734 -3.07188,-12.2087 -5.52849,-24.55104 -7.95919,-36.8985 -5.70473,-29.22236 -13.45708,-21.24451 41.61287,-37.30449 2.17295,-0.63369 1.30887,4.33449 2.03607,6.47795 1.00073,2.94974 2.09783,5.8659 3.14675,8.79885 8.81708,20.69645 16.87323,41.69579 25.36295,62.52339 3.62714,9.495 7.83094,18.9956 15.89258,25.4604 1.67849,0.7686 4.78284,3.335 6.89849,2.2455 0.60815,-0.3132 1.78616,-2.0003 1.18359,-1.6765 -41.14342,22.11 -52.22321,35.9325 -39.84692,21.1347 3.76657,-8.3758 4.03581,-17.7096 4.50433,-26.7336 1.02262,-12.3588 -0.62873,-24.6237 -1.52868,-36.9195 -1.07243,-12.41829 -2.70325,-24.77305 -3.5306,-37.21221 -1.48951,-8.01607 1.40356,-17.36245 0.36877,-25.22327 15.40555,-7.08618 30.29974,-15.41074 46.21665,-21.25855 1.32364,-0.4863 0.13326,2.81806 0.1376,4.22819 0.007,2.2719 -0.084,4.54311 -0.10358,6.81493 -0.0718,8.3413 -0.0299,16.6831 0.0425,25.0241 0.9599,9.54525 -1.99867,20.73275 3.17589,29.4027 3.72099,5.71576 8.17476,10.76831 11.21184,16.91351 0.38243,1.0162 0.74414,2.0404 1.14729,3.0486 0.51808,1.2956 0.62005,3.1597 1.89164,3.7341 0.28931,0.1308 0.38047,-1.0889 0.0963,-0.9475 -44.17821,21.9912 -50.01531,37.8473 -42.37387,19.5351 0.4455,-1.1283 0.891,-2.2567 1.3365,-3.3851 0,0 45.88049,-21.3748 45.88049,-21.3748 l 0,0 c -0.39713,1.1616 -0.79426,2.3232 -1.19139,3.4848 -8.32961,21.5516 -45.45029,47.3976 -50.91644,20.9397 -2.84214,-6.1187 -7.49317,-10.9204 -11.00098,-16.6412 -5.61196,-10.2717 -3.16256,-20.90578 -3.42133,-32.18243 -0.002,-8.25707 0.003,-16.52254 -0.34586,-24.77443 -0.0901,-2.1306 -0.24392,-4.25808 -0.38583,-6.38585 -0.073,-1.09497 -1.20167,-2.72017 -0.259,-3.28201 14.74923,-8.79073 30.4575,-15.86214 45.68625,-23.79321 -0.28025,-0.0337 -0.66699,-0.32367 -0.84076,-0.10122 -2.50024,3.20078 -1.79132,18.96645 -1.75499,23.16273 0.66268,12.42761 1.75072,24.82807 3.44436,37.16095 1.00867,12.4701 2.22374,24.91667 1.63926,37.45137 -0.0341,9.5711 -0.1625,19.1654 -2.99417,28.4117 -6.32907,22.3578 -38.81071,41.0824 -57.40157,25.9963 -8.15275,-7.5373 -12.41028,-17.89 -15.91635,-28.2588 -7.88475,-21.0754 -15.66323,-42.1766 -25.4106,-62.49312 -1.22305,-2.87123 -2.44572,-5.74263 -3.66914,-8.6137 -0.91558,-2.14861 -4.52714,-4.93242 -2.74786,-6.44536 49.20947,-41.84342 41.32975,-39.43989 45.88678,-9.91852 2.04587,12.32187 4.28063,24.52298 7.53296,36.59824 1.77791,6.60106 4.09296,14.78406 7.2422,21.01436 1.18079,2.3361 2.83957,4.398 4.25935,6.597 11.13349,13.8494 24.65351,25.5911 39.93091,34.7178 6.35689,3.0842 11.71538,5.8995 18.83202,3.861 16.31301,-4.6223 39.36368,-22.2918 -35.82821,21.9968 -0.87214,0.5137 1.86833,-0.7956 2.7371,-1.3149 2.54404,-1.5209 3.10592,-2.3565 5.23029,-4.4769 5.77627,-7.357 11.55572,-14.541 14.69975,-23.56 5.62872,-15.665 9.27745,-31.9781 12.62962,-48.2606 3.22776,-17.0562 5.18122,-34.37686 5.75814,-51.72902 58.80211,-32.31186 46.33739,-41.14148 44.80881,-19.86036 -0.36569,5.09118 -0.49046,10.20321 -1.1399,15.27246 -1.1813,10.91227 -2.41115,21.90548 -4.98052,32.58165 -4.18846,13.22757 -9.21294,26.18417 -15.27223,38.67327 -0.36948,0.5872 -5.41788,8.7232 -5.86122,9.0042 -13.32701,8.4447 -34.92274,29.6095 -55.81123,27.6393 -5.83454,-1.2806 -10.47938,-3.9604 -12.07454,-10.1282 -1.41764,-8.805 -0.63872,-17.6701 -0.67817,-26.5592 0.0112,-6.0773 0.0314,-12.158 -0.16804,-18.2331 -0.0484,-1.4757 -1.44268,-3.6088 -0.21185,-4.4243 14.49746,-9.60447 30.16548,-17.32161 45.47816,-25.56448 0.38168,-0.20545 -0.21721,0.83926 -0.32582,1.25889 -1.00146,16.3522 -0.44368,32.76099 -0.2914,49.12959 0.20485,12.4139 -0.17173,24.8365 0.45474,37.2418 0,0 -45.28183,23.0723 -45.28183,23.0723 z" />
    <path
       style="fill:#000000;stroke-width:0.1;stroke-miterlimit:4;stroke-dasharray:none"
       id="path2832"
       d="m -151.67863,983.91917 c -1.2929,24.17323 -1.42617,48.33703 0.14152,72.49113 1.93805,18.1416 5.53108,36.3213 14.11944,52.606 1.57783,2.9918 3.57837,5.7408 5.36756,8.6112 0,0 -42.49201,24.6162 -42.49201,24.6162 l 0,0 c -1.78106,-3.1084 -3.75792,-6.1126 -5.34317,-9.3254 -8.40301,-17.0299 -12.15597,-35.7061 -14.15492,-54.4624 -1.90721,-23.8055 -1.87256,-47.6469 -2.85259,-71.499 0,0 45.21417,-23.03773 45.21417,-23.03773 z" />
    <path
       style="fill:#000000;stroke-width:0.1;stroke-miterlimit:4;stroke-dasharray:none"
       id="path2834"
       d="m -83.543619,1029.6325 c -9.688546,15.7975 -20.260861,31.0219 -29.821781,46.9056 0,0 -45.05295,19.9471 -45.05295,19.9471 l 0,0 c 9.35768,-15.3756 19.55535,-30.2293 28.48282,-45.8636 0,0 46.391911,-20.9891 46.391911,-20.9891 z" />
    <path
       style="fill:#000000;stroke-width:0.1;stroke-miterlimit:4;stroke-dasharray:none"
       id="path2836"
       d="m -179.68227,1131.5158 c 1.16565,-18.2461 4.79178,-36.192 7.76272,-54.1966 2.97026,-20.0475 4.59473,-40.2664 6.58588,-60.4281 0,0 44.05685,-21.85 44.05685,-21.85 l 0,0 c -2.3959,20.1734 -3.53156,40.4742 -6.23988,60.5923 -3.09451,17.5163 -7.1337,35.0315 -7.08674,52.9136 0,0 -45.07883,22.9688 -45.07883,22.9688 z" />
    <path
       style="fill:#000000;stroke-width:0.1;stroke-miterlimit:4;stroke-dasharray:none"
       id="path2838"
       d="m -187.46583,1151.5162 c 7.72416,-16.3586 16.46206,-32.1424 25.6026,-47.7431 7.52407,-12.4847 14.67063,-25.1878 21.78484,-37.9082 0,0 44.034841,-19.6673 44.034841,-19.6673 l 0,0 c -7.099411,12.5777 -14.186101,25.1625 -21.284231,37.7409 -8.60428,15.2137 -17.61784,30.2826 -23.90086,46.6586 0,0 -46.23719,20.9191 -46.23719,20.9191 z" />
    <path
       style="fill:#000000;stroke-width:0.1;stroke-miterlimit:4;stroke-dasharray:none"
       id="path2840"
       d="m -192.63218,1154.1375 c -10.89934,-14.4858 -23.3859,-27.6692 -34.85162,-41.6972 -4.16672,-4.1557 -7.83213,-8.7613 -11.5456,-13.3131 0,0 43.16777,-25.7844 43.16777,-25.7844 l 0,0 c 3.5837,4.6233 7.15426,9.2623 11.05393,13.6285 10.96502,14.4001 22.96091,27.9682 35.51233,41.0045 0,0 -43.33681,26.1617 -43.33681,26.1617 z" />
    <g
       id="g2966">
      <path
         d="m -269.42587,539.65788 c -3.04762,18.58354 -5.39009,37.94933 -1.79283,56.66963 3.19868,16.64606 6.48255,20.75571 13.91832,36.01435 11.75968,20.62152 28.03006,37.82619 44.68614,54.48507 0,0 -41.10503,25.07799 -41.10503,25.07799 l 0,0 c -16.25517,-17.5828 -32.32225,-35.50213 -44.35643,-56.36315 -7.89691,-15.65011 -11.42225,-20.12098 -15.17301,-37.21868 -4.0696,-18.55107 -2.20172,-37.72413 -1.54962,-56.48285 0,0 45.37246,-22.18236 45.37246,-22.18236 z"
         id="path2842"
         style="fill:#000000;stroke-width:0.1;stroke-miterlimit:4;stroke-dasharray:none" />
      <path
         d="m -313.1135,697.39389 c 20.22933,-27.21932 39.58494,-55.09548 59.14576,-82.80141 0,0 43.208,-18.73795 43.208,-18.73795 l 0,0 c -19.28307,26.66309 -38.61099,53.44714 -55.56627,81.6605 0,0 -46.78749,19.87886 -46.78749,19.87886 z"
         id="path2844"
         style="fill:#000000;stroke-width:0.1;stroke-miterlimit:4;stroke-dasharray:none" />
      <path
         d="m -285.42687,695.64099 c -38.96471,-22.9165 -73.42388,-52.64852 -108.50592,-80.93828 0,0 36.2542,-22.78468 36.2542,-22.78468 l 0,0 c 35.89286,28.19975 71.79795,57.96718 114.2196,75.92133 0,0 -41.96788,27.80163 -41.96788,27.80163 z"
         id="path2848"
         style="fill:#000000;stroke-width:0.1;stroke-miterlimit:4;stroke-dasharray:none" />
    </g>
    <path
       style="fill:#000000;stroke-width:0.1;stroke-miterlimit:4;stroke-dasharray:none"
       id="path2850"
       d="m -1121.7391,162.26628 c -17.3272,60.74251 -25.9279,123.34072 -32.6984,185.98739 0,0 -38.5888,19.12254 -38.5888,19.12254 l 0,0 c 7.1202,-61.35834 15.2704,-122.56815 26.317,-183.35968 0,0 44.9702,-21.75025 44.9702,-21.75025 z" />
    <path
       style="fill:#000000;stroke-width:0.1;stroke-miterlimit:4;stroke-dasharray:none"
       id="path2852"
       d="m -1078.0761,204.66025 c -15.4205,31.60148 -30.4354,63.36919 -44.7054,95.51121 0,0 -41.9544,19.18766 -41.9544,19.18766 l 0,0 c 14.0619,-30.82594 28.7495,-61.44492 40.7614,-93.14326 0,0 45.8984,-21.55561 45.8984,-21.55561 z" />
    <path
       style="fill:#000000;stroke-width:0.1;stroke-miterlimit:4;stroke-dasharray:none"
       id="path2854"
       d="m -1255.6145,160.76843 c 22.0161,16.93131 39.7476,38.5052 56.841,60.19286 12.1555,15.42257 32.1823,42.5634 43.9336,58.35616 25.1662,34.1708 13.1125,17.69393 36.1843,49.4137 0,0 -38.9275,22.92527 -38.9275,22.92527 l 0,0 c -21.7493,-32.41499 -10.2568,-15.65392 -34.5644,-50.22331 -30.6849,-41.4221 -61.3498,-85.92233 -106.0863,-113.37601 0,0 42.6193,-27.28867 42.6193,-27.28867 z" />
    <path
       style="fill:#000000;stroke-width:0.1;stroke-miterlimit:4;stroke-dasharray:none"
       id="path2856"
       d="m -1183.2764,131.42847 c -0.034,4.1063 -0.2994,8.21717 -0.1028,12.31891 0.8584,17.9092 3.0402,32.47423 5.8378,50.55229 4.7964,30.99316 6.5739,38.70011 12.5277,69.66595 0,0 -38.3491,20.48144 -38.3491,20.48144 l 0,0 c -4.4174,-22.24681 -9.2764,-46.8489 -13.7961,-69.10047 -4.0979,-20.1753 -6.5034,-29.99824 -9.5234,-49.22582 -0.6164,-3.92453 -0.9799,-7.88462 -1.4699,-11.82693 0,0 44.8758,-22.86537 44.8758,-22.86537 z" />
    <path
       style="fill:#000000;stroke-width:0.1;stroke-miterlimit:4;stroke-dasharray:none"
       id="path2858"
       d="m -1294.4278,509.24007 c 7.0998,35.70317 10.306,72.03524 16.4018,107.9187 1.4926,8.78617 3.2698,17.52159 4.9047,26.28238 3.3204,18.54418 8.3231,36.66297 13.8826,54.63052 0,0 -14.0879,7.70167 -14.0879,7.70167 l 0,0 c -5.2537,-18.19173 -9.9422,-36.52427 -13.1742,-55.20577 -5.5847,-30.86432 -4.3812,-23.03618 -9.2755,-55.08162 -3.9902,-26.12625 -6.8854,-52.54917 -13.4596,-78.19715 0,0 14.8081,-8.04873 14.8081,-8.04873 z" />
    <path
       style="fill:#000000;stroke-width:0.1;stroke-miterlimit:4;stroke-dasharray:none"
       id="path2860"
       d="m -1244.55,518.48057 c -6.6884,31.35501 -11.1323,63.15405 -15.484,94.90288 -2.7025,21.59379 -1.473,11.26769 -3.7201,30.97452 0,0 -14.4224,7.13265 -14.4224,7.13265 l 0,0 c 2.5044,-19.84168 1.1593,-9.45045 4.0554,-31.1711 4.3827,-31.54048 8.7163,-63.11703 14.4469,-94.44483 0,0 15.1242,-7.39412 15.1242,-7.39412 z" />
    <path
       style="fill:#000000;stroke-width:0.1;stroke-miterlimit:4;stroke-dasharray:none"
       id="path2862"
       d="m -1282.1295,685.35597 c -2.7024,-14.38895 -9.6993,-27.49737 -15.8119,-40.66754 -5.0073,-10.13976 -11.1576,-19.62524 -16.9376,-29.32215 -6.8888,-11.22805 -12.7307,-23.04082 -19.108,-34.5576 -4.8733,-9.70885 -11.9986,-14.42149 12.3409,-13.9585 2.0422,0.0388 2.0235,3.55143 2.9265,5.38347 1.1367,2.30637 2.1259,4.68258 3.1889,7.02386 5.8536,14.21123 11.1503,28.63083 18.3267,42.2371 1.1772,2.36461 9.1764,12.78241 12.3809,12.06156 0.8284,-0.18634 1.1866,-1.21475 1.7799,-1.82212 -4.1198,1.73616 -8.0043,6.21834 -12.3594,5.20847 -2.5566,-0.59281 1.5108,-5.03003 2.1117,-7.58469 0.7986,-3.395 1.4597,-6.82198 2.0842,-10.25327 1.963,-10.7857 3.2363,-21.651 4.4481,-32.53955 2.9021,-23.45825 4.0016,-47.08135 6.3329,-70.59496 0.3491,-3.02047 0.6736,-6.0439 1.0474,-9.06142 0.3905,-3.15329 0.9517,-7.35653 1.5672,-10.62433 0.1347,-0.71532 -0.194,-1.87961 0.4903,-2.12796 17.9478,-6.51435 15.7028,-8.14513 15.6329,3.22516 -2.5519,27.19264 -6.9828,54.16451 -10.482,81.24566 -1.7634,12.79173 -2.8237,25.64949 -3.1887,38.55227 -0.1383,8.48709 -0.1464,16.97768 -0.018,25.46503 0.1919,6.9367 0.7975,6.93349 -15.9236,7.35852 -1.7604,0.0448 -1.1134,-3.34133 -1.6811,-5.0083 -2.9436,-8.64436 -5.8503,-17.2982 -8.7253,-25.96581 -5.6835,-16.26005 -11.5974,-32.37563 -19.4192,-47.73468 -0.9225,-1.49064 -3.7793,-6.51215 -5.5096,-8.14828 -0.2671,-0.25256 -1.4059,-0.0575 -1.0793,-0.22619 4.7479,-2.45292 9.3497,-5.50092 14.5498,-6.73315 1.0398,-0.2464 0.2576,2.12613 0.5046,3.16577 0.3552,1.49472 0.8656,2.94823 1.2984,4.42235 5.6255,14.75443 11.3298,29.48488 17.2848,44.1106 4.0036,8.51471 1.9402,4.45897 6.1428,12.19126 0,0 -14.4599,8.28905 -14.4599,8.28905 l 0,0 c -4.1838,-7.88648 -2.1325,-3.75554 -6.1074,-12.41575 -5.9358,-14.67324 -11.6228,-29.44575 -17.5912,-44.10604 -0.7484,-2.32177 -2.608,-7.8177 -2.317,-8.1022 15.131,-14.79001 14.6615,-12.40718 21.6739,-0.6526 7.8283,15.4612 13.745,31.65594 19.3806,48.03344 2.9156,8.62736 5.8657,17.22498 9.0356,25.76229 0.6019,1.62115 2.883,3.50382 1.8117,4.86128 -3.6105,4.57475 -8.996,7.47201 -13.9579,10.52877 -0.5521,0.34015 0.017,-1.2969 0.025,-1.94535 0.044,-8.52393 -0.062,-17.04873 0.1049,-25.57189 0.3739,-13.04302 1.5616,-26.02715 3.5514,-38.92869 3.7819,-26.91133 8.325,-53.76963 10.2721,-80.89402 -0.072,-12.18258 -1.7947,-7.06145 14.5293,-18.06945 0.6002,-0.40471 -0.5128,1.35718 -0.69,2.05902 -0.3451,1.36723 -0.6224,2.75158 -0.8746,4.13898 -1.0717,5.89768 -1.453,9.44484 -2.2796,15.65679 -2.5162,23.49219 -3.4369,47.10837 -6.2444,70.57044 -1.2713,10.91734 -2.5842,21.82004 -4.4094,32.66249 -0.5764,3.42419 -1.2147,6.83805 -1.883,10.24548 -0.5152,2.62659 0.1094,5.85303 -1.6673,7.85491 -4.5056,5.07649 -10.8166,8.20286 -16.2249,12.30429 -0.9003,0.18638 -1.7895,0.67976 -2.7009,0.55913 -4.5376,-0.60053 -10.7001,-9.62921 -12.7568,-13.12994 -7.024,-13.71559 -12.2417,-28.19039 -18.2459,-42.37137 -1.0766,-2.28515 -2.0734,-4.60962 -3.2298,-6.85544 -0.9087,-1.76478 -3.9153,-3.42659 -2.9605,-5.16687 11.6445,-21.22485 11.7484,-11.99664 16.6823,-2.92518 6.2828,11.54339 12.008,23.39932 18.9927,34.54622 5.9113,9.6945 12.1586,19.19048 16.9798,29.50891 6.1205,13.33679 12.9753,26.56147 16.3708,40.9176 0,0 -15.0041,7.91512 -15.0041,7.91512 z" />
    <path
       style="fill:#000000;stroke-width:0.1;stroke-miterlimit:4;stroke-dasharray:none"
       id="path2864"
       d="m -1136.0733,677.79769 c 0.4836,-25.3891 0.383,-50.78594 0.2426,-76.17804 -0.1765,-20.57395 -0.5081,-41.19192 3.5835,-61.43884 2.4129,-8.70153 3.686,-10.02875 18.032,-10.76859 1.5187,-0.0783 0.3367,3.02996 0.322,4.55052 -0.026,2.68451 -1.0238,14.46207 -1.1704,16.29723 -1.7715,21.5574 -2.5081,43.17913 -2.9754,64.79821 0.1697,4.51573 -1.3039,20.17024 2.5925,23.652 1.51,1.34926 4.5488,-1.84381 4.9216,-2.12271 -3.3181,1.57409 -6.3009,5.09674 -9.9543,4.72225 -2.4339,-0.24948 3.5357,-3.38959 5.1671,-5.21296 5.8154,-6.5 10.0333,-14.71419 16.7957,-20.26691 5.2044,-1.64181 10.278,-6.07353 15.6131,-4.92542 2.6627,0.57303 -1.7216,5.17269 -2.7562,7.69227 -6.271,15.27258 -13.8537,30.1127 -22.0391,44.42811 -7.5504,11.55608 -23.0574,33.30117 -39.3382,28.69888 -2.0352,-0.5753 -3.8123,-1.83263 -5.7184,-2.74895 -2.0829,-1.75984 -4.3347,-3.33735 -6.2487,-5.27952 -5.4331,-5.51292 -8.6758,-10.70251 -12.9397,-17.20206 -5.963,-9.08961 -11.4373,-18.38521 -16.6667,-27.90855 -1.1761,-2.39453 -2.413,-4.76013 -3.5282,-7.1836 -1.5843,-3.44261 -2.6942,-7.09652 -4.3698,-10.49566 -0.2797,-0.56744 -1.6708,-1.18953 -1.133,-1.5226 15.585,-9.65107 12.8169,-11.5909 17.3102,-3.04291 9.5461,15.40292 18.7027,31.05857 28.5899,46.24597 3.8247,4.92672 8.1748,16.34579 16.3181,14.93371 1.1022,-0.19112 2.0728,-0.8419 3.1091,-1.26285 -3.8804,2.10455 -7.5032,4.7764 -11.6413,6.31365 -1.1954,0.44408 1.8725,-1.79107 2.4821,-2.91112 0.8952,-1.64475 1.4576,-3.46025 1.9666,-5.26233 2.1311,-7.54466 2.4151,-15.53771 2.9739,-23.30034 0.7141,-11.60099 0.5973,-24.2924 -6.18,-34.32974 -1.0582,-1.56737 -2.4381,-2.89173 -3.6571,-4.33759 -1.5335,-1.2171 -2.9873,-2.5419 -4.6004,-3.65129 -4.8967,-3.36759 -10.452,-5.73399 -15.4188,-9.00985 -4.7932,-3.16142 -5.3967,-3.90273 -9.6525,-7.55225 -3.5247,-2.79936 -5.5351,-6.83707 -8.3012,-10.25946 -0.2664,-0.32962 -1.3343,-0.64512 -0.9566,-0.83755 16.1581,-8.23391 13.6894,-10.99454 16.0451,-0.97766 5.3622,19.97014 11.8238,39.63675 18.382,59.24237 2.4694,5.18706 5.0832,18.09638 11.9189,19.82423 0.7037,0.17787 1.4438,-0.15195 2.1656,-0.22792 -4.0283,2.02384 -7.6127,5.50344 -12.0849,6.07151 -1.9148,0.24321 2.1663,-3.20628 3.0475,-4.92356 4.7866,-9.32892 7.7465,-19.70501 10.7039,-29.71582 3.329,-13.38919 10.6365,-24.69576 18.5088,-35.75469 6.3441,-8.6819 12.2346,-13.3712 24.1165,-15.66443 1.2217,-0.2358 -0.2777,2.50796 -0.7615,3.65432 -0.8569,2.03033 -2.1454,3.85008 -3.2181,5.77513 -9.9671,15.51768 -19.1862,31.31824 -26.6904,48.17223 -4.9668,7.86365 -4.543,18.5228 -9.872,26.12212 -5.5196,1.48041 -10.8446,4.36804 -16.5589,4.44123 -1.4508,0.0186 -0.7988,-2.79287 -1.0852,-4.21521 -0.4458,-2.21405 -0.7934,-4.44774 -1.1093,-6.68403 -1.3003,-9.20612 -1.9269,-18.48221 -2.6294,-27.74696 -0.2959,-2.8649 -0.5918,-5.7298 -0.8877,-8.5947 0,0 14.6261,-7.63825 14.6261,-7.63825 l 0,0 c 0.2835,2.88747 0.5669,5.77494 0.8504,8.66241 0.8318,11.36797 1.5572,22.8097 3.9486,33.98365 0.2835,1.32467 1.938,2.93733 1.0203,3.93383 -3.9109,4.24702 -9.3433,6.78487 -14.0149,10.1773 0.3855,-0.13177 0.8876,-0.0893 1.1566,-0.39531 4.3361,-4.93168 5.3791,-19.5802 9.5409,-25.16987 2.2006,-4.97311 4.7757,-10.98506 7.2626,-15.80946 5.7699,-11.19326 13.0579,-21.48373 19.2236,-32.44504 6.0296,-10.54923 4.3086,-7.91595 19.0736,-15.93853 0.9289,-0.50469 -1.7847,1.1475 -2.581,1.84274 -2.6214,2.28872 -3.8688,4.12692 -6.0707,6.8805 -2.2924,3.22369 -4.8006,6.2936 -7.0193,9.56844 -5.3253,7.86003 -9.0844,16.68891 -11.8402,25.74032 -2.3015,7.77294 -4.7296,15.46861 -7.6357,23.04235 -0.3858,1.00558 -4.7337,11.92939 -5.4054,12.45315 -5.284,4.11994 -11.5985,6.71195 -17.3978,10.06792 -9.6637,-1.86813 -11.6325,-13.81301 -14.755,-21.53929 -6.3164,-19.70121 -12.6255,-39.40866 -18.6282,-59.20677 -3.2854,-10.80685 -3.7632,-6.05952 13.1972,-15.88948 0.4359,-0.25268 0.6803,0.7464 0.9757,1.15466 1.8977,2.62306 2.2319,3.65728 4.4558,6.3052 1.083,1.28951 2.3098,2.45103 3.4647,3.67655 4.2785,3.6564 4.6208,4.18353 9.4758,7.33196 6.775,4.39357 14.4654,7.42837 20.343,13.12386 1.2666,1.54682 2.694,2.97485 3.7998,4.64046 6.8828,10.36787 7.2279,23.2608 6.4642,35.23467 -0.5113,7.89303 -0.8309,15.83617 -2.6024,23.57826 -0.4205,1.83763 -1.6432,7.62142 -3.8476,9.14349 -5.5382,3.82388 -11.6379,6.76262 -17.4568,10.14393 -1.1775,0.23329 -2.3321,0.70058 -3.5325,0.69985 -8.576,-0.005 -12.6905,-10.62019 -16.8567,-16.32146 -9.6792,-15.35961 -18.7291,-31.11835 -28.8012,-46.23356 -5.2044,-8.70406 -5.2732,-5.52982 11.898,-13.91249 0.6705,-0.32734 0.8357,1.24583 1.1352,1.9292 1.5084,3.44113 2.3239,7.16365 4.0995,10.49971 1.0665,2.41986 2.2594,4.78199 3.3892,7.17298 5.0979,9.54432 10.4521,18.82014 16.4562,27.83448 4.115,6.17802 7.5822,11.51254 12.9174,16.66652 1.8695,1.80597 4.0832,3.21767 6.1248,4.82651 1.8005,0.71875 3.4981,1.78852 5.4015,2.15623 4.4051,0.85097 16.1929,-3.87233 -4.6792,6.21208 -1.8669,0.90199 3.2613,-2.58135 4.6995,-4.07485 4.5126,-4.68634 7.1238,-8.98302 10.87,-14.38629 6.4709,-11.00863 12.1199,-22.20042 17.3977,-33.8348 1.5372,-3.38871 3.0298,-6.79801 4.4804,-10.22471 0.9527,-2.25053 0.9035,-5.17974 2.7286,-6.80495 4.4075,-3.9246 10.1122,-6.08749 15.1682,-9.13123 -0.9635,0.56102 -2.087,0.91014 -2.8906,1.68306 -5.5339,5.3225 -9.3397,12.55643 -14.3085,18.38865 -1.5784,1.85272 -3.03,3.88819 -4.9913,5.32939 -5.9841,4.39705 -12.4751,8.05877 -18.7127,12.08816 -1.2372,0.3978 -2.4124,1.22298 -3.7117,1.19342 -7.2423,-0.16476 -5.2906,-21.79664 -5.3203,-25.83265 0.6139,-21.63633 1.4535,-43.27118 2.9376,-64.86726 0.133,-2.01882 0.9077,-13.07404 0.9469,-15.93393 0.018,-1.33079 -1.1697,-3.07825 -0.1981,-3.98782 4.1965,-3.92854 9.6831,-6.19879 14.4735,-9.37613 1.4802,-0.98176 -12.7497,6.62297 -2.6757,4.60804 -4.7436,20.11294 -4.3068,40.73378 -4.0733,61.28529 -0.1392,25.30968 -0.2446,50.62425 0.2425,75.93087 0,0 -15.0037,7.64477 -15.0037,7.64477 z" />
    <path
       style="fill:#000000;stroke-width:0.1;stroke-miterlimit:4;stroke-dasharray:none"
       id="path2866"
       d="m -895.29889,530.90341 c -0.0493,9.18619 -0.82683,18.33348 1.08199,27.41236 1.88678,8.97413 3.69865,12.45285 7.10425,21.10543 4.363,9.86416 10.41721,18.79037 16.29088,27.78135 0,0 -14.1773,8.28039 -14.1773,8.28039 l 0,0 c -5.84115,-9.13539 -11.89649,-18.18541 -16.31993,-28.13081 -3.55017,-8.79759 -5.36626,-12.23266 -7.44427,-21.35358 -2.06649,-9.0703 -1.47036,-18.18321 -1.65212,-27.3929 0,0 15.1165,-7.70224 15.1165,-7.70224 z" />
    <path
       style="fill:#000000;stroke-width:0.1;stroke-miterlimit:4;stroke-dasharray:none"
       id="path2868"
       d="m -848.70291,541.89418 c -9.14102,20.46747 -18.99923,40.66885 -29.82942,60.29981 -5.48941,10.20392 -11.60495,20.34289 -20.67878,27.74557 -5.62103,2.99147 -10.95389,6.60245 -16.8631,8.9744 -0.77854,0.3125 -1.52768,-0.7614 -2.12146,-1.35402 -2.77943,-2.77405 -3.02699,-7.39284 -3.10846,-11.01715 1.80668,-10.74779 7.37147,-20.51203 12.14808,-30.19006 8.60935,-17.21521 14.51405,-35.65387 21.66323,-53.51035 1.2902,-3.02981 2.53581,-6.07899 3.8706,-9.08942 0.94276,-2.12627 6.30477,-12.92654 6.52811,-12.99983 18.10574,-5.94202 15.42269,-6.42294 11.56313,5.78972 -6.28732,19.62692 -11.32913,39.60419 -16.65777,59.50172 -2.29106,7.4195 -2.01475,16.63838 -8.6459,21.71061 -6.12603,2.74436 -11.91647,6.41451 -18.37809,8.23308 -1.62459,0.45723 -3.27487,-0.92219 -4.76182,-1.72052 -8.38418,-4.5014 -14.48897,-12.56234 -19.9014,-20.09837 -6.95528,-9.18699 -10.39763,-19.90257 -12.82096,-30.988 -2.5349,-5.95972 -2.43116,-4.66933 14.62343,-8.10062 1.25953,-0.25341 0.47765,2.52996 0.85233,3.75888 0.6656,2.18312 1.43353,4.33597 2.26383,6.46191 2.98991,7.65554 3.8979,9.04013 7.64152,16.56118 3.55267,7.35081 8.19786,13.96698 13.1816,20.38221 0,0 -14.293,8.49925 -14.293,8.49925 l 0,0 c -4.93632,-6.57032 -9.55138,-13.33135 -13.16892,-20.74755 -3.83136,-7.57036 -7.57807,-15.11421 -10.43308,-23.1214 -0.46084,-1.29249 -2.18563,-2.99486 -1.19126,-3.94045 4.23295,-4.02531 9.72711,-6.52664 14.94967,-9.14308 0.44653,-0.2237 0.2961,0.95396 0.44416,1.43095 2.0864,10.95121 5.47565,21.44625 12.24753,30.50153 4.21664,5.86288 8.51636,11.44108 14.33239,15.85639 1.61401,1.2253 3.3027,2.39386 5.14429,3.23939 1.40578,0.64544 5.39405,-0.0705 4.48735,1.1828 -2.6458,3.65716 -7.35216,5.2389 -11.02824,7.85835 0.79152,-0.36454 1.66732,-0.58449 2.37456,-1.09362 5.70906,-4.10978 4.5367,-13.89039 7.10349,-19.58923 5.55383,-19.8754 10.7604,-39.84468 16.75201,-59.59685 4.11073,-14.14629 0.55447,-8.77413 18.8207,-19.74404 0.67402,-0.40479 -0.81237,1.34638 -1.21528,2.02152 -0.86274,1.44562 -1.78846,2.85585 -2.58166,4.34076 -2.98761,5.59293 -4.71585,9.86952 -7.3426,15.82048 -4.87547,12.02936 -4.26425,10.25441 -8.82651,22.60955 -3.20933,8.69126 -5.95005,17.71249 -9.85342,26.13518 -0.7464,1.61058 -1.67874,3.12828 -2.51811,4.69243 -4.71418,9.4806 -10.08079,18.96576 -12.29827,29.40464 -0.0692,2.7179 -0.005,5.34602 1.19775,7.86854 0.25778,0.54069 0.55188,1.11044 1.02801,1.47388 0.37358,0.28516 1.74402,0.0749 1.36506,0.3528 -3.87884,2.84488 -8.16591,5.08651 -12.24886,7.62977 9.58884,-6.81282 15.70583,-17.24457 21.39388,-27.30844 11.00629,-19.37897 20.89973,-39.47276 29.52289,-60.01959 0,0 15.26677,-6.96471 15.26677,-6.96471 z" />
    <path
       style="fill:#000000;stroke-width:0.1;stroke-miterlimit:4;stroke-dasharray:none"
       id="path2870"
       d="m 129.67656,900.94281 c -2.3078,19.5423 -0.5866,39.20407 1.4358,58.68245 1.9207,12.56311 3.082,25.76588 8.4336,37.47789 7.8225,17.41205 2.4775,3.79785 -44.795903,25.14035 -0.2247,0.1015 -9.4173,-11.5909 -9.9425,-12.2661 -5.5873,-7.1137 -10.3068,-14.83072 -16.5296,-21.42087 -0.6549,-0.49194 -1.2623,-1.05452 -1.9648,-1.47581 -1.7859,-1.0711 -2.4711,-0.8728 -4.3577,-1.84503 -3.2438,-1.67164 -5.9819,-4.06867 -8.6907,-6.46378 -5.444,-5.15335 -10.1089,-10.9875 -14.7905,-16.80738 -16.8461,-4.35007 -7.3489,-1.73459 43.6821,-24.06415 1.2725,-0.55679 0.6049,2.713 0.9881,4.04806 0.588,2.04841 1.2491,4.07559 1.924,6.09703 2.0082,6.01539 3.1297,8.8536 5.3655,14.84077 4.0106,8.4645 6.8734,18.66327 14.716803,24.47023 3.9905,2.0503 8.6433,1.54897 12.9958,1.51186 5.7809,-0.0842 11.5617,-0.15529 17.3426,-0.23495 1.6712,-0.0257 3.3394,0.22513 4.8326,-0.79765 0.7408,-0.50747 2.608,-2.41691 1.8203,-1.98582 -13.57,7.42645 -26.6658,15.70339 -40.2863,23.03699 -1.0596,0.5705 1.693,-1.7174 2.4409,-2.6602 0.7825,-0.9863 1.426,-2.0753 2.139,-3.113 0.7013,-1.1961 1.4469,-2.3672 2.1038,-3.58825 3.1381,-5.83231 5.8343,-11.78718 9.3628,-17.4221 4.0217,-6.42254 5.3637,-7.92245 9.9153,-13.93889 5.518,-6.75595 11.8103,-12.73513 18.5405,-18.24736 0,0 45.45862,-18.16723 45.45862,-18.16723 l 0,0 c -7.14715,5.25692 -13.83125,11.03172 -19.90923,17.51968 -5.08193,6.28614 -9.88563,12.50062 -13.67807,19.67719 -2.57712,4.87684 -2.46612,5.47384 -4.49462,10.21061 -0.566,1.32169 -1.1938,2.61602 -1.7908,3.92402 -0.6594,1.12381 -1.3257,2.24362 -1.9783,3.37142 -0.6492,1.12197 -0.8451,2.66375 -1.9269,3.37777 -14.6522,9.67022 -29.7787,18.60924 -44.9003,27.52744 -0.8772,0.5173 -1.9635,0.5669 -2.9723,0.7061 -0.596603,0.082 -4.578403,0.066 -5.189403,0.066 -5.8165,0.038 -11.6319,0.1888 -17.4486,0.181 -5.4422,-0.1595 -10.6883,-0.7222 -14.9168,-4.5505 -7.4667,-7.6801 -10.212,-17.76354 -14.2149,-27.47861 -2.681,-6.80991 -5.3438,-13.64016 -8.5613,-20.22159 -0.6414,-1.31209 -3.2331,-2.99586 -2.0606,-3.86664 41.8371,-31.0712 35.9788,-42.05495 43.9915,-25.76725 3.7153,5.9834 8.3113,11.30034 13.6207,15.94338 2.6556,1.97698 2.918,2.32473 5.740203,3.86404 3.519,1.91936 7.3647,3.21633 9.9628,6.48713 5.6982,7.04286 9.922,15.12872 15.9141,21.95359 2.8635,3.27945 3.4719,4.11595 6.4699,7.04935 0.7862,0.76921 1.5916,1.52074 2.4342,2.22762 0.5898,0.49474 2.5113,0.96636 1.8573,1.37243 -42.690803,26.50725 -56.292803,13.32715 -42.597503,25.85925 -0.372,-3.6946 -1.1281,-7.3538 -1.6469,-11.0315 -1.3626,-9.6594 -2.598,-19.33967 -3.5438,-29.04954 -1.8245,-19.06175 -3.538,-38.13409 -5.3741,-57.19358 0,0 45.073603,-22.96617 45.073603,-22.96617 z" />
    <g
       id="g2880"
       transform="matrix(0.52122646,0,0,0.52122646,763.72453,131.92076)">
      <path
         d="m -184.48359,-64.228838 c -9.35064,0.995742 -19.01686,2.760265 -27.4923,7.077157 -2.21783,1.129636 -8.44302,5.26838 -6.27008,4.054632 22.53993,-12.590166 44.9222,-25.460506 67.3833,-38.19076 -13.93915,12.972123 -20.67407,31.046913 -25.12187,49.135576 -1.41578,7.59634 -0.8354,3.938149 -1.78769,10.967085 0,0 -77.63885,38.1808049 -77.63885,38.1808049 l 0,0 c 1.16311,-7.77567722 0.46692,-3.7361717 2.13693,-12.1100838 4.81414,-19.1788381 12.05643,-37.6059521 22.82247,-54.2930351 52.07033,-31.218689 66.80149,-50.286108 115.9879,-56.670098 0,0 -70.01981,51.848722 -70.01981,51.848722 z"
         id="path2872"
         style="fill:#000000;stroke-width:0.1;stroke-miterlimit:4;stroke-dasharray:none" />
      <path
         d="m -345.00727,-99.113508 c 14.61489,0.164379 29.0505,1.238266 43.46951,3.669098 13.57397,1.675593 25.84098,7.669696 37.22375,14.948142 9.19326,5.386601 18.24824,10.973939 27.14753,16.832666 8.65065,6.751398 18.68144,11.51484 27.32345,18.227881 4.01473,3.887363 2.01275,2.158632 5.94695,5.253751 0,0 -73.88202,46.1799934 -73.88202,46.1799934 l 0,0 c -3.86254,-3.4114229 -2.02128,-1.7547226 -5.53059,-4.9624994 -8.62532,-6.1943255 -17.4458,-12.120422 -26.23294,-18.077154 -9.19604,-5.493072 -18.59161,-10.671337 -27.51698,-16.602402 -10.54143,-6.503332 -21.83684,-11.193093 -34.23869,-12.717457 -14.81142,-2.022628 -29.70803,-2.220813 -44.62503,-1.229209 0,0 70.91506,-51.52281 70.91506,-51.52281 z"
         id="path2874"
         style="fill:#000000;stroke-width:0.1;stroke-miterlimit:4;stroke-dasharray:none" />
      <path
         d="m -242.01719,-8.462995 c -0.51818,-17.829134 -9.24193,-33.894929 -17.25784,-49.378231 -6.87106,-11.833969 -13.85346,-23.7017 -22.36388,-34.446642 -4.76029,-4.691934 -9.03818,-9.754362 -12.54438,-15.439852 -2.91789,-5.01813 -6.33531,-10.51802 -3.26178,-16.16378 20.4217,-14.23188 34.8224,-29.17779 38.81859,-7.06281 0.11613,5.69515 1.557,10.91017 3.72609,16.13483 2.42529,6.19891 7.46734,10.55057 11.11404,15.949551 4.36556,6.782449 8.70183,13.580699 12.82582,20.509351 4.12059,6.668189 8.31201,13.300681 11.76932,20.341656 0,0 -31.83229,18.08131 -31.83229,18.08131 l 0,0 c -3.36709,-6.971555 -7.33154,-13.608944 -11.46363,-20.15272 -4.12872,-6.842181 -8.44969,-13.559333 -12.84758,-20.235118 -3.8661,-5.526974 -8.96322,-10.158065 -11.5067,-16.565115 -2.36078,-5.420995 -4.2884,-10.857975 -4.24237,-16.849235 -0.27485,-1.85224 -0.416,-4.02173 -1.40195,-5.68418 -0.77697,-1.31007 -1.4354,-0.32842 -1.27142,-0.42401 10.17036,-5.92896 20.38364,-11.78397 30.57546,-17.67595 -6.87742,0.90776 -0.98879,7.96368 0.71941,11.35426 3.44426,5.5556 7.63587,10.4897 12.08926,15.27725 8.3178,11.143821 15.08336,23.378798 22.06896,35.37634 8.12187,16.014768 16.663,32.373778 18.89268,50.439609 0,0 -32.60581,16.613486 -32.60581,16.613486 z"
         id="path2876"
         style="fill:#000000;stroke-width:0.1;stroke-miterlimit:4;stroke-dasharray:none" />
      <path
         d="m -247.80478,-38.828923 c 0.93435,-11.013826 2.71129,-21.95563 4.90673,-32.782345 2.39455,-10.431401 6.67897,-20.156593 11.43472,-29.681402 0,0 32.74414,-14.75919 32.74414,-14.75919 l 0,0 c -4.91885,9.16858 -9.33351,18.541379 -11.75212,28.729883 -2.14034,10.486355 -3.77753,21.130628 -4.58105,31.804862 0,0 -32.75242,16.688192 -32.75242,16.688192 z"
         id="path2878"
         style="fill:#000000;stroke-width:0.1;stroke-miterlimit:4;stroke-dasharray:none" />
    </g>
    <g
       transform="matrix(0.52122646,0,0,0.52122646,392.29595,254.7779)"
       id="g2886">
      <path
         style="fill:#000000;stroke-width:0.1;stroke-miterlimit:4;stroke-dasharray:none"
         id="path2888"
         d="m -184.48359,-64.228838 c -9.35064,0.995742 -19.01686,2.760265 -27.4923,7.077157 -2.21783,1.129636 -8.44302,5.26838 -6.27008,4.054632 22.53993,-12.590166 44.9222,-25.460506 67.3833,-38.19076 -13.93915,12.972123 -20.67407,31.046913 -25.12187,49.135576 -1.41578,7.59634 -0.8354,3.938149 -1.78769,10.967085 0,0 -77.63885,38.1808049 -77.63885,38.1808049 l 0,0 c 1.16311,-7.77567722 0.46692,-3.7361717 2.13693,-12.1100838 4.81414,-19.1788381 12.05643,-37.6059521 22.82247,-54.2930351 52.07033,-31.218689 66.80149,-50.286108 115.9879,-56.670098 0,0 -70.01981,51.848722 -70.01981,51.848722 z" />
      <path
         style="fill:#000000;stroke-width:0.1;stroke-miterlimit:4;stroke-dasharray:none"
         id="path2890"
         d="m -345.00727,-99.113508 c 14.61489,0.164379 29.0505,1.238266 43.46951,3.669098 13.57397,1.675593 25.84098,7.669696 37.22375,14.948142 9.19326,5.386601 18.24824,10.973939 27.14753,16.832666 8.65065,6.751398 18.68144,11.51484 27.32345,18.227881 4.01473,3.887363 2.01275,2.158632 5.94695,5.253751 0,0 -73.88202,46.1799934 -73.88202,46.1799934 l 0,0 c -3.86254,-3.4114229 -2.02128,-1.7547226 -5.53059,-4.9624994 -8.62532,-6.1943255 -17.4458,-12.120422 -26.23294,-18.077154 -9.19604,-5.493072 -18.59161,-10.671337 -27.51698,-16.602402 -10.54143,-6.503332 -21.83684,-11.193093 -34.23869,-12.717457 -14.81142,-2.022628 -29.70803,-2.220813 -44.62503,-1.229209 0,0 70.91506,-51.52281 70.91506,-51.52281 z" />
      <path
         style="fill:#000000;stroke-width:0.1;stroke-miterlimit:4;stroke-dasharray:none"
         id="path2892"
         d="m -242.01719,-8.462995 c -0.51818,-17.829134 -9.24193,-33.894929 -17.25784,-49.378231 -6.87106,-11.833969 -13.85346,-23.7017 -22.36388,-34.446642 -4.76029,-4.691934 -9.03818,-9.754362 -12.54438,-15.439852 -2.91789,-5.01813 -6.33531,-10.51802 -3.26178,-16.16378 20.4217,-14.23188 34.8224,-29.17779 38.81859,-7.06281 0.11613,5.69515 1.557,10.91017 3.72609,16.13483 2.42529,6.19891 7.46734,10.55057 11.11404,15.949551 4.36556,6.782449 8.70183,13.580699 12.82582,20.509351 4.12059,6.668189 8.31201,13.300681 11.76932,20.341656 0,0 -31.83229,18.08131 -31.83229,18.08131 l 0,0 c -3.36709,-6.971555 -7.33154,-13.608944 -11.46363,-20.15272 -4.12872,-6.842181 -8.44969,-13.559333 -12.84758,-20.235118 -3.8661,-5.526974 -8.96322,-10.158065 -11.5067,-16.565115 -2.36078,-5.420995 -4.2884,-10.857975 -4.24237,-16.849235 -0.27485,-1.85224 -0.416,-4.02173 -1.40195,-5.68418 -0.77697,-1.31007 -1.4354,-0.32842 -1.27142,-0.42401 10.17036,-5.92896 20.38364,-11.78397 30.57546,-17.67595 -6.87742,0.90776 -0.98879,7.96368 0.71941,11.35426 3.44426,5.5556 7.63587,10.4897 12.08926,15.27725 8.3178,11.143821 15.08336,23.378798 22.06896,35.37634 8.12187,16.014768 16.663,32.373778 18.89268,50.439609 0,0 -32.60581,16.613486 -32.60581,16.613486 z" />
      <path
         style="fill:#000000;stroke-width:0.1;stroke-miterlimit:4;stroke-dasharray:none"
         id="path2894"
         d="m -247.80478,-38.828923 c 0.93435,-11.013826 2.71129,-21.95563 4.90673,-32.782345 2.39455,-10.431401 6.67897,-20.156593 11.43472,-29.681402 0,0 32.74414,-14.75919 32.74414,-14.75919 l 0,0 c -4.91885,9.16858 -9.33351,18.541379 -11.75212,28.729883 -2.14034,10.486355 -3.77753,21.130628 -4.58105,31.804862 0,0 -32.75242,16.688192 -32.75242,16.688192 z" />
    </g>
    <g
       id="g2896"
       transform="matrix(0.52122646,0,0,0.52122646,763.72453,523.34933)">
      <path
         d="m -184.48359,-64.228838 c -9.35064,0.995742 -19.01686,2.760265 -27.4923,7.077157 -2.21783,1.129636 -8.44302,5.26838 -6.27008,4.054632 22.53993,-12.590166 44.9222,-25.460506 67.3833,-38.19076 -13.93915,12.972123 -20.67407,31.046913 -25.12187,49.135576 -1.41578,7.59634 -0.8354,3.938149 -1.78769,10.967085 0,0 -77.63885,38.1808049 -77.63885,38.1808049 l 0,0 c 1.16311,-7.77567722 0.46692,-3.7361717 2.13693,-12.1100838 4.81414,-19.1788381 12.05643,-37.6059521 22.82247,-54.2930351 52.07033,-31.218689 66.80149,-50.286108 115.9879,-56.670098 0,0 -70.01981,51.848722 -70.01981,51.848722 z"
         id="path2898"
         style="fill:#000000;stroke-width:0.1;stroke-miterlimit:4;stroke-dasharray:none" />
      <path
         d="m -345.00727,-99.113508 c 14.61489,0.164379 29.0505,1.238266 43.46951,3.669098 13.57397,1.675593 25.84098,7.669696 37.22375,14.948142 9.19326,5.386601 18.24824,10.973939 27.14753,16.832666 8.65065,6.751398 18.68144,11.51484 27.32345,18.227881 4.01473,3.887363 2.01275,2.158632 5.94695,5.253751 0,0 -73.88202,46.1799934 -73.88202,46.1799934 l 0,0 c -3.86254,-3.4114229 -2.02128,-1.7547226 -5.53059,-4.9624994 -8.62532,-6.1943255 -17.4458,-12.120422 -26.23294,-18.077154 -9.19604,-5.493072 -18.59161,-10.671337 -27.51698,-16.602402 -10.54143,-6.503332 -21.83684,-11.193093 -34.23869,-12.717457 -14.81142,-2.022628 -29.70803,-2.220813 -44.62503,-1.229209 0,0 70.91506,-51.52281 70.91506,-51.52281 z"
         id="path2900"
         style="fill:#000000;stroke-width:0.1;stroke-miterlimit:4;stroke-dasharray:none" />
      <path
         d="m -242.01719,-8.462995 c -0.51818,-17.829134 -9.24193,-33.894929 -17.25784,-49.378231 -6.87106,-11.833969 -13.85346,-23.7017 -22.36388,-34.446642 -4.76029,-4.691934 -9.03818,-9.754362 -12.54438,-15.439852 -2.91789,-5.01813 -6.33531,-10.51802 -3.26178,-16.16378 20.4217,-14.23188 34.8224,-29.17779 38.81859,-7.06281 0.11613,5.69515 1.557,10.91017 3.72609,16.13483 2.42529,6.19891 7.46734,10.55057 11.11404,15.949551 4.36556,6.782449 8.70183,13.580699 12.82582,20.509351 4.12059,6.668189 8.31201,13.300681 11.76932,20.341656 0,0 -31.83229,18.08131 -31.83229,18.08131 l 0,0 c -3.36709,-6.971555 -7.33154,-13.608944 -11.46363,-20.15272 -4.12872,-6.842181 -8.44969,-13.559333 -12.84758,-20.235118 -3.8661,-5.526974 -8.96322,-10.158065 -11.5067,-16.565115 -2.36078,-5.420995 -4.2884,-10.857975 -4.24237,-16.849235 -0.27485,-1.85224 -0.416,-4.02173 -1.40195,-5.68418 -0.77697,-1.31007 -1.4354,-0.32842 -1.27142,-0.42401 10.17036,-5.92896 20.38364,-11.78397 30.57546,-17.67595 -6.87742,0.90776 -0.98879,7.96368 0.71941,11.35426 3.44426,5.5556 7.63587,10.4897 12.08926,15.27725 8.3178,11.143821 15.08336,23.378798 22.06896,35.37634 8.12187,16.014768 16.663,32.373778 18.89268,50.439609 0,0 -32.60581,16.613486 -32.60581,16.613486 z"
         id="path2902"
         style="fill:#000000;stroke-width:0.1;stroke-miterlimit:4;stroke-dasharray:none" />
      <path
         d="m -247.80478,-38.828923 c 0.93435,-11.013826 2.71129,-21.95563 4.90673,-32.782345 2.39455,-10.431401 6.67897,-20.156593 11.43472,-29.681402 0,0 32.74414,-14.75919 32.74414,-14.75919 l 0,0 c -4.91885,9.16858 -9.33351,18.541379 -11.75212,28.729883 -2.14034,10.486355 -3.77753,21.130628 -4.58105,31.804862 0,0 -32.75242,16.688192 -32.75242,16.688192 z"
         id="path2904"
         style="fill:#000000;stroke-width:0.1;stroke-miterlimit:4;stroke-dasharray:none" />
    </g>
    <g
       transform="matrix(0.52122646,0,0,0.52122646,483.72453,917.63504)"
       id="g2906">
      <path
         style="fill:#000000;stroke-width:0.1;stroke-miterlimit:4;stroke-dasharray:none"
         id="path2908"
         d="m -184.48359,-64.228838 c -9.35064,0.995742 -19.01686,2.760265 -27.4923,7.077157 -2.21783,1.129636 -8.44302,5.26838 -6.27008,4.054632 22.53993,-12.590166 44.9222,-25.460506 67.3833,-38.19076 -13.93915,12.972123 -20.67407,31.046913 -25.12187,49.135576 -1.41578,7.59634 -0.8354,3.938149 -1.78769,10.967085 0,0 -77.63885,38.1808049 -77.63885,38.1808049 l 0,0 c 1.16311,-7.77567722 0.46692,-3.7361717 2.13693,-12.1100838 4.81414,-19.1788381 12.05643,-37.6059521 22.82247,-54.2930351 52.07033,-31.218689 66.80149,-50.286108 115.9879,-56.670098 0,0 -70.01981,51.848722 -70.01981,51.848722 z" />
      <path
         style="fill:#000000;stroke-width:0.1;stroke-miterlimit:4;stroke-dasharray:none"
         id="path2910"
         d="m -345.00727,-99.113508 c 14.61489,0.164379 29.0505,1.238266 43.46951,3.669098 13.57397,1.675593 25.84098,7.669696 37.22375,14.948142 9.19326,5.386601 18.24824,10.973939 27.14753,16.832666 8.65065,6.751398 18.68144,11.51484 27.32345,18.227881 4.01473,3.887363 2.01275,2.158632 5.94695,5.253751 0,0 -73.88202,46.1799934 -73.88202,46.1799934 l 0,0 c -3.86254,-3.4114229 -2.02128,-1.7547226 -5.53059,-4.9624994 -8.62532,-6.1943255 -17.4458,-12.120422 -26.23294,-18.077154 -9.19604,-5.493072 -18.59161,-10.671337 -27.51698,-16.602402 -10.54143,-6.503332 -21.83684,-11.193093 -34.23869,-12.717457 -14.81142,-2.022628 -29.70803,-2.220813 -44.62503,-1.229209 0,0 70.91506,-51.52281 70.91506,-51.52281 z" />
      <path
         style="fill:#000000;stroke-width:0.1;stroke-miterlimit:4;stroke-dasharray:none"
         id="path2912"
         d="m -242.01719,-8.462995 c -0.51818,-17.829134 -9.24193,-33.894929 -17.25784,-49.378231 -6.87106,-11.833969 -13.85346,-23.7017 -22.36388,-34.446642 -4.76029,-4.691934 -9.03818,-9.754362 -12.54438,-15.439852 -2.91789,-5.01813 -6.33531,-10.51802 -3.26178,-16.16378 20.4217,-14.23188 34.8224,-29.17779 38.81859,-7.06281 0.11613,5.69515 1.557,10.91017 3.72609,16.13483 2.42529,6.19891 7.46734,10.55057 11.11404,15.949551 4.36556,6.782449 8.70183,13.580699 12.82582,20.509351 4.12059,6.668189 8.31201,13.300681 11.76932,20.341656 0,0 -31.83229,18.08131 -31.83229,18.08131 l 0,0 c -3.36709,-6.971555 -7.33154,-13.608944 -11.46363,-20.15272 -4.12872,-6.842181 -8.44969,-13.559333 -12.84758,-20.235118 -3.8661,-5.526974 -8.96322,-10.158065 -11.5067,-16.565115 -2.36078,-5.420995 -4.2884,-10.857975 -4.24237,-16.849235 -0.27485,-1.85224 -0.416,-4.02173 -1.40195,-5.68418 -0.77697,-1.31007 -1.4354,-0.32842 -1.27142,-0.42401 10.17036,-5.92896 20.38364,-11.78397 30.57546,-17.67595 -6.87742,0.90776 -0.98879,7.96368 0.71941,11.35426 3.44426,5.5556 7.63587,10.4897 12.08926,15.27725 8.3178,11.143821 15.08336,23.378798 22.06896,35.37634 8.12187,16.014768 16.663,32.373778 18.89268,50.439609 0,0 -32.60581,16.613486 -32.60581,16.613486 z" />
      <path
         style="fill:#000000;stroke-width:0.1;stroke-miterlimit:4;stroke-dasharray:none"
         id="path2914"
         d="m -247.80478,-38.828923 c 0.93435,-11.013826 2.71129,-21.95563 4.90673,-32.782345 2.39455,-10.431401 6.67897,-20.156593 11.43472,-29.681402 0,0 32.74414,-14.75919 32.74414,-14.75919 l 0,0 c -4.91885,9.16858 -9.33351,18.541379 -11.75212,28.729883 -2.14034,10.486355 -3.77753,21.130628 -4.58105,31.804862 0,0 -32.75242,16.688192 -32.75242,16.688192 z" />
    </g>
    <g
       id="g2916"
       transform="matrix(0.52122646,0,0,0.52122646,786.58167,791.92076)">
      <path
         d="m -184.48359,-64.228838 c -9.35064,0.995742 -19.01686,2.760265 -27.4923,7.077157 -2.21783,1.129636 -8.44302,5.26838 -6.27008,4.054632 22.53993,-12.590166 44.9222,-25.460506 67.3833,-38.19076 -13.93915,12.972123 -20.67407,31.046913 -25.12187,49.135576 -1.41578,7.59634 -0.8354,3.938149 -1.78769,10.967085 0,0 -77.63885,38.1808049 -77.63885,38.1808049 l 0,0 c 1.16311,-7.77567722 0.46692,-3.7361717 2.13693,-12.1100838 4.81414,-19.1788381 12.05643,-37.6059521 22.82247,-54.2930351 52.07033,-31.218689 66.80149,-50.286108 115.9879,-56.670098 0,0 -70.01981,51.848722 -70.01981,51.848722 z"
         id="path2918"
         style="fill:#000000;stroke-width:0.1;stroke-miterlimit:4;stroke-dasharray:none" />
      <path
         d="m -345.00727,-99.113508 c 14.61489,0.164379 29.0505,1.238266 43.46951,3.669098 13.57397,1.675593 25.84098,7.669696 37.22375,14.948142 9.19326,5.386601 18.24824,10.973939 27.14753,16.832666 8.65065,6.751398 18.68144,11.51484 27.32345,18.227881 4.01473,3.887363 2.01275,2.158632 5.94695,5.253751 0,0 -73.88202,46.1799934 -73.88202,46.1799934 l 0,0 c -3.86254,-3.4114229 -2.02128,-1.7547226 -5.53059,-4.9624994 -8.62532,-6.1943255 -17.4458,-12.120422 -26.23294,-18.077154 -9.19604,-5.493072 -18.59161,-10.671337 -27.51698,-16.602402 -10.54143,-6.503332 -21.83684,-11.193093 -34.23869,-12.717457 -14.81142,-2.022628 -29.70803,-2.220813 -44.62503,-1.229209 0,0 70.91506,-51.52281 70.91506,-51.52281 z"
         id="path2920"
         style="fill:#000000;stroke-width:0.1;stroke-miterlimit:4;stroke-dasharray:none" />
      <path
         d="m -242.01719,-8.462995 c -0.51818,-17.829134 -9.24193,-33.894929 -17.25784,-49.378231 -6.87106,-11.833969 -13.85346,-23.7017 -22.36388,-34.446642 -4.76029,-4.691934 -9.03818,-9.754362 -12.54438,-15.439852 -2.91789,-5.01813 -6.33531,-10.51802 -3.26178,-16.16378 20.4217,-14.23188 34.8224,-29.17779 38.81859,-7.06281 0.11613,5.69515 1.557,10.91017 3.72609,16.13483 2.42529,6.19891 7.46734,10.55057 11.11404,15.949551 4.36556,6.782449 8.70183,13.580699 12.82582,20.509351 4.12059,6.668189 8.31201,13.300681 11.76932,20.341656 0,0 -31.83229,18.08131 -31.83229,18.08131 l 0,0 c -3.36709,-6.971555 -7.33154,-13.608944 -11.46363,-20.15272 -4.12872,-6.842181 -8.44969,-13.559333 -12.84758,-20.235118 -3.8661,-5.526974 -8.96322,-10.158065 -11.5067,-16.565115 -2.36078,-5.420995 -4.2884,-10.857975 -4.24237,-16.849235 -0.27485,-1.85224 -0.416,-4.02173 -1.40195,-5.68418 -0.77697,-1.31007 -1.4354,-0.32842 -1.27142,-0.42401 10.17036,-5.92896 20.38364,-11.78397 30.57546,-17.67595 -6.87742,0.90776 -0.98879,7.96368 0.71941,11.35426 3.44426,5.5556 7.63587,10.4897 12.08926,15.27725 8.3178,11.143821 15.08336,23.378798 22.06896,35.37634 8.12187,16.014768 16.663,32.373778 18.89268,50.439609 0,0 -32.60581,16.613486 -32.60581,16.613486 z"
         id="path2922"
         style="fill:#000000;stroke-width:0.1;stroke-miterlimit:4;stroke-dasharray:none" />
      <path
         d="m -247.80478,-38.828923 c 0.93435,-11.013826 2.71129,-21.95563 4.90673,-32.782345 2.39455,-10.431401 6.67897,-20.156593 11.43472,-29.681402 0,0 32.74414,-14.75919 32.74414,-14.75919 l 0,0 c -4.91885,9.16858 -9.33351,18.541379 -11.75212,28.729883 -2.14034,10.486355 -3.77753,21.130628 -4.58105,31.804862 0,0 -32.75242,16.688192 -32.75242,16.688192 z"
         id="path2924"
         style="fill:#000000;stroke-width:0.1;stroke-miterlimit:4;stroke-dasharray:none" />
    </g>
    <g
       transform="matrix(0.52122646,0,0,0.52122646,723.72453,877.63504)"
       id="g2926">
      <path
         style="fill:#000000;stroke-width:0.1;stroke-miterlimit:4;stroke-dasharray:none"
         id="path2928"
         d="m -184.48359,-64.228838 c -9.35064,0.995742 -19.01686,2.760265 -27.4923,7.077157 -2.21783,1.129636 -8.44302,5.26838 -6.27008,4.054632 22.53993,-12.590166 44.9222,-25.460506 67.3833,-38.19076 -13.93915,12.972123 -20.67407,31.046913 -25.12187,49.135576 -1.41578,7.59634 -0.8354,3.938149 -1.78769,10.967085 0,0 -77.63885,38.1808049 -77.63885,38.1808049 l 0,0 c 1.16311,-7.77567722 0.46692,-3.7361717 2.13693,-12.1100838 4.81414,-19.1788381 12.05643,-37.6059521 22.82247,-54.2930351 52.07033,-31.218689 66.80149,-50.286108 115.9879,-56.670098 0,0 -70.01981,51.848722 -70.01981,51.848722 z" />
      <path
         style="fill:#000000;stroke-width:0.1;stroke-miterlimit:4;stroke-dasharray:none"
         id="path2930"
         d="m -345.00727,-99.113508 c 14.61489,0.164379 29.0505,1.238266 43.46951,3.669098 13.57397,1.675593 25.84098,7.669696 37.22375,14.948142 9.19326,5.386601 18.24824,10.973939 27.14753,16.832666 8.65065,6.751398 18.68144,11.51484 27.32345,18.227881 4.01473,3.887363 2.01275,2.158632 5.94695,5.253751 0,0 -73.88202,46.1799934 -73.88202,46.1799934 l 0,0 c -3.86254,-3.4114229 -2.02128,-1.7547226 -5.53059,-4.9624994 -8.62532,-6.1943255 -17.4458,-12.120422 -26.23294,-18.077154 -9.19604,-5.493072 -18.59161,-10.671337 -27.51698,-16.602402 -10.54143,-6.503332 -21.83684,-11.193093 -34.23869,-12.717457 -14.81142,-2.022628 -29.70803,-2.220813 -44.62503,-1.229209 0,0 70.91506,-51.52281 70.91506,-51.52281 z" />
      <path
         style="fill:#000000;stroke-width:0.1;stroke-miterlimit:4;stroke-dasharray:none"
         id="path2932"
         d="m -242.01719,-8.462995 c -0.51818,-17.829134 -9.24193,-33.894929 -17.25784,-49.378231 -6.87106,-11.833969 -13.85346,-23.7017 -22.36388,-34.446642 -4.76029,-4.691934 -9.03818,-9.754362 -12.54438,-15.439852 -2.91789,-5.01813 -6.33531,-10.51802 -3.26178,-16.16378 20.4217,-14.23188 34.8224,-29.17779 38.81859,-7.06281 0.11613,5.69515 1.557,10.91017 3.72609,16.13483 2.42529,6.19891 7.46734,10.55057 11.11404,15.949551 4.36556,6.782449 8.70183,13.580699 12.82582,20.509351 4.12059,6.668189 8.31201,13.300681 11.76932,20.341656 0,0 -31.83229,18.08131 -31.83229,18.08131 l 0,0 c -3.36709,-6.971555 -7.33154,-13.608944 -11.46363,-20.15272 -4.12872,-6.842181 -8.44969,-13.559333 -12.84758,-20.235118 -3.8661,-5.526974 -8.96322,-10.158065 -11.5067,-16.565115 -2.36078,-5.420995 -4.2884,-10.857975 -4.24237,-16.849235 -0.27485,-1.85224 -0.416,-4.02173 -1.40195,-5.68418 -0.77697,-1.31007 -1.4354,-0.32842 -1.27142,-0.42401 10.17036,-5.92896 20.38364,-11.78397 30.57546,-17.67595 -6.87742,0.90776 -0.98879,7.96368 0.71941,11.35426 3.44426,5.5556 7.63587,10.4897 12.08926,15.27725 8.3178,11.143821 15.08336,23.378798 22.06896,35.37634 8.12187,16.014768 16.663,32.373778 18.89268,50.439609 0,0 -32.60581,16.613486 -32.60581,16.613486 z" />
      <path
         style="fill:#000000;stroke-width:0.1;stroke-miterlimit:4;stroke-dasharray:none"
         id="path2934"
         d="m -247.80478,-38.828923 c 0.93435,-11.013826 2.71129,-21.95563 4.90673,-32.782345 2.39455,-10.431401 6.67897,-20.156593 11.43472,-29.681402 0,0 32.74414,-14.75919 32.74414,-14.75919 l 0,0 c -4.91885,9.16858 -9.33351,18.541379 -11.75212,28.729883 -2.14034,10.486355 -3.77753,21.130628 -4.58105,31.804862 0,0 -32.75242,16.688192 -32.75242,16.688192 z" />
    </g>
    <g
       id="g2936"
       transform="matrix(0.52122646,0,0,0.52122646,580.86739,854.7779)">
      <path
         d="m -184.48359,-64.228838 c -9.35064,0.995742 -19.01686,2.760265 -27.4923,7.077157 -2.21783,1.129636 -8.44302,5.26838 -6.27008,4.054632 22.53993,-12.590166 44.9222,-25.460506 67.3833,-38.19076 -13.93915,12.972123 -20.67407,31.046913 -25.12187,49.135576 -1.41578,7.59634 -0.8354,3.938149 -1.78769,10.967085 0,0 -77.63885,38.1808049 -77.63885,38.1808049 l 0,0 c 1.16311,-7.77567722 0.46692,-3.7361717 2.13693,-12.1100838 4.81414,-19.1788381 12.05643,-37.6059521 22.82247,-54.2930351 52.07033,-31.218689 66.80149,-50.286108 115.9879,-56.670098 0,0 -70.01981,51.848722 -70.01981,51.848722 z"
         id="path2938"
         style="fill:#000000;stroke-width:0.1;stroke-miterlimit:4;stroke-dasharray:none" />
      <path
         d="m -345.00727,-99.113508 c 14.61489,0.164379 29.0505,1.238266 43.46951,3.669098 13.57397,1.675593 25.84098,7.669696 37.22375,14.948142 9.19326,5.386601 18.24824,10.973939 27.14753,16.832666 8.65065,6.751398 18.68144,11.51484 27.32345,18.227881 4.01473,3.887363 2.01275,2.158632 5.94695,5.253751 0,0 -73.88202,46.1799934 -73.88202,46.1799934 l 0,0 c -3.86254,-3.4114229 -2.02128,-1.7547226 -5.53059,-4.9624994 -8.62532,-6.1943255 -17.4458,-12.120422 -26.23294,-18.077154 -9.19604,-5.493072 -18.59161,-10.671337 -27.51698,-16.602402 -10.54143,-6.503332 -21.83684,-11.193093 -34.23869,-12.717457 -14.81142,-2.022628 -29.70803,-2.220813 -44.62503,-1.229209 0,0 70.91506,-51.52281 70.91506,-51.52281 z"
         id="path2940"
         style="fill:#000000;stroke-width:0.1;stroke-miterlimit:4;stroke-dasharray:none" />
      <path
         d="m -242.01719,-8.462995 c -0.51818,-17.829134 -9.24193,-33.894929 -17.25784,-49.378231 -6.87106,-11.833969 -13.85346,-23.7017 -22.36388,-34.446642 -4.76029,-4.691934 -9.03818,-9.754362 -12.54438,-15.439852 -2.91789,-5.01813 -6.33531,-10.51802 -3.26178,-16.16378 20.4217,-14.23188 34.8224,-29.17779 38.81859,-7.06281 0.11613,5.69515 1.557,10.91017 3.72609,16.13483 2.42529,6.19891 7.46734,10.55057 11.11404,15.949551 4.36556,6.782449 8.70183,13.580699 12.82582,20.509351 4.12059,6.668189 8.31201,13.300681 11.76932,20.341656 0,0 -31.83229,18.08131 -31.83229,18.08131 l 0,0 c -3.36709,-6.971555 -7.33154,-13.608944 -11.46363,-20.15272 -4.12872,-6.842181 -8.44969,-13.559333 -12.84758,-20.235118 -3.8661,-5.526974 -8.96322,-10.158065 -11.5067,-16.565115 -2.36078,-5.420995 -4.2884,-10.857975 -4.24237,-16.849235 -0.27485,-1.85224 -0.416,-4.02173 -1.40195,-5.68418 -0.77697,-1.31007 -1.4354,-0.32842 -1.27142,-0.42401 10.17036,-5.92896 20.38364,-11.78397 30.57546,-17.67595 -6.87742,0.90776 -0.98879,7.96368 0.71941,11.35426 3.44426,5.5556 7.63587,10.4897 12.08926,15.27725 8.3178,11.143821 15.08336,23.378798 22.06896,35.37634 8.12187,16.014768 16.663,32.373778 18.89268,50.439609 0,0 -32.60581,16.613486 -32.60581,16.613486 z"
         id="path2942"
         style="fill:#000000;stroke-width:0.1;stroke-miterlimit:4;stroke-dasharray:none" />
      <path
         d="m -247.80478,-38.828923 c 0.93435,-11.013826 2.71129,-21.95563 4.90673,-32.782345 2.39455,-10.431401 6.67897,-20.156593 11.43472,-29.681402 0,0 32.74414,-14.75919 32.74414,-14.75919 l 0,0 c -4.91885,9.16858 -9.33351,18.541379 -11.75212,28.729883 -2.14034,10.486355 -3.77753,21.130628 -4.58105,31.804862 0,0 -32.75242,16.688192 -32.75242,16.688192 z"
         id="path2944"
         style="fill:#000000;stroke-width:0.1;stroke-miterlimit:4;stroke-dasharray:none" />
    </g>
    <g
       transform="matrix(0.52122646,0,0,0.52122646,432.29596,846.20647)"
       id="g2946">
      <path
         style="fill:#000000;stroke-width:0.1;stroke-miterlimit:4;stroke-dasharray:none"
         id="path2948"
         d="m -184.48359,-64.228838 c -9.35064,0.995742 -19.01686,2.760265 -27.4923,7.077157 -2.21783,1.129636 -8.44302,5.26838 -6.27008,4.054632 22.53993,-12.590166 44.9222,-25.460506 67.3833,-38.19076 -13.93915,12.972123 -20.67407,31.046913 -25.12187,49.135576 -1.41578,7.59634 -0.8354,3.938149 -1.78769,10.967085 0,0 -77.63885,38.1808049 -77.63885,38.1808049 l 0,0 c 1.16311,-7.77567722 0.46692,-3.7361717 2.13693,-12.1100838 4.81414,-19.1788381 12.05643,-37.6059521 22.82247,-54.2930351 52.07033,-31.218689 66.80149,-50.286108 115.9879,-56.670098 0,0 -70.01981,51.848722 -70.01981,51.848722 z" />
      <path
         style="fill:#000000;stroke-width:0.1;stroke-miterlimit:4;stroke-dasharray:none"
         id="path2950"
         d="m -345.00727,-99.113508 c 14.61489,0.164379 29.0505,1.238266 43.46951,3.669098 13.57397,1.675593 25.84098,7.669696 37.22375,14.948142 9.19326,5.386601 18.24824,10.973939 27.14753,16.832666 8.65065,6.751398 18.68144,11.51484 27.32345,18.227881 4.01473,3.887363 2.01275,2.158632 5.94695,5.253751 0,0 -73.88202,46.1799934 -73.88202,46.1799934 l 0,0 c -3.86254,-3.4114229 -2.02128,-1.7547226 -5.53059,-4.9624994 -8.62532,-6.1943255 -17.4458,-12.120422 -26.23294,-18.077154 -9.19604,-5.493072 -18.59161,-10.671337 -27.51698,-16.602402 -10.54143,-6.503332 -21.83684,-11.193093 -34.23869,-12.717457 -14.81142,-2.022628 -29.70803,-2.220813 -44.62503,-1.229209 0,0 70.91506,-51.52281 70.91506,-51.52281 z" />
      <path
         style="fill:#000000;stroke-width:0.1;stroke-miterlimit:4;stroke-dasharray:none"
         id="path2952"
         d="m -242.01719,-8.462995 c -0.51818,-17.829134 -9.24193,-33.894929 -17.25784,-49.378231 -6.87106,-11.833969 -13.85346,-23.7017 -22.36388,-34.446642 -4.76029,-4.691934 -9.03818,-9.754362 -12.54438,-15.439852 -2.91789,-5.01813 -6.33531,-10.51802 -3.26178,-16.16378 20.4217,-14.23188 34.8224,-29.17779 38.81859,-7.06281 0.11613,5.69515 1.557,10.91017 3.72609,16.13483 2.42529,6.19891 7.46734,10.55057 11.11404,15.949551 4.36556,6.782449 8.70183,13.580699 12.82582,20.509351 4.12059,6.668189 8.31201,13.300681 11.76932,20.341656 0,0 -31.83229,18.08131 -31.83229,18.08131 l 0,0 c -3.36709,-6.971555 -7.33154,-13.608944 -11.46363,-20.15272 -4.12872,-6.842181 -8.44969,-13.559333 -12.84758,-20.235118 -3.8661,-5.526974 -8.96322,-10.158065 -11.5067,-16.565115 -2.36078,-5.420995 -4.2884,-10.857975 -4.24237,-16.849235 -0.27485,-1.85224 -0.416,-4.02173 -1.40195,-5.68418 -0.77697,-1.31007 -1.4354,-0.32842 -1.27142,-0.42401 10.17036,-5.92896 20.38364,-11.78397 30.57546,-17.67595 -6.87742,0.90776 -0.98879,7.96368 0.71941,11.35426 3.44426,5.5556 7.63587,10.4897 12.08926,15.27725 8.3178,11.143821 15.08336,23.378798 22.06896,35.37634 8.12187,16.014768 16.663,32.373778 18.89268,50.439609 0,0 -32.60581,16.613486 -32.60581,16.613486 z" />
      <path
         style="fill:#000000;stroke-width:0.1;stroke-miterlimit:4;stroke-dasharray:none"
         id="path2954"
         d="m -247.80478,-38.828923 c 0.93435,-11.013826 2.71129,-21.95563 4.90673,-32.782345 2.39455,-10.431401 6.67897,-20.156593 11.43472,-29.681402 0,0 32.74414,-14.75919 32.74414,-14.75919 l 0,0 c -4.91885,9.16858 -9.33351,18.541379 -11.75212,28.729883 -2.14034,10.486355 -3.77753,21.130628 -4.58105,31.804862 0,0 -32.75242,16.688192 -32.75242,16.688192 z" />
    </g>
    <g
       id="g2956"
       transform="matrix(0.52122646,0,0,0.52122646,318.01025,811.92076)">
      <path
         d="m -184.48359,-64.228838 c -9.35064,0.995742 -19.01686,2.760265 -27.4923,7.077157 -2.21783,1.129636 -8.44302,5.26838 -6.27008,4.054632 22.53993,-12.590166 44.9222,-25.460506 67.3833,-38.19076 -13.93915,12.972123 -20.67407,31.046913 -25.12187,49.135576 -1.41578,7.59634 -0.8354,3.938149 -1.78769,10.967085 0,0 -77.63885,38.1808049 -77.63885,38.1808049 l 0,0 c 1.16311,-7.77567722 0.46692,-3.7361717 2.13693,-12.1100838 4.81414,-19.1788381 12.05643,-37.6059521 22.82247,-54.2930351 52.07033,-31.218689 66.80149,-50.286108 115.9879,-56.670098 0,0 -70.01981,51.848722 -70.01981,51.848722 z"
         id="path2958"
         style="fill:#000000;stroke-width:0.1;stroke-miterlimit:4;stroke-dasharray:none" />
      <path
         d="m -345.00727,-99.113508 c 14.61489,0.164379 29.0505,1.238266 43.46951,3.669098 13.57397,1.675593 25.84098,7.669696 37.22375,14.948142 9.19326,5.386601 18.24824,10.973939 27.14753,16.832666 8.65065,6.751398 18.68144,11.51484 27.32345,18.227881 4.01473,3.887363 2.01275,2.158632 5.94695,5.253751 0,0 -73.88202,46.1799934 -73.88202,46.1799934 l 0,0 c -3.86254,-3.4114229 -2.02128,-1.7547226 -5.53059,-4.9624994 -8.62532,-6.1943255 -17.4458,-12.120422 -26.23294,-18.077154 -9.19604,-5.493072 -18.59161,-10.671337 -27.51698,-16.602402 -10.54143,-6.503332 -21.83684,-11.193093 -34.23869,-12.717457 -14.81142,-2.022628 -29.70803,-2.220813 -44.62503,-1.229209 0,0 70.91506,-51.52281 70.91506,-51.52281 z"
         id="path2960"
         style="fill:#000000;stroke-width:0.1;stroke-miterlimit:4;stroke-dasharray:none" />
      <path
         d="m -242.01719,-8.462995 c -0.51818,-17.829134 -9.24193,-33.894929 -17.25784,-49.378231 -6.87106,-11.833969 -13.85346,-23.7017 -22.36388,-34.446642 -4.76029,-4.691934 -9.03818,-9.754362 -12.54438,-15.439852 -2.91789,-5.01813 -6.33531,-10.51802 -3.26178,-16.16378 20.4217,-14.23188 34.8224,-29.17779 38.81859,-7.06281 0.11613,5.69515 1.557,10.91017 3.72609,16.13483 2.42529,6.19891 7.46734,10.55057 11.11404,15.949551 4.36556,6.782449 8.70183,13.580699 12.82582,20.509351 4.12059,6.668189 8.31201,13.300681 11.76932,20.341656 0,0 -31.83229,18.08131 -31.83229,18.08131 l 0,0 c -3.36709,-6.971555 -7.33154,-13.608944 -11.46363,-20.15272 -4.12872,-6.842181 -8.44969,-13.559333 -12.84758,-20.235118 -3.8661,-5.526974 -8.96322,-10.158065 -11.5067,-16.565115 -2.36078,-5.420995 -4.2884,-10.857975 -4.24237,-16.849235 -0.27485,-1.85224 -0.416,-4.02173 -1.40195,-5.68418 -0.77697,-1.31007 -1.4354,-0.32842 -1.27142,-0.42401 10.17036,-5.92896 20.38364,-11.78397 30.57546,-17.67595 -6.87742,0.90776 -0.98879,7.96368 0.71941,11.35426 3.44426,5.5556 7.63587,10.4897 12.08926,15.27725 8.3178,11.143821 15.08336,23.378798 22.06896,35.37634 8.12187,16.014768 16.663,32.373778 18.89268,50.439609 0,0 -32.60581,16.613486 -32.60581,16.613486 z"
         id="path2962"
         style="fill:#000000;stroke-width:0.1;stroke-miterlimit:4;stroke-dasharray:none" />
      <path
         d="m -247.80478,-38.828923 c 0.93435,-11.013826 2.71129,-21.95563 4.90673,-32.782345 2.39455,-10.431401 6.67897,-20.156593 11.43472,-29.681402 0,0 32.74414,-14.75919 32.74414,-14.75919 l 0,0 c -4.91885,9.16858 -9.33351,18.541379 -11.75212,28.729883 -2.14034,10.486355 -3.77753,21.130628 -4.58105,31.804862 0,0 -32.75242,16.688192 -32.75242,16.688192 z"
         id="path2964"
         style="fill:#000000;stroke-width:0.1;stroke-miterlimit:4;stroke-dasharray:none" />
    </g>
    <g
       id="g2971"
       transform="translate(-205.71429,-640)">
      <path
         style="fill:#000000;stroke-width:0.1;stroke-miterlimit:4;stroke-dasharray:none"
         id="path2973"
         d="m -269.42587,539.65788 c -3.04762,18.58354 -5.39009,37.94933 -1.79283,56.66963 3.19868,16.64606 6.48255,20.75571 13.91832,36.01435 11.75968,20.62152 28.03006,37.82619 44.68614,54.48507 0,0 -41.10503,25.07799 -41.10503,25.07799 l 0,0 c -16.25517,-17.5828 -32.32225,-35.50213 -44.35643,-56.36315 -7.89691,-15.65011 -11.42225,-20.12098 -15.17301,-37.21868 -4.0696,-18.55107 -2.20172,-37.72413 -1.54962,-56.48285 0,0 45.37246,-22.18236 45.37246,-22.18236 z" />
      <path
         style="fill:#000000;stroke-width:0.1;stroke-miterlimit:4;stroke-dasharray:none"
         id="path2975"
         d="m -313.1135,697.39389 c 20.22933,-27.21932 39.58494,-55.09548 59.14576,-82.80141 0,0 43.208,-18.73795 43.208,-18.73795 l 0,0 c -19.28307,26.66309 -38.61099,53.44714 -55.56627,81.6605 0,0 -46.78749,19.87886 -46.78749,19.87886 z" />
      <path
         style="fill:#000000;stroke-width:0.1;stroke-miterlimit:4;stroke-dasharray:none"
         id="path2977"
         d="m -285.42687,695.64099 c -38.96471,-22.9165 -73.42388,-52.64852 -108.50592,-80.93828 0,0 36.2542,-22.78468 36.2542,-22.78468 l 0,0 c 35.89286,28.19975 71.79795,57.96718 114.2196,75.92133 0,0 -41.96788,27.80163 -41.96788,27.80163 z" />
    </g>
    <g
       id="g2979"
       transform="matrix(0.52122646,0,0,0.52122646,1075.1531,386.20647)">
      <path
         d="m -184.48359,-64.228838 c -9.35064,0.995742 -19.01686,2.760265 -27.4923,7.077157 -2.21783,1.129636 -8.44302,5.26838 -6.27008,4.054632 22.53993,-12.590166 44.9222,-25.460506 67.3833,-38.19076 -13.93915,12.972123 -20.67407,31.046913 -25.12187,49.135576 -1.41578,7.59634 -0.8354,3.938149 -1.78769,10.967085 0,0 -77.63885,38.1808049 -77.63885,38.1808049 l 0,0 c 1.16311,-7.77567722 0.46692,-3.7361717 2.13693,-12.1100838 4.81414,-19.1788381 12.05643,-37.6059521 22.82247,-54.2930351 52.07033,-31.218689 66.80149,-50.286108 115.9879,-56.670098 0,0 -70.01981,51.848722 -70.01981,51.848722 z"
         id="path2981"
         style="fill:#000000;stroke-width:0.1;stroke-miterlimit:4;stroke-dasharray:none" />
      <path
         d="m -345.00727,-99.113508 c 14.61489,0.164379 29.0505,1.238266 43.46951,3.669098 13.57397,1.675593 25.84098,7.669696 37.22375,14.948142 9.19326,5.386601 18.24824,10.973939 27.14753,16.832666 8.65065,6.751398 18.68144,11.51484 27.32345,18.227881 4.01473,3.887363 2.01275,2.158632 5.94695,5.253751 0,0 -73.88202,46.1799934 -73.88202,46.1799934 l 0,0 c -3.86254,-3.4114229 -2.02128,-1.7547226 -5.53059,-4.9624994 -8.62532,-6.1943255 -17.4458,-12.120422 -26.23294,-18.077154 -9.19604,-5.493072 -18.59161,-10.671337 -27.51698,-16.602402 -10.54143,-6.503332 -21.83684,-11.193093 -34.23869,-12.717457 -14.81142,-2.022628 -29.70803,-2.220813 -44.62503,-1.229209 0,0 70.91506,-51.52281 70.91506,-51.52281 z"
         id="path2983"
         style="fill:#000000;stroke-width:0.1;stroke-miterlimit:4;stroke-dasharray:none" />
      <path
         d="m -242.01719,-8.462995 c -0.51818,-17.829134 -9.24193,-33.894929 -17.25784,-49.378231 -6.87106,-11.833969 -13.85346,-23.7017 -22.36388,-34.446642 -4.76029,-4.691934 -9.03818,-9.754362 -12.54438,-15.439852 -2.91789,-5.01813 -6.33531,-10.51802 -3.26178,-16.16378 20.4217,-14.23188 34.8224,-29.17779 38.81859,-7.06281 0.11613,5.69515 1.557,10.91017 3.72609,16.13483 2.42529,6.19891 7.46734,10.55057 11.11404,15.949551 4.36556,6.782449 8.70183,13.580699 12.82582,20.509351 4.12059,6.668189 8.31201,13.300681 11.76932,20.341656 0,0 -31.83229,18.08131 -31.83229,18.08131 l 0,0 c -3.36709,-6.971555 -7.33154,-13.608944 -11.46363,-20.15272 -4.12872,-6.842181 -8.44969,-13.559333 -12.84758,-20.235118 -3.8661,-5.526974 -8.96322,-10.158065 -11.5067,-16.565115 -2.36078,-5.420995 -4.2884,-10.857975 -4.24237,-16.849235 -0.27485,-1.85224 -0.416,-4.02173 -1.40195,-5.68418 -0.77697,-1.31007 -1.4354,-0.32842 -1.27142,-0.42401 10.17036,-5.92896 20.38364,-11.78397 30.57546,-17.67595 -6.87742,0.90776 -0.98879,7.96368 0.71941,11.35426 3.44426,5.5556 7.63587,10.4897 12.08926,15.27725 8.3178,11.143821 15.08336,23.378798 22.06896,35.37634 8.12187,16.014768 16.663,32.373778 18.89268,50.439609 0,0 -32.60581,16.613486 -32.60581,16.613486 z"
         id="path2985"
         style="fill:#000000;stroke-width:0.1;stroke-miterlimit:4;stroke-dasharray:none" />
      <path
         d="m -247.80478,-38.828923 c 0.93435,-11.013826 2.71129,-21.95563 4.90673,-32.782345 2.39455,-10.431401 6.67897,-20.156593 11.43472,-29.681402 0,0 32.74414,-14.75919 32.74414,-14.75919 l 0,0 c -4.91885,9.16858 -9.33351,18.541379 -11.75212,28.729883 -2.14034,10.486355 -3.77753,21.130628 -4.58105,31.804862 0,0 -32.75242,16.688192 -32.75242,16.688192 z"
         id="path2987"
         style="fill:#000000;stroke-width:0.1;stroke-miterlimit:4;stroke-dasharray:none" />
    </g>
    <g
       transform="matrix(0.52122646,0,0,0.52122646,-130.56119,400.49219)"
       id="g2989">
      <path
         style="fill:#000000;stroke-width:0.1;stroke-miterlimit:4;stroke-dasharray:none"
         id="path2991"
         d="m -184.48359,-64.228838 c -9.35064,0.995742 -19.01686,2.760265 -27.4923,7.077157 -2.21783,1.129636 -8.44302,5.26838 -6.27008,4.054632 22.53993,-12.590166 44.9222,-25.460506 67.3833,-38.19076 -13.93915,12.972123 -20.67407,31.046913 -25.12187,49.135576 -1.41578,7.59634 -0.8354,3.938149 -1.78769,10.967085 0,0 -77.63885,38.1808049 -77.63885,38.1808049 l 0,0 c 1.16311,-7.77567722 0.46692,-3.7361717 2.13693,-12.1100838 4.81414,-19.1788381 12.05643,-37.6059521 22.82247,-54.2930351 52.07033,-31.218689 66.80149,-50.286108 115.9879,-56.670098 0,0 -70.01981,51.848722 -70.01981,51.848722 z" />
      <path
         style="fill:#000000;stroke-width:0.1;stroke-miterlimit:4;stroke-dasharray:none"
         id="path2993"
         d="m -345.00727,-99.113508 c 14.61489,0.164379 29.0505,1.238266 43.46951,3.669098 13.57397,1.675593 25.84098,7.669696 37.22375,14.948142 9.19326,5.386601 18.24824,10.973939 27.14753,16.832666 8.65065,6.751398 18.68144,11.51484 27.32345,18.227881 4.01473,3.887363 2.01275,2.158632 5.94695,5.253751 0,0 -73.88202,46.1799934 -73.88202,46.1799934 l 0,0 c -3.86254,-3.4114229 -2.02128,-1.7547226 -5.53059,-4.9624994 -8.62532,-6.1943255 -17.4458,-12.120422 -26.23294,-18.077154 -9.19604,-5.493072 -18.59161,-10.671337 -27.51698,-16.602402 -10.54143,-6.503332 -21.83684,-11.193093 -34.23869,-12.717457 -14.81142,-2.022628 -29.70803,-2.220813 -44.62503,-1.229209 0,0 70.91506,-51.52281 70.91506,-51.52281 z" />
      <path
         style="fill:#000000;stroke-width:0.1;stroke-miterlimit:4;stroke-dasharray:none"
         id="path2995"
         d="m -242.01719,-8.462995 c -0.51818,-17.829134 -9.24193,-33.894929 -17.25784,-49.378231 -6.87106,-11.833969 -13.85346,-23.7017 -22.36388,-34.446642 -4.76029,-4.691934 -9.03818,-9.754362 -12.54438,-15.439852 -2.91789,-5.01813 -6.33531,-10.51802 -3.26178,-16.16378 20.4217,-14.23188 34.8224,-29.17779 38.81859,-7.06281 0.11613,5.69515 1.557,10.91017 3.72609,16.13483 2.42529,6.19891 7.46734,10.55057 11.11404,15.949551 4.36556,6.782449 8.70183,13.580699 12.82582,20.509351 4.12059,6.668189 8.31201,13.300681 11.76932,20.341656 0,0 -31.83229,18.08131 -31.83229,18.08131 l 0,0 c -3.36709,-6.971555 -7.33154,-13.608944 -11.46363,-20.15272 -4.12872,-6.842181 -8.44969,-13.559333 -12.84758,-20.235118 -3.8661,-5.526974 -8.96322,-10.158065 -11.5067,-16.565115 -2.36078,-5.420995 -4.2884,-10.857975 -4.24237,-16.849235 -0.27485,-1.85224 -0.416,-4.02173 -1.40195,-5.68418 -0.77697,-1.31007 -1.4354,-0.32842 -1.27142,-0.42401 10.17036,-5.92896 20.38364,-11.78397 30.57546,-17.67595 -6.87742,0.90776 -0.98879,7.96368 0.71941,11.35426 3.44426,5.5556 7.63587,10.4897 12.08926,15.27725 8.3178,11.143821 15.08336,23.378798 22.06896,35.37634 8.12187,16.014768 16.663,32.373778 18.89268,50.439609 0,0 -32.60581,16.613486 -32.60581,16.613486 z" />
      <path
         style="fill:#000000;stroke-width:0.1;stroke-miterlimit:4;stroke-dasharray:none"
         id="path2997"
         d="m -247.80478,-38.828923 c 0.93435,-11.013826 2.71129,-21.95563 4.90673,-32.782345 2.39455,-10.431401 6.67897,-20.156593 11.43472,-29.681402 0,0 32.74414,-14.75919 32.74414,-14.75919 l 0,0 c -4.91885,9.16858 -9.33351,18.541379 -11.75212,28.729883 -2.14034,10.486355 -3.77753,21.130628 -4.58105,31.804862 0,0 -32.75242,16.688192 -32.75242,16.688192 z" />
    </g>
    <g
       id="g2999"
       transform="matrix(0.52122646,0,0,0.52122646,280.86738,543.34933)">
      <path
         d="m -184.48359,-64.228838 c -9.35064,0.995742 -19.01686,2.760265 -27.4923,7.077157 -2.21783,1.129636 -8.44302,5.26838 -6.27008,4.054632 22.53993,-12.590166 44.9222,-25.460506 67.3833,-38.19076 -13.93915,12.972123 -20.67407,31.046913 -25.12187,49.135576 -1.41578,7.59634 -0.8354,3.938149 -1.78769,10.967085 0,0 -77.63885,38.1808049 -77.63885,38.1808049 l 0,0 c 1.16311,-7.77567722 0.46692,-3.7361717 2.13693,-12.1100838 4.81414,-19.1788381 12.05643,-37.6059521 22.82247,-54.2930351 52.07033,-31.218689 66.80149,-50.286108 115.9879,-56.670098 0,0 -70.01981,51.848722 -70.01981,51.848722 z"
         id="path3001"
         style="fill:#000000;stroke-width:0.1;stroke-miterlimit:4;stroke-dasharray:none" />
      <path
         d="m -345.00727,-99.113508 c 14.61489,0.164379 29.0505,1.238266 43.46951,3.669098 13.57397,1.675593 25.84098,7.669696 37.22375,14.948142 9.19326,5.386601 18.24824,10.973939 27.14753,16.832666 8.65065,6.751398 18.68144,11.51484 27.32345,18.227881 4.01473,3.887363 2.01275,2.158632 5.94695,5.253751 0,0 -73.88202,46.1799934 -73.88202,46.1799934 l 0,0 c -3.86254,-3.4114229 -2.02128,-1.7547226 -5.53059,-4.9624994 -8.62532,-6.1943255 -17.4458,-12.120422 -26.23294,-18.077154 -9.19604,-5.493072 -18.59161,-10.671337 -27.51698,-16.602402 -10.54143,-6.503332 -21.83684,-11.193093 -34.23869,-12.717457 -14.81142,-2.022628 -29.70803,-2.220813 -44.62503,-1.229209 0,0 70.91506,-51.52281 70.91506,-51.52281 z"
         id="path3003"
         style="fill:#000000;stroke-width:0.1;stroke-miterlimit:4;stroke-dasharray:none" />
      <path
         d="m -242.01719,-8.462995 c -0.51818,-17.829134 -9.24193,-33.894929 -17.25784,-49.378231 -6.87106,-11.833969 -13.85346,-23.7017 -22.36388,-34.446642 -4.76029,-4.691934 -9.03818,-9.754362 -12.54438,-15.439852 -2.91789,-5.01813 -6.33531,-10.51802 -3.26178,-16.16378 20.4217,-14.23188 34.8224,-29.17779 38.81859,-7.06281 0.11613,5.69515 1.557,10.91017 3.72609,16.13483 2.42529,6.19891 7.46734,10.55057 11.11404,15.949551 4.36556,6.782449 8.70183,13.580699 12.82582,20.509351 4.12059,6.668189 8.31201,13.300681 11.76932,20.341656 0,0 -31.83229,18.08131 -31.83229,18.08131 l 0,0 c -3.36709,-6.971555 -7.33154,-13.608944 -11.46363,-20.15272 -4.12872,-6.842181 -8.44969,-13.559333 -12.84758,-20.235118 -3.8661,-5.526974 -8.96322,-10.158065 -11.5067,-16.565115 -2.36078,-5.420995 -4.2884,-10.857975 -4.24237,-16.849235 -0.27485,-1.85224 -0.416,-4.02173 -1.40195,-5.68418 -0.77697,-1.31007 -1.4354,-0.32842 -1.27142,-0.42401 10.17036,-5.92896 20.38364,-11.78397 30.57546,-17.67595 -6.87742,0.90776 -0.98879,7.96368 0.71941,11.35426 3.44426,5.5556 7.63587,10.4897 12.08926,15.27725 8.3178,11.143821 15.08336,23.378798 22.06896,35.37634 8.12187,16.014768 16.663,32.373778 18.89268,50.439609 0,0 -32.60581,16.613486 -32.60581,16.613486 z"
         id="path3005"
         style="fill:#000000;stroke-width:0.1;stroke-miterlimit:4;stroke-dasharray:none" />
      <path
         d="m -247.80478,-38.828923 c 0.93435,-11.013826 2.71129,-21.95563 4.90673,-32.782345 2.39455,-10.431401 6.67897,-20.156593 11.43472,-29.681402 0,0 32.74414,-14.75919 32.74414,-14.75919 l 0,0 c -4.91885,9.16858 -9.33351,18.541379 -11.75212,28.729883 -2.14034,10.486355 -3.77753,21.130628 -4.58105,31.804862 0,0 -32.75242,16.688192 -32.75242,16.688192 z"
         id="path3007"
         style="fill:#000000;stroke-width:0.1;stroke-miterlimit:4;stroke-dasharray:none" />
    </g>
    <g
       transform="matrix(0.52122646,0,0,0.52122646,1163.7245,683.34933)"
       id="g3009">
      <path
         style="fill:#000000;stroke-width:0.1;stroke-miterlimit:4;stroke-dasharray:none"
         id="path3011"
         d="m -184.48359,-64.228838 c -9.35064,0.995742 -19.01686,2.760265 -27.4923,7.077157 -2.21783,1.129636 -8.44302,5.26838 -6.27008,4.054632 22.53993,-12.590166 44.9222,-25.460506 67.3833,-38.19076 -13.93915,12.972123 -20.67407,31.046913 -25.12187,49.135576 -1.41578,7.59634 -0.8354,3.938149 -1.78769,10.967085 0,0 -77.63885,38.1808049 -77.63885,38.1808049 l 0,0 c 1.16311,-7.77567722 0.46692,-3.7361717 2.13693,-12.1100838 4.81414,-19.1788381 12.05643,-37.6059521 22.82247,-54.2930351 52.07033,-31.218689 66.80149,-50.286108 115.9879,-56.670098 0,0 -70.01981,51.848722 -70.01981,51.848722 z" />
      <path
         style="fill:#000000;stroke-width:0.1;stroke-miterlimit:4;stroke-dasharray:none"
         id="path3013"
         d="m -345.00727,-99.113508 c 14.61489,0.164379 29.0505,1.238266 43.46951,3.669098 13.57397,1.675593 25.84098,7.669696 37.22375,14.948142 9.19326,5.386601 18.24824,10.973939 27.14753,16.832666 8.65065,6.751398 18.68144,11.51484 27.32345,18.227881 4.01473,3.887363 2.01275,2.158632 5.94695,5.253751 0,0 -73.88202,46.1799934 -73.88202,46.1799934 l 0,0 c -3.86254,-3.4114229 -2.02128,-1.7547226 -5.53059,-4.9624994 -8.62532,-6.1943255 -17.4458,-12.120422 -26.23294,-18.077154 -9.19604,-5.493072 -18.59161,-10.671337 -27.51698,-16.602402 -10.54143,-6.503332 -21.83684,-11.193093 -34.23869,-12.717457 -14.81142,-2.022628 -29.70803,-2.220813 -44.62503,-1.229209 0,0 70.91506,-51.52281 70.91506,-51.52281 z" />
      <path
         style="fill:#000000;stroke-width:0.1;stroke-miterlimit:4;stroke-dasharray:none"
         id="path3015"
         d="m -242.01719,-8.462995 c -0.51818,-17.829134 -9.24193,-33.894929 -17.25784,-49.378231 -6.87106,-11.833969 -13.85346,-23.7017 -22.36388,-34.446642 -4.76029,-4.691934 -9.03818,-9.754362 -12.54438,-15.439852 -2.91789,-5.01813 -6.33531,-10.51802 -3.26178,-16.16378 20.4217,-14.23188 34.8224,-29.17779 38.81859,-7.06281 0.11613,5.69515 1.557,10.91017 3.72609,16.13483 2.42529,6.19891 7.46734,10.55057 11.11404,15.949551 4.36556,6.782449 8.70183,13.580699 12.82582,20.509351 4.12059,6.668189 8.31201,13.300681 11.76932,20.341656 0,0 -31.83229,18.08131 -31.83229,18.08131 l 0,0 c -3.36709,-6.971555 -7.33154,-13.608944 -11.46363,-20.15272 -4.12872,-6.842181 -8.44969,-13.559333 -12.84758,-20.235118 -3.8661,-5.526974 -8.96322,-10.158065 -11.5067,-16.565115 -2.36078,-5.420995 -4.2884,-10.857975 -4.24237,-16.849235 -0.27485,-1.85224 -0.416,-4.02173 -1.40195,-5.68418 -0.77697,-1.31007 -1.4354,-0.32842 -1.27142,-0.42401 10.17036,-5.92896 20.38364,-11.78397 30.57546,-17.67595 -6.87742,0.90776 -0.98879,7.96368 0.71941,11.35426 3.44426,5.5556 7.63587,10.4897 12.08926,15.27725 8.3178,11.143821 15.08336,23.378798 22.06896,35.37634 8.12187,16.014768 16.663,32.373778 18.89268,50.439609 0,0 -32.60581,16.613486 -32.60581,16.613486 z" />
      <path
         style="fill:#000000;stroke-width:0.1;stroke-miterlimit:4;stroke-dasharray:none"
         id="path3017"
         d="m -247.80478,-38.828923 c 0.93435,-11.013826 2.71129,-21.95563 4.90673,-32.782345 2.39455,-10.431401 6.67897,-20.156593 11.43472,-29.681402 0,0 32.74414,-14.75919 32.74414,-14.75919 l 0,0 c -4.91885,9.16858 -9.33351,18.541379 -11.75212,28.729883 -2.14034,10.486355 -3.77753,21.130628 -4.58105,31.804862 0,0 -32.75242,16.688192 -32.75242,16.688192 z" />
    </g>
    <g
       id="g3019"
       transform="matrix(0.52122646,0,0,0.52122646,1498.0102,894.7779)">
      <path
         d="m -184.48359,-64.228838 c -9.35064,0.995742 -19.01686,2.760265 -27.4923,7.077157 -2.21783,1.129636 -8.44302,5.26838 -6.27008,4.054632 22.53993,-12.590166 44.9222,-25.460506 67.3833,-38.19076 -13.93915,12.972123 -20.67407,31.046913 -25.12187,49.135576 -1.41578,7.59634 -0.8354,3.938149 -1.78769,10.967085 0,0 -77.63885,38.1808049 -77.63885,38.1808049 l 0,0 c 1.16311,-7.77567722 0.46692,-3.7361717 2.13693,-12.1100838 4.81414,-19.1788381 12.05643,-37.6059521 22.82247,-54.2930351 52.07033,-31.218689 66.80149,-50.286108 115.9879,-56.670098 0,0 -70.01981,51.848722 -70.01981,51.848722 z"
         id="path3021"
         style="fill:#000000;stroke-width:0.1;stroke-miterlimit:4;stroke-dasharray:none" />
      <path
         d="m -345.00727,-99.113508 c 14.61489,0.164379 29.0505,1.238266 43.46951,3.669098 13.57397,1.675593 25.84098,7.669696 37.22375,14.948142 9.19326,5.386601 18.24824,10.973939 27.14753,16.832666 8.65065,6.751398 18.68144,11.51484 27.32345,18.227881 4.01473,3.887363 2.01275,2.158632 5.94695,5.253751 0,0 -73.88202,46.1799934 -73.88202,46.1799934 l 0,0 c -3.86254,-3.4114229 -2.02128,-1.7547226 -5.53059,-4.9624994 -8.62532,-6.1943255 -17.4458,-12.120422 -26.23294,-18.077154 -9.19604,-5.493072 -18.59161,-10.671337 -27.51698,-16.602402 -10.54143,-6.503332 -21.83684,-11.193093 -34.23869,-12.717457 -14.81142,-2.022628 -29.70803,-2.220813 -44.62503,-1.229209 0,0 70.91506,-51.52281 70.91506,-51.52281 z"
         id="path3023"
         style="fill:#000000;stroke-width:0.1;stroke-miterlimit:4;stroke-dasharray:none" />
      <path
         d="m -242.01719,-8.462995 c -0.51818,-17.829134 -9.24193,-33.894929 -17.25784,-49.378231 -6.87106,-11.833969 -13.85346,-23.7017 -22.36388,-34.446642 -4.76029,-4.691934 -9.03818,-9.754362 -12.54438,-15.439852 -2.91789,-5.01813 -6.33531,-10.51802 -3.26178,-16.16378 20.4217,-14.23188 34.8224,-29.17779 38.81859,-7.06281 0.11613,5.69515 1.557,10.91017 3.72609,16.13483 2.42529,6.19891 7.46734,10.55057 11.11404,15.949551 4.36556,6.782449 8.70183,13.580699 12.82582,20.509351 4.12059,6.668189 8.31201,13.300681 11.76932,20.341656 0,0 -31.83229,18.08131 -31.83229,18.08131 l 0,0 c -3.36709,-6.971555 -7.33154,-13.608944 -11.46363,-20.15272 -4.12872,-6.842181 -8.44969,-13.559333 -12.84758,-20.235118 -3.8661,-5.526974 -8.96322,-10.158065 -11.5067,-16.565115 -2.36078,-5.420995 -4.2884,-10.857975 -4.24237,-16.849235 -0.27485,-1.85224 -0.416,-4.02173 -1.40195,-5.68418 -0.77697,-1.31007 -1.4354,-0.32842 -1.27142,-0.42401 10.17036,-5.92896 20.38364,-11.78397 30.57546,-17.67595 -6.87742,0.90776 -0.98879,7.96368 0.71941,11.35426 3.44426,5.5556 7.63587,10.4897 12.08926,15.27725 8.3178,11.143821 15.08336,23.378798 22.06896,35.37634 8.12187,16.014768 16.663,32.373778 18.89268,50.439609 0,0 -32.60581,16.613486 -32.60581,16.613486 z"
         id="path3025"
         style="fill:#000000;stroke-width:0.1;stroke-miterlimit:4;stroke-dasharray:none" />
      <path
         d="m -247.80478,-38.828923 c 0.93435,-11.013826 2.71129,-21.95563 4.90673,-32.782345 2.39455,-10.431401 6.67897,-20.156593 11.43472,-29.681402 0,0 32.74414,-14.75919 32.74414,-14.75919 l 0,0 c -4.91885,9.16858 -9.33351,18.541379 -11.75212,28.729883 -2.14034,10.486355 -3.77753,21.130628 -4.58105,31.804862 0,0 -32.75242,16.688192 -32.75242,16.688192 z"
         id="path3027"
         style="fill:#000000;stroke-width:0.1;stroke-miterlimit:4;stroke-dasharray:none" />
    </g>
  </g>
</svg>
