<?xml version="1.0" encoding="utf-8"?>
<!-- Generator: Adobe Illustrator 15.0.0, SVG Export Plug-In . SVG Version: 6.00 Build 0)  -->
<!DOCTYPE svg PUBLIC "-//W3C//DTD SVG 1.1//EN" "http://www.w3.org/Graphics/SVG/1.1/DTD/svg11.dtd">
<svg version="1.1" id="Layer_1" xmlns="http://www.w3.org/2000/svg" xmlns:xlink="http://www.w3.org/1999/xlink" x="0px" y="0px"
	 width="648px" height="648px" viewBox="0 0 648 648" enable-background="new 0 0 648 648" xml:space="preserve">
<g>
	<g>
		<g>
			<g>
				<polygon fill="#BE2026" stroke="#FFFEF9" stroke-miterlimit="10" points="179.27,184.283 309.988,214.018 172.184,246.423 
					39.628,216.268 				"/>
				<polygon fill="#BE2026" stroke="#FFFEF9" stroke-miterlimit="10" points="161.621,338.875 292.34,368.609 154.535,401.016 
					21.988,370.859 				"/>
				<polygon fill="#BE2026" stroke="#FFFEF9" stroke-miterlimit="10" points="172.184,246.423 154.535,401.016 21.988,370.859 
					39.628,216.268 				"/>
				<polygon fill="#BE2026" stroke="#FFFEF9" stroke-miterlimit="10" points="309.988,214.018 292.34,368.609 154.535,401.016 
					172.184,246.423 				"/>
				<path fill="#BE2026" stroke="#FFFEF9" stroke-miterlimit="10" d="M191.316,113.015"/>
			</g>
			<polygon fill="#BE2026" stroke="#FFFEF9" stroke-miterlimit="10" points="179.27,184.283 39.628,216.268 172.184,246.423 
				309.988,214.018 			"/>
		</g>
		<g>
			<path d="M200.525,276.17c-11.703-4.338-12.245,13.736-0.286,9.52C211.941,290.008,212.484,271.955,200.525,276.17z"/>
			<path fill="none" stroke="#1C6030" stroke-miterlimit="10" d="M200.525,276.17c-11.703-4.338-12.245,13.736-0.286,9.52
				C211.941,290.008,212.484,271.955,200.525,276.17z"/>
		</g>
		<g>
			<path d="M261.252,259.814c-11.713-4.344-12.244,13.75-0.287,9.529C272.67,273.666,273.211,255.613,261.252,259.814z"/>
			<path fill="none" stroke="#1C6030" stroke-miterlimit="10" d="M261.252,259.814c-11.713-4.344-12.244,13.75-0.287,9.529
				C272.67,273.666,273.211,255.613,261.252,259.814z"/>
		</g>
		<g>
			<path d="M204.08,345.17c-11.714-4.318-12.246,13.756-0.285,9.52C215.516,359.027,216.049,340.953,204.08,345.17z"/>
			<path fill="none" stroke="#1C6030" stroke-miterlimit="10" d="M204.08,345.17c-11.714-4.318-12.246,13.756-0.285,9.52
				C215.516,359.027,216.049,340.953,204.08,345.17z"/>
		</g>
		<g>
			<path d="M258.961,337.17c-11.699-4.338-12.252,13.734-0.291,9.52C270.381,351.008,270.922,332.953,258.961,337.17z"/>
			<path fill="none" stroke="#1C6030" stroke-miterlimit="10" d="M258.961,337.17c-11.699-4.338-12.252,13.734-0.291,9.52
				C270.381,351.008,270.922,332.953,258.961,337.17z"/>
		</g>
		<g>
			<path d="M61.253,247.89c-11.706-4.339-12.238,13.757-0.28,9.521C72.677,261.749,73.22,243.674,61.253,247.89z"/>
			<path fill="none" stroke="#1C6030" stroke-miterlimit="10" d="M61.253,247.89c-11.706-4.339-12.238,13.757-0.28,9.521
				C72.677,261.749,73.22,243.674,61.253,247.89z"/>
		</g>
		<g>
			<path d="M136.455,263.436c-11.703-4.339-12.245,13.735-0.291,9.52C147.882,277.294,148.414,259.22,136.455,263.436z"/>
			<path fill="none" stroke="#1C6030" stroke-miterlimit="10" d="M136.455,263.436c-11.703-4.339-12.245,13.735-0.291,9.52
				C147.882,277.294,148.414,259.22,136.455,263.436z"/>
		</g>
		<g>
			<path d="M87.8,297.688c-11.705-4.322-12.237,13.73-0.28,9.531C99.225,311.541,99.757,293.468,87.8,297.688z"/>
			<path fill="none" stroke="#1C6030" stroke-miterlimit="10" d="M87.8,297.688c-11.705-4.322-12.237,13.73-0.28,9.531
				C99.225,311.541,99.757,293.468,87.8,297.688z"/>
		</g>
		<g>
			<path d="M45.785,344.404c-11.706-4.339-12.238,13.734-0.28,9.52C57.208,358.262,57.751,340.188,45.785,344.404z"/>
			<path fill="none" stroke="#1C6030" stroke-miterlimit="10" d="M45.785,344.404c-11.706-4.339-12.238,13.734-0.28,9.52
				C57.208,358.262,57.751,340.188,45.785,344.404z"/>
		</g>
		<g>
			<path d="M125.064,364.107c-11.703-4.339-12.246,13.734-0.286,9.52C136.491,377.945,137.023,359.891,125.064,364.107z"/>
			<path fill="none" stroke="#1C6030" stroke-miterlimit="10" d="M125.064,364.107c-11.703-4.339-12.246,13.734-0.286,9.52
				C136.491,377.945,137.023,359.891,125.064,364.107z"/>
		</g>
		<g>
			<path d="M95.979,210.813c-11.695-4.339-12.248,13.734-0.28,9.52C107.404,224.649,107.937,206.596,95.979,210.813z"/>
			<path fill="none" stroke="#1C6030" stroke-miterlimit="10" d="M95.979,210.813c-11.695-4.339-12.248,13.734-0.28,9.52
				C107.404,224.649,107.937,206.596,95.979,210.813z"/>
		</g>
		<g>
			<path d="M179.238,190.516c-11.707-4.339-12.239,13.734-0.28,9.52C190.672,204.373,191.203,186.299,179.238,190.516z"/>
			<path fill="none" stroke="#1C6030" stroke-miterlimit="10" d="M179.238,190.516c-11.707-4.339-12.239,13.734-0.28,9.52
				C190.672,204.373,191.203,186.299,179.238,190.516z"/>
		</g>
		<g>
			<path d="M165.488,229.09c-11.706-4.333-12.238,13.721-0.28,9.51C176.912,242.933,177.454,224.859,165.488,229.09z"/>
			<path fill="none" stroke="#1C6030" stroke-miterlimit="10" d="M165.488,229.09c-11.706-4.333-12.238,13.721-0.28,9.51
				C176.912,242.933,177.454,224.859,165.488,229.09z"/>
		</g>
		<g>
			<path d="M208.26,216.859c-11.713-4.339-12.245,13.734-0.281,9.519C219.677,230.695,220.219,212.643,208.26,216.859z"/>
			<path fill="none" stroke="#1C6030" stroke-miterlimit="10" d="M208.26,216.859c-11.713-4.339-12.245,13.734-0.281,9.519
				C219.677,230.695,220.219,212.643,208.26,216.859z"/>
		</g>
		<g>
			<path d="M253.184,207.313c-11.705-4.339-12.238,13.734-0.281,9.52C264.607,221.17,265.139,203.096,253.184,207.313z"/>
			<path fill="none" stroke="#1C6030" stroke-miterlimit="10" d="M253.184,207.313c-11.705-4.339-12.238,13.734-0.281,9.52
				C264.607,221.17,265.139,203.096,253.184,207.313z"/>
		</g>
		<g>
			<path d="M135.721,199.844c-11.713-4.339-12.246,13.734-0.28,9.52C147.147,213.701,147.68,195.627,135.721,199.844z"/>
			<path fill="none" stroke="#1C6030" stroke-miterlimit="10" d="M135.721,199.844c-11.713-4.339-12.246,13.734-0.28,9.52
				C147.147,213.701,147.68,195.627,135.721,199.844z"/>
		</g>
	</g>
	<g>
		<g>
			<g>
				<polygon fill="#BE2026" stroke="#FFFEF9" stroke-miterlimit="10" points="197.055,31.339 327.773,61.073 189.969,93.479 
					57.414,63.323 				"/>
				<polygon fill="#BE2026" stroke="#FFFEF9" stroke-miterlimit="10" points="179.406,185.931 310.125,215.665 172.32,248.071 
					39.773,217.915 				"/>
				<polygon fill="#BE2026" stroke="#FFFEF9" stroke-miterlimit="10" points="189.969,93.479 172.32,248.071 39.773,217.915 
					57.414,63.323 				"/>
				<polygon fill="#BE2026" stroke="#FFFEF9" stroke-miterlimit="10" points="327.773,61.073 310.125,215.665 172.32,248.071 
					189.969,93.479 				"/>
				<path fill="#BE2026" stroke="#FFFEF9" stroke-miterlimit="10" d="M209.102-39.93"/>
			</g>
			<polygon fill="#BE2026" stroke="#FFFEF9" stroke-miterlimit="10" points="197.055,31.339 57.414,63.323 189.969,93.479 
				327.773,61.073 			"/>
		</g>
		<g>
			<path d="M218.311,123.226c-11.703-4.338-12.245,13.736-0.286,9.52C229.727,137.063,230.27,119.011,218.311,123.226z"/>
			<path fill="none" stroke="#1C6030" stroke-miterlimit="10" d="M218.311,123.226c-11.703-4.338-12.245,13.736-0.286,9.52
				C229.727,137.063,230.27,119.011,218.311,123.226z"/>
		</g>
		<g>
			<path d="M279.038,106.87c-11.713-4.344-12.244,13.75-0.287,9.529C290.456,120.722,290.997,102.669,279.038,106.87z"/>
			<path fill="none" stroke="#1C6030" stroke-miterlimit="10" d="M279.038,106.87c-11.713-4.344-12.244,13.75-0.287,9.529
				C290.456,120.722,290.997,102.669,279.038,106.87z"/>
		</g>
		<g>
			<path d="M221.866,192.226c-11.714-4.318-12.246,13.756-0.285,9.52C233.301,206.083,233.834,188.009,221.866,192.226z"/>
			<path fill="none" stroke="#1C6030" stroke-miterlimit="10" d="M221.866,192.226c-11.714-4.318-12.246,13.756-0.285,9.52
				C233.301,206.083,233.834,188.009,221.866,192.226z"/>
		</g>
		<g>
			<path d="M276.747,184.226c-11.699-4.338-12.252,13.734-0.291,9.52C288.167,198.063,288.708,180.009,276.747,184.226z"/>
			<path fill="none" stroke="#1C6030" stroke-miterlimit="10" d="M276.747,184.226c-11.699-4.338-12.252,13.734-0.291,9.52
				C288.167,198.063,288.708,180.009,276.747,184.226z"/>
		</g>
		<g>
			<path d="M79.039,94.945c-11.705-4.339-12.238,13.757-0.279,9.521C90.462,108.805,91.005,90.729,79.039,94.945z"/>
			<path fill="none" stroke="#1C6030" stroke-miterlimit="10" d="M79.039,94.945c-11.705-4.339-12.238,13.757-0.279,9.521
				C90.462,108.805,91.005,90.729,79.039,94.945z"/>
		</g>
		<g>
			<path d="M154.241,110.491c-11.703-4.339-12.245,13.735-0.291,9.52C165.667,124.35,166.2,106.275,154.241,110.491z"/>
			<path fill="none" stroke="#1C6030" stroke-miterlimit="10" d="M154.241,110.491c-11.703-4.339-12.245,13.735-0.291,9.52
				C165.667,124.35,166.2,106.275,154.241,110.491z"/>
		</g>
		<g>
			<path d="M105.585,144.743c-11.705-4.322-12.237,13.73-0.28,9.531C117.01,158.597,117.542,140.523,105.585,144.743z"/>
			<path fill="none" stroke="#1C6030" stroke-miterlimit="10" d="M105.585,144.743c-11.705-4.322-12.237,13.73-0.28,9.531
				C117.01,158.597,117.542,140.523,105.585,144.743z"/>
		</g>
		<g>
			<path d="M63.57,191.46c-11.705-4.339-12.238,13.734-0.279,9.52C74.994,205.317,75.537,187.243,63.57,191.46z"/>
			<path fill="none" stroke="#1C6030" stroke-miterlimit="10" d="M63.57,191.46c-11.705-4.339-12.238,13.734-0.279,9.52
				C74.994,205.317,75.537,187.243,63.57,191.46z"/>
		</g>
		<g>
			<path d="M142.85,211.163c-11.703-4.339-12.245,13.734-0.286,9.52C154.277,225.001,154.808,206.946,142.85,211.163z"/>
			<path fill="none" stroke="#1C6030" stroke-miterlimit="10" d="M142.85,211.163c-11.703-4.339-12.245,13.734-0.286,9.52
				C154.277,225.001,154.808,206.946,142.85,211.163z"/>
		</g>
		<g>
			<path d="M113.765,57.868c-11.695-4.338-12.248,13.735-0.28,9.52C125.19,71.705,125.722,53.652,113.765,57.868z"/>
			<path fill="none" stroke="#1C6030" stroke-miterlimit="10" d="M113.765,57.868c-11.695-4.338-12.248,13.735-0.28,9.52
				C125.19,71.705,125.722,53.652,113.765,57.868z"/>
		</g>
		<g>
			<path d="M197.024,37.571c-11.707-4.338-12.239,13.735-0.28,9.52C208.458,51.429,208.989,33.355,197.024,37.571z"/>
			<path fill="none" stroke="#1C6030" stroke-miterlimit="10" d="M197.024,37.571c-11.707-4.338-12.239,13.735-0.28,9.52
				C208.458,51.429,208.989,33.355,197.024,37.571z"/>
		</g>
		<g>
			<path d="M183.273,76.146c-11.705-4.333-12.238,13.72-0.279,9.509C194.698,89.988,195.24,71.915,183.273,76.146z"/>
			<path fill="none" stroke="#1C6030" stroke-miterlimit="10" d="M183.273,76.146c-11.705-4.333-12.238,13.72-0.279,9.509
				C194.698,89.988,195.24,71.915,183.273,76.146z"/>
		</g>
		<g>
			<path d="M226.045,63.915c-11.713-4.338-12.245,13.735-0.281,9.519C237.462,77.751,238.004,59.699,226.045,63.915z"/>
			<path fill="none" stroke="#1C6030" stroke-miterlimit="10" d="M226.045,63.915c-11.713-4.338-12.245,13.735-0.281,9.519
				C237.462,77.751,238.004,59.699,226.045,63.915z"/>
		</g>
		<g>
			<path d="M270.969,54.368c-11.705-4.338-12.238,13.735-0.281,9.52C282.393,68.226,282.924,50.152,270.969,54.368z"/>
			<path fill="none" stroke="#1C6030" stroke-miterlimit="10" d="M270.969,54.368c-11.705-4.338-12.238,13.735-0.281,9.52
				C282.393,68.226,282.924,50.152,270.969,54.368z"/>
		</g>
		<g>
			<path d="M153.506,46.899c-11.714-4.338-12.245,13.735-0.28,9.52C164.933,60.757,165.465,42.683,153.506,46.899z"/>
			<path fill="none" stroke="#1C6030" stroke-miterlimit="10" d="M153.506,46.899c-11.714-4.338-12.245,13.735-0.28,9.52
				C164.933,60.757,165.465,42.683,153.506,46.899z"/>
		</g>
	</g>
</g>
<g>
	<g>
		<g>
			<polygon fill="#BE2026" stroke="#FFFEF9" stroke-miterlimit="10" points="507.733,2.84 638.452,32.574 500.647,64.98 
				368.092,34.824 			"/>
			<polygon fill="#BE2026" stroke="#FFFEF9" stroke-miterlimit="10" points="490.084,157.432 620.804,187.167 482.998,219.573 
				350.451,189.417 			"/>
			<polygon fill="#BE2026" stroke="#FFFEF9" stroke-miterlimit="10" points="500.647,64.98 482.998,219.573 350.451,189.417 
				368.092,34.824 			"/>
			<polygon fill="#BE2026" stroke="#FFFEF9" stroke-miterlimit="10" points="638.452,32.574 620.804,187.167 482.998,219.573 
				500.647,64.98 			"/>
			<path fill="#BE2026" stroke="#FFFEF9" stroke-miterlimit="10" d="M519.78-68.428"/>
		</g>
		<polygon fill="#BE2026" stroke="#FFFEF9" stroke-miterlimit="10" points="507.733,2.84 368.092,34.824 500.647,64.98 
			638.452,32.574 		"/>
	</g>
	<g>
		<path d="M528.989,94.727c-11.703-4.338-12.245,13.736-0.286,9.52C540.405,108.565,540.948,90.512,528.989,94.727z"/>
		<path fill="none" stroke="#1C6030" stroke-miterlimit="10" d="M528.989,94.727c-11.703-4.338-12.245,13.736-0.286,9.52
			C540.405,108.565,540.948,90.512,528.989,94.727z"/>
	</g>
	<g>
		<path d="M589.716,78.372c-11.713-4.344-12.244,13.75-0.287,9.529C601.134,92.223,601.675,74.171,589.716,78.372z"/>
		<path fill="none" stroke="#1C6030" stroke-miterlimit="10" d="M589.716,78.372c-11.713-4.344-12.244,13.75-0.287,9.529
			C601.134,92.223,601.675,74.171,589.716,78.372z"/>
	</g>
	<g>
		<path d="M532.544,163.727c-11.714-4.318-12.246,13.756-0.285,9.52C543.979,177.584,544.513,159.51,532.544,163.727z"/>
		<path fill="none" stroke="#1C6030" stroke-miterlimit="10" d="M532.544,163.727c-11.714-4.318-12.246,13.756-0.285,9.52
			C543.979,177.584,544.513,159.51,532.544,163.727z"/>
	</g>
	<g>
		<path d="M587.425,155.727c-11.699-4.338-12.252,13.734-0.291,9.52C598.845,169.565,599.386,151.51,587.425,155.727z"/>
		<path fill="none" stroke="#1C6030" stroke-miterlimit="10" d="M587.425,155.727c-11.699-4.338-12.252,13.734-0.291,9.52
			C598.845,169.565,599.386,151.51,587.425,155.727z"/>
	</g>
	<g>
		<path d="M389.717,66.447c-11.705-4.339-12.238,13.757-0.279,9.521C401.141,80.306,401.684,62.231,389.717,66.447z"/>
		<path fill="none" stroke="#1C6030" stroke-miterlimit="10" d="M389.717,66.447c-11.705-4.339-12.238,13.757-0.279,9.521
			C401.141,80.306,401.684,62.231,389.717,66.447z"/>
	</g>
	<g>
		<path d="M464.919,81.993c-11.703-4.339-12.245,13.735-0.291,9.52C476.346,95.851,476.878,77.777,464.919,81.993z"/>
		<path fill="none" stroke="#1C6030" stroke-miterlimit="10" d="M464.919,81.993c-11.703-4.339-12.245,13.735-0.291,9.52
			C476.346,95.851,476.878,77.777,464.919,81.993z"/>
	</g>
	<g>
		<path d="M416.264,116.245c-11.705-4.322-12.237,13.73-0.28,9.531C427.688,130.098,428.221,112.025,416.264,116.245z"/>
		<path fill="none" stroke="#1C6030" stroke-miterlimit="10" d="M416.264,116.245c-11.705-4.322-12.237,13.73-0.28,9.531
			C427.688,130.098,428.221,112.025,416.264,116.245z"/>
	</g>
	<g>
		<path d="M374.248,162.961c-11.705-4.339-12.238,13.734-0.279,9.52C385.672,176.819,386.215,158.745,374.248,162.961z"/>
		<path fill="none" stroke="#1C6030" stroke-miterlimit="10" d="M374.248,162.961c-11.705-4.339-12.238,13.734-0.279,9.52
			C385.672,176.819,386.215,158.745,374.248,162.961z"/>
	</g>
	<g>
		<path d="M453.528,182.665c-11.703-4.339-12.245,13.734-0.286,9.52C464.955,196.502,465.486,178.448,453.528,182.665z"/>
		<path fill="none" stroke="#1C6030" stroke-miterlimit="10" d="M453.528,182.665c-11.703-4.339-12.245,13.734-0.286,9.52
			C464.955,196.502,465.486,178.448,453.528,182.665z"/>
	</g>
	<g>
		<path d="M424.443,29.369c-11.695-4.338-12.248,13.735-0.28,9.52C435.868,43.207,436.4,25.153,424.443,29.369z"/>
		<path fill="none" stroke="#1C6030" stroke-miterlimit="10" d="M424.443,29.369c-11.695-4.338-12.248,13.735-0.28,9.52
			C435.868,43.207,436.4,25.153,424.443,29.369z"/>
	</g>
	<g>
		<path d="M507.702,9.072c-11.707-4.338-12.239,13.735-0.28,9.52C519.136,22.93,519.667,4.856,507.702,9.072z"/>
		<path fill="none" stroke="#1C6030" stroke-miterlimit="10" d="M507.702,9.072c-11.707-4.338-12.239,13.735-0.28,9.52
			C519.136,22.93,519.667,4.856,507.702,9.072z"/>
	</g>
	<g>
		<path d="M493.951,47.647c-11.705-4.333-12.238,13.72-0.279,9.509C505.376,61.49,505.918,43.416,493.951,47.647z"/>
		<path fill="none" stroke="#1C6030" stroke-miterlimit="10" d="M493.951,47.647c-11.705-4.333-12.238,13.72-0.279,9.509
			C505.376,61.49,505.918,43.416,493.951,47.647z"/>
	</g>
	<g>
		<path d="M536.724,35.416c-11.713-4.338-12.245,13.735-0.281,9.519C548.141,49.253,548.683,31.2,536.724,35.416z"/>
		<path fill="none" stroke="#1C6030" stroke-miterlimit="10" d="M536.724,35.416c-11.713-4.338-12.245,13.735-0.281,9.519
			C548.141,49.253,548.683,31.2,536.724,35.416z"/>
	</g>
	<g>
		<path d="M581.647,25.869c-11.705-4.338-12.238,13.735-0.281,9.52C593.071,39.727,593.603,21.653,581.647,25.869z"/>
		<path fill="none" stroke="#1C6030" stroke-miterlimit="10" d="M581.647,25.869c-11.705-4.338-12.238,13.735-0.281,9.52
			C593.071,39.727,593.603,21.653,581.647,25.869z"/>
	</g>
	<g>
		<path d="M464.185,18.4c-11.714-4.338-12.245,13.735-0.28,9.52C475.611,32.258,476.144,14.185,464.185,18.4z"/>
		<path fill="none" stroke="#1C6030" stroke-miterlimit="10" d="M464.185,18.4c-11.714-4.338-12.245,13.735-0.28,9.52
			C475.611,32.258,476.144,14.185,464.185,18.4z"/>
	</g>
</g>
<g>
	<g>
		<g>
			<g>
				<polygon fill="#BE2026" stroke="#FFFEF9" stroke-miterlimit="10" points="132.734,477.706 163.514,482.562 131.066,487.853 
					99.854,482.929 				"/>
				<polygon fill="#BE2026" stroke="#FFFEF9" stroke-miterlimit="10" points="128.579,502.948 159.358,507.804 126.91,513.095 
					95.701,508.171 				"/>
				<polygon fill="#BE2026" stroke="#FFFEF9" stroke-miterlimit="10" points="131.066,487.853 126.91,513.095 95.701,508.171 
					99.854,482.929 				"/>
				<polygon fill="#BE2026" stroke="#FFFEF9" stroke-miterlimit="10" points="163.514,482.562 159.358,507.804 126.91,513.095 
					131.066,487.853 				"/>
				<path fill="#BE2026" stroke="#FFFEF9" stroke-miterlimit="10" d="M135.571,466.067"/>
			</g>
			<polygon fill="#BE2026" stroke="#FFFEF9" stroke-miterlimit="10" points="132.734,477.706 99.854,482.929 131.066,487.853 
				163.514,482.562 			"/>
		</g>
		<g>
			<path d="M137.74,492.709c-2.756-0.708-2.884,2.242-0.067,1.555C140.427,494.969,140.555,492.021,137.74,492.709z"/>
			<path fill="none" stroke="#1C6030" stroke-miterlimit="10" d="M137.74,492.709c-2.756-0.708-2.884,2.242-0.067,1.555
				C140.427,494.969,140.555,492.021,137.74,492.709z"/>
		</g>
		<g>
			<path d="M152.038,490.038c-2.757-0.71-2.883,2.246-0.066,1.557C154.726,492.302,154.854,489.352,152.038,490.038z"/>
			<path fill="none" stroke="#1C6030" stroke-miterlimit="10" d="M152.038,490.038c-2.757-0.71-2.883,2.246-0.066,1.557
				C154.726,492.302,154.854,489.352,152.038,490.038z"/>
		</g>
		<g>
			<path d="M138.577,503.976c-2.759-0.704-2.884,2.246-0.067,1.555C141.269,506.239,141.395,503.287,138.577,503.976z"/>
			<path fill="none" stroke="#1C6030" stroke-miterlimit="10" d="M138.577,503.976c-2.759-0.704-2.884,2.246-0.067,1.555
				C141.269,506.239,141.395,503.287,138.577,503.976z"/>
		</g>
		<g>
			<path d="M151.499,502.67c-2.755-0.708-2.886,2.242-0.068,1.555C154.187,504.93,154.315,501.979,151.499,502.67z"/>
			<path fill="none" stroke="#1C6030" stroke-miterlimit="10" d="M151.499,502.67c-2.755-0.708-2.886,2.242-0.068,1.555
				C154.187,504.93,154.315,501.979,151.499,502.67z"/>
		</g>
		<g>
			<path d="M104.946,488.092c-2.756-0.708-2.881,2.245-0.066,1.555C107.637,490.354,107.765,487.401,104.946,488.092z"/>
			<path fill="none" stroke="#1C6030" stroke-miterlimit="10" d="M104.946,488.092c-2.756-0.708-2.881,2.245-0.066,1.555
				C107.637,490.354,107.765,487.401,104.946,488.092z"/>
		</g>
		<g>
			<path d="M122.654,490.63c-2.756-0.709-2.884,2.243-0.069,1.555C125.344,492.894,125.469,489.941,122.654,490.63z"/>
			<path fill="none" stroke="#1C6030" stroke-miterlimit="10" d="M122.654,490.63c-2.756-0.709-2.884,2.243-0.069,1.555
				C125.344,492.894,125.469,489.941,122.654,490.63z"/>
		</g>
		<g>
			<path d="M111.197,496.224c-2.756-0.707-2.881,2.241-0.066,1.555C113.888,498.485,114.013,495.532,111.197,496.224z"/>
			<path fill="none" stroke="#1C6030" stroke-miterlimit="10" d="M111.197,496.224c-2.756-0.707-2.881,2.241-0.066,1.555
				C113.888,498.485,114.013,495.532,111.197,496.224z"/>
		</g>
		<g>
			<path d="M101.305,503.851c-2.757-0.709-2.882,2.243-0.066,1.555C103.994,506.114,104.122,503.162,101.305,503.851z"/>
			<path fill="none" stroke="#1C6030" stroke-miterlimit="10" d="M101.305,503.851c-2.757-0.709-2.882,2.243-0.066,1.555
				C103.994,506.114,104.122,503.162,101.305,503.851z"/>
		</g>
		<g>
			<path d="M119.971,507.068c-2.755-0.708-2.883,2.242-0.067,1.555C122.662,509.328,122.788,506.381,119.971,507.068z"/>
			<path fill="none" stroke="#1C6030" stroke-miterlimit="10" d="M119.971,507.068c-2.755-0.708-2.883,2.242-0.067,1.555
				C122.662,509.328,122.788,506.381,119.971,507.068z"/>
		</g>
		<g>
			<path d="M113.123,482.037c-2.753-0.708-2.884,2.242-0.066,1.555C115.813,484.297,115.938,481.35,113.123,482.037z"/>
			<path fill="none" stroke="#1C6030" stroke-miterlimit="10" d="M113.123,482.037c-2.753-0.708-2.884,2.242-0.066,1.555
				C115.813,484.297,115.938,481.35,113.123,482.037z"/>
		</g>
		<g>
			<path d="M132.728,478.723c-2.757-0.708-2.882,2.242-0.066,1.555C135.419,480.985,135.544,478.035,132.728,478.723z"/>
			<path fill="none" stroke="#1C6030" stroke-miterlimit="10" d="M132.728,478.723c-2.757-0.708-2.882,2.242-0.066,1.555
				C135.419,480.985,135.544,478.035,132.728,478.723z"/>
		</g>
		<g>
			<path d="M129.489,485.021c-2.756-0.708-2.881,2.24-0.066,1.553C132.18,487.282,132.308,484.332,129.489,485.021z"/>
			<path fill="none" stroke="#1C6030" stroke-miterlimit="10" d="M129.489,485.021c-2.756-0.708-2.881,2.24-0.066,1.553
				C132.18,487.282,132.308,484.332,129.489,485.021z"/>
		</g>
		<g>
			<path d="M139.561,483.024c-2.758-0.709-2.884,2.243-0.066,1.555C142.249,485.283,142.376,482.336,139.561,483.024z"/>
			<path fill="none" stroke="#1C6030" stroke-miterlimit="10" d="M139.561,483.024c-2.758-0.709-2.884,2.243-0.066,1.555
				C142.249,485.283,142.376,482.336,139.561,483.024z"/>
		</g>
		<g>
			<path d="M150.138,481.466c-2.756-0.709-2.881,2.243-0.066,1.555C152.828,483.729,152.953,480.777,150.138,481.466z"/>
			<path fill="none" stroke="#1C6030" stroke-miterlimit="10" d="M150.138,481.466c-2.756-0.709-2.881,2.243-0.066,1.555
				C152.828,483.729,152.953,480.777,150.138,481.466z"/>
		</g>
		<g>
			<path d="M122.481,480.246c-2.758-0.708-2.884,2.242-0.066,1.555C125.171,482.509,125.296,479.559,122.481,480.246z"/>
			<path fill="none" stroke="#1C6030" stroke-miterlimit="10" d="M122.481,480.246c-2.758-0.708-2.884,2.242-0.066,1.555
				C125.171,482.509,125.296,479.559,122.481,480.246z"/>
		</g>
	</g>
	<g>
		<g>
			<g>
				<polygon fill="#BE2026" stroke="#FFFEF9" stroke-miterlimit="10" points="136.922,452.731 167.701,457.587 135.254,462.878 
					104.042,457.954 				"/>
				<polygon fill="#BE2026" stroke="#FFFEF9" stroke-miterlimit="10" points="132.767,477.974 163.546,482.829 131.099,488.122 
					99.889,483.196 				"/>
				<polygon fill="#BE2026" stroke="#FFFEF9" stroke-miterlimit="10" points="135.254,462.878 131.099,488.122 99.889,483.196 
					104.042,457.954 				"/>
				<polygon fill="#BE2026" stroke="#FFFEF9" stroke-miterlimit="10" points="167.701,457.587 163.546,482.829 131.099,488.122 
					135.254,462.878 				"/>
				<path fill="#BE2026" stroke="#FFFEF9" stroke-miterlimit="10" d="M139.759,441.095"/>
			</g>
			<polygon fill="#BE2026" stroke="#FFFEF9" stroke-miterlimit="10" points="136.922,452.731 104.042,457.954 135.254,462.878 
				167.701,457.587 			"/>
		</g>
		<g>
			<path d="M141.927,467.735c-2.756-0.709-2.884,2.243-0.067,1.555C144.616,469.994,144.743,467.047,141.927,467.735z"/>
			<path fill="none" stroke="#1C6030" stroke-miterlimit="10" d="M141.927,467.735c-2.756-0.709-2.884,2.243-0.067,1.555
				C144.616,469.994,144.743,467.047,141.927,467.735z"/>
		</g>
		<g>
			<path d="M156.226,465.065c-2.758-0.709-2.884,2.243-0.067,1.555C158.914,467.327,159.042,464.379,156.226,465.065z"/>
			<path fill="none" stroke="#1C6030" stroke-miterlimit="10" d="M156.226,465.065c-2.758-0.709-2.884,2.243-0.067,1.555
				C158.914,467.327,159.042,464.379,156.226,465.065z"/>
		</g>
		<g>
			<path d="M142.764,479.002c-2.757-0.705-2.883,2.247-0.067,1.555C145.457,481.265,145.582,478.314,142.764,479.002z"/>
			<path fill="none" stroke="#1C6030" stroke-miterlimit="10" d="M142.764,479.002c-2.757-0.705-2.883,2.247-0.067,1.555
				C145.457,481.265,145.582,478.314,142.764,479.002z"/>
		</g>
		<g>
			<path d="M155.687,477.696c-2.755-0.709-2.886,2.243-0.068,1.555C158.375,479.955,158.502,477.008,155.687,477.696z"/>
			<path fill="none" stroke="#1C6030" stroke-miterlimit="10" d="M155.687,477.696c-2.755-0.709-2.886,2.243-0.068,1.555
				C158.375,479.955,158.502,477.008,155.687,477.696z"/>
		</g>
		<g>
			<path d="M109.135,463.118c-2.757-0.709-2.882,2.246-0.066,1.555C111.824,465.38,111.952,462.43,109.135,463.118z"/>
			<path fill="none" stroke="#1C6030" stroke-miterlimit="10" d="M109.135,463.118c-2.757-0.709-2.882,2.246-0.066,1.555
				C111.824,465.38,111.952,462.43,109.135,463.118z"/>
		</g>
		<g>
			<path d="M126.841,465.656c-2.756-0.708-2.884,2.242-0.069,1.555C129.531,467.919,129.657,464.969,126.841,465.656z"/>
			<path fill="none" stroke="#1C6030" stroke-miterlimit="10" d="M126.841,465.656c-2.756-0.708-2.884,2.242-0.069,1.555
				C129.531,467.919,129.657,464.969,126.841,465.656z"/>
		</g>
		<g>
			<path d="M115.385,471.249c-2.756-0.707-2.881,2.243-0.066,1.557C118.075,473.51,118.2,470.56,115.385,471.249z"/>
			<path fill="none" stroke="#1C6030" stroke-miterlimit="10" d="M115.385,471.249c-2.756-0.707-2.881,2.243-0.066,1.557
				C118.075,473.51,118.2,470.56,115.385,471.249z"/>
		</g>
		<g>
			<path d="M105.492,478.877c-2.757-0.708-2.882,2.242-0.066,1.555C108.181,481.14,108.309,478.189,105.492,478.877z"/>
			<path fill="none" stroke="#1C6030" stroke-miterlimit="10" d="M105.492,478.877c-2.757-0.708-2.882,2.242-0.066,1.555
				C108.181,481.14,108.309,478.189,105.492,478.877z"/>
		</g>
		<g>
			<path d="M124.159,482.095c-2.755-0.709-2.883,2.243-0.066,1.555C126.85,484.354,126.975,481.406,124.159,482.095z"/>
			<path fill="none" stroke="#1C6030" stroke-miterlimit="10" d="M124.159,482.095c-2.755-0.709-2.883,2.243-0.066,1.555
				C126.85,484.354,126.975,481.406,124.159,482.095z"/>
		</g>
		<g>
			<path d="M117.311,457.063c-2.753-0.709-2.884,2.243-0.065,1.555C120.001,459.322,120.126,456.375,117.311,457.063z"/>
			<path fill="none" stroke="#1C6030" stroke-miterlimit="10" d="M117.311,457.063c-2.753-0.709-2.884,2.243-0.065,1.555
				C120.001,459.322,120.126,456.375,117.311,457.063z"/>
		</g>
		<g>
			<path d="M136.915,453.749c-2.757-0.709-2.882,2.243-0.066,1.555C139.606,456.013,139.732,453.061,136.915,453.749z"/>
			<path fill="none" stroke="#1C6030" stroke-miterlimit="10" d="M136.915,453.749c-2.757-0.709-2.882,2.243-0.066,1.555
				C139.606,456.013,139.732,453.061,136.915,453.749z"/>
		</g>
		<g>
			<path d="M133.678,460.049c-2.757-0.708-2.882,2.24-0.066,1.553C136.367,462.31,136.495,459.356,133.678,460.049z"/>
			<path fill="none" stroke="#1C6030" stroke-miterlimit="10" d="M133.678,460.049c-2.757-0.708-2.882,2.24-0.066,1.553
				C136.367,462.31,136.495,459.356,133.678,460.049z"/>
		</g>
		<g>
			<path d="M143.749,458.051c-2.758-0.708-2.884,2.242-0.066,1.555C146.436,460.311,146.564,457.363,143.749,458.051z"/>
			<path fill="none" stroke="#1C6030" stroke-miterlimit="10" d="M143.749,458.051c-2.758-0.708-2.884,2.242-0.066,1.555
				C146.436,460.311,146.564,457.363,143.749,458.051z"/>
		</g>
		<g>
			<path d="M154.326,456.492c-2.756-0.708-2.881,2.242-0.066,1.555C157.016,458.755,157.141,455.805,154.326,456.492z"/>
			<path fill="none" stroke="#1C6030" stroke-miterlimit="10" d="M154.326,456.492c-2.756-0.708-2.881,2.242-0.066,1.555
				C157.016,458.755,157.141,455.805,154.326,456.492z"/>
		</g>
		<g>
			<path d="M126.668,455.272c-2.758-0.709-2.884,2.243-0.066,1.555C129.358,457.536,129.484,454.584,126.668,455.272z"/>
			<path fill="none" stroke="#1C6030" stroke-miterlimit="10" d="M126.668,455.272c-2.758-0.709-2.884,2.243-0.066,1.555
				C129.358,457.536,129.484,454.584,126.668,455.272z"/>
		</g>
	</g>
</g>
<g>
	<polygon fill="#BE2026" stroke="#FFFEF9" stroke-miterlimit="10" points="507.095,226.693 637.813,256.427 500.009,288.833 
		367.453,258.677 	"/>
	<polygon fill="#BE2026" stroke="#FFFEF9" stroke-miterlimit="10" points="489.445,381.284 620.165,411.019 482.359,443.425 
		349.813,413.269 	"/>
	<polygon fill="#BE2026" stroke="#FFFEF9" stroke-miterlimit="10" points="500.009,288.833 482.359,443.425 349.813,413.269 
		367.453,258.677 	"/>
	<polygon fill="#BE2026" stroke="#FFFEF9" stroke-miterlimit="10" points="637.813,256.427 620.165,411.019 482.359,443.425 
		500.009,288.833 	"/>
	<path fill="#BE2026" stroke="#FFFEF9" stroke-miterlimit="10" d="M519.142,155.424"/>
</g>
<polygon fill="#BE2026" stroke="#FFFEF9" stroke-miterlimit="10" points="507.095,226.693 367.453,258.677 500.009,288.833 
	637.813,256.427 "/>
<g>
	<path d="M528.351,318.579c-11.703-4.338-12.245,13.736-0.286,9.52C539.767,332.417,540.31,314.364,528.351,318.579z"/>
	<path fill="none" stroke="#1C6030" stroke-miterlimit="10" d="M528.351,318.579c-11.703-4.338-12.245,13.736-0.286,9.52
		C539.767,332.417,540.31,314.364,528.351,318.579z"/>
</g>
<g>
	<path d="M589.077,302.224c-11.713-4.343-12.244,13.75-0.287,9.529C600.495,316.075,601.036,298.023,589.077,302.224z"/>
	<path fill="none" stroke="#1C6030" stroke-miterlimit="10" d="M589.077,302.224c-11.713-4.343-12.244,13.75-0.287,9.529
		C600.495,316.075,601.036,298.023,589.077,302.224z"/>
</g>
<g>
	<path d="M531.905,387.579c-11.714-4.318-12.246,13.756-0.285,9.52C543.341,401.437,543.874,383.362,531.905,387.579z"/>
	<path fill="none" stroke="#1C6030" stroke-miterlimit="10" d="M531.905,387.579c-11.714-4.318-12.246,13.756-0.285,9.52
		C543.341,401.437,543.874,383.362,531.905,387.579z"/>
</g>
<g>
	<path d="M586.786,379.579c-11.699-4.338-12.252,13.734-0.291,9.52C598.206,393.417,598.747,375.362,586.786,379.579z"/>
	<path fill="none" stroke="#1C6030" stroke-miterlimit="10" d="M586.786,379.579c-11.699-4.338-12.252,13.734-0.291,9.52
		C598.206,393.417,598.747,375.362,586.786,379.579z"/>
</g>
<g>
	<path d="M389.078,290.299c-11.705-4.339-12.238,13.756-0.279,9.521C400.502,304.159,401.045,286.083,389.078,290.299z"/>
	<path fill="none" stroke="#1C6030" stroke-miterlimit="10" d="M389.078,290.299c-11.705-4.339-12.238,13.756-0.279,9.521
		C400.502,304.159,401.045,286.083,389.078,290.299z"/>
</g>
<g>
	<path d="M832.6,209.402c-11.703-4.338-12.245,13.736-0.291,9.52C844.026,223.262,844.559,205.188,832.6,209.402z"/>
	<path fill="none" stroke="#1C6030" stroke-miterlimit="10" d="M832.6,209.402c-11.703-4.338-12.245,13.736-0.291,9.52
		C844.026,223.262,844.559,205.188,832.6,209.402z"/>
</g>
<g>
	<path d="M415.625,340.097c-11.705-4.322-12.237,13.73-0.28,9.531C427.05,353.95,427.582,335.878,415.625,340.097z"/>
	<path fill="none" stroke="#1C6030" stroke-miterlimit="10" d="M415.625,340.097c-11.705-4.322-12.237,13.73-0.28,9.531
		C427.05,353.95,427.582,335.878,415.625,340.097z"/>
</g>
<g>
	<path d="M808.938,170.058c-11.705-4.338-12.238,13.734-0.279,9.52C820.361,183.915,820.904,165.841,808.938,170.058z"/>
	<path fill="none" stroke="#1C6030" stroke-miterlimit="10" d="M808.938,170.058c-11.705-4.338-12.238,13.734-0.279,9.52
		C820.361,183.915,820.904,165.841,808.938,170.058z"/>
</g>
<g>
	<path d="M452.89,406.517c-11.703-4.338-12.245,13.734-0.286,9.52C464.316,420.354,464.848,402.3,452.89,406.517z"/>
	<path fill="none" stroke="#1C6030" stroke-miterlimit="10" d="M452.89,406.517c-11.703-4.338-12.245,13.734-0.286,9.52
		C464.316,420.354,464.848,402.3,452.89,406.517z"/>
</g>
<g>
	<path d="M808.938,200.951c-11.695-4.339-12.248,13.735-0.28,9.52C820.363,214.788,820.896,196.735,808.938,200.951z"/>
	<path fill="none" stroke="#1C6030" stroke-miterlimit="10" d="M808.938,200.951c-11.695-4.339-12.248,13.735-0.28,9.52
		C820.363,214.788,820.896,196.735,808.938,200.951z"/>
</g>
<g>
	<path d="M507.063,232.925c-11.707-4.338-12.239,13.735-0.28,9.52C518.497,246.783,519.028,228.709,507.063,232.925z"/>
	<path fill="none" stroke="#1C6030" stroke-miterlimit="10" d="M507.063,232.925c-11.707-4.338-12.239,13.735-0.28,9.52
		C518.497,246.783,519.028,228.709,507.063,232.925z"/>
</g>
<g>
	<path d="M493.313,271.5c-11.705-4.333-12.238,13.72-0.279,9.509C504.737,285.342,505.279,267.269,493.313,271.5z"/>
	<path fill="none" stroke="#1C6030" stroke-miterlimit="10" d="M493.313,271.5c-11.705-4.333-12.238,13.72-0.279,9.509
		C504.737,285.342,505.279,267.269,493.313,271.5z"/>
</g>
<g>
	<path d="M905.098,277.456c-11.713-4.338-12.245,13.735-0.281,9.52C916.515,291.294,917.057,273.241,905.098,277.456z"/>
	<path fill="none" stroke="#1C6030" stroke-miterlimit="10" d="M905.098,277.456c-11.713-4.338-12.245,13.735-0.281,9.52
		C916.515,291.294,917.057,273.241,905.098,277.456z"/>
</g>
<g>
	<path d="M881.388,225.926c-11.705-4.339-12.238,13.735-0.281,9.52C892.812,239.784,893.343,221.71,881.388,225.926z"/>
	<path fill="none" stroke="#1C6030" stroke-miterlimit="10" d="M881.388,225.926c-11.705-4.339-12.238,13.735-0.281,9.52
		C892.812,239.784,893.343,221.71,881.388,225.926z"/>
</g>
<g>
	<path d="M841.289,243.599c-11.714-4.339-12.245,13.734-0.28,9.52C852.716,257.456,853.248,239.382,841.289,243.599z"/>
	<path fill="none" stroke="#1C6030" stroke-miterlimit="10" d="M841.289,243.599c-11.714-4.339-12.245,13.734-0.28,9.52
		C852.716,257.456,853.248,239.382,841.289,243.599z"/>
</g>
</svg>
