<?xml version="1.0" encoding="UTF-8" standalone="no"?>
<!-- Created with Inkscape (http://www.inkscape.org/) -->

<svg
   xmlns:dc="http://purl.org/dc/elements/1.1/"
   xmlns:cc="http://creativecommons.org/ns#"
   xmlns:rdf="http://www.w3.org/1999/02/22-rdf-syntax-ns#"
   xmlns:svg="http://www.w3.org/2000/svg"
   xmlns="http://www.w3.org/2000/svg"
   xmlns:sodipodi="http://sodipodi.sourceforge.net/DTD/sodipodi-0.dtd"
   xmlns:inkscape="http://www.inkscape.org/namespaces/inkscape"
   width="744.09448819"
   height="1052.3622047"
   id="svg3634"
   version="1.1"
   inkscape:version="0.47 r22583"
   sodipodi:docname="New document 4">
  <defs
     id="defs3636">
    <inkscape:perspective
       sodipodi:type="inkscape:persp3d"
       inkscape:vp_x="0 : 526.18109 : 1"
       inkscape:vp_y="0 : 1000 : 0"
       inkscape:vp_z="744.09448 : 526.18109 : 1"
       inkscape:persp3d-origin="372.04724 : 350.78739 : 1"
       id="perspective3642" />
  </defs>
  <sodipodi:namedview
     id="base"
     pagecolor="#ffffff"
     bordercolor="#666666"
     borderopacity="1.0"
     inkscape:pageopacity="0.0"
     inkscape:pageshadow="2"
     inkscape:zoom="0.35"
     inkscape:cx="3457.7373"
     inkscape:cy="-110.76829"
     inkscape:document-units="px"
     inkscape:current-layer="layer1"
     showgrid="false"
     inkscape:snap-page="false"
     inkscape:window-width="1122"
     inkscape:window-height="701"
     inkscape:window-x="467"
     inkscape:window-y="38"
     inkscape:window-maximized="0" />
  <metadata
     id="metadata3639">
    <rdf:RDF>
      <cc:Work
         rdf:about="">
        <dc:format>image/svg+xml</dc:format>
        <dc:type
           rdf:resource="http://purl.org/dc/dcmitype/StillImage" />
        <dc:title></dc:title>
      </cc:Work>
    </rdf:RDF>
  </metadata>
  <g
     inkscape:label="Layer 1"
     inkscape:groupmode="layer"
     id="layer1">
    <path
       style="fill:none;stroke:#000000;stroke-width:1px;stroke-linecap:butt;stroke-linejoin:miter;stroke-opacity:1"
       d="m -280.00001,-104.78068 -22.85712,-80 51.42852,-62.85714 97.1429,-11.42857 137.142896,108.57143 11.4284997,45.71428 -51.4284997,11.428571 -222.857196,-11.428571 z"
       id="path3650" />
    <path
       style="fill:#000000;stroke-width:0.1;stroke-miterlimit:4;stroke-dasharray:none"
       d="m -270.68727,125.89742 c -26.2281,-1.96061 -53.3864,-4.41938 -60.352,-5.46393 -12.5805,-1.88656 -12.7033,-2.01698 -18.4843,-19.63559 -3.2008,-9.755033 -7.4487,-25.629143 -9.4398,-35.275803 l -3.6201,-17.53938 14.5849,-19.603484 c 8.0218,-10.78191 19.4995,-24.3678899 25.5061,-30.1910699 l 10.921,-10.5875901 42.5239,-4.46095 42.5238,-4.46094 10.3333,7.74569 c 32.6628,24.48347 122.399699,95.098744 125.316699,98.613534 1.8955,2.28394 3.7997,11.73536 4.2315,21.003173 l 0.7851,16.85055 -14.285699,3.38208 c -18.6723,4.42058 -109.0418,4.22119 -170.5444,-0.37629 z"
       id="path3664" />
    <g
       id="g3688"
       transform="translate(414.28571,134.28571)">
      <path
         id="path3660"
         d="m -810.44752,259.20728 c -62.20715,-3.36656 -144.42155,-11.11417 -146.75767,-13.82995 -3.1874,-3.70543 -17.87159,-60.92707 -20.25689,-78.93745 -1.55324,-11.72781 0.25339,-15.52982 23.10306,-48.61989 14.47899,-20.967958 27.72161,-36.715417 31.84175,-37.864626 3.87951,-1.082092 26.78457,-3.965242 50.90011,-6.407003 l 43.84645,-4.439564 31.82691,27.875246 c 17.5048,15.331387 50.74026,45.093657 73.85657,66.138387 l 42.02968,38.26314 3.52877,20.15292 c 1.94084,11.08412 3.52878,22.1505 3.52878,24.59198 0,2.59391 -8.91949,6.76583 -21.45851,10.03683 -20.50896,5.35008 -56.07766,6.28231 -115.98901,3.03998 z"
         style="fill:#000000;stroke-width:0.1;stroke-miterlimit:4;stroke-dasharray:none" />
      <path
         id="path3662"
         d="m -817.28571,245.24995 c -59.20348,-2.89517 -130.65842,-8.85111 -132.85155,-11.0735 -2.98431,-3.02412 -16.56063,-49.07058 -18.78452,-63.71099 -1.43679,-9.45872 0.2344,-12.52512 21.37099,-39.21294 13.39348,-16.91109 25.64328,-29.61174 29.45452,-30.5386 3.58866,-0.87273 24.79123,-3.19937 47.11681,-5.17031 l 40.59196,-3.58353 35.12232,26.86393 c 19.31728,14.77516 50.0334,38.71622 68.25805,53.20236 l 33.13573,26.33844 3.29284,16.39628 c 1.81108,9.01795 3.29285,18.00737 3.29285,19.97647 0,2.09204 -8.25078,5.45678 -19.84973,8.09491 -19.02963,4.32819 -54.95484,5.11665 -110.15027,2.41748 z"
         style="fill:#ff0000;stroke-width:0.1;stroke-miterlimit:4;stroke-dasharray:none" />
      <path
         id="path3666"
         d="m -707.28412,177.63045 37.1091,29.73448 -21.58906,43.41582 -15.52004,-73.1503 z"
         style="fill:#000000;stroke:#000000;stroke-width:1px;stroke-linecap:butt;stroke-linejoin:miter;stroke-opacity:1" />
    </g>
    <path
       style="fill:#ff0000;stroke-width:0.1;stroke-miterlimit:4;stroke-dasharray:none"
       d="m -1050.5812,723.66204 c -123.253,-56.0751 -114.7976,-50.8856 -129.5373,-79.5036 -16.5101,-32.05528 -55.7387,-120.86202 -55.7387,-126.18271 0,-3.14358 4.2001,-3.79284 17.7389,-2.7422 17.4052,1.35068 18.4577,2.00539 55.9534,34.80787 25.2961,22.12986 51.1654,49.14985 76.525,79.92894 21.0707,25.5738 54.5495,63.8282 74.3972,85.0098 19.84768,21.1818 35.33521,39.1795 34.4167,39.995 -0.91849,0.8155 -34.1083,-13.2754 -73.7552,-31.3131 l 0,0 z"
       id="path3674" />
    <path
       style="fill:#000000;stroke-width:0.1;stroke-miterlimit:4;stroke-dasharray:none"
       d="m -923.09509,609.07124 c -46.29153,-19.9554 -109.86931,-49.61702 -131.22321,-61.22102 -23.2248,-12.62069 -24.7874,-14.90867 -54.9805,-80.50303 -21.226,-46.11314 -32.2726,-72.55478 -32.2726,-77.24863 0,-4.54223 17.7815,-2.98854 30,2.6213 23.8653,10.95722 70.3527,56.55818 138.70065,136.0559 16.21238,18.85714 40.99201,46.85938 55.06584,62.22708 14.07383,15.3678 25.0482,28.482 24.38748,29.1427 -0.66072,0.6608 -14.01567,-4.3227 -29.67766,-11.0743 l 0,0 z"
       id="path3678" />
    <g
       id="g3684"
       transform="translate(-294.28572,-734.28572)">
      <path
         id="path3676"
         d="m -291.40655,967.68064 c -140.86948,-65.57135 -132.08202,-60.17473 -147.35065,-90.4923 -27.05786,-53.72639 -62.81424,-136.30147 -62.81424,-145.06197 0,-2.89495 5.81658,-3.64971 19.67533,-2.55307 19.22654,1.52139 20.60202,2.38024 60.30299,37.65342 25.80967,22.93115 58.01407,57.12327 88.29737,93.74725 26.21836,31.7079 64.01058,75.60161 83.98274,97.54157 19.97214,21.93996 36.313,40.63406 36.313,41.54246 0,3.6704 -8.53943,0.1441 -78.40654,-32.37736 l 0,0 z"
         style="fill:#000000;stroke-width:0.1;stroke-miterlimit:4;stroke-dasharray:none" />
      <path
         id="path3682"
         d="m -275.85714,961.9233 c -45.97779,-19.5045 -119.8005,-55.6602 -132.23858,-64.7655 -12.23388,-8.9558 -15.88018,-14.5705 -34.76963,-53.5392 -18.13778,-37.4181 -38.70608,-84.82024 -38.70608,-89.20292 0,-0.74481 3.26551,-1.3542 7.25668,-1.3542 23.90737,0 62.41351,35.66625 169.70463,157.18862 54.41767,61.6357 53.04914,59.9973 49.91009,59.7529 -1.42213,-0.1107 -10.94283,-3.7466 -21.15711,-8.0797 z"
         style="fill:#ff0000;stroke-width:0.1;stroke-miterlimit:4;stroke-dasharray:none" />
    </g>
    <g
       id="g3695"
       transform="matrix(1,0,0,1.1613669,-77.14286,-720.20151)">
      <path
         id="path3654"
         d="m -440.77943,815.14584 -27.71852,-177.81983 27.71852,-83.67992 33.8782,-38.3533 15.3992,34.86663 -9.23952,261.49978 -40.03788,3.48664 z"
         style="fill:#000000;stroke:#000000;stroke-width:1.1469301px;stroke-linecap:butt;stroke-linejoin:miter;stroke-opacity:1" />
      <path
         id="path3693"
         d="m -439.03238,795.98196 c -0.88444,-5.09192 -6.24927,-41.67294 -11.92183,-81.29117 l -10.31375,-72.03311 11.57628,-37.63933 c 9.97928,-32.44677 13.47469,-40.01078 25.33733,-54.82935 l 13.76102,-17.19003 6.11909,14.85378 6.11909,14.85377 -4.01681,118.10739 c -2.20926,64.95905 -4.64202,118.87865 -5.40613,119.82132 -0.76413,0.94267 -7.74711,2.36437 -15.51776,3.15936 -13.79244,1.41103 -14.16668,1.22523 -15.73653,-7.81263 z"
         style="fill:#ff0000;stroke-width:0.1;stroke-miterlimit:4;stroke-dasharray:none" />
    </g>
    <path
       style="fill:#000000;stroke:#000000;stroke-width:1.14204443px;stroke-linecap:butt;stroke-linejoin:miter;stroke-opacity:1"
       d="M -179.89728,593.18643 C -344.23009,744.56971 -486.25815,912.41155 -610.6112,1071.7907 l 21.15937,114.4681 93.04507,35.6293 c -80.43277,44.209 -147.3688,101.9147 -220.66507,153.2603 l 357.71042,-120.6305 -26.10388,-32.6298 75.04864,3.263 -19.57792,26.1039 387.968053,92.8449 C -31.986197,1297.624 -110.98757,1246.7646 -238.631,1215.3621 l 117.46743,-65.2597 -3.26298,-55.4707 -60.31519,-143.04416 122.738996,-137.04535 c 54.0069804,-73.04902 17.963053,-140.09925 20.468686,-213.14827 l -138.363222,-8.20749 z"
       id="path3699"
       sodipodi:nodetypes="ccccccccccccccccc" />
    <path
       style="fill:#ff0000;stroke-width:0.1;stroke-miterlimit:4;stroke-dasharray:none"
       d="m -690.26267,1354.7772 c 0,-4.0527 150.41889,-110.3194 176.4814,-124.6792 6.70762,-3.6957 11.78269,-7.9585 11.27792,-9.4728 -0.50477,-1.5143 -19.49283,-9.8592 -42.19568,-18.5443 -22.70286,-8.6851 -41.73053,-16.1129 -42.28372,-16.5063 -0.55318,-0.3933 -5.4712,-24.2625 -10.92892,-53.0426 -7.03701,-37.1082 -9.0921,-53.6706 -7.06585,-56.9454 4.71539,-7.6207 99.05994,-124.16692 131.56464,-162.52512 76.79667,-90.62629 171.34358,-191.93541 235.66758,-252.523 l 39.07866,-36.80871 63.63085,3.65239 63.630859,3.65239 4.9308,50.29918 c 6.00626,61.26971 6.07991,79.8333 0.40314,101.62786 -7.32325,28.11587 -17.05111,41.7843 -78.871819,110.82139 -32.71315,36.53176 -59.50703,68.05921 -59.542,70.06104 -0.0349,2.00183 12.68557,33.8552 28.26788,70.78538 27.59603,65.4026 28.35357,67.7857 29.18374,91.8052 l 0.85229,24.6598 -53.99903,30.2693 c -29.69946,16.6481 -53.82628,31.4681 -53.61514,32.9332 0.21114,1.4651 12.34231,6.0267 26.95814,10.1367 45.64014,12.8342 90.1462,30.9684 151.342459,61.6651 63.61414,31.9095 80.3494296,41.2211 74.1146796,41.2379 -3.46563,0.01 -297.9923986,-69.7325 -326.8787386,-77.4026 l -10.853,-2.8817 8.83974,-11.9954 8.83975,-11.9953 -23.70103,-1.8593 c -13.03557,-1.0226 -30.5604,-1.9869 -38.94409,-2.1429 l -15.24303,-0.2836 11.6716,14.659 c 6.4194,8.0624 11.65646,15.4552 11.63792,16.4286 -0.0316,1.6592 -307.47623,106.1632 -312.10914,106.0894 -1.17858,-0.019 -2.14286,-0.5478 -2.14286,-1.1756 z"
       id="path3705" />
    <g
       id="g3727"
       transform="matrix(1.2273163,0,0,1.2273163,843.46538,354.21322)">
      <g
         id="g3707"
         transform="translate(1408.5714,5.7142814)">
        <path
           id="path3709"
           d="m -810.44752,259.20728 c -62.20715,-3.36656 -144.42155,-11.11417 -146.75767,-13.82995 -3.1874,-3.70543 -17.87159,-60.92707 -20.25689,-78.93745 -1.55324,-11.72781 0.25339,-15.52982 23.10306,-48.61989 14.47899,-20.967958 27.72161,-36.715417 31.84175,-37.864626 3.87951,-1.082092 26.78457,-3.965242 50.90011,-6.407003 l 43.84645,-4.439564 31.82691,27.875246 c 17.5048,15.331387 50.74026,45.093657 73.85657,66.138387 l 42.02968,38.26314 3.52877,20.15292 c 1.94084,11.08412 3.52878,22.1505 3.52878,24.59198 0,2.59391 -8.91949,6.76583 -21.45851,10.03683 -20.50896,5.35008 -56.07766,6.28231 -115.98901,3.03998 z"
           style="fill:#000000;stroke-width:0.1;stroke-miterlimit:4;stroke-dasharray:none" />
        <path
           id="path3711"
           d="m -817.28571,245.24995 c -59.20348,-2.89517 -130.65842,-8.85111 -132.85155,-11.0735 -2.98431,-3.02412 -16.56063,-49.07058 -18.78452,-63.71099 -1.43679,-9.45872 0.2344,-12.52512 21.37099,-39.21294 13.39348,-16.91109 25.64328,-29.61174 29.45452,-30.5386 3.58866,-0.87273 24.79123,-3.19937 47.11681,-5.17031 l 40.59196,-3.58353 35.12232,26.86393 c 19.31728,14.77516 50.0334,38.71622 68.25805,53.20236 l 33.13573,26.33844 3.29284,16.39628 c 1.81108,9.01795 3.29285,18.00737 3.29285,19.97647 0,2.09204 -8.25078,5.45678 -19.84973,8.09491 -19.02963,4.32819 -54.95484,5.11665 -110.15027,2.41748 z"
           style="fill:#ff0000;stroke-width:0.1;stroke-miterlimit:4;stroke-dasharray:none" />
        <path
           id="path3713"
           d="m -707.28412,177.63045 37.1091,29.73448 -21.58906,43.41582 -15.52004,-73.1503 z"
           style="fill:#000000;stroke:#000000;stroke-width:1px;stroke-linecap:butt;stroke-linejoin:miter;stroke-opacity:1" />
      </g>
      <g
         id="g3715"
         transform="translate(699.99999,-862.85715)">
        <path
           id="path3717"
           d="m -291.40655,967.68064 c -140.86948,-65.57135 -132.08202,-60.17473 -147.35065,-90.4923 -27.05786,-53.72639 -62.81424,-136.30147 -62.81424,-145.06197 0,-2.89495 5.81658,-3.64971 19.67533,-2.55307 19.22654,1.52139 20.60202,2.38024 60.30299,37.65342 25.80967,22.93115 58.01407,57.12327 88.29737,93.74725 26.21836,31.7079 64.01058,75.60161 83.98274,97.54157 19.97214,21.93996 36.313,40.63406 36.313,41.54246 0,3.6704 -8.53943,0.1441 -78.40654,-32.37736 l 0,0 z"
           style="fill:#000000;stroke-width:0.1;stroke-miterlimit:4;stroke-dasharray:none" />
        <path
           id="path3719"
           d="m -275.85714,961.9233 c -45.97779,-19.5045 -119.8005,-55.6602 -132.23858,-64.7655 -12.23388,-8.9558 -15.88018,-14.5705 -34.76963,-53.5392 -18.13778,-37.4181 -38.70608,-84.82024 -38.70608,-89.20292 0,-0.74481 3.26551,-1.3542 7.25668,-1.3542 23.90737,0 62.41351,35.66625 169.70463,157.18862 54.41767,61.6357 53.04914,59.9973 49.91009,59.7529 -1.42213,-0.1107 -10.94283,-3.7466 -21.15711,-8.0797 z"
           style="fill:#ff0000;stroke-width:0.1;stroke-miterlimit:4;stroke-dasharray:none" />
      </g>
      <g
         id="g3721"
         transform="matrix(1,0,0,1.1613669,917.14285,-848.77294)">
        <path
           id="path3723"
           d="m -440.77943,815.14584 -27.71852,-177.81983 27.71852,-83.67992 33.8782,-38.3533 15.3992,34.86663 -9.23952,261.49978 -40.03788,3.48664 z"
           style="fill:#000000;stroke:#000000;stroke-width:1.1469301px;stroke-linecap:butt;stroke-linejoin:miter;stroke-opacity:1" />
        <path
           id="path3725"
           d="m -439.03238,795.98196 c -0.88444,-5.09192 -6.24927,-41.67294 -11.92183,-81.29117 l -10.31375,-72.03311 11.57628,-37.63933 c 9.97928,-32.44677 13.47469,-40.01078 25.33733,-54.82935 l 13.76102,-17.19003 6.11909,14.85378 6.11909,14.85377 -4.01681,118.10739 c -2.20926,64.95905 -4.64202,118.87865 -5.40613,119.82132 -0.76413,0.94267 -7.74711,2.36437 -15.51776,3.15936 -13.79244,1.41103 -14.16668,1.22523 -15.73653,-7.81263 z"
           style="fill:#ff0000;stroke-width:0.1;stroke-miterlimit:4;stroke-dasharray:none" />
      </g>
    </g>
    <g
       id="g3743"
       transform="translate(571.42857,14.285714)">
      <path
         style="fill:#000000;stroke:#000000;stroke-width:1.14204443px;stroke-linecap:butt;stroke-linejoin:miter;stroke-opacity:1"
         d="M 860.10272,644.615 C 695.76991,795.99828 553.74185,963.84012 429.3888,1123.2193 l 21.15937,114.4681 93.04507,35.6293 c -80.43277,44.209 -147.3688,101.9147 -220.66507,153.2603 l 357.71042,-120.6305 -26.10388,-32.6298 75.04864,3.263 -19.57792,26.1039 387.96807,92.8449 c -89.9597,-46.4759 -168.96107,-97.3353 -296.6045,-128.7378 l 117.46743,-65.2597 -3.26298,-55.4707 -60.31519,-143.0442 122.739,-137.04534 c 54.00694,-73.04902 17.96305,-140.09925 20.46868,-213.14827 L 860.10272,644.615 z"
         id="path3739"
         sodipodi:nodetypes="ccccccccccccccccc" />
      <path
         style="fill:#ff0000;stroke-width:0.1;stroke-miterlimit:4;stroke-dasharray:none"
         d="m 349.73733,1406.2058 c 0,-4.0527 150.41889,-110.3194 176.4814,-124.6792 6.70762,-3.6957 11.78269,-7.9585 11.27792,-9.4728 -0.50477,-1.5143 -19.49283,-9.8592 -42.19568,-18.5443 -22.70286,-8.6851 -41.73053,-16.1129 -42.28372,-16.5063 -0.55318,-0.3933 -5.4712,-24.2625 -10.92892,-53.0426 -7.03701,-37.1082 -9.0921,-53.6706 -7.06585,-56.9454 4.71539,-7.6207 99.05994,-124.1669 131.56464,-162.52515 76.79667,-90.62629 171.34358,-191.93541 235.66758,-252.523 l 39.07866,-36.80871 63.63085,3.65239 63.63086,3.65239 4.9308,50.29918 c 6.00626,61.26971 6.07991,79.8333 0.40314,101.62786 -7.32325,28.11587 -17.05111,41.7843 -78.87182,110.82139 -32.71315,36.53176 -59.50703,68.05925 -59.542,70.06105 -0.0349,2.0018 12.68557,33.8552 28.26788,70.7854 27.59603,65.4026 28.35357,67.7857 29.18374,91.8052 l 0.85229,24.6598 -53.99903,30.2693 c -29.69946,16.6481 -53.82628,31.4681 -53.61514,32.9332 0.21114,1.4651 12.34231,6.0267 26.95814,10.1367 45.64014,12.8342 90.1462,30.9684 151.34246,61.6651 63.61417,31.9095 80.34947,41.2211 74.11467,41.2379 -3.4656,0.01 -297.99239,-69.7325 -326.87873,-77.4026 l -10.853,-2.8817 8.83974,-11.9954 8.83975,-11.9953 -23.70103,-1.8593 c -13.03557,-1.0226 -30.5604,-1.9869 -38.94409,-2.1429 l -15.24303,-0.2836 11.6716,14.659 c 6.4194,8.0624 11.65646,15.4552 11.63792,16.4286 -0.0316,1.6592 -307.47623,106.1632 -312.10914,106.0894 -1.17858,-0.019 -2.14286,-0.5478 -2.14286,-1.1756 z"
         id="path3741" />
    </g>
    <g
       id="g3755"
       transform="matrix(0.8808962,0.11237994,-0.11237994,0.8808962,-747.98334,142.95615)">
      <path
         id="path3749"
         d="M 2494.9156,838.19184 C 2463.1686,721.20022 2456.5738,687.0064 2454.0565,626.3415 l -2.0959,-50.50893 40.8918,-54.1167 c 27.5633,-36.47729 41.3055,-52.04857 42.1604,-47.77181 0.6975,3.48969 -2.1216,33.52446 -6.2649,66.74394 -14.4872,116.15803 -18.8285,250.23746 -11.1197,343.44069 1.8797,22.72625 2.9835,41.75434 2.4532,42.28469 -0.5304,0.53034 -11.8551,-39.1693 -25.1658,-88.22154 z"
         style="fill:#000000;stroke-width:0.1;stroke-miterlimit:4;stroke-dasharray:none" />
      <path
         id="path3753"
         d="m 2503.1319,832.34723 c -29.7716,-107.1534 -40.2156,-159.2255 -42.9674,-214.2275 l -1.3908,-27.7989 26.8035,-35.334 c 14.742,-19.4338 28.7802,-36.9745 31.1961,-38.9795 5.6522,-4.6909 5.7402,-7.6568 -1.8727,63.1044 -5.2474,48.774 -6.2919,75.5266 -6.4286,164.6628 -0.09,58.5351 -0.2117,106.428 -0.271,106.4286 -0.059,7e-4 -2.3403,-8.0345 -5.0691,-17.8559 l 0,0 z"
         style="fill:#ff0000;stroke-width:0.1;stroke-miterlimit:4;stroke-dasharray:none" />
    </g>
    <g
       transform="matrix(0.83188019,0.0264757,-0.0264757,0.83188019,-541.54232,399.35)"
       id="g3759">
      <path
         style="fill:#000000;stroke-width:0.1;stroke-miterlimit:4;stroke-dasharray:none"
         d="M 2494.9156,838.19184 C 2463.1686,721.20022 2456.5738,687.0064 2454.0565,626.3415 l -2.0959,-50.50893 40.8918,-54.1167 c 27.5633,-36.47729 41.3055,-52.04857 42.1604,-47.77181 0.6975,3.48969 -2.1216,33.52446 -6.2649,66.74394 -14.4872,116.15803 -18.8285,250.23746 -11.1197,343.44069 1.8797,22.72625 2.9835,41.75434 2.4532,42.28469 -0.5304,0.53034 -11.8551,-39.1693 -25.1658,-88.22154 z"
         id="path3761" />
      <path
         style="fill:#ff0000;stroke-width:0.1;stroke-miterlimit:4;stroke-dasharray:none"
         d="m 2503.1319,832.34723 c -29.7716,-107.1534 -40.2156,-159.2255 -42.9674,-214.2275 l -1.3908,-27.7989 26.8035,-35.334 c 14.742,-19.4338 28.7802,-36.9745 31.1961,-38.9795 5.6522,-4.6909 5.7402,-7.6568 -1.8727,63.1044 -5.2474,48.774 -6.2919,75.5266 -6.4286,164.6628 -0.09,58.5351 -0.2117,106.428 -0.271,106.4286 -0.059,7e-4 -2.3403,-8.0345 -5.0691,-17.8559 l 0,0 z"
         id="path3763" />
    </g>
    <g
       transform="matrix(1.2273163,0,0,1.2273163,1746.3225,365.64179)"
       id="g3765">
      <g
         transform="translate(1408.5714,5.7142814)"
         id="g3767">
        <path
           style="fill:#000000;stroke-width:0.1;stroke-miterlimit:4;stroke-dasharray:none"
           d="m -810.44752,259.20728 c -62.20715,-3.36656 -144.42155,-11.11417 -146.75767,-13.82995 -3.1874,-3.70543 -17.87159,-60.92707 -20.25689,-78.93745 -1.55324,-11.72781 0.25339,-15.52982 23.10306,-48.61989 14.47899,-20.967958 27.72161,-36.715417 31.84175,-37.864626 3.87951,-1.082092 26.78457,-3.965242 50.90011,-6.407003 l 43.84645,-4.439564 31.82691,27.875246 c 17.5048,15.331387 50.74026,45.093657 73.85657,66.138387 l 42.02968,38.26314 3.52877,20.15292 c 1.94084,11.08412 3.52878,22.1505 3.52878,24.59198 0,2.59391 -8.91949,6.76583 -21.45851,10.03683 -20.50896,5.35008 -56.07766,6.28231 -115.98901,3.03998 z"
           id="path3769" />
        <path
           style="fill:#ff0000;stroke-width:0.1;stroke-miterlimit:4;stroke-dasharray:none"
           d="m -817.28571,245.24995 c -59.20348,-2.89517 -130.65842,-8.85111 -132.85155,-11.0735 -2.98431,-3.02412 -16.56063,-49.07058 -18.78452,-63.71099 -1.43679,-9.45872 0.2344,-12.52512 21.37099,-39.21294 13.39348,-16.91109 25.64328,-29.61174 29.45452,-30.5386 3.58866,-0.87273 24.79123,-3.19937 47.11681,-5.17031 l 40.59196,-3.58353 35.12232,26.86393 c 19.31728,14.77516 50.0334,38.71622 68.25805,53.20236 l 33.13573,26.33844 3.29284,16.39628 c 1.81108,9.01795 3.29285,18.00737 3.29285,19.97647 0,2.09204 -8.25078,5.45678 -19.84973,8.09491 -19.02963,4.32819 -54.95484,5.11665 -110.15027,2.41748 z"
           id="path3771" />
        <path
           style="fill:#000000;stroke:#000000;stroke-width:1px;stroke-linecap:butt;stroke-linejoin:miter;stroke-opacity:1"
           d="m -707.28412,177.63045 37.1091,29.73448 -21.58906,43.41582 -15.52004,-73.1503 z"
           id="path3773" />
      </g>
      <g
         transform="translate(699.99999,-862.85715)"
         id="g3775">
        <path
           style="fill:#000000;stroke-width:0.1;stroke-miterlimit:4;stroke-dasharray:none"
           d="m -291.40655,967.68064 c -140.86948,-65.57135 -132.08202,-60.17473 -147.35065,-90.4923 -27.05786,-53.72639 -62.81424,-136.30147 -62.81424,-145.06197 0,-2.89495 5.81658,-3.64971 19.67533,-2.55307 19.22654,1.52139 20.60202,2.38024 60.30299,37.65342 25.80967,22.93115 58.01407,57.12327 88.29737,93.74725 26.21836,31.7079 64.01058,75.60161 83.98274,97.54157 19.97214,21.93996 36.313,40.63406 36.313,41.54246 0,3.6704 -8.53943,0.1441 -78.40654,-32.37736 l 0,0 z"
           id="path3777" />
        <path
           style="fill:#ff0000;stroke-width:0.1;stroke-miterlimit:4;stroke-dasharray:none"
           d="m -275.85714,961.9233 c -45.97779,-19.5045 -119.8005,-55.6602 -132.23858,-64.7655 -12.23388,-8.9558 -15.88018,-14.5705 -34.76963,-53.5392 -18.13778,-37.4181 -38.70608,-84.82024 -38.70608,-89.20292 0,-0.74481 3.26551,-1.3542 7.25668,-1.3542 23.90737,0 62.41351,35.66625 169.70463,157.18862 54.41767,61.6357 53.04914,59.9973 49.91009,59.7529 -1.42213,-0.1107 -10.94283,-3.7466 -21.15711,-8.0797 z"
           id="path3779" />
      </g>
      <g
         transform="matrix(1,0,0,1.1613669,917.14285,-848.77294)"
         id="g3781">
        <path
           style="fill:#000000;stroke:#000000;stroke-width:1.1469301px;stroke-linecap:butt;stroke-linejoin:miter;stroke-opacity:1"
           d="m -440.77943,815.14584 -27.71852,-177.81983 27.71852,-83.67992 33.8782,-38.3533 15.3992,34.86663 -9.23952,261.49978 -40.03788,3.48664 z"
           id="path3783" />
        <path
           style="fill:#ff0000;stroke-width:0.1;stroke-miterlimit:4;stroke-dasharray:none"
           d="m -439.03238,795.98196 c -0.88444,-5.09192 -6.24927,-41.67294 -11.92183,-81.29117 l -10.31375,-72.03311 11.57628,-37.63933 c 9.97928,-32.44677 13.47469,-40.01078 25.33733,-54.82935 l 13.76102,-17.19003 6.11909,14.85378 6.11909,14.85377 -4.01681,118.10739 c -2.20926,64.95905 -4.64202,118.87865 -5.40613,119.82132 -0.76413,0.94267 -7.74711,2.36437 -15.51776,3.15936 -13.79244,1.41103 -14.16668,1.22523 -15.73653,-7.81263 z"
           id="path3785" />
      </g>
    </g>
    <g
       transform="translate(1474.2857,25.714285)"
       id="g3787">
      <path
         sodipodi:nodetypes="ccccccccccccccccc"
         id="path3789"
         d="M 860.10272,644.615 C 695.76991,795.99828 553.74185,963.84012 429.3888,1123.2193 l 21.15937,114.4681 93.04507,35.6293 c -80.43277,44.209 -147.3688,101.9147 -220.66507,153.2603 l 357.71042,-120.6305 -26.10388,-32.6298 75.04864,3.263 -19.57792,26.1039 387.96807,92.8449 c -89.9597,-46.4759 -168.96107,-97.3353 -296.6045,-128.7378 l 117.46743,-65.2597 -3.26298,-55.4707 -60.31519,-143.0442 122.739,-137.04534 c 54.00694,-73.04902 17.96305,-140.09925 20.46868,-213.14827 L 860.10272,644.615 z"
         style="fill:#000000;stroke:#000000;stroke-width:1.14204443px;stroke-linecap:butt;stroke-linejoin:miter;stroke-opacity:1" />
      <path
         id="path3791"
         d="m 349.73733,1406.2058 c 0,-4.0527 150.41889,-110.3194 176.4814,-124.6792 6.70762,-3.6957 11.78269,-7.9585 11.27792,-9.4728 -0.50477,-1.5143 -19.49283,-9.8592 -42.19568,-18.5443 -22.70286,-8.6851 -41.73053,-16.1129 -42.28372,-16.5063 -0.55318,-0.3933 -5.4712,-24.2625 -10.92892,-53.0426 -7.03701,-37.1082 -9.0921,-53.6706 -7.06585,-56.9454 4.71539,-7.6207 99.05994,-124.1669 131.56464,-162.52515 76.79667,-90.62629 171.34358,-191.93541 235.66758,-252.523 l 39.07866,-36.80871 63.63085,3.65239 63.63086,3.65239 4.9308,50.29918 c 6.00626,61.26971 6.07991,79.8333 0.40314,101.62786 -7.32325,28.11587 -17.05111,41.7843 -78.87182,110.82139 -32.71315,36.53176 -59.50703,68.05925 -59.542,70.06105 -0.0349,2.0018 12.68557,33.8552 28.26788,70.7854 27.59603,65.4026 28.35357,67.7857 29.18374,91.8052 l 0.85229,24.6598 -53.99903,30.2693 c -29.69946,16.6481 -53.82628,31.4681 -53.61514,32.9332 0.21114,1.4651 12.34231,6.0267 26.95814,10.1367 45.64014,12.8342 90.1462,30.9684 151.34246,61.6651 63.61417,31.9095 80.34947,41.2211 74.11467,41.2379 -3.4656,0.01 -297.99239,-69.7325 -326.87873,-77.4026 l -10.853,-2.8817 8.83974,-11.9954 8.83975,-11.9953 -23.70103,-1.8593 c -13.03557,-1.0226 -30.5604,-1.9869 -38.94409,-2.1429 l -15.24303,-0.2836 11.6716,14.659 c 6.4194,8.0624 11.65646,15.4552 11.63792,16.4286 -0.0316,1.6592 -307.47623,106.1632 -312.10914,106.0894 -1.17858,-0.019 -2.14286,-0.5478 -2.14286,-1.1756 z"
         style="fill:#ff0000;stroke-width:0.1;stroke-miterlimit:4;stroke-dasharray:none" />
    </g>
    <g
       transform="matrix(0.8808962,0.11237994,-0.11237994,0.8808962,154.8738,154.38472)"
       id="g3793">
      <path
         style="fill:#000000;stroke-width:0.1;stroke-miterlimit:4;stroke-dasharray:none"
         d="M 2494.9156,838.19184 C 2463.1686,721.20022 2456.5738,687.0064 2454.0565,626.3415 l -2.0959,-50.50893 40.8918,-54.1167 c 27.5633,-36.47729 41.3055,-52.04857 42.1604,-47.77181 0.6975,3.48969 -2.1216,33.52446 -6.2649,66.74394 -14.4872,116.15803 -18.8285,250.23746 -11.1197,343.44069 1.8797,22.72625 2.9835,41.75434 2.4532,42.28469 -0.5304,0.53034 -11.8551,-39.1693 -25.1658,-88.22154 z"
         id="path3795" />
      <path
         style="fill:#ff0000;stroke-width:0.1;stroke-miterlimit:4;stroke-dasharray:none"
         d="m 2503.1319,832.34723 c -29.7716,-107.1534 -40.2156,-159.2255 -42.9674,-214.2275 l -1.3908,-27.7989 26.8035,-35.334 c 14.742,-19.4338 28.7802,-36.9745 31.1961,-38.9795 5.6522,-4.6909 5.7402,-7.6568 -1.8727,63.1044 -5.2474,48.774 -6.2919,75.5266 -6.4286,164.6628 -0.09,58.5351 -0.2117,106.428 -0.271,106.4286 -0.059,7e-4 -2.3403,-8.0345 -5.0691,-17.8559 l 0,0 z"
         id="path3797" />
    </g>
    <g
       id="g3799"
       transform="matrix(0.83188019,0.0264757,-0.0264757,0.83188019,361.31482,410.77857)">
      <path
         id="path3801"
         d="M 2494.9156,838.19184 C 2463.1686,721.20022 2456.5738,687.0064 2454.0565,626.3415 l -2.0959,-50.50893 40.8918,-54.1167 c 27.5633,-36.47729 41.3055,-52.04857 42.1604,-47.77181 0.6975,3.48969 -2.1216,33.52446 -6.2649,66.74394 -14.4872,116.15803 -18.8285,250.23746 -11.1197,343.44069 1.8797,22.72625 2.9835,41.75434 2.4532,42.28469 -0.5304,0.53034 -11.8551,-39.1693 -25.1658,-88.22154 z"
         style="fill:#000000;stroke-width:0.1;stroke-miterlimit:4;stroke-dasharray:none" />
      <path
         id="path3803"
         d="m 2503.1319,832.34723 c -29.7716,-107.1534 -40.2156,-159.2255 -42.9674,-214.2275 l -1.3908,-27.7989 26.8035,-35.334 c 14.742,-19.4338 28.7802,-36.9745 31.1961,-38.9795 5.6522,-4.6909 5.7402,-7.6568 -1.8727,63.1044 -5.2474,48.774 -6.2919,75.5266 -6.4286,164.6628 -0.09,58.5351 -0.2117,106.428 -0.271,106.4286 -0.059,7e-4 -2.3403,-8.0345 -5.0691,-17.8559 l 0,0 z"
         style="fill:#ff0000;stroke-width:0.1;stroke-miterlimit:4;stroke-dasharray:none" />
    </g>
    <path
       style="fill:#000000;stroke:#000000;stroke-width:1px;stroke-linecap:butt;stroke-linejoin:miter;stroke-opacity:1"
       d="m 2331.4286,-104.78067 -102.8572,-34.28572 34.2857,-2.85714 -54.2857,-17.14286 34.2857,-5.71428 -65.7142,-45.71429 -2.8572,-65.71428 -8.5714,-25.71429 20,20 -8.5714,-65.71429 25.7142,37.14286 40,-57.14286 -40,-65.71428 37.1429,11.42857 -25.7143,-51.42857 45.7143,42.85714 25.7143,-34.28571 14.2857,-31.42857 5.7143,54.28571 40,42.85714 25.7143,-34.28571 -5.7143,-22.85714 22.8571,31.42857 20,80 25.7143,-31.42857 0,-62.85715 17.1429,54.28572 8.5714,-34.28572 20,114.28572 14.2857,-22.85715 14.2857,48.57143 -5.7143,62.85715 -114.2857,134.285709 -57.1428,-22.857139 z"
       id="path3867" />
    <path
       id="path3869"
       d="m 1814.2857,100.93361 -102.8572,-34.285716 34.2857,-2.85714 -54.2857,-17.14286 34.2857,-5.71428 L 1660,-4.7806757 l -2.8572,-65.7142803 -8.5714,-25.71429 20,20 -8.5714,-65.714294 25.7142,37.14286 40,-57.14286 -40,-65.71428 37.1429,11.42857 -25.7143,-51.42857 45.7143,42.85714 25.7143,-34.28571 14.2857,-31.42857 5.7143,54.28571 40,42.85714 25.7143,-34.28571 -5.7143,-22.85714 22.8571,31.42857 20,80 25.7143,-31.42857 0,-62.85715 17.1429,54.28572 8.5714,-34.28572 20,114.285724 14.2857,-22.857154 14.2857,48.571434 -5.7143,62.85715 -114.2857,134.285706 -57.1428,-22.85714 z"
       style="fill:#ffffff;stroke:#000000;stroke-width:1px;stroke-linecap:butt;stroke-linejoin:miter;stroke-opacity:1" />
    <path
       style="fill:#000000;stroke-width:0.10000000000000001;stroke-miterlimit:4;stroke-dasharray:none"
       d="m 2841.2896,431.07062 c -9.5079,-3.94463 -35.8688,-13.5816 -58.5798,-21.41554 l -41.2929,-14.24347 10.176,-1.77907 10.1761,-1.77905 -17.8632,-5.95959 c -18.4412,-6.15239 -22.5587,-9.60644 -11.5248,-9.66787 14.8496,-0.0828 12.5746,-3.6647 -13.9855,-22.02089 l -26.314,-18.18608 -1.574,-26.55401 c -0.8658,-14.60471 -2.1964,-29.14707 -2.9568,-32.31637 -1.3775,-5.74094 -1.3642,-5.74599 3.5866,-1.35868 2.7329,2.42202 5.5358,3.83703 6.2283,3.14446 0.6926,-0.69257 0.061,-10.26072 -1.4027,-21.26256 -1.4641,-11.00184 -2.1371,-20.52823 -1.4955,-21.16977 0.6415,-0.64153 4.4279,3.57399 8.4141,9.36781 3.9863,5.79383 7.9758,10.49725 8.8657,10.45204 1.5636,-0.0795 32.7347,-44.57639 32.7347,-46.72899 0,-0.58494 -6.7407,-12.07344 -14.9793,-25.53001 -8.2388,-13.45657 -14.6503,-24.46649 -14.2481,-24.46649 0.4023,0 6.2081,1.6264 12.9019,3.61423 6.6937,1.98782 12.6546,3.13001 13.2464,2.53818 0.5918,-0.59182 -2.1715,-7.5093 -6.1406,-15.37219 -3.9692,-7.86288 -6.8287,-14.68414 -6.3544,-15.15835 0.4742,-0.47422 6.4707,4.81686 13.3255,11.75796 6.8549,6.94109 13.5361,12.58994 14.8471,12.55299 2.9912,-0.0843 20.1304,-23.5485 25.6261,-35.08323 2.2651,-4.75395 4.8294,-8.64354 5.6987,-8.64354 0.8693,0 2.2826,8.03849 3.1407,17.86332 l 1.5603,17.86333 16.2903,16.71085 c 8.9597,9.19096 16.9487,16.68061 17.7532,16.64366 2.8986,-0.13314 21.0551,-27.16261 21.0663,-31.36128 0.01,-3.47797 1.0762,-2.97866 5.5913,2.61666 3.5087,4.34797 7.8249,15.89885 11.6277,31.11675 9.5956,38.39997 10.5116,41.49532 12.2464,41.37995 0.9019,-0.0599 6.0481,-5.62194 11.4359,-12.35991 l 9.796,-12.25085 0.182,-20.48555 0.182,-20.48556 5.8593,16.97166 c 6.2439,18.08515 8.334,18.36449 11.336,1.51504 1.426,-8.00426 2.6889,-3.33476 9.2682,34.27022 4.1895,23.94543 8.0728,43.99268 8.6295,44.54945 0.5568,0.55676 3.4802,-2.61948 6.4964,-7.05831 l 5.4842,-8.07062 5.227,18.9435 c 4.8301,17.50558 5.0409,20.7557 2.7769,42.81792 -2.8194,27.47378 3.5187,17.54934 -55.2774,86.55564 -20.5227,24.08667 -38.031,43.99653 -38.9074,44.24413 -0.8762,0.24757 -9.3724,-2.77728 -18.8804,-6.72192 z"
       id="path3871" />
    <path
       style="fill:#ffffff;stroke-width:0.1;stroke-miterlimit:4;stroke-dasharray:none"
       d="m 1851.1659,113.60942 c -9.4286,-4.05968 -42.2143,-16.078113 -72.8571,-26.707599 -42.1275,-14.613314 -53.1426,-19.368342 -45.1687,-19.498542 18.1859,-0.296915 14.9559,-5.493315 -7.5258,-12.107543 -21.2153,-6.241629 -23.8678,-10.783372 -6.3532,-10.878029 4.6417,-0.02571 7.6447,-1.395371 7.0392,-3.211943 -0.5808,-1.742514 -15.1523,-13.029314 -32.3809,-25.081771 l -31.3249,-21.9135944 -1.8737,-32.2226316 c -1.0305,-17.722448 -2.7423,-35.685646 -3.804,-39.918217 l -1.9303,-7.695586 7.3754,6.926612 c 7.2026,6.76426 7.3754,6.785848 7.3754,0.921028 0,-3.303071 -1.3719,-15.869528 -3.0487,-27.925454 -1.6769,-12.05593 -2.4751,-22.49362 -1.7738,-23.19486 0.7012,-0.70125 4.966,4.56736 9.4773,11.70802 4.5113,7.14065 9.4881,12.96125 11.0595,12.93465 2.7981,-0.0474 37.2492,-47.45698 40.3417,-55.51595 0.863,-2.24876 -6.2538,-16.81849 -15.8149,-32.37717 -9.5612,-15.55868 -17.3839,-29.06521 -17.3839,-30.01452 0,-0.9493 7.0714,0.70692 15.7143,3.6805 8.6428,2.97358 15.7142,4.15338 15.7142,2.62178 0,-1.5316 -3.8756,-10.46235 -8.6125,-19.84611 -4.7369,-9.38376 -7.5814,-17.06138 -6.3212,-17.06138 1.2603,0 8.6233,6.42857 16.3623,14.28571 7.739,7.85714 15.4784,14.28572 17.1987,14.28572 4.0399,0 27.8136,-32.84249 32.763,-45.26091 4.8035,-12.05222 7.2383,-7.96353 9.6308,16.17223 1.7243,17.39453 2.4952,18.82806 21.0986,39.23428 10.6199,11.64906 20.6416,21.20325 22.2705,21.23154 3.9434,0.0685 24.4126,-27.54281 26.6782,-35.98686 1.7483,-6.51566 1.941,-6.44444 8.5077,3.14346 3.9205,5.72431 10.8512,26.20884 16.6407,49.1837 5.457,21.65546 10.2511,39.70276 10.6534,40.1051 0.4024,0.40235 6.7291,-6.65741 14.0594,-15.68836 l 13.3278,-16.4199 0.3051,-25.71428 0.305,-25.71429 7.132,22.57265 c 7.5777,23.98319 10.2585,24.5946 14.0312,3.20008 1.7447,-9.89446 3.3321,-4.01042 11.4495,42.44118 5.1831,29.6605 9.9738,54.47813 10.6459,55.150281 0.6722,0.672149 4.2041,-3.602891 7.8488,-9.500091 l 6.6267,-10.72218 5.408,17.000469 c 6.0049,18.876705 6.9073,35.092882 3.7286,67.000468 l -2.1348,21.428572 -55.9259,65.714285 c -30.7592,36.142857 -56.7057,65.917346 -57.6588,66.165486 -0.9531,0.24817 -9.4472,-2.87034 -18.8758,-6.93003 z"
       id="path3873" />
    <path
       style="fill:#ffffff;stroke-width:0.1;stroke-miterlimit:4;stroke-dasharray:none"
       d="m 1851.1659,113.60942 c -9.4286,-4.05968 -42.2143,-16.078113 -72.8571,-26.707599 -42.1275,-14.613314 -53.1426,-19.368342 -45.1687,-19.498542 18.174,-0.296715 14.9605,-5.491943 -7.4808,-12.094286 -11.8182,-3.476972 -20.9434,-6.865943 -20.2784,-7.531029 0.6651,-0.665085 5.4531,-2.0772 10.64,-3.138057 5.1869,-1.060828 9.4307,-2.848343 9.4307,-3.972257 0,-1.123886 -14.1428,-12.076829 -31.4286,-24.339829 l -31.4285,-22.2963595 -1.8737,-32.1331625 c -1.0305,-17.67324 -2.7423,-35.596178 -3.804,-39.828749 l -1.9303,-7.695586 7.3754,6.926612 c 7.2026,6.76426 7.3754,6.785848 7.3754,0.921028 0,-3.303071 -1.3719,-15.869528 -3.0487,-27.925454 -1.6769,-12.05593 -2.5535,-22.4152 -1.9481,-23.02059 0.6054,-0.6054 5.1651,4.66551 10.1327,11.71313 4.9677,7.04761 10.0229,12.78979 11.2338,12.76038 2.239,-0.0544 36.9723,-48.44839 39.5,-55.03553 0.7605,-1.98173 -6.3562,-16.69258 -15.8149,-32.69078 -9.4587,-15.9982 -17.1976,-29.67426 -17.1976,-30.39125 0,-0.71699 6.405,0.74462 14.2333,3.24801 7.8283,2.5034 14.9839,3.80101 15.9013,2.88358 0.9175,-0.91742 -2.2917,-9.51244 -7.1315,-19.10002 -4.8398,-9.58758 -7.7685,-17.43197 -6.5083,-17.43197 1.2603,0 8.6233,6.42857 16.3623,14.28571 7.739,7.85714 15.405,14.24596 17.0355,14.19737 3.907,-0.11643 19.5079,-21.00436 29.9512,-40.10147 9.3142,-17.03234 9.4603,-16.87322 12.9902,14.14678 1.5933,14.00115 3.4727,17.27436 20.8869,36.37714 10.5249,11.54538 20.4219,21.00786 21.9934,21.02774 3.5684,0.0451 25.2075,-29.54141 27.1428,-37.1118 2.6551,-10.38565 14.3253,12.05854 21.8544,42.0304 11.8546,47.19108 12.6736,49.83234 15.1632,48.90436 1.3266,-0.4945 7.6832,-7.30409 14.1258,-15.13243 l 11.7138,-14.23334 0.2962,-25.76666 0.2963,-25.76666 6.3251,20 c 3.4788,11 7.4626,20 8.8528,20 1.3902,0 3.8849,-5.57441 5.5438,-12.38758 2.9316,-12.04028 3.244,-11.05405 11.1452,35.17635 4.471,26.16016 9.0309,50.93605 10.1332,55.05753 l 2.0041,7.493597 6.8595,-11.098987 6.8596,-11.09899 5.408,17.000469 c 5.9989,18.857742 6.903,35.0294 3.7475,67.02822 l -2.1159,21.456322 -55.9597,65.686526 c -30.7779,36.1276 -56.7328,65.889603 -57.6777,66.137743 -0.9449,0.24817 -9.4323,-2.87034 -18.8609,-6.93003 z"
       id="path3875" />
    <path
       style="fill:#ffffff;stroke-width:0.1;stroke-miterlimit:4;stroke-dasharray:none"
       d="m 2365.6125,-108.59847 c -8.611,-3.68175 -38.5535,-14.66439 -66.539,-24.40589 -39.6556,-13.80369 -48.6758,-17.74332 -40.8803,-17.8547 15.23,-0.21761 10.6056,-5.60853 -10.1789,-11.8663 -13.2282,-3.98272 -16.8048,-5.94414 -13.3095,-7.29894 2.629,-1.01897 6.963,-1.85267 9.6312,-1.85267 11.1442,0 6.1475,-5.75504 -21.8456,-25.16096 l -29.5757,-20.50308 -1.6425,-31.55605 c -0.9034,-17.35582 -2.4625,-33.79488 -3.4646,-36.53123 -1.7901,-4.88776 -1.7224,-4.88758 3.855,0.0101 3.1225,2.74192 6.3775,4.2851 7.2333,3.4293 0.8558,-0.8558 0.1999,-11.74639 -1.4576,-24.20131 -1.6574,-12.45492 -2.5783,-23.08051 -2.0464,-23.61241 0.5319,-0.5319 4.7204,4.35778 9.3078,10.86596 4.5874,6.50818 9.4831,11.12707 10.8792,10.2642 2.8396,-1.75495 33.6728,-44.59897 35.4737,-49.29222 0.6337,-1.65118 -5.9156,-14.95649 -14.5541,-29.56734 -8.6384,-14.61086 -15.7062,-27.10094 -15.7062,-27.75575 0,-0.65482 5.8495,0.68004 12.999,2.96634 7.1494,2.28632 13.6845,3.47139 14.5223,2.63353 0.838,-0.83787 -2.0929,-8.68753 -6.513,-17.4437 -4.4201,-8.75614 -7.176,-15.92028 -6.124,-15.92028 1.0518,0 8.2066,6.16465 15.8994,13.69921 l 13.987,13.69922 10.2362,-11.74218 c 5.6298,-6.4582 13.4359,-17.83891 17.3468,-25.29045 7.8128,-14.88589 10.9463,-14.01974 11.2536,3.11076 0.298,16.61685 5.2754,26.19241 23.0661,44.37539 13.2658,13.5583 17.3825,16.40918 20.2541,14.02603 6.2978,-5.22673 21.1836,-26.88761 22.2025,-32.30768 1.9999,-10.63916 13.2217,14.31974 21.8857,48.67714 4.7029,18.64915 9.1735,34.53035 9.9347,35.29155 1.2244,1.22453 12.9705,-10.82646 21.8454,-22.41262 1.8968,-2.47634 3.2952,-13.62036 3.4677,-27.63419 l 0.289,-23.48438 6.5403,18.93422 c 3.5971,10.41381 7.5121,18.33364 8.6997,17.5996 1.1877,-0.73404 3.0338,-6.31889 4.1025,-12.41079 1.738,-9.9086 2.8401,-6.03257 10.455,36.77033 4.6817,26.31556 9.2816,48.61593 10.222,49.55637 0.9404,0.94043 2.7157,-0.0417 3.9449,-2.18245 8.562,-14.91096 9.1612,-14.6354 15.0508,6.921 5.1127,18.71318 5.3605,22.88625 2.8449,47.89759 -2.747,27.31138 -2.7943,27.44403 -14.885,41.74999 -46.1235,54.57414 -90.2783,105.74414 -91.547,106.09171 -0.8273,0.22665 -8.5494,-2.60024 -17.1604,-6.28199 z"
       id="path3877" />
    <g
       id="g3945"
       transform="matrix(1.1935056,0,0,1.1935056,-640.683,-116.75442)">
      <g
         transform="matrix(0.46564092,0,0,0.46564092,2018.2063,858.56571)"
         id="g3845">
        <g
           id="g3805"
           transform="matrix(1.2273163,0,0,1.2273163,2732.0368,-240.0725)">
          <g
             id="g3807"
             transform="translate(1408.5714,5.7142814)">
            <path
               id="path3809"
               d="m -810.44752,259.20728 c -62.20715,-3.36656 -144.42155,-11.11417 -146.75767,-13.82995 -3.1874,-3.70543 -17.87159,-60.92707 -20.25689,-78.93745 -1.55324,-11.72781 0.25339,-15.52982 23.10306,-48.61989 14.47899,-20.967958 27.72161,-36.715417 31.84175,-37.864626 3.87951,-1.082092 26.78457,-3.965242 50.90011,-6.407003 l 43.84645,-4.439564 31.82691,27.875246 c 17.5048,15.331387 50.74026,45.093657 73.85657,66.138387 l 42.02968,38.26314 3.52877,20.15292 c 1.94084,11.08412 3.52878,22.1505 3.52878,24.59198 0,2.59391 -8.91949,6.76583 -21.45851,10.03683 -20.50896,5.35008 -56.07766,6.28231 -115.98901,3.03998 z"
               style="fill:#000000;stroke-width:0.1;stroke-miterlimit:4;stroke-dasharray:none" />
            <path
               id="path3811"
               d="m -817.28571,245.24995 c -59.20348,-2.89517 -130.65842,-8.85111 -132.85155,-11.0735 -2.98431,-3.02412 -16.56063,-49.07058 -18.78452,-63.71099 -1.43679,-9.45872 0.2344,-12.52512 21.37099,-39.21294 13.39348,-16.91109 25.64328,-29.61174 29.45452,-30.5386 3.58866,-0.87273 24.79123,-3.19937 47.11681,-5.17031 l 40.59196,-3.58353 35.12232,26.86393 c 19.31728,14.77516 50.0334,38.71622 68.25805,53.20236 l 33.13573,26.33844 3.29284,16.39628 c 1.81108,9.01795 3.29285,18.00737 3.29285,19.97647 0,2.09204 -8.25078,5.45678 -19.84973,8.09491 -19.02963,4.32819 -54.95484,5.11665 -110.15027,2.41748 z"
               style="fill:#ff0000;stroke-width:0.1;stroke-miterlimit:4;stroke-dasharray:none" />
            <path
               id="path3813"
               d="m -707.28412,177.63045 37.1091,29.73448 -21.58906,43.41582 -15.52004,-73.1503 z"
               style="fill:#000000;stroke:#000000;stroke-width:1px;stroke-linecap:butt;stroke-linejoin:miter;stroke-opacity:1" />
          </g>
          <g
             id="g3815"
             transform="translate(699.99999,-862.85715)">
            <path
               id="path3817"
               d="m -291.40655,967.68064 c -140.86948,-65.57135 -132.08202,-60.17473 -147.35065,-90.4923 -27.05786,-53.72639 -62.81424,-136.30147 -62.81424,-145.06197 0,-2.89495 5.81658,-3.64971 19.67533,-2.55307 19.22654,1.52139 20.60202,2.38024 60.30299,37.65342 25.80967,22.93115 58.01407,57.12327 88.29737,93.74725 26.21836,31.7079 64.01058,75.60161 83.98274,97.54157 19.97214,21.93996 36.313,40.63406 36.313,41.54246 0,3.6704 -8.53943,0.1441 -78.40654,-32.37736 l 0,0 z"
               style="fill:#000000;stroke-width:0.1;stroke-miterlimit:4;stroke-dasharray:none" />
            <path
               id="path3819"
               d="m -275.85714,961.9233 c -45.97779,-19.5045 -119.8005,-55.6602 -132.23858,-64.7655 -12.23388,-8.9558 -15.88018,-14.5705 -34.76963,-53.5392 -18.13778,-37.4181 -38.70608,-84.82024 -38.70608,-89.20292 0,-0.74481 3.26551,-1.3542 7.25668,-1.3542 23.90737,0 62.41351,35.66625 169.70463,157.18862 54.41767,61.6357 53.04914,59.9973 49.91009,59.7529 -1.42213,-0.1107 -10.94283,-3.7466 -21.15711,-8.0797 z"
               style="fill:#ff0000;stroke-width:0.1;stroke-miterlimit:4;stroke-dasharray:none" />
          </g>
          <g
             id="g3821"
             transform="matrix(1,0,0,1.1613669,917.14285,-848.77294)">
            <path
               id="path3823"
               d="m -440.77943,815.14584 -27.71852,-177.81983 27.71852,-83.67992 33.8782,-38.3533 15.3992,34.86663 -9.23952,261.49978 -40.03788,3.48664 z"
               style="fill:#000000;stroke:#000000;stroke-width:1.1469301px;stroke-linecap:butt;stroke-linejoin:miter;stroke-opacity:1" />
            <path
               id="path3825"
               d="m -439.03238,795.98196 c -0.88444,-5.09192 -6.24927,-41.67294 -11.92183,-81.29117 l -10.31375,-72.03311 11.57628,-37.63933 c 9.97928,-32.44677 13.47469,-40.01078 25.33733,-54.82935 l 13.76102,-17.19003 6.11909,14.85378 6.11909,14.85377 -4.01681,118.10739 c -2.20926,64.95905 -4.64202,118.87865 -5.40613,119.82132 -0.76413,0.94267 -7.74711,2.36437 -15.51776,3.15936 -13.79244,1.41103 -14.16668,1.22523 -15.73653,-7.81263 z"
               style="fill:#ff0000;stroke-width:0.1;stroke-miterlimit:4;stroke-dasharray:none" />
          </g>
        </g>
        <g
           id="g3827"
           transform="translate(2460,-580)">
          <path
             style="fill:#000000;stroke:#000000;stroke-width:1.14204443px;stroke-linecap:butt;stroke-linejoin:miter;stroke-opacity:1"
             d="M 860.10272,644.615 C 695.76991,795.99828 553.74185,963.84012 429.3888,1123.2193 l 21.15937,114.4681 93.04507,35.6293 c -80.43277,44.209 -147.3688,101.9147 -220.66507,153.2603 l 357.71042,-120.6305 -26.10388,-32.6298 75.04864,3.263 -19.57792,26.1039 387.96807,92.8449 c -89.9597,-46.4759 -168.96107,-97.3353 -296.6045,-128.7378 l 117.46743,-65.2597 -3.26298,-55.4707 -60.31519,-143.0442 122.739,-137.04534 c 54.00694,-73.04902 17.96305,-140.09925 20.46868,-213.14827 L 860.10272,644.615 z"
             id="path3829"
             sodipodi:nodetypes="ccccccccccccccccc" />
          <path
             style="fill:#ff0000;stroke-width:0.1;stroke-miterlimit:4;stroke-dasharray:none"
             d="m 349.73733,1406.2058 c 0,-4.0527 150.41889,-110.3194 176.4814,-124.6792 6.70762,-3.6957 11.78269,-7.9585 11.27792,-9.4728 -0.50477,-1.5143 -19.49283,-9.8592 -42.19568,-18.5443 -22.70286,-8.6851 -41.73053,-16.1129 -42.28372,-16.5063 -0.55318,-0.3933 -5.4712,-24.2625 -10.92892,-53.0426 -7.03701,-37.1082 -9.0921,-53.6706 -7.06585,-56.9454 4.71539,-7.6207 99.05994,-124.1669 131.56464,-162.52515 76.79667,-90.62629 171.34358,-191.93541 235.66758,-252.523 l 39.07866,-36.80871 63.63085,3.65239 63.63086,3.65239 4.9308,50.29918 c 6.00626,61.26971 6.07991,79.8333 0.40314,101.62786 -7.32325,28.11587 -17.05111,41.7843 -78.87182,110.82139 -32.71315,36.53176 -59.50703,68.05925 -59.542,70.06105 -0.0349,2.0018 12.68557,33.8552 28.26788,70.7854 27.59603,65.4026 28.35357,67.7857 29.18374,91.8052 l 0.85229,24.6598 -53.99903,30.2693 c -29.69946,16.6481 -53.82628,31.4681 -53.61514,32.9332 0.21114,1.4651 12.34231,6.0267 26.95814,10.1367 45.64014,12.8342 90.1462,30.9684 151.34246,61.6651 63.61417,31.9095 80.34947,41.2211 74.11467,41.2379 -3.4656,0.01 -297.99239,-69.7325 -326.87873,-77.4026 l -10.853,-2.8817 8.83974,-11.9954 8.83975,-11.9953 -23.70103,-1.8593 c -13.03557,-1.0226 -30.5604,-1.9869 -38.94409,-2.1429 l -15.24303,-0.2836 11.6716,14.659 c 6.4194,8.0624 11.65646,15.4552 11.63792,16.4286 -0.0316,1.6592 -307.47623,106.1632 -312.10914,106.0894 -1.17858,-0.019 -2.14286,-0.5478 -2.14286,-1.1756 z"
             id="path3831" />
        </g>
        <g
           id="g3833"
           transform="matrix(0.8808962,0.11237994,-0.11237994,0.8808962,1140.5881,-451.32957)">
          <path
             id="path3835"
             d="M 2494.9156,838.19184 C 2463.1686,721.20022 2456.5738,687.0064 2454.0565,626.3415 l -2.0959,-50.50893 40.8918,-54.1167 c 27.5633,-36.47729 41.3055,-52.04857 42.1604,-47.77181 0.6975,3.48969 -2.1216,33.52446 -6.2649,66.74394 -14.4872,116.15803 -18.8285,250.23746 -11.1197,343.44069 1.8797,22.72625 2.9835,41.75434 2.4532,42.28469 -0.5304,0.53034 -11.8551,-39.1693 -25.1658,-88.22154 z"
             style="fill:#000000;stroke-width:0.1;stroke-miterlimit:4;stroke-dasharray:none" />
          <path
             id="path3837"
             d="m 2503.1319,832.34723 c -29.7716,-107.1534 -40.2156,-159.2255 -42.9674,-214.2275 l -1.3908,-27.7989 26.8035,-35.334 c 14.742,-19.4338 28.7802,-36.9745 31.1961,-38.9795 5.6522,-4.6909 5.7402,-7.6568 -1.8727,63.1044 -5.2474,48.774 -6.2919,75.5266 -6.4286,164.6628 -0.09,58.5351 -0.2117,106.428 -0.271,106.4286 -0.059,7e-4 -2.3403,-8.0345 -5.0691,-17.8559 l 0,0 z"
             style="fill:#ff0000;stroke-width:0.1;stroke-miterlimit:4;stroke-dasharray:none" />
        </g>
        <g
           transform="matrix(0.83188019,0.0264757,-0.0264757,0.83188019,1347.0291,-194.93572)"
           id="g3839">
          <path
             style="fill:#000000;stroke-width:0.1;stroke-miterlimit:4;stroke-dasharray:none"
             d="M 2494.9156,838.19184 C 2463.1686,721.20022 2456.5738,687.0064 2454.0565,626.3415 l -2.0959,-50.50893 40.8918,-54.1167 c 27.5633,-36.47729 41.3055,-52.04857 42.1604,-47.77181 0.6975,3.48969 -2.1216,33.52446 -6.2649,66.74394 -14.4872,116.15803 -18.8285,250.23746 -11.1197,343.44069 1.8797,22.72625 2.9835,41.75434 2.4532,42.28469 -0.5304,0.53034 -11.8551,-39.1693 -25.1658,-88.22154 z"
             id="path3841" />
          <path
             style="fill:#ff0000;stroke-width:0.1;stroke-miterlimit:4;stroke-dasharray:none"
             d="m 2503.1319,832.34723 c -29.7716,-107.1534 -40.2156,-159.2255 -42.9674,-214.2275 l -1.3908,-27.7989 26.8035,-35.334 c 14.742,-19.4338 28.7802,-36.9745 31.1961,-38.9795 5.6522,-4.6909 5.7402,-7.6568 -1.8727,63.1044 -5.2474,48.774 -6.2919,75.5266 -6.4286,164.6628 -0.09,58.5351 -0.2117,106.428 -0.271,106.4286 -0.059,7e-4 -2.3403,-8.0345 -5.0691,-17.8559 l 0,0 z"
             id="path3843" />
        </g>
      </g>
      <g
         transform="matrix(0.22313209,0,0,0.22313209,2547.2909,1015.6392)"
         id="g3883">
        <path
           id="path3879"
           d="M 3588.5715,412.36219 3485.7143,378.07647 3520,375.21933 3465.7143,358.07647 3500,352.36219 l -65.7142,-45.71429 -2.8572,-65.71428 -8.5714,-25.71429 20,20 -8.5714,-65.71429 25.7142,37.14286 40,-57.14286 -40,-65.714283 37.1429,11.42857 -25.7143,-51.42857 45.7143,42.85714 25.7143,-34.28571 14.2857,-31.42857 5.7143,54.28571 40,42.857143 25.7143,-34.285713 -5.7143,-22.85714 22.8571,31.42857 20,80.000003 25.7143,-31.42857 0,-62.857153 17.1429,54.285723 8.5714,-34.285723 20,114.285723 14.2857,-22.85715 14.2857,48.57143 -5.7143,62.85715 -114.2857,134.28571 -57.1428,-22.85714 z"
           style="fill:#000000;stroke:#000000;stroke-width:1px;stroke-linecap:butt;stroke-linejoin:miter;stroke-opacity:1" />
        <path
           id="path3881"
           d="m 3622.7554,408.54439 c -8.611,-3.68175 -38.5535,-14.66439 -66.539,-24.40589 -39.6556,-13.80369 -48.6758,-17.74332 -40.8803,-17.8547 15.23,-0.21761 10.6056,-5.60853 -10.1789,-11.8663 -13.2282,-3.98272 -16.8048,-5.94414 -13.3095,-7.29894 2.629,-1.01897 6.963,-1.85267 9.6312,-1.85267 11.1442,0 6.1475,-5.75504 -21.8456,-25.16096 l -29.5757,-20.50308 -1.6425,-31.55605 c -0.9034,-17.35582 -2.4625,-33.79488 -3.4646,-36.53123 -1.7901,-4.88776 -1.7224,-4.88758 3.855,0.0101 3.1225,2.74192 6.3775,4.2851 7.2333,3.4293 0.8558,-0.8558 0.1999,-11.74639 -1.4576,-24.20131 -1.6574,-12.45492 -2.5783,-23.08051 -2.0464,-23.61241 0.5319,-0.5319 4.7204,4.35778 9.3078,10.86596 4.5874,6.50818 9.4831,11.12707 10.8792,10.2642 2.8396,-1.75495 33.6728,-44.59897 35.4737,-49.29222 0.6337,-1.65118 -5.9156,-14.95649 -14.5541,-29.56734 -8.6384,-14.61086 -15.7062,-27.10094 -15.7062,-27.75575 0,-0.65482 5.8495,0.68004 12.999,2.96634 7.1494,2.28632 13.6845,3.47139 14.5223,2.63353 0.838,-0.83787 -2.0929,-8.687533 -6.513,-17.443703 -4.4201,-8.75614 -7.176,-15.92028 -6.124,-15.92028 1.0518,0 8.2066,6.16465 15.8994,13.69921 l 13.987,13.699223 10.2362,-11.742183 c 5.6298,-6.4582 13.4359,-17.83891 17.3468,-25.29045 7.8128,-14.88589 10.9463,-14.01974 11.2536,3.11076 0.298,16.61685 5.2754,26.19241 23.0661,44.375393 13.2658,13.5583 17.3825,16.40918 20.2541,14.02603 6.2978,-5.22673 21.1836,-26.887613 22.2025,-32.307683 1.9999,-10.63916 13.2217,14.319743 21.8857,48.677143 4.7029,18.64915 9.1735,34.53035 9.9347,35.29155 1.2244,1.22453 12.9705,-10.82646 21.8454,-22.41262 1.8968,-2.47634 3.2952,-13.62036 3.4677,-27.63419 l 0.289,-23.48438 6.5403,18.93422 c 3.5971,10.41381 7.5121,18.33364 8.6997,17.5996 1.1877,-0.73404 3.0338,-6.31889 4.1025,-12.41079 1.738,-9.9086 2.8401,-6.03257 10.455,36.77033 4.6817,26.31556 9.2816,48.61593 10.222,49.55637 0.9404,0.94043 2.7157,-0.0417 3.9449,-2.18245 8.562,-14.91096 9.1612,-14.6354 15.0508,6.921 5.1127,18.71318 5.3605,22.88625 2.8449,47.89759 -2.747,27.31138 -2.7943,27.44403 -14.885,41.74999 -46.1235,54.57414 -90.2783,105.74414 -91.547,106.09171 -0.8273,0.22665 -8.5494,-2.60024 -17.1604,-6.28199 z"
           style="fill:#ffffff;stroke-width:0.1;stroke-miterlimit:4;stroke-dasharray:none" />
      </g>
    </g>
    <path
       style="fill:#000000;stroke:#000000;stroke-width:0.92099803999999996px;stroke-linecap:butt;stroke-linejoin:miter;stroke-opacity:1"
       d="m 3557.0285,20.044912 -114.1362,-44.357491 61.37,0.43284 0.8535,-50.99326 -40.9803,-50.385651 89.239,30.980731 -3.4435,-94.463201 50.7985,88.47872 41.0907,-4.90037 5.4714,-42.94973 18.8938,71.893281 38.4906,-19.92513 -83.3058,133.793251 -64.3417,-17.60399 z"
       id="path3889" />
    <path
       style="fill:#000000;stroke-width:0.1;stroke-miterlimit:4;stroke-dasharray:none"
       d="m 3916.6476,215.26529 c -27.7655,-19.25269 -110.9721,-90.639 -108.5132,-93.0979 0.8365,-0.83649 9.9528,0.76151 20.2584,3.55112 10.3056,2.7896 19.4355,4.37406 20.2885,3.52102 0.853,-0.85304 3.4455,-16.06024 5.7611,-33.793794 l 4.21,-32.24281 -11.9273,-30.99228 c -6.5601,-17.04575 -11.3945,-31.52517029 -10.7432,-32.17648029 0.6513,-0.65132 15.6845,10.45839029 33.407,24.68823029 17.7225,14.22985 32.9223,25.17291 33.7773,24.31793 0.855,-0.85499 3.5836,-24.75468 6.0635,-53.1104403 2.48,-28.3557597 5.2661,-51.5559197 6.1914,-51.5559197 0.9252,0 7.3845,23.21177 14.3539,51.5817197 6.9693,28.3699503 13.567,53.0305203 14.6613,54.8012703 1.0944,1.77074 9.9499,3.79531 19.6789,4.49905 20.0235,1.44837 21.2666,0.49792 24.1051,-18.431 3.4578,-23.05836 6.3577,-15.17928 8.2621,22.4483 1.0455,20.65582 2.5551,38.21036 3.3548,39.01009 0.7998,0.79972 7.3671,-1.41871 14.594,-4.92984 7.227,-3.51113 13.6914,-5.83245 14.3653,-5.15848 0.8778,0.87777 -81.1778,138.184794 -86.0736,144.030514 -0.3265,0.38983 -12.0603,-7.24231 -26.0753,-16.9603 l 0,0 z"
       id="path3891" />
    <path
       style="fill:#ffffff;stroke-width:0.1;stroke-miterlimit:4;stroke-dasharray:none"
       d="m 3178.3086,651.71639 c -18.0714,-5.00541 -54.0714,-17.38369 -80,-27.5073 l -47.1429,-18.40655 23.5715,-0.82984 23.5714,-0.82983 0,-27.49196 0,-27.49196 -17.3408,-20.96392 c -9.5374,-11.53015 -16.0499,-20.96392 -14.4723,-20.96392 1.5776,0 19.1779,5.78571 39.1118,12.85714 19.934,7.07143 37.4396,12.85715 38.9015,12.85715 1.6016,0 1.9442,-17.31792 0.862,-43.57143 l -1.7961,-43.57143 23.4777,40.87035 23.4776,40.87034 16.0321,-1.73488 c 28.9455,-3.13227 27.966,-2.47247 30.7189,-20.69209 l 2.4866,-16.45658 7.0918,28.07199 c 3.9005,15.4396 8.0052,29.54981 9.1215,31.35603 1.446,2.33974 5.8688,1.41882 15.3813,-3.2027 7.3434,-3.56771 13.8057,-6.03266 14.3607,-5.47768 0.7952,0.79523 -71.2728,118.6722 -73.8859,120.85025 -0.3692,0.30776 -15.457,-3.53578 -33.5284,-8.54118 z"
       id="path3893" />
    <path
       style="fill:#000000;stroke-width:0.1;stroke-miterlimit:4;stroke-dasharray:none"
       d="m 3886.8801,-205.60211 c -18.0714,-5.26624 -54.0714,-17.96183 -80,-28.21241 l -47.1428,-18.63741 25,-0.15848 25,-0.15848 0,-27.2424 0,-27.24241 -19.2857,-23.32901 c -11.631,-14.06943 -17.0177,-22.44704 -13.5715,-21.10694 7.9291,3.08331 79.0785,27.49219 80.137,27.49219 0.4736,0 0.2192,-19.60715 -0.5653,-43.57143 l -1.4264,-43.57143 11.8712,20 c 6.5291,11 17.2322,29.35186 23.7845,40.78191 l 11.9133,20.78192 10.7143,-1.4962 c 5.8929,-0.82291 15.7418,-2.23258 21.8865,-3.13259 l 11.1721,-1.63639 2.0762,-17.64932 2.0763,-17.64933 8.4012,31.41148 c 4.6206,17.27632 9.0156,32.02591 9.7665,32.77687 0.751,0.75096 7.8127,-2.2588 15.6926,-6.68835 7.88,-4.42955 14.7641,-7.60771 15.2979,-7.06257 1.4176,1.44746 -74.8762,123.6254 -77.6208,124.303 -1.2759,0.31502 -17.1056,-3.73598 -35.1771,-9.00222 z"
       id="path3895" />
    <g
       transform="matrix(0.47652673,0,0,0.47652673,917.22677,-503.34115)"
       id="g3897">
      <path
         id="path3899"
         d="M 3588.5715,412.36219 3485.7143,378.07647 3520,375.21933 3465.7143,358.07647 3500,352.36219 l -65.7142,-45.71429 -2.8572,-65.71428 -8.5714,-25.71429 20,20 -8.5714,-65.71429 25.7142,37.14286 40,-57.14286 -40,-65.714283 37.1429,11.42857 -25.7143,-51.42857 45.7143,42.85714 25.7143,-34.28571 14.2857,-31.42857 5.7143,54.28571 40,42.857143 25.7143,-34.285713 -5.7143,-22.85714 22.8571,31.42857 20,80.000003 25.7143,-31.42857 0,-62.857153 17.1429,54.285723 8.5714,-34.285723 20,114.285723 14.2857,-22.85715 14.2857,48.57143 -5.7143,62.85715 -114.2857,134.28571 -57.1428,-22.85714 z"
         style="fill:#000000;stroke:#000000;stroke-width:1px;stroke-linecap:butt;stroke-linejoin:miter;stroke-opacity:1" />
      <path
         id="path3901"
         d="m 3622.7554,408.54439 c -8.611,-3.68175 -38.5535,-14.66439 -66.539,-24.40589 -39.6556,-13.80369 -48.6758,-17.74332 -40.8803,-17.8547 15.23,-0.21761 10.6056,-5.60853 -10.1789,-11.8663 -13.2282,-3.98272 -16.8048,-5.94414 -13.3095,-7.29894 2.629,-1.01897 6.963,-1.85267 9.6312,-1.85267 11.1442,0 6.1475,-5.75504 -21.8456,-25.16096 l -29.5757,-20.50308 -1.6425,-31.55605 c -0.9034,-17.35582 -2.4625,-33.79488 -3.4646,-36.53123 -1.7901,-4.88776 -1.7224,-4.88758 3.855,0.0101 3.1225,2.74192 6.3775,4.2851 7.2333,3.4293 0.8558,-0.8558 0.1999,-11.74639 -1.4576,-24.20131 -1.6574,-12.45492 -2.5783,-23.08051 -2.0464,-23.61241 0.5319,-0.5319 4.7204,4.35778 9.3078,10.86596 4.5874,6.50818 9.4831,11.12707 10.8792,10.2642 2.8396,-1.75495 33.6728,-44.59897 35.4737,-49.29222 0.6337,-1.65118 -5.9156,-14.95649 -14.5541,-29.56734 -8.6384,-14.61086 -15.7062,-27.10094 -15.7062,-27.75575 0,-0.65482 5.8495,0.68004 12.999,2.96634 7.1494,2.28632 13.6845,3.47139 14.5223,2.63353 0.838,-0.83787 -2.0929,-8.687533 -6.513,-17.443703 -4.4201,-8.75614 -7.176,-15.92028 -6.124,-15.92028 1.0518,0 8.2066,6.16465 15.8994,13.69921 l 13.987,13.699223 10.2362,-11.742183 c 5.6298,-6.4582 13.4359,-17.83891 17.3468,-25.29045 7.8128,-14.88589 10.9463,-14.01974 11.2536,3.11076 0.298,16.61685 5.2754,26.19241 23.0661,44.375393 13.2658,13.5583 17.3825,16.40918 20.2541,14.02603 6.2978,-5.22673 21.1836,-26.887613 22.2025,-32.307683 1.9999,-10.63916 13.2217,14.319743 21.8857,48.677143 4.7029,18.64915 9.1735,34.53035 9.9347,35.29155 1.2244,1.22453 12.9705,-10.82646 21.8454,-22.41262 1.8968,-2.47634 3.2952,-13.62036 3.4677,-27.63419 l 0.289,-23.48438 6.5403,18.93422 c 3.5971,10.41381 7.5121,18.33364 8.6997,17.5996 1.1877,-0.73404 3.0338,-6.31889 4.1025,-12.41079 1.738,-9.9086 2.8401,-6.03257 10.455,36.77033 4.6817,26.31556 9.2816,48.61593 10.222,49.55637 0.9404,0.94043 2.7157,-0.0417 3.9449,-2.18245 8.562,-14.91096 9.1612,-14.6354 15.0508,6.921 5.1127,18.71318 5.3605,22.88625 2.8449,47.89759 -2.747,27.31138 -2.7943,27.44403 -14.885,41.74999 -46.1235,54.57414 -90.2783,105.74414 -91.547,106.09171 -0.8273,0.22665 -8.5494,-2.60024 -17.1604,-6.28199 z"
         style="fill:#ffffff;stroke-width:0.1;stroke-miterlimit:4;stroke-dasharray:none" />
    </g>
    <g
       transform="matrix(0.46564092,0,0,0.46564092,1281.0634,1609.9942)"
       id="g3903">
      <g
         id="g3905"
         transform="matrix(1.2273163,0,0,1.2273163,2732.0368,-240.0725)">
        <g
           id="g3907"
           transform="translate(1408.5714,5.7142814)">
          <path
             id="path3909"
             d="m -810.44752,259.20728 c -62.20715,-3.36656 -144.42155,-11.11417 -146.75767,-13.82995 -3.1874,-3.70543 -17.87159,-60.92707 -20.25689,-78.93745 -1.55324,-11.72781 0.25339,-15.52982 23.10306,-48.61989 14.47899,-20.967958 27.72161,-36.715417 31.84175,-37.864626 3.87951,-1.082092 26.78457,-3.965242 50.90011,-6.407003 l 43.84645,-4.439564 31.82691,27.875246 c 17.5048,15.331387 50.74026,45.093657 73.85657,66.138387 l 42.02968,38.26314 3.52877,20.15292 c 1.94084,11.08412 3.52878,22.1505 3.52878,24.59198 0,2.59391 -8.91949,6.76583 -21.45851,10.03683 -20.50896,5.35008 -56.07766,6.28231 -115.98901,3.03998 z"
             style="fill:#000000;stroke-width:0.1;stroke-miterlimit:4;stroke-dasharray:none" />
          <path
             id="path3911"
             d="m -817.28571,245.24995 c -59.20348,-2.89517 -130.65842,-8.85111 -132.85155,-11.0735 -2.98431,-3.02412 -16.56063,-49.07058 -18.78452,-63.71099 -1.43679,-9.45872 0.2344,-12.52512 21.37099,-39.21294 13.39348,-16.91109 25.64328,-29.61174 29.45452,-30.5386 3.58866,-0.87273 24.79123,-3.19937 47.11681,-5.17031 l 40.59196,-3.58353 35.12232,26.86393 c 19.31728,14.77516 50.0334,38.71622 68.25805,53.20236 l 33.13573,26.33844 3.29284,16.39628 c 1.81108,9.01795 3.29285,18.00737 3.29285,19.97647 0,2.09204 -8.25078,5.45678 -19.84973,8.09491 -19.02963,4.32819 -54.95484,5.11665 -110.15027,2.41748 z"
             style="fill:#ff0000;stroke-width:0.1;stroke-miterlimit:4;stroke-dasharray:none" />
          <path
             id="path3913"
             d="m -707.28412,177.63045 37.1091,29.73448 -21.58906,43.41582 -15.52004,-73.1503 z"
             style="fill:#000000;stroke:#000000;stroke-width:1px;stroke-linecap:butt;stroke-linejoin:miter;stroke-opacity:1" />
        </g>
        <g
           id="g3915"
           transform="translate(699.99999,-862.85715)">
          <path
             id="path3917"
             d="m -291.40655,967.68064 c -140.86948,-65.57135 -132.08202,-60.17473 -147.35065,-90.4923 -27.05786,-53.72639 -62.81424,-136.30147 -62.81424,-145.06197 0,-2.89495 5.81658,-3.64971 19.67533,-2.55307 19.22654,1.52139 20.60202,2.38024 60.30299,37.65342 25.80967,22.93115 58.01407,57.12327 88.29737,93.74725 26.21836,31.7079 64.01058,75.60161 83.98274,97.54157 19.97214,21.93996 36.313,40.63406 36.313,41.54246 0,3.6704 -8.53943,0.1441 -78.40654,-32.37736 l 0,0 z"
             style="fill:#000000;stroke-width:0.1;stroke-miterlimit:4;stroke-dasharray:none" />
          <path
             id="path3919"
             d="m -275.85714,961.9233 c -45.97779,-19.5045 -119.8005,-55.6602 -132.23858,-64.7655 -12.23388,-8.9558 -15.88018,-14.5705 -34.76963,-53.5392 -18.13778,-37.4181 -38.70608,-84.82024 -38.70608,-89.20292 0,-0.74481 3.26551,-1.3542 7.25668,-1.3542 23.90737,0 62.41351,35.66625 169.70463,157.18862 54.41767,61.6357 53.04914,59.9973 49.91009,59.7529 -1.42213,-0.1107 -10.94283,-3.7466 -21.15711,-8.0797 z"
             style="fill:#ff0000;stroke-width:0.1;stroke-miterlimit:4;stroke-dasharray:none" />
        </g>
        <g
           id="g3921"
           transform="matrix(1,0,0,1.1613669,917.14285,-848.77294)">
          <path
             id="path3923"
             d="m -440.77943,815.14584 -27.71852,-177.81983 27.71852,-83.67992 33.8782,-38.3533 15.3992,34.86663 -9.23952,261.49978 -40.03788,3.48664 z"
             style="fill:#000000;stroke:#000000;stroke-width:1.1469301px;stroke-linecap:butt;stroke-linejoin:miter;stroke-opacity:1" />
          <path
             id="path3925"
             d="m -439.03238,795.98196 c -0.88444,-5.09192 -6.24927,-41.67294 -11.92183,-81.29117 l -10.31375,-72.03311 11.57628,-37.63933 c 9.97928,-32.44677 13.47469,-40.01078 25.33733,-54.82935 l 13.76102,-17.19003 6.11909,14.85378 6.11909,14.85377 -4.01681,118.10739 c -2.20926,64.95905 -4.64202,118.87865 -5.40613,119.82132 -0.76413,0.94267 -7.74711,2.36437 -15.51776,3.15936 -13.79244,1.41103 -14.16668,1.22523 -15.73653,-7.81263 z"
             style="fill:#ff0000;stroke-width:0.1;stroke-miterlimit:4;stroke-dasharray:none" />
        </g>
      </g>
      <g
         id="g3927"
         transform="translate(2460,-580)">
        <path
           style="fill:#000000;stroke:#000000;stroke-width:1.14204443px;stroke-linecap:butt;stroke-linejoin:miter;stroke-opacity:1"
           d="M 860.10272,644.615 C 695.76991,795.99828 553.74185,963.84012 429.3888,1123.2193 l 21.15937,114.4681 93.04507,35.6293 c -80.43277,44.209 -147.3688,101.9147 -220.66507,153.2603 l 357.71042,-120.6305 -26.10388,-32.6298 75.04864,3.263 -19.57792,26.1039 387.96807,92.8449 c -89.9597,-46.4759 -168.96107,-97.3353 -296.6045,-128.7378 l 117.46743,-65.2597 -3.26298,-55.4707 -60.31519,-143.0442 122.739,-137.04534 c 54.00694,-73.04902 17.96305,-140.09925 20.46868,-213.14827 L 860.10272,644.615 z"
           id="path3929"
           sodipodi:nodetypes="ccccccccccccccccc" />
        <path
           style="fill:#ff0000;stroke-width:0.1;stroke-miterlimit:4;stroke-dasharray:none"
           d="m 349.73733,1406.2058 c 0,-4.0527 150.41889,-110.3194 176.4814,-124.6792 6.70762,-3.6957 11.78269,-7.9585 11.27792,-9.4728 -0.50477,-1.5143 -19.49283,-9.8592 -42.19568,-18.5443 -22.70286,-8.6851 -41.73053,-16.1129 -42.28372,-16.5063 -0.55318,-0.3933 -5.4712,-24.2625 -10.92892,-53.0426 -7.03701,-37.1082 -9.0921,-53.6706 -7.06585,-56.9454 4.71539,-7.6207 99.05994,-124.1669 131.56464,-162.52515 76.79667,-90.62629 171.34358,-191.93541 235.66758,-252.523 l 39.07866,-36.80871 63.63085,3.65239 63.63086,3.65239 4.9308,50.29918 c 6.00626,61.26971 6.07991,79.8333 0.40314,101.62786 -7.32325,28.11587 -17.05111,41.7843 -78.87182,110.82139 -32.71315,36.53176 -59.50703,68.05925 -59.542,70.06105 -0.0349,2.0018 12.68557,33.8552 28.26788,70.7854 27.59603,65.4026 28.35357,67.7857 29.18374,91.8052 l 0.85229,24.6598 -53.99903,30.2693 c -29.69946,16.6481 -53.82628,31.4681 -53.61514,32.9332 0.21114,1.4651 12.34231,6.0267 26.95814,10.1367 45.64014,12.8342 90.1462,30.9684 151.34246,61.6651 63.61417,31.9095 80.34947,41.2211 74.11467,41.2379 -3.4656,0.01 -297.99239,-69.7325 -326.87873,-77.4026 l -10.853,-2.8817 8.83974,-11.9954 8.83975,-11.9953 -23.70103,-1.8593 c -13.03557,-1.0226 -30.5604,-1.9869 -38.94409,-2.1429 l -15.24303,-0.2836 11.6716,14.659 c 6.4194,8.0624 11.65646,15.4552 11.63792,16.4286 -0.0316,1.6592 -307.47623,106.1632 -312.10914,106.0894 -1.17858,-0.019 -2.14286,-0.5478 -2.14286,-1.1756 z"
           id="path3931" />
      </g>
      <g
         id="g3933"
         transform="matrix(0.8808962,0.11237994,-0.11237994,0.8808962,1140.5881,-451.32957)">
        <path
           id="path3935"
           d="M 2494.9156,838.19184 C 2463.1686,721.20022 2456.5738,687.0064 2454.0565,626.3415 l -2.0959,-50.50893 40.8918,-54.1167 c 27.5633,-36.47729 41.3055,-52.04857 42.1604,-47.77181 0.6975,3.48969 -2.1216,33.52446 -6.2649,66.74394 -14.4872,116.15803 -18.8285,250.23746 -11.1197,343.44069 1.8797,22.72625 2.9835,41.75434 2.4532,42.28469 -0.5304,0.53034 -11.8551,-39.1693 -25.1658,-88.22154 z"
           style="fill:#000000;stroke-width:0.1;stroke-miterlimit:4;stroke-dasharray:none" />
        <path
           id="path3937"
           d="m 2503.1319,832.34723 c -29.7716,-107.1534 -40.2156,-159.2255 -42.9674,-214.2275 l -1.3908,-27.7989 26.8035,-35.334 c 14.742,-19.4338 28.7802,-36.9745 31.1961,-38.9795 5.6522,-4.6909 5.7402,-7.6568 -1.8727,63.1044 -5.2474,48.774 -6.2919,75.5266 -6.4286,164.6628 -0.09,58.5351 -0.2117,106.428 -0.271,106.4286 -0.059,7e-4 -2.3403,-8.0345 -5.0691,-17.8559 l 0,0 z"
           style="fill:#ff0000;stroke-width:0.1;stroke-miterlimit:4;stroke-dasharray:none" />
      </g>
      <g
         transform="matrix(0.83188019,0.0264757,-0.0264757,0.83188019,1347.0291,-194.93572)"
         id="g3939">
        <path
           style="fill:#000000;stroke-width:0.1;stroke-miterlimit:4;stroke-dasharray:none"
           d="M 2494.9156,838.19184 C 2463.1686,721.20022 2456.5738,687.0064 2454.0565,626.3415 l -2.0959,-50.50893 40.8918,-54.1167 c 27.5633,-36.47729 41.3055,-52.04857 42.1604,-47.77181 0.6975,3.48969 -2.1216,33.52446 -6.2649,66.74394 -14.4872,116.15803 -18.8285,250.23746 -11.1197,343.44069 1.8797,22.72625 2.9835,41.75434 2.4532,42.28469 -0.5304,0.53034 -11.8551,-39.1693 -25.1658,-88.22154 z"
           id="path3941" />
        <path
           style="fill:#ff0000;stroke-width:0.1;stroke-miterlimit:4;stroke-dasharray:none"
           d="m 2503.1319,832.34723 c -29.7716,-107.1534 -40.2156,-159.2255 -42.9674,-214.2275 l -1.3908,-27.7989 26.8035,-35.334 c 14.742,-19.4338 28.7802,-36.9745 31.1961,-38.9795 5.6522,-4.6909 5.7402,-7.6568 -1.8727,63.1044 -5.2474,48.774 -6.2919,75.5266 -6.4286,164.6628 -0.09,58.5351 -0.2117,106.428 -0.271,106.4286 -0.059,7e-4 -2.3403,-8.0345 -5.0691,-17.8559 l 0,0 z"
           id="path3943" />
      </g>
    </g>
  </g>
</svg>
