<?xml version="1.0" encoding="UTF-8" standalone="no"?>
<!-- Created with Inkscape (http://www.inkscape.org/) -->

<svg
   xmlns:dc="http://purl.org/dc/elements/1.1/"
   xmlns:cc="http://creativecommons.org/ns#"
   xmlns:rdf="http://www.w3.org/1999/02/22-rdf-syntax-ns#"
   xmlns:svg="http://www.w3.org/2000/svg"
   xmlns="http://www.w3.org/2000/svg"
   xmlns:sodipodi="http://sodipodi.sourceforge.net/DTD/sodipodi-0.dtd"
   xmlns:inkscape="http://www.inkscape.org/namespaces/inkscape"
   width="744.09448819"
   height="1052.3622047"
   id="svg3081"
   version="1.1"
   inkscape:version="0.47 r22583"
   sodipodi:docname="New document 5">
  <defs
     id="defs3083">
    <inkscape:perspective
       sodipodi:type="inkscape:persp3d"
       inkscape:vp_x="0 : 526.18109 : 1"
       inkscape:vp_y="0 : 1000 : 0"
       inkscape:vp_z="744.09448 : 526.18109 : 1"
       inkscape:persp3d-origin="372.04724 : 350.78739 : 1"
       id="perspective3089" />
  </defs>
  <sodipodi:namedview
     id="base"
     pagecolor="#ffffff"
     bordercolor="#666666"
     borderopacity="1.0"
     inkscape:pageopacity="0.0"
     inkscape:pageshadow="2"
     inkscape:zoom="0.35"
     inkscape:cx="489.28571"
     inkscape:cy="520"
     inkscape:document-units="px"
     inkscape:current-layer="layer1"
     showgrid="false"
     inkscape:window-width="964"
     inkscape:window-height="644"
     inkscape:window-x="154"
     inkscape:window-y="71"
     inkscape:window-maximized="0" />
  <metadata
     id="metadata3086">
    <rdf:RDF>
      <cc:Work
         rdf:about="">
        <dc:format>image/svg+xml</dc:format>
        <dc:type
           rdf:resource="http://purl.org/dc/dcmitype/StillImage" />
        <dc:title></dc:title>
      </cc:Work>
    </rdf:RDF>
  </metadata>
  <g
     inkscape:label="Layer 1"
     inkscape:groupmode="layer"
     id="layer1">
    <path
       style="fill:#000000;stroke-width:0.1;stroke-miterlimit:4;stroke-dasharray:none"
       id="path3091"
       d="m -700.57236,647.60769 c 3.30209,4.12452 8.19623,5.3545 13.20773,6.46566 14.12504,3.13183 24.23769,0.43841 38.32661,-2.39133 7.07394,-2.2826 14.28041,-4.18927 21.22182,-6.8478 8.38497,-3.21142 16.63274,-6.80425 24.70258,-10.74108 8.96684,-4.37442 34.98868,-19.18584 26.36353,-14.17121 -39.54436,22.99096 -79.11729,45.94529 -119.13242,68.10673 -9.75586,5.40305 18.92852,-11.79893 28.32032,-17.81258 9.4055,-6.02242 18.71317,-12.19629 28.06976,-18.29444 71.95611,-47.30421 147.88911,-88.37297 222.96158,-130.35278 6.48866,-3.6284 31.64901,-14.47677 39.94371,-16.1128 6.25248,-1.23322 12.73156,-0.60413 19.09735,-0.9062 6.64038,1.36014 13.41414,2.18211 19.92114,4.08043 18.08685,5.27658 25.36001,10.19983 42.17259,19.10759 22.4412,11.88997 44.70009,24.06939 67.27034,35.71441 20.03209,9.23379 39.8079,19.1772 60.12395,27.79114 14.3222,6.07258 28.95974,11.35005 43.25276,17.52186 11.36875,4.59671 21.35687,11.25693 30.241471,19.59999 0,0 -180.254871,109.83716 -180.254871,109.83716 l 0,0 c -5.81625,-7.05464 -11.57134,-14.2423 -18.83809,-19.89522 -7.40517,-5.93941 -10.55018,-8.70298 -18.82065,-14.18838 -22.19889,-14.72345 -46.29245,-26.31515 -68.81017,-40.51646 -34.10476,-18.84826 -71.22847,-41.75003 -111.1133,-44.56367 -6.38008,-0.45008 -12.78401,0.44869 -19.17601,0.67303 -16.53619,3.99107 -16.30114,3.2527 -31.78738,9.60725 -5.61265,2.30306 -21.79716,10.5877 -16.60846,7.44393 44.22324,-26.79422 89.33184,-52.10081 133.81656,-78.45864 8.57713,-5.08207 -17.46747,9.61957 -26.08788,14.62789 -9.40321,5.4631 -18.65146,11.18866 -27.97719,16.78299 -4.59398,3.03503 -51.07105,33.82468 -55.8572,36.65014 -58.48157,34.52402 -117.19412,68.6615 -176.19002,102.29909 -27.41641,15.63196 -56.88652,27.55937 -86.95925,36.94183 -8.00243,1.74636 -15.90907,4.01129 -24.00729,5.23909 -10.82619,1.64139 -22.30312,1.62298 -33.19972,0.43668 -10.67713,-1.16241 -8.02435,-1.86053 -17.67329,-3.72723 -1.58437,-0.30652 -3.21027,-0.33307 -4.8154,-0.4996 0,0 178.29479,-119.44747 178.29479,-119.44747 z" />
    <path
       style="fill:#000000;stroke-width:0.1;stroke-miterlimit:4;stroke-dasharray:none"
       id="path3095"
       d="m 1565.4446,1069.4827 c -17.2695,-0.1798 -33.0053,-6.7887 -48.6555,-13.3958 -27.6975,-12.0006 -54.1164,-26.4759 -80.0233,-41.8903 -25.3894,-15.00604 -49.9509,-31.30435 -74.5512,-47.55081 -25.9113,-17.78341 -51.8771,-26.80012 -82.2756,-33.37468 -19.8211,-3.44807 -39.9302,-5.98668 -60.02,-3.34017 -14.8428,1.95531 -22.8407,4.5399 -37.4637,8.3406 -47.075,14.12756 -90.5941,37.42399 -133.9895,60.0429 -62.68907,35.18266 17.8816,-10.07333 19.9454,-10.98151 7.1103,-3.12882 -12.8663,8.71803 -19.0931,13.36257 -15.8998,11.8594 -30.4093,25.1718 -44.7635,38.8078 -8.50383,7.7404 -16.13059,16.3571 -24.36994,24.3633 -0.98298,0.9552 -7.62926,7.2538 -9.3635,8.2765 -25.54373,15.0635 -51.37802,29.6287 -77.06703,44.4431 -1.24706,-0.022 -2.49413,-0.045 -3.74119,-0.067 0,0 69.29866,-52.5867 69.29866,-52.5867 l 0,0 c 0.58662,-0.4097 1.17325,-0.8195 1.75988,-1.2292 -23.20389,13.5617 -46.40777,27.1235 -69.61166,40.6853 1.78415,-1.0619 3.63431,-2.0201 5.35245,-3.1858 12.95379,-8.7888 23.07396,-20.9422 35.05143,-30.8985 15.42915,-14.0694 30.81534,-28.2628 47.41673,-40.967 6.34449,-4.8552 12.63794,-9.8306 19.45031,-14.004 27.88596,-17.08313 56.28086,-33.32314 84.57436,-49.72244 7.4475,-4.31665 15.0939,-8.28055 22.6409,-12.42083 44.5523,-23.06616 89.3041,-46.76452 137.7205,-60.75761 15.3639,-3.80659 24.1809,-6.53294 39.8382,-8.33269 20.9524,-2.4084 41.998,0.0935 62.5088,4.45373 11.942,3.01869 17.1413,4.07123 28.8866,8.11701 19.4426,6.69717 37.4897,16.55189 54.6837,27.7516 24.7618,16.00538 49.3362,32.28925 74.9191,46.97444 25.374,15.54989 51.2061,30.49199 79.3815,40.47999 17.9475,5.7229 33.3692,9.6439 52.2841,7.2225 0,0 -70.7239,51.3839 -70.7239,51.3839 z" />
    <path
       style="fill:#000000;stroke-width:0.1;stroke-miterlimit:4;stroke-dasharray:none"
       id="path3097"
       d="m -738.60555,345.49293 c 3.6023,0.93993 7.59711,2.11028 11.2802,2.3067 15.74868,0.83988 32.34332,-2.27898 47.2157,-7.1158 8.03874,-2.61437 15.76596,-6.10407 23.64894,-9.15611 9.2024,-4.72582 17.68098,-11.2641 27.6072,-14.17747 9.54311,-2.80093 -32.54095,21.68537 -26.43616,13.83377 8.6743,-11.15636 23.27378,-16.04388 34.66128,-24.41242 33.39476,-24.54142 65.32324,-51.07693 97.57694,-77.076 42.16766,-34.87986 88.6574,-60.93195 136.78791,-87.38062 11.44811,-6.29097 31.59709,-13.61532 44.5945,-16.12013 7.59619,-1.46391 15.39261,-1.56466 23.08892,-2.34699 53.23729,0.41964 102.7913,21.44803 151.78901,39.93755 0,0 -55.77093,37.61994 -55.77093,37.61994 l 0,0 c -11.97519,-4.19441 -23.83044,-8.74837 -35.92556,-12.58324 -39.02307,-12.37264 -79.52932,-21.99962 -120.73227,-19.72564 -21.64256,3.35854 -23.2104,2.41557 -43.6093,10.22906 -7.04928,2.70013 -26.65926,13.85106 -20.66529,9.26245 11.88278,-9.09672 24.98066,-16.71036 38.57294,-22.97143 20.85183,-9.60506 -84.45612,49.91028 -56.51272,39.36775 -125.53095,98.78861 66.33849,-52.33105 -64.85014,51.43092 -11.74671,9.2909 -53.15122,42.06801 -66.37934,50.46061 -29.81858,18.91843 -60.33147,36.73331 -90.936,54.35198 -9.97217,5.74086 -20.49602,10.46519 -30.74404,15.69778 -8.73907,3.35258 -17.32301,7.14155 -26.21723,10.05774 -22.18673,7.27447 -46.3859,11.56193 -69.65096,7.90087 0,0 71.6064,-49.39127 71.6064,-49.39127 z" />
    <path
       style="fill:#000000;stroke-width:0.1;stroke-miterlimit:4;stroke-dasharray:none"
       id="path3099"
       d="m -100.00558,403.82486 c -41.40081,-5.19541 -83.3152,-5.06017 -124.96509,-4.52007 -33.16631,1.34792 -66.08142,6.4449 -97.10218,18.68459 -9.78043,3.859 -36.4938,20.34287 -28.50349,13.50886 9.99065,-8.54487 21.6995,-16.68358 34.67631,-18.7884 9.63313,-1.56247 -15.87772,11.35132 -23.81659,17.02697 -20.48168,14.6153 -38.90388,32.39535 -60.91108,44.8705 -28.48081,16.14482 -57.49861,31.32338 -86.24792,46.98507 0,0 58.81272,-46.71695 58.81272,-46.71695 l 0,0 c -14.22378,9.00735 -28.52824,17.88855 -42.67135,27.02206 -6.78332,4.38062 13.91842,-8.21348 20.59018,-12.76221 8.72112,-5.94596 35.69937,-26.88803 43.56598,-32.93593 45.77853,-33.60762 34.44273,-26.5833 111.51034,-68.77014 9.2023,-5.03735 18.97129,-9.04467 28.84656,-12.58533 31.34576,-11.23863 64.49913,-15.11645 97.56405,-16.62868 46.52232,-1.28171 93.179306,-1.28258 139.530796,-5.88712 0,0 -70.879236,51.49678 -70.879236,51.49678 z" />
    <path
       style="fill:#000000;stroke-width:0.1;stroke-miterlimit:4;stroke-dasharray:none"
       id="path3101"
       d="m -185.19715,1053.4268 c -14.3813,-4.8388 -27.28277,-12.8547 -39.36519,-21.8806 -13.64411,-11.6054 -24.79798,-25.743 -37.63187,-38.21357 -15.0666,-13.43294 -31.55725,-25.03844 -48.37715,-36.13776 -20.17197,-13.3771 -42.34827,-23.02329 -64.24391,-33.12106 -16.60318,-7.63308 -33.94027,-12.34764 -52.02844,-14.48077 -11.42731,-0.89883 -23.65565,-1.99809 -34.59909,2.38523 -2.45281,0.98246 -4.70744,2.40127 -7.06115,3.6019 115.34617,-67.34876 65.38813,-40.259 42.34379,-19.78317 -9.37075,8.3263 -17.92227,17.2779 -26.31388,26.56872 -10.28202,11.92869 -19.06829,25.02445 -27.82396,38.08305 -5.77043,9.58025 -10.98442,19.46631 -16.71949,29.07128 -6.19156,9.35199 -12.6498,18.55255 -19.84247,27.16515 -7.60771,8.3147 -16.59639,15.1764 -25.98736,21.3383 -30.77895,0.7259 -52.15235,36.5685 -82.03175,46.1223 -4.35211,1.3916 -3.58355,0.6388 -7.6061,2.429 -4.20693,2.1993 -2.07536,1.197 -6.3913,3.0141 23.89157,-13.6148 47.78314,-27.2296 71.67471,-40.8444 -0.90515,0.5599 -1.8607,1.0454 -2.71546,1.6796 -2.98005,2.2108 -5.63984,4.9365 -8.5265,7.2767 0,0 -80.66553,31.4248 -80.66553,31.4248 l 0,0 c 30.47248,-15.2164 33.80872,-76.4907 88.2328,-53.2287 3.31272,-1.4099 6.71122,-2.4006 10.06653,-3.6832 25.98735,-9.9332 65.42823,-50.33998 -61.93474,36.6583 9.62303,-5.3252 18.88861,-11.4694 26.8184,-19.1428 8.05802,-7.6059 14.24577,-16.7905 20.72317,-25.728 6.20381,-9.4777 11.69891,-19.3753 16.8931,-29.43697 9.37442,-14.02694 19.72683,-27.36278 30.31679,-40.48885 8.64797,-9.48282 17.28411,-18.71935 26.58177,-27.57195 2.54583,-2.42397 14.99186,-14.57647 18.38377,-16.62272 26.46354,-15.96479 53.58672,-30.80969 80.38008,-46.21454 2.81534,-0.93878 5.56932,-2.08693 8.44603,-2.81632 11.8872,-3.01402 24.35086,-1.2607 36.29241,0.25682 18.03563,3.45018 35.24513,9.31116 51.66128,17.62534 22.00362,10.60686 43.93123,21.39993 64.85902,34.04655 17.54629,11.20775 34.74731,22.98023 50.39541,36.77613 12.56251,12.18107 23.20809,26.23075 36.95547,37.16098 10.04545,6.85061 22.27547,15.61183 35.15549,14.84683 1.21825,-0.072 2.34609,-0.6733 3.51913,-1.01 0,0 -69.83381,52.8743 -69.83381,52.8743 z" />
    <path
       style="fill:#000000;stroke-width:0.1;stroke-miterlimit:4;stroke-dasharray:none"
       id="path3105"
       d="m 96.6312,770.59724 c 12.39751,1.37913 24.90772,0.98413 37.26561,-0.50698 6.66504,-0.8294 13.41613,-2.10606 19.75169,-4.41683 12.09272,-4.41059 69.28501,-38.71115 -30.15419,18.06529 9.60577,-6.12882 18.59918,-13.24683 26.52472,-21.45095 5.4431,-5.63441 9.51635,-10.80234 14.51706,-16.84618 13.92983,-17.07722 27.05269,-34.79067 39.87627,-52.70718 8.46723,-11.84167 16.03889,-24.32087 24.91274,-35.87423 5.94067,-7.73448 7.34682,-9.01052 13.90109,-16.29695 9.26408,-9.80271 19.39373,-19.1234 31.12996,-25.92983 52.8819,-30.66894 35.20639,-23.29176 62.60657,-33.98151 18.00687,-6.0784 36.95787,-7.75074 55.79839,-8.88823 10.70039,0.16559 21.48292,0.99787 31.81353,3.95548 5.90336,1.69011 8.20378,2.78511 13.88429,5.06881 16.82542,7.82889 31.80559,19.00024 46.02363,30.79619 20.74348,18.30011 38.2532,39.82852 56.06144,60.88977 19.5789,22.76317 38.7554,45.95201 60.858,66.36562 11.2053,10.34903 13.5647,11.70453 25.1541,20.41998 12.3276,8.51367 25.6943,16.15033 40.5094,19.16564 2.5753,0.19018 4.7401,-0.27331 7.0562,-1.28929 0,0 -45.7506,34.48683 -45.7506,34.48683 l 0,0 c -2.7378,-0.0702 -5.3747,-0.21822 -7.9181,-1.39234 -13.6339,-5.61633 -25.6631,-14.52579 -36.6019,-24.29827 -3.5297,-3.33077 -7.1717,-6.54637 -10.589,-9.9923 -10.9175,-11.00886 -14.8444,-16.29806 -25.5559,-28.19947 -15.52622,-17.25081 -31.68004,-33.90678 -47.82686,-50.57264 -19.66352,-19.58479 -39.44688,-39.119 -60.26786,-57.47251 -14.18041,-11.47505 -29.26156,-21.94112 -46.41141,-28.51173 -14.0465,-5.21404 -28.61168,-8.37939 -43.70037,-7.59441 -18.50502,1.08199 -37.09839,3.15184 -54.45377,10.10846 -21.2733,9.35364 -12.12871,5.73113 28.72777,-18.26643 2.84433,-1.67066 -5.70412,3.32095 -8.4634,5.12866 -6.17773,4.04731 -10.65589,7.49501 -16.1515,12.44965 -2.57492,2.32144 -4.98187,4.82265 -7.47286,7.23398 -6.38875,6.83715 -8.15994,8.46925 -13.99301,15.75391 -9.15841,11.43755 -17.08028,23.78855 -25.30787,35.89042 -12.57891,18.20108 -25.92379,35.82823 -39.81475,53.05074 -6.43167,8.2081 -12.71589,16.72784 -20.07089,24.15679 -5.45222,5.50704 -11.72231,10.14341 -17.82091,14.8857 -7.57555,4.37679 -43.74645,29.29135 -64.7271,35.19479 -6.38884,1.79767 -13.01023,2.60865 -19.59895,3.21814 -13.44646,1.06673 -26.9368,1.13037 -40.38727,2.10825 0,0 46.66601,-33.90484 46.66601,-33.90484 z" />
  </g>
</svg>
