<?xml version="1.0" encoding="UTF-8" standalone="no"?>
<!-- Created with Inkscape (http://www.inkscape.org/) -->

<svg
   xmlns:dc="http://purl.org/dc/elements/1.1/"
   xmlns:cc="http://creativecommons.org/ns#"
   xmlns:rdf="http://www.w3.org/1999/02/22-rdf-syntax-ns#"
   xmlns:svg="http://www.w3.org/2000/svg"
   xmlns="http://www.w3.org/2000/svg"
   xmlns:sodipodi="http://sodipodi.sourceforge.net/DTD/sodipodi-0.dtd"
   xmlns:inkscape="http://www.inkscape.org/namespaces/inkscape"
   width="744.09448819"
   height="1052.3622047"
   id="svg2"
   version="1.1"
   inkscape:version="0.47 r22583"
   sodipodi:docname="tree.svg">
  <defs
     id="defs4">
    <inkscape:perspective
       sodipodi:type="inkscape:persp3d"
       inkscape:vp_x="0 : 526.18109 : 1"
       inkscape:vp_y="0 : 1000 : 0"
       inkscape:vp_z="744.09448 : 526.18109 : 1"
       inkscape:persp3d-origin="372.04724 : 350.78739 : 1"
       id="perspective10" />
    <inkscape:perspective
       id="perspective2824"
       inkscape:persp3d-origin="0.5 : 0.33333333 : 1"
       inkscape:vp_z="1 : 0.5 : 1"
       inkscape:vp_y="0 : 1000 : 0"
       inkscape:vp_x="0 : 0.5 : 1"
       sodipodi:type="inkscape:persp3d" />
    <filter
       id="filter2852"
       inkscape:label="Apparition"
       x="0"
       y="0"
       width="1"
       height="1"
       inkscape:menu="Blurs"
       inkscape:menu-tooltip="Edges are partly feathered out"
       color-interpolation-filters="sRGB">
      <feMorphology
         id="feMorphology2854"
         radius="4"
         in="SourceGraphic"
         result="result0" />
      <feGaussianBlur
         id="feGaussianBlur2856"
         in="result0"
         stdDeviation="8"
         result="result91" />
      <feComposite
         id="feComposite2858"
         in2="result91"
         operator="in"
         in="SourceGraphic"
         result="fbSourceGraphic" />
      <feColorMatrix
         result="fbSourceGraphicAlpha"
         in="fbSourceGraphic"
         values="0 0 0 -1 0 0 0 0 -1 0 0 0 0 -1 0 0 0 0 1 0"
         id="feColorMatrix2860" />
      <feGaussianBlur
         id="feGaussianBlur2862"
         stdDeviation="5"
         result="result1"
         in="fbSourceGraphic" />
      <feComposite
         id="feComposite2864"
         in2="result1"
         operator="arithmetic"
         k2="2"
         in="result1"
         result="fbSourceGraphic" />
      <feColorMatrix
         result="fbSourceGraphicAlpha"
         in="fbSourceGraphic"
         values="0 0 0 -1 0 0 0 0 -1 0 0 0 0 -1 0 0 0 0 1 0"
         id="feColorMatrix2866" />
      <feMorphology
         id="feMorphology2868"
         radius="4"
         in="fbSourceGraphic"
         result="result0" />
      <feGaussianBlur
         id="feGaussianBlur2870"
         in="result0"
         stdDeviation="8"
         result="result91" />
      <feComposite
         id="feComposite2872"
         in2="result91"
         operator="in"
         in="fbSourceGraphic" />
    </filter>
  </defs>
  <sodipodi:namedview
     id="base"
     pagecolor="#ffffff"
     bordercolor="#666666"
     borderopacity="1.0"
     inkscape:pageopacity="0.0"
     inkscape:pageshadow="2"
     inkscape:zoom="0.35"
     inkscape:cx="333.23168"
     inkscape:cy="556.34508"
     inkscape:document-units="px"
     inkscape:current-layer="layer1"
     showgrid="false"
     inkscape:window-width="899"
     inkscape:window-height="737"
     inkscape:window-x="472"
     inkscape:window-y="23"
     inkscape:window-maximized="0"
     inkscape:snap-page="true" />
  <metadata
     id="metadata7">
    <rdf:RDF>
      <cc:Work
         rdf:about="">
        <dc:format>image/svg+xml</dc:format>
        <dc:type
           rdf:resource="http://purl.org/dc/dcmitype/StillImage" />
        <dc:title></dc:title>
      </cc:Work>
    </rdf:RDF>
  </metadata>
  <g
     inkscape:label="Layer 1"
     inkscape:groupmode="layer"
     id="layer1">
    <path
       style="fill:#ff0000;stroke:#000000;stroke-width:1px;stroke-linecap:butt;stroke-linejoin:miter;stroke-opacity:1"
       d="m -1466.7415,-306.29299 43.4366,61.6193 16.1624,27.27412 22.2234,24.24366 36.3655,49.49748 26.2639,48.487321 5.0508,24.24366 4.0406,20.20305 -1.0101,27.27412 2.0203,7.07107 5.0507,-1.01015 0,-35.35534 15.1523,-39.39595 33.3351,-47.477171 47.4771,-38.3858 9.0914,-5.05076 17.1726,-32.32488 14.1421,-23.23351 4.0406,-35.35534 11.1117,13.13198 0,23.23351 -3.0304,20.20305 -19.1929,45.45687 0,70.71067 -11.1117,33.335041 -17.1726,35.35534 -16.1625,22.22335 -2.0203,6.0609206 32.3249,-18.1827506 49.4975,-12.12183 57.5787,-16.16244 57.5787,-39.39595 -62.6295,62.62946 -21.2132,17.17259 -51.5178,55.55839 -34.3451,21.21321 -56.5686,17.17259 44.4467,-1.01015 43.4366,8.08122 65.6599,19.192899 -48.4873,3.03045 -27.2741,5.05077 -50.5077,12.12183 -76.7716,-17.1726 -12.1218,-1.01015 -20.203,21.21321 -33.3351,34.34518 -23.2335,13.13198 -15.1523,10.10153 -24.2436,5.05076 -63.6396,40.4061 32.3248,-35.35533 25.2539,-42.42641 14.1421,-20.20305 19.1929,-12.12183 32.3249,-10.10153 0,-4.04061 -38.3858,6.06092 -34.3452,7.07106 -30.3046,1.01016 -102.0254,-28.284269 -104.0457,-11.11168 102.0254,-8.08122 61.6193,-23.23351 47.4772,-6.06092 13.132,1.01016 -33.3351,-19.1929 -49.4975,-40.4060998 -48.4873,-59.5990002 -12.1218,-19.1929 -68.6904,-62.629461 57.5787,31.31473 35.3554,19.1929 26.2639,8.081221 64.6498,17.17259 33.335,14.14214 24.2437,15.15228 39.3959,50.5076306 6.0609,-4.04061002 -14.1421,-19.19290058 -30.3046,-35.35534 -10.1015,-18.18274 -5.0508,-19.1929 -5.0507,-47.477171 5.0507,-71.72083 -8.0812,-39.39595 -17.1726,-56.56854 z"
       id="path2830" />
    <path
       id="path2832"
       d="m -1422.2948,408.89501 43.4366,61.6193 16.1624,27.27412 22.2234,24.24366 36.3655,49.49748 26.2639,48.48732 5.0508,24.24366 4.0406,20.20305 -1.0101,27.27412 2.0203,7.07107 5.0507,-1.01015 0,-35.35534 15.1523,-39.39595 33.3351,-47.47717 47.4771,-38.3858 9.0914,-5.05076 17.1726,-32.32488 14.1421,-23.23351 4.0406,-35.35534 11.1117,13.13198 0,23.23351 -3.0304,20.20305 -19.1929,45.45687 0,70.71067 -11.1117,33.33504 -17.1726,35.35534 -16.1625,22.22335 -2.0203,6.06092 32.3249,-18.18275 49.4975,-12.12183 57.5787,-16.16244 57.57871,-39.39595 -62.62951,62.62946 -21.2132,17.17259 -51.5178,55.55839 -34.3451,21.21321 -56.5686,17.17259 44.4467,-1.01015 43.4366,8.08122 65.6599,19.1929 -48.4873,3.03045 -27.2741,5.05077 -50.5077,12.12183 -76.7716,-17.1726 -12.1218,-1.01015 -20.203,21.21321 -33.3351,34.34518 -23.2335,13.13198 -15.1523,10.10153 -24.2436,5.05076 -63.6396,40.4061 32.3248,-35.35533 25.2539,-42.42641 14.1421,-20.20305 19.1929,-12.12183 32.3249,-10.10153 0,-4.04061 -38.3858,6.06092 -34.3452,7.07106 -30.3046,1.01016 -102.0254,-28.28427 -104.0457,-11.11168 102.0254,-8.08122 61.6193,-23.23351 47.4772,-6.06092 13.132,1.01016 -33.3351,-19.1929 -49.4975,-40.4061 -48.4873,-59.599 -12.1218,-19.1929 -68.6904,-62.62946 57.5787,31.31473 35.3554,19.1929 26.2639,8.08122 64.6498,17.17259 33.335,14.14214 24.2437,15.15228 39.3959,50.50763 6.0609,-4.04061 -14.1421,-19.1929 -30.3046,-35.35534 -10.1015,-18.18274 -5.0508,-19.1929 -5.0507,-47.47717 5.0507,-71.72083 -8.0812,-39.39595 -17.1726,-56.56854 z"
       style="fill:#ff0000;stroke:#000000;stroke-width:1px;stroke-linecap:butt;stroke-linejoin:miter;stroke-opacity:1;filter:url(#filter2852)"
       transform="matrix(-0.21953715,-0.13788711,0.13788711,-0.21953715,-1208.9923,393.33749)" />
    <path
       transform="matrix(-0.15721474,-0.1552664,0.1552664,-0.15721474,-687.20818,407.45085)"
       style="fill:#ff2a2a;stroke:#000000;stroke-width:1px;stroke-linecap:butt;stroke-linejoin:miter;stroke-opacity:1;filter:url(#filter2852)"
       d="m -1422.2948,408.89501 43.4366,61.6193 16.1624,27.27412 22.2234,24.24366 36.3655,49.49748 26.2639,48.48732 5.0508,24.24366 4.0406,20.20305 -1.0101,27.27412 2.0203,7.07107 5.0507,-1.01015 0,-35.35534 15.1523,-39.39595 33.3351,-47.47717 47.4771,-38.3858 9.0914,-5.05076 17.1726,-32.32488 14.1421,-23.23351 4.0406,-35.35534 11.1117,13.13198 0,23.23351 -3.0304,20.20305 -19.1929,45.45687 0,70.71067 -11.1117,33.33504 -17.1726,35.35534 -16.1625,22.22335 -2.0203,6.06092 32.3249,-18.18275 49.4975,-12.12183 57.5787,-16.16244 57.57871,-39.39595 -62.62951,62.62946 -21.2132,17.17259 -51.5178,55.55839 -34.3451,21.21321 -56.5686,17.17259 44.4467,-1.01015 43.4366,8.08122 65.6599,19.1929 -48.4873,3.03045 -27.2741,5.05077 -50.5077,12.12183 -76.7716,-17.1726 -12.1218,-1.01015 -20.203,21.21321 -33.3351,34.34518 -23.2335,13.13198 -15.1523,10.10153 -24.2436,5.05076 -63.6396,40.4061 32.3248,-35.35533 25.2539,-42.42641 14.1421,-20.20305 19.1929,-12.12183 32.3249,-10.10153 0,-4.04061 -38.3858,6.06092 -34.3452,7.07106 -30.3046,1.01016 -102.0254,-28.28427 -104.0457,-11.11168 102.0254,-8.08122 61.6193,-23.23351 47.4772,-6.06092 13.132,1.01016 -33.3351,-19.1929 -49.4975,-40.4061 -48.4873,-59.599 -12.1218,-19.1929 -68.6904,-62.62946 57.5787,31.31473 35.3554,19.1929 26.2639,8.08122 64.6498,17.17259 33.335,14.14214 24.2437,15.15228 39.3959,50.50763 6.0609,-4.04061 -14.1421,-19.1929 -30.3046,-35.35534 -10.1015,-18.18274 -5.0508,-19.1929 -5.0507,-47.47717 5.0507,-71.72083 -8.0812,-39.39595 -17.1726,-56.56854 z"
       id="path2874" />
    <g
       id="g2898"
       transform="matrix(0.62216527,0,0,0.62216527,1046.2066,115.92044)">
      <path
         d="m -925.7534,825.35393 c -1.52296,19.64033 -1.14742,39.36704 -1.1794,59.04975 0.0702,20.69314 -0.0761,41.38499 0.25888,62.07643 0.10999,13.19791 0.46221,26.39192 0.66808,39.5884 0.0998,8.61799 0.21143,17.23729 0.0769,25.85529 -0.0648,9.0529 -5.4e-4,18.1061 0.0315,27.159 0.0285,8.2253 0.0353,16.4506 0.0395,24.6759 0.003,8.0751 0.002,16.1503 0.002,24.2254 0.28578,5.6289 -0.64011,11.5429 0.57352,17.0161 -73.44372,40.9102 -64.52947,52.7292 -64.15218,17.0451 0.0597,-8.1146 0.0516,-16.2294 0.0501,-24.3442 -0.003,-8.1264 -0.006,-16.2528 -0.007,-24.3792 0.20479,-10.9055 0.46408,-21.7118 -0.59283,-32.5846 -1.32996,-10.4873 -2.45065,-20.9915 -3.04903,-31.5466 -0.1681,-11.21476 -0.0893,-22.43128 -0.1979,-33.6477 -0.0157,-12.6231 1.98684,-25.13517 2.95777,-37.70567 1.40258,-11.08484 2.91086,-22.18621 5.15646,-33.13654 1.67247,-8.70234 3.14847,-17.41075 5.09441,-26.05859 1.78662,-7.76286 2.30439,-15.71272 2.60953,-23.64665 0.74499,-36.06487 -10.02672,-8.04084 64.22662,-44.92819 -1.37794,7.94111 0.72245,15.45478 2.44639,23.14433 2.75374,11.19764 3.81703,22.68107 4.56083,34.15695 0.52933,8.95182 3.73935,17.34416 5.9033,25.95936 2.40155,7.54784 3.68423,15.27312 7.47786,22.2588 2.7555,6.89975 6.12463,13.22298 9.73729,19.69336 3.1018,5.49356 4.89939,11.02553 5.52908,17.28111 -0.0346,7.33403 0.58397,14.50227 1.78611,21.7283 1.58732,8.96185 1.84849,18.07988 2.15102,27.15523 0.32458,9.2506 0.16436,18.5053 0.17309,27.7589 0.45583,10.3867 -0.42886,20.6407 -1.73949,30.9239 -0.96922,9.6883 -3.03099,19.2424 -5.76083,28.5775 -2.40755,8.0593 -4.70963,16.1989 -7.82945,24.0169 -10.52515,27.2641 -45.93997,56.4112 -74.38415,44.5751 -5.5703,-3.3291 -9.29516,-8.2423 -12.80492,-13.5766 -3.68583,-5.0447 -4.60675,-11.5258 -7.75985,-16.7866 0.0971,0.4585 -0.11588,1.6074 0.29141,1.3755 42.36986,-24.124 59.39069,-60.4706 68.01835,-24.2643 1.47962,7.3496 0.64774,14.7669 3.41415,21.7935 3.46016,6.8057 4.20641,14.3828 5.98029,21.6706 1.76827,4.3866 1.09118,-0.8612 2.2273,-2.33 1.36104,-1.7596 3.58476,-2.5606 5.4649,-3.5076 -105.21391,60.9963 -62.39221,40.0825 -42.5388,20.9392 6.69943,-5.2768 9.5198,-12.6668 11.1095,-20.7571 2.97873,-29.2225 -30.168,3.9984 64.83797,-35.221 0.0117,0 -0.035,2.3174 -0.11136,6.243 -0.0853,6.6807 -0.85003,13.4702 1.596,19.8271 1.24242,1.3156 0.83179,1.5141 1.36671,0.064 -20.84626,10.9046 -41.67408,21.8444 -62.53879,32.7136 -0.52942,0.2758 1.19206,-0.4392 1.52946,-0.9316 0.85075,-1.2417 1.28962,-4.7598 1.51092,-6.0108 0.95696,-7.9375 1.16821,-15.9047 0.0272,-23.8189 -1.13298,-7.5631 -5.80271,-13.8716 -8.31713,-21.0617 -1.91662,-7.7756 -2.9626,-15.7234 -4.516,-23.5865 -1.53419,-7.5982 -1.5692,-15.346 -3.28576,-22.9016 -0.96045,-4.2514 -0.3628,-2.3053 -1.68646,-5.8701 0,0 62.58758,-34.8112 62.58758,-34.8112 l 0,0 c 1.74064,4.4979 1.06719,2.2358 2.05946,6.7745 1.81039,7.6797 2.05455,15.4372 3.22136,23.2287 1.44182,7.5827 2.97302,15.1002 4.1697,22.7164 2.41099,7.6638 7.53774,14.187 8.73307,22.1719 1.45458,8.465 1.73744,16.8512 1.04541,25.4351 -0.0492,0.8705 0.0103,10.5059 -0.45484,10.7826 -33.20643,19.7537 -53.25416,55.5567 -68.00114,30.0139 -2.90507,-7.1719 -3.11027,-14.5874 -2.83777,-22.2534 -0.0158,-1.0665 -0.0259,-2.1332 -0.0472,-3.1996 -0.0181,-0.9087 -0.86026,-2.275 -0.071,-2.7257 101.13546,-57.7566 67.25854,-55.4336 63.1769,-28.9394 -1.11178,9.1056 -3.10613,18.0268 -9.08321,25.3011 -3.28879,2.5755 -5.86606,5.4683 -8.81751,8.4019 -19.44212,19.3248 -62.83382,8.6778 -70.30722,42.235 -7.58639,4.2859 -11.86339,4.3506 -14.93005,-4.8795 -1.83625,-6.9499 -2.07047,-14.3273 -5.45852,-20.8512 -0.87988,-2.1185 -2.55042,-5.8667 -2.96064,-8.0699 -0.88897,-4.7744 0.27436,-9.9612 -1.08555,-14.7182 -0.45132,-2.1767 -0.62214,-3.5274 -1.43754,-5.5661 -0.26821,-0.6706 -0.58254,-1.3293 -0.97947,-1.9326 -0.29938,-0.4551 -1.53814,-0.9036 -1.09182,-1.2159 59.49947,-41.6292 47.01367,-59.9827 61.00659,-37.6546 1.90699,5.5005 3.51797,11.0037 6.79469,15.9082 2.4955,3.6278 5.21863,8.0871 9.9646,8.7425 2.38771,-0.2718 1.39749,0.2231 3.02257,-1.3759 -19.69063,11.6038 -39.38125,23.2077 -59.07187,34.8116 -3.07728,1.8328 9.91416,-5.0764 6.81573,-6.7746 2.60489,-7.9179 6.14618,-15.5526 8.11477,-23.7148 2.81096,-9.0462 5.57233,-18.1963 6.55861,-27.6572 1.28545,-10.0076 2.65037,-19.9036 1.96401,-30.031 0.0188,-9.1886 -0.0876,-18.3765 -0.13079,-27.565 -0.17031,-8.7456 -0.45775,-17.5122 -1.88951,-26.1601 -1.25935,-7.3439 -2.71873,-14.56423 -2.39106,-22.06513 -0.36536,-5.2222 -1.3549,-10.07428 -3.869,-14.75393 -3.60614,-6.51757 -7.13405,-12.80253 -9.7214,-19.80516 -1.04266,-1.94239 -3.20811,-5.81079 -3.8854,-7.81281 -1.76845,-5.22739 -1.99238,-11.07001 -4.37054,-16.15114 -2.02851,-9.11854 -5.50479,-17.87912 -6.21996,-27.26706 -0.3757,-11.12008 -1.14303,-22.25638 -3.74093,-33.1152 -1.99689,-7.91683 -4.97301,-15.59005 -4.81506,-23.84955 75.77315,-39.57912 64.15263,-55.91593 63.9796,-20.08992 -0.19451,8.31209 -0.50139,16.65654 -2.08482,24.84289 -1.83365,8.74711 -4.01431,17.36436 -5.3692,26.21169 -2.52326,10.73836 -3.9852,21.60512 -5.98363,32.45489 -0.98651,12.35723 -2.76556,24.68698 -2.94397,37.07586 -0.0992,11.073 -0.0997,22.14579 0.3821,33.21172 0.31073,10.53112 0.98021,21.04586 2.20845,31.51355 1.17149,10.9164 1.99757,21.8296 1.70817,32.8224 -10e-4,8.1288 -0.004,16.2576 -0.007,24.3863 -0.002,8.0978 -0.01,16.1956 0.0501,24.2932 0.38723,36.2291 6.11453,15.8619 -64.15218,48.3292 2.27947,-5.2339 -0.47116,-12.1373 0.57353,-17.6005 -2.2e-4,-8.0758 -8.4e-4,-16.1516 0.002,-24.2275 0.004,-8.2387 0.0111,-16.4774 0.0395,-24.7161 0.0319,-9.0637 0.0962,-18.1276 0.0315,-27.1912 -0.13716,-8.644 -0.0198,-17.2895 0.0769,-25.9336 0.20613,-13.4234 0.55616,-26.84437 0.66807,-40.26916 0.33097,-20.77942 0.19145,-41.55916 0.25889,-62.34025 -0.0314,-19.28095 0.37764,-38.61271 -1.17941,-57.84787 0,0 63.74243,-32.47839 63.74243,-32.47839 z"
         id="path2878"
         style="fill:#000000;stroke-width:0.1;stroke-miterlimit:4;stroke-dasharray:none" />
      <path
         d="m -976.04529,840.36638 c 129.39866,-57.41228 70.40584,-43.21132 52.59687,-28.84496 -3.33121,2.68726 -6.25582,6.14211 -9.16165,9.26403 -22.39706,18.93968 -1.91944,1.97278 -68.15313,39.97751 -4.4448,2.55042 -9.0232,4.95907 -13.7175,7.01984 135.24593,-77.37252 15.63111,-8.93028 -6.5727,3.71984 -1.219,0.69452 -2.4696,1.33214 -3.7044,1.9982 -1.3456,0.57513 -2.7505,1.02769 -4.0368,1.72538 -9.6911,5.25628 3.2397,-0.47052 -7.4372,3.99963 -8.3438,3.40076 -16.6811,6.10282 -25.6241,7.38969 -7.9733,2.7628 -16.3118,3.86872 -24.6826,4.49694 -8.1439,0.46539 -16.3052,0.4327 -24.4592,0.43126 -8.0834,-0.0149 -16.1668,-0.0333 -24.2502,-0.0429 -8.1569,0.39211 -15.9828,0.008 -23.9465,-1.64426 -8.8148,-1.73643 -17.8097,-2.07665 -26.7647,-2.3335 -8.6622,-0.17599 -17.3268,-0.13076 -25.9902,-0.111 -8.8981,0.0599 -17.7445,2.7183 -25.9092,6.15675 -9.5257,2.75175 -18.5347,6.87213 -26.9754,12.04234 -22.9061,11.28737 -16.9176,8.43475 53.7387,-31.05444 1.1743,-0.6563 -2.0939,1.68945 -3.1475,2.52587 -3.7186,2.95209 -7.6138,5.3116 -11.6727,7.76705 -139.7238,80.9263 -37.5842,21.69008 -7.8883,4.7747 1.2019,-0.68463 -2.2932,1.54756 -3.4505,2.30512 -3.5009,2.29165 -6.7972,4.54049 -10.0492,7.18081 -39.9373,25.29778 -148.1253,85.23871 -25.272,15.16165 -8.0668,5.73894 -16.0518,11.60588 -23.5891,18.0291 0,0 -65.9622,26.61779 -65.9622,26.61779 l 0,0 c 7.7965,-6.3251 15.3448,-12.89294 23.5901,-18.66796 21.6374,-12.71031 43.252,-25.4596 64.9123,-38.13095 1.5243,-0.89172 6.1673,-3.44354 4.6398,-2.55734 -18.717,10.85883 -37.4619,21.66975 -56.2094,32.47581 -11.5313,6.6466 23.7534,-12.85053 11.5899,-6.8251 4.8362,-2.84935 8.6342,-6.76287 13.5452,-9.64807 71.504,-42.00878 96.2803,-56.26773 7.9412,-5.0099 3.7794,-2.47834 8.0431,-4.30859 11.7674,-6.77706 1.1468,-0.76011 1.938,-1.99492 3.1138,-2.70933 52.0257,-31.60973 43.0409,-26.65307 67.8168,-40.15622 8.887,-4.40112 18.0943,-7.95881 27.5308,-11.02263 8.9898,-2.68845 18.1371,-4.92658 27.6059,-4.37127 8.6635,0.0273 17.3301,0.0707 25.9863,0.46864 9.2255,0.48808 18.4546,1.15128 27.5384,2.92471 7.6963,1.06408 15.4536,0.58612 23.2059,0.68262 8.0766,0.0128 16.1534,0.0402 24.23,0.0146 8.0179,-0.0573 16.0546,-0.1134 24.0339,-0.99143 8.2233,-1.07746 16.2048,-3.11128 24.281,-4.94286 8.46323,-1.99336 16.57382,-5.13476 24.4205,-8.87039 3.73178,-2.09486 7.55226,-3.95188 11.35704,-5.90945 1.2882,-0.66278 5.11731,-2.71553 3.86642,-1.98479 -33.71077,19.69299 -127.40826,73.57707 6.6738,-3.63978 3.34732,-1.78075 6.71927,-3.51715 10.08828,-5.25556 1.15335,-0.59513 4.60522,-2.39091 3.48692,-1.73228 -53.41031,31.45645 -77.05396,43.75411 -53.41835,31.38716 3.53844,-2.59683 6.29157,-5.76733 9.20348,-9.05761 0.99204,-1.12095 1.66237,-2.52008 2.74419,-3.55465 18.76747,-17.94793 103.32326,46.84025 67.75824,-38.44394 0,0 -57.21841,43.75252 -57.21841,43.75252 z"
         id="path2880"
         style="fill:#000000;stroke-width:0.1;stroke-miterlimit:4;stroke-dasharray:none" />
      <path
         d="m -1005.2798,871.45672 c -9.1013,-0.37042 -18.2158,-0.26238 -27.3227,-0.23594 -8.8032,1.45797 -17.2878,3.98974 -26.0325,5.71441 -4.1476,1.3298 -7.8302,2.98794 -11.5366,5.18734 -1.0361,0.61485 -4.2286,2.31111 -3.1846,1.70964 60.6075,-34.9185 76.87452,-46.38701 55.4715,-31.4696 -6.8987,3.60877 -12.9334,8.41837 -18.4198,13.8919 -7.6956,7.82115 -14.5935,16.25341 -23.2965,22.99122 -6.8091,4.65101 -11.7004,10.18786 -14.2291,18.03066 -1.767,7.5505 -1.6594,15.36285 -1.686,23.07015 0.026,8.09002 0.09,16.17984 0.1231,24.26985 0.4212,8.3564 -0.1697,16.56406 -1.5393,24.79848 -1.7108,9.31339 -5.6675,17.93295 -9.9641,26.29597 -4.7753,10.6419 -10.7282,20.6195 -17.3932,30.167 -5.0613,7.5762 -11.6862,13.7447 -18.4206,19.7884 -3.0415,3.2852 -8.562,5.161 -10.6358,9.3803 -0.2223,0.4521 0.1868,1.291 -0.2779,1.4857 -21.6986,9.0956 -43.7156,17.4119 -65.5734,26.1178 3.4582,-7.5608 10.0041,-12.9152 15.3922,-19.1093 4.2815,-6.9116 10.2969,-12.4007 15.3486,-18.6789 5.31,-5.6587 7.9697,-13.052 12.5785,-19.1953 0,0 65.5622,-28.1291 65.5622,-28.1291 l 0,0 c -1.5793,1.9708 -3.6712,3.525 -5.0805,5.6207 -2.874,4.2739 -3.7475,9.9874 -7.3507,13.8822 -3.5412,3.8976 -1.8977,1.7793 -4.887,6.3887 -3.5604,4.0453 -8.6912,6.8702 -10.7247,12.1661 -2.2778,3.0611 -6.0618,8.1036 -8.5793,10.8257 -1.5498,1.6758 -4.0106,2.3289 -5.5435,4.0202 -0.6053,0.6679 -0.7804,1.6252 -1.1706,2.4378 -22.467,9.9706 -44.934,19.9413 -67.4011,29.912 2.1245,0.5008 1.4018,0.7876 3.1427,-1.4705 2.6998,-3.5019 5.1388,-6.9817 9.1807,-9.1683 7.2156,-5.0881 13.8882,-11.431 19.3315,-18.3595 7.4988,-8.6255 13.4558,-18.4855 17.9902,-28.9723 4.0526,-7.925 7.8577,-15.5783 10.4279,-24.1021 1.3396,-7.9057 2.8289,-15.62243 2.0639,-23.70644 -0.025,-8.09609 -0.071,-16.19205 -0.1348,-24.28793 -0.037,-8.195 -0.1761,-16.42989 0.8733,-24.57543 1.6255,-9.06829 4.8277,-17.01567 12.64,-22.53993 5.3115,-4.16392 2.5222,-2.17045 8.3865,-5.9546 5.9196,-4.41869 9.6927,-10.93709 15.065,-15.95769 5.2858,-5.8615 10.5807,-11.71269 17.4901,-15.68077 28.111,-13.4328 51.6802,-37.0841 82.4737,-44.01091 8.88363,-2.10139 17.81628,-4.62499 27.02278,-4.56184 9.32365,0.0273 18.65356,0.12364 27.97216,-0.23593 0,0 -58.15224,42.25009 -58.15224,42.25009 z"
         id="path2882"
         style="fill:#000000;stroke-width:0.1;stroke-miterlimit:4;stroke-dasharray:none" />
      <path
         d="m -977.35053,855.51134 c 2.79064,-11.38568 4.8251,-22.92864 7.61744,-34.31299 2.82853,-11.23885 5.52356,-22.48248 7.30096,-33.9392 1.21911,-9.54061 1.34457,-19.16912 1.4084,-28.7725 0.0132,-8.2112 -0.0338,-16.42236 -0.0573,-24.63351 0.33668,-9.55927 0.15179,-18.98491 -1.77525,-28.37284 -3.22564,-8.68567 -6.80615,-17.1985 -10.54586,-25.67097 -3.89796,-8.68667 -9.59211,-16.62397 -15.38557,-24.18242 -7.63633,-9.50318 -15.17439,-19.10278 -22.05939,-29.16869 -11.1209,-16.7215 -17.6736,-35.87459 -25.4784,-54.24408 -7.2167,-17.63243 -15.9714,-34.73972 -21.5399,-52.99692 -3.2422,-11.0332 -4.1146,-22.41275 -4.0742,-33.84315 0.2304,-13.64046 0.7679,-27.73918 -2.924,-40.99726 -0.5855,-1.53311 -1.171,-3.06622 -1.7566,-4.59933 0,0 61.987,-34.3918 61.987,-34.3918 l 0,0 c 0.6205,1.74047 1.2411,3.48094 1.8616,5.22141 3.77473,13.8213 3.19276,28.38937 3.70551,42.61467 0.3676,10.84227 0.43175,21.77011 2.89217,32.40038 4.68987,18.28263 12.15584,35.71738 19.57301,53.02969 7.80187,17.80895 15.09177,36.10708 26.24748,52.14948 7.12432,9.81004 14.9395,19.0827 22.45115,28.59169 6.14975,7.96368 12.35203,16.26601 16.3939,25.49931 4.08241,8.85749 7.6036,17.92429 11.05929,27.04207 2.3274,9.71186 3.29275,19.53965 2.8977,29.53073 0.0137,8.25297 0.0443,16.50612 -0.0113,24.75899 -0.11367,9.92996 -0.34849,19.87005 -1.39434,29.75368 -1.35051,11.77982 -4.46468,23.16183 -6.98613,34.72373 -2.97732,10.97151 -5.83109,22.0949 -6.74521,33.45479 0,0 -64.66215,31.35504 -64.66215,31.35504 z"
         id="path2884"
         style="fill:#000000;stroke-width:0.1;stroke-miterlimit:4;stroke-dasharray:none" />
      <path
         d="m -937.11952,710.6883 c 0.76323,-11.19654 0.61206,-22.43491 0.51204,-33.65054 -0.10466,-10.31451 -0.14863,-20.63138 -0.0599,-30.94623 0.34116,-11.20293 -0.43351,-22.41168 0.42023,-33.58973 0.24203,-12.79787 7.23767,-23.37759 12.28143,-34.67054 5.75654,-17.07622 13.90547,-33.15203 21.84599,-49.28375 7.96256,-16.59969 15.8703,-33.23477 24.14833,-49.68075 6.44701,-12.74551 11.79673,-25.93465 15.86271,-39.61383 4.41874,-13.98817 8.97342,-27.91024 11.93122,-42.29369 1.13177,-6.91113 0.62237,-3.43811 1.5264,-10.41933 0,0 63.44298,-31.45699 63.44298,-31.45699 l 0,0 c -0.67828,7.4387 -0.20943,3.73498 -1.40689,11.11111 -3.05094,14.579 -7.9156,28.60808 -11.99606,42.91214 -3.9638,14.2862 -8.86516,28.04047 -15.9982,41.12668 -8.45078,16.6498 -16.25215,33.55886 -25.08772,50.01145 -7.64597,15.68469 -14.98762,31.54729 -20.32682,48.19051 -1.74263,4.27745 -3.28316,8.29285 -5.34714,12.43074 -2.27024,4.5514 -5.63408,9.29597 -6.92198,14.2938 -0.48364,1.87682 -0.45771,3.84914 -0.68656,5.77371 -1.02183,10.95572 -0.52906,21.99385 -0.54642,32.98627 0.0896,10.33521 0.0434,20.67244 -0.0599,31.00732 -0.0976,11.0411 -0.2688,22.10816 0.51204,33.12875 0,0 -64.04568,32.6329 -64.04568,32.6329 z"
         id="path2886"
         style="fill:#000000;stroke-width:0.1;stroke-miterlimit:4;stroke-dasharray:none" />
      <path
         d="m -873.07384,614.1983 c -0.54839,9.26366 -0.39873,18.55411 -0.35765,27.82966 0.0491,8.57 0.0773,17.14009 0.0924,25.71022 0.73849,7.88819 -1.57165,15.07213 -4.19618,22.35441 -1.88352,6.70425 -4.55172,13.11363 -6.44615,19.81374 -2.27204,6.87637 -4.89467,13.6498 -7.05122,20.56556 -2.11736,6.3847 -4.42957,12.56083 -5.53355,19.22557 -0.98193,7.65207 -0.99189,15.38382 -1.04522,23.08545 0.0504,8.45906 0.2736,16.85994 -0.97957,25.24216 -1.52783,8.9395 -2.29848,17.97039 -2.7333,27.0206 -0.31667,8.18377 -0.31192,16.37524 -0.31782,24.56375 -1.9e-4,8.59164 0.18831,17.17671 -0.40533,25.75175 -1.23301,8.88503 -2.43493,17.76 -3.0779,26.70987 -0.49295,8.09577 -0.5223,16.20951 -0.55115,24.31723 0.24873,7.74239 -0.49224,15.55116 0.34473,23.26143 0,0 -63.23062,33.30983 -63.23062,33.30983 l 0,0 c -1.27046,-7.99482 -0.40099,-16.14118 -0.6578,-24.21401 0.0117,-8.25087 0.0132,-16.5062 0.41165,-24.74956 0.5389,-9.06088 1.52628,-18.07566 3.11558,-27.01756 1.15922,-8.26837 0.24713,-16.66522 0.51626,-25.00015 0.002,-8.29621 -0.009,-16.59466 0.26141,-24.88749 0.38228,-9.26923 1.06967,-18.52486 2.49538,-27.69964 1.14876,-8.08423 1.69412,-16.05737 1.25425,-24.25525 0.004,-7.9396 -0.0325,-15.89019 0.52548,-23.8148 0.65478,-6.9375 1.61608,-13.8972 5.1243,-20.05779 1.61419,-7.33052 4.97377,-13.88982 6.59994,-21.20248 1.59725,-3.15623 1.97555,-6.3128 3.13175,-9.63801 0.73382,-2.11045 1.99311,-4.01349 2.7217,-6.12575 0.42782,-1.2403 0.5923,-2.55631 0.88845,-3.83447 2.05523,-6.75508 5.85943,-13.0764 5.31969,-20.36175 0.0151,-8.60153 0.0434,-17.20302 0.0924,-25.80442 0.0404,-9.15377 0.2,-18.32406 -0.35765,-27.4652 0,0 64.04568,-32.6329 64.04568,-32.6329 z"
         id="path2888"
         style="fill:#000000;stroke-width:0.1;stroke-miterlimit:4;stroke-dasharray:none" />
      <path
         d="m -977.66529,837.24555 c -1.76119,-6.76288 -5.9884,-12.85974 -10.60179,-18.03405 -4.55808,-5.14922 -9.14516,-9.9162 -12.90692,-15.70344 -4.5231,-7.11097 -8.8825,-14.25535 -14.7294,-20.37485 -4.912,-6.92259 -11.3772,-11.90354 -18.6596,-16.11257 -7.027,-5.98875 -15.324,-7.49019 -24.2067,-8.43909 -10.2161,-2.29286 -20.6096,-3.50296 -31.0455,-4.14868 -9.3282,-3.84844 -18.6936,-7.48058 -28.5454,-9.71099 -13.231,-2.78605 -26.8228,-2.01153 -40.1621,-3.65683 -11.2674,-1.3762 -22.4236,-3.72701 -33.4323,-6.48698 -15.5886,-4.277 -29.9188,-11.56093 -43.9095,-19.47313 -13.8532,-8.63327 -27.6196,-18.07922 -39.5148,-29.30731 -5.813,-7.18872 -14.5436,-11.81517 -19.0351,-20.06427 64.4259,-36.59345 46.4055,-53.39536 65.7722,-33.72524 0,0 -60.6958,38.40203 -60.6958,38.40203 l 0,0 c -23.8866,-9.84561 -2.3968,-0.41288 59.3776,-37.83367 -0.4064,-0.30947 -1.0373,-1.40573 -1.2191,-0.92839 -0.6743,1.77093 14.0294,14.89454 15.73,17.21248 11.3868,10.89364 24.2048,20.36298 37.8499,28.23963 13.8437,7.42022 28.1934,13.95584 43.6386,17.27698 10.9339,2.18964 21.8277,4.64969 32.9332,5.83073 13.5977,1.17305 27.3426,1.36256 40.7144,4.40901 9.5862,2.45531 18.7432,6.24136 28.3449,8.51106 10.4611,1.07722 20.7933,2.92489 31.1776,4.55065 9.5844,1.6428 18.30275,4.53504 25.93587,10.81005 7.53693,4.91336 14.7197,10.27578 20.00072,17.68868 5.65495,6.65949 10.32123,13.97353 15.23749,21.16938 3.84366,5.34763 8.5573,9.87743 12.60713,15.06299 5.02811,6.31583 9.38301,13.20481 12.70276,20.57291 0,0 -63.35836,34.26291 -63.35836,34.26291 z"
         id="path2890"
         style="fill:#000000;stroke-width:0.1;stroke-miterlimit:4;stroke-dasharray:none" />
      <path
         d="m -1122.4575,754.27902 c -10.6729,-0.47743 -21.3651,-0.3189 -32.0469,-0.39432 -16.1946,0.0708 -32.3813,-0.72988 -48.5528,0.23419 -14.3784,1.07207 -28.8075,1.87943 -42.5475,6.51076 -1.6238,0.52162 -3.2373,1.07631 -4.8714,1.56485 -4.5402,1.3574 -4.7178,1.00521 -8.95,3.02688 -1.3872,0.66265 -5.3703,2.99569 -4.036,2.23213 62.1064,-35.53958 75.265,-43.38841 52.1172,-29.64489 -11.4634,7.1869 -22.0431,15.64073 -32.6932,23.95254 -31.7402,28.9581 -60.1685,42.33425 -100.3152,65.7214 -12.2783,5.23931 -25.6267,6.68714 -38.8277,7.41624 -10.5287,2.1355 -21.2781,2.88013 -31.9827,3.52955 -0.3983,-0.6885 -7.6501,1.18863 -7.684,1.14591 -19.5146,-24.57446 34.5733,-43.87247 61.4604,-45.24255 7.3724,-3.08415 15.1032,-5.27276 22.4562,-8.40594 8.145,-3.61461 16.228,-6.63569 25.0563,-8.09276 3.6128,-2.11029 8.4214,-1.55026 12.1203,-3.217 1.1889,-0.53569 1.9938,-1.69587 3.1008,-2.38501 1.2012,-0.74781 2.5285,-1.27096 3.7927,-1.90644 -19.1544,10.96259 -38.3089,21.92519 -57.4633,32.88778 21.6074,-12.47353 43.3679,-24.68568 64.8223,-37.4206 18.9182,-11.2295 -38.1088,21.99411 -57.2131,32.90394 -1.2005,0.68554 2.2986,-1.54032 3.4974,-2.2288 13.6854,-7.85978 47.6587,-30.34179 72.0708,-40.40323 7.9211,-3.43776 15.6284,-7.09815 23.4291,-10.81766 24.7146,-9.24325 7.1634,-2.9287 -53.4012,31.12251 -1.3349,0.75053 2.5679,-1.66961 3.863,-2.48702 4.0752,-2.57229 8.1787,-5.08824 12.3399,-7.5184 29.1516,-17.98571 53.2453,-39.26492 86.4206,-41.85175 8.1789,-0.43174 16.374,-0.3235 24.5608,-0.28323 8.0799,0.0481 16.16,0.0697 24.24,0.0821 8.0795,0.01 16.159,0.009 24.2385,0.009 8.3318,0.39624 15.7465,0.021 23.8889,-1.61459 6.4323,-0.29344 12.0896,-3.0514 18.2117,-4.65259 0,0 -56.6574,43.61503 -56.6574,43.61503 l 0,0 c -6.0739,1.87488 -12.2301,3.03299 -18.5349,3.87852 -8.1615,1.07013 -16.3838,0.60726 -24.5984,0.68709 -8.0822,-10e-4 -16.1644,-0.003 -24.2467,-0.0204 -8.0798,-0.0202 -16.1596,-0.0593 -24.2395,-0.082 -8.0155,0.008 -16.0638,-0.0429 -24.0305,0.96684 -26.8619,4.42362 -68.083,35.73146 37.0167,-26.29078 -27.7473,16.99613 -55.9163,33.75536 -84.6754,48.84247 -7.7468,3.89667 -15.939,6.76251 -23.642,10.76534 -36.5067,18.64048 76.2031,-44.77321 46.6022,-27.54526 -21.5128,12.52066 -43.1409,24.84602 -64.5217,37.59078 -18.8601,11.24223 37.9728,-22.05527 56.9592,-33.0829 -30.8618,17.89094 -52.3524,36.90721 -84.7067,43.55331 -8.3734,2.24414 -16.1868,5.89643 -24.2964,8.91416 -7.8256,2.71545 -15.4529,6.00575 -23.4422,8.23007 -24.2008,12.76722 29.5339,-15.5009 57.0937,-36.72525 8.6298,-6.64596 -9.9663,-4.67264 -0.5899,-4.84347 1.2609,-0.023 2.5207,-0.086 3.781,-0.12906 10.7007,-0.77342 21.2846,-2.31615 31.9355,-3.51207 12.5964,-1.03601 25.1661,-3.06843 36.2816,-9.5017 -106.5091,62.18913 -39.6788,25.82297 -19.0337,4.36549 10.4063,-8.25115 20.6121,-16.72606 31.5128,-24.31318 27.8007,-18.18759 55.4347,-38.15805 87.94,-45.93894 13.8878,-3.01511 28.0363,-3.56736 42.1997,-4.32086 16.5964,-0.63049 33.2041,-0.63877 49.811,-0.73247 11.0439,-0.0765 22.0963,0.0704 33.1323,-0.39431 0,0 -58.1522,42.25008 -58.1522,42.25008 z"
         id="path2892"
         style="fill:#000000;stroke-width:0.1;stroke-miterlimit:4;stroke-dasharray:none" />
      <path
         d="m -1272.3746,697.66047 c -11.0563,-0.62497 -21.9119,1.95006 -32.5824,4.45855 -10.571,2.82107 -20.4646,7.45511 -31.2302,9.52555 -11.4725,1.82312 -23.1482,1.93316 -34.7388,1.80816 -14.669,-0.21065 -29.3381,0.0348 -44.0071,0.0428 -11.141,0.0638 -22.2818,0.0503 -33.4228,0.11003 -4.5875,0.0272 -9.1751,0.0463 -13.7626,0.064 0,0 57.5947,-41.84413 57.5947,-41.84413 l 0,0 c 4.5277,0.0187 9.0555,0.0386 13.5831,0.0696 11.0105,0.0705 22.021,0.0746 33.0312,0.18767 14.5936,0.0663 29.1896,0.41736 43.7815,-0.0222 11.4802,-0.44554 23.083,-0.59519 34.2912,-3.4246 10.4563,-3.0443 20.6061,-7.10907 31.2767,-9.42686 11.2347,-2.40704 22.7266,-3.33767 34.2001,-3.69873 0,0 -58.0146,42.15007 -58.0146,42.15007 z"
         id="path2894"
         style="fill:#000000;stroke-width:0.1;stroke-miterlimit:4;stroke-dasharray:none" />
      <path
         d="m -993.91334,659.2387 c -14.15126,-5.95922 -27.57416,-13.36951 -41.77786,-19.19538 -11.1364,-5.6879 -23.2735,-8.87179 -34.7308,-13.77612 -11.6979,-4.49377 -24.3463,-4.95486 -36.7154,-5.58521 -18.0426,-0.8529 -36.1035,-0.45951 -54.1561,-0.43511 -12.7693,-0.89594 -25.4845,-2.36073 -38.2634,-3.13048 -14.3423,-2.03251 -27.6101,-8.23173 -40.6814,-14.16061 -13.6706,-7.12975 -27.7283,-13.46155 -41.5222,-20.31291 -6.0836,-3.23214 -12.469,-6.22399 -18.2198,-10.02995 0,0 60.1842,-38.74922 60.1842,-38.74922 l 0,0 c 5.6743,3.37396 11.2319,6.94828 17.0842,10.00752 13.3845,7.07445 26.8361,14.10178 40.5935,20.41874 12.8824,5.44035 26.0271,10.86115 40.1786,11.58084 12.3795,0.99508 24.6652,3.05836 37.0985,3.35578 18.1741,0.002 36.3523,0.2851 54.5224,0.61975 13.2135,0.68832 26.5802,1.72075 38.8849,7.02956 11.3467,4.60898 22.9062,8.76138 33.74864,14.51671 14.28865,6.40898 28.27323,13.66967 43.43499,17.87527 0,0 -59.66297,39.97082 -59.66297,39.97082 z"
         id="path2896"
         style="fill:#000000;stroke-width:0.1;stroke-miterlimit:4;stroke-dasharray:none" />
    </g>
    <path
       transform="matrix(-0.21547083,-0.14415872,0.14415872,-0.21547083,163.61411,525.13977)"
       style="fill:#ff0000;stroke:#000000;stroke-width:1px;stroke-linecap:butt;stroke-linejoin:miter;stroke-opacity:1;filter:url(#filter2852)"
       d="m -1422.2948,408.89501 43.4366,61.6193 16.1624,27.27412 22.2234,24.24366 36.3655,49.49748 26.2639,48.48732 5.0508,24.24366 4.0406,20.20305 -1.0101,27.27412 2.0203,7.07107 5.0507,-1.01015 0,-35.35534 15.1523,-39.39595 33.3351,-47.47717 47.4771,-38.3858 9.0914,-5.05076 17.1726,-32.32488 14.1421,-23.23351 4.0406,-35.35534 11.1117,13.13198 0,23.23351 -3.0304,20.20305 -19.1929,45.45687 0,70.71067 -11.1117,33.33504 -17.1726,35.35534 -16.1625,22.22335 -2.0203,6.06092 32.3249,-18.18275 49.4975,-12.12183 57.5787,-16.16244 57.57871,-39.39595 -62.62951,62.62946 -21.2132,17.17259 -51.5178,55.55839 -34.3451,21.21321 -56.5686,17.17259 44.4467,-1.01015 43.4366,8.08122 65.6599,19.1929 -48.4873,3.03045 -27.2741,5.05077 -50.5077,12.12183 -76.7716,-17.1726 -12.1218,-1.01015 -20.203,21.21321 -33.3351,34.34518 -23.2335,13.13198 -15.1523,10.10153 -24.2436,5.05076 -63.6396,40.4061 32.3248,-35.35533 25.2539,-42.42641 14.1421,-20.20305 19.1929,-12.12183 32.3249,-10.10153 0,-4.04061 -38.3858,6.06092 -34.3452,7.07106 -30.3046,1.01016 -102.0254,-28.28427 -104.0457,-11.11168 102.0254,-8.08122 61.6193,-23.23351 47.4772,-6.06092 13.132,1.01016 -33.3351,-19.1929 -49.4975,-40.4061 -48.4873,-59.599 -12.1218,-19.1929 -68.6904,-62.62946 57.5787,31.31473 35.3554,19.1929 26.2639,8.08122 64.6498,17.17259 33.335,14.14214 24.2437,15.15228 39.3959,50.50763 6.0609,-4.04061 -14.1421,-19.1929 -30.3046,-35.35534 -10.1015,-18.18274 -5.0508,-19.1929 -5.0507,-47.47717 5.0507,-71.72083 -8.0812,-39.39595 -17.1726,-56.56854 z"
       id="path2910" />
    <path
       id="path2912"
       d="m -1422.2948,408.89501 43.4366,61.6193 16.1624,27.27412 22.2234,24.24366 36.3655,49.49748 26.2639,48.48732 5.0508,24.24366 4.0406,20.20305 -1.0101,27.27412 2.0203,7.07107 5.0507,-1.01015 0,-35.35534 15.1523,-39.39595 33.3351,-47.47717 47.4771,-38.3858 9.0914,-5.05076 17.1726,-32.32488 14.1421,-23.23351 4.0406,-35.35534 11.1117,13.13198 0,23.23351 -3.0304,20.20305 -19.1929,45.45687 0,70.71067 -11.1117,33.33504 -17.1726,35.35534 -16.1625,22.22335 -2.0203,6.06092 32.3249,-18.18275 49.4975,-12.12183 57.5787,-16.16244 57.57871,-39.39595 -62.62951,62.62946 -21.2132,17.17259 -51.5178,55.55839 -34.3451,21.21321 -56.5686,17.17259 44.4467,-1.01015 43.4366,8.08122 65.6599,19.1929 -48.4873,3.03045 -27.2741,5.05077 -50.5077,12.12183 -76.7716,-17.1726 -12.1218,-1.01015 -20.203,21.21321 -33.3351,34.34518 -23.2335,13.13198 -15.1523,10.10153 -24.2436,5.05076 -63.6396,40.4061 32.3248,-35.35533 25.2539,-42.42641 14.1421,-20.20305 19.1929,-12.12183 32.3249,-10.10153 0,-4.04061 -38.3858,6.06092 -34.3452,7.07106 -30.3046,1.01016 -102.0254,-28.28427 -104.0457,-11.11168 102.0254,-8.08122 61.6193,-23.23351 47.4772,-6.06092 13.132,1.01016 -33.3351,-19.1929 -49.4975,-40.4061 -48.4873,-59.599 -12.1218,-19.1929 -68.6904,-62.62946 57.5787,31.31473 35.3554,19.1929 26.2639,8.08122 64.6498,17.17259 33.335,14.14214 24.2437,15.15228 39.3959,50.50763 6.0609,-4.04061 -14.1421,-19.1929 -30.3046,-35.35534 -10.1015,-18.18274 -5.0508,-19.1929 -5.0507,-47.47717 5.0507,-71.72083 -8.0812,-39.39595 -17.1726,-56.56854 z"
       style="fill:#ff0000;stroke:#000000;stroke-width:1px;stroke-linecap:butt;stroke-linejoin:miter;stroke-opacity:1;filter:url(#filter2852)"
       transform="matrix(-0.15651224,-0.20667205,0.20667205,-0.15651224,-802.4198,646.87732)"
       inkscape:transform-center-y="17.483111"
       inkscape:transform-center-x="9.1140587" />
    <path
       transform="matrix(-0.23054852,-0.11856137,0.11856137,-0.23054852,-59.177886,789.23841)"
       style="fill:#ff0000;stroke:#000000;stroke-width:1px;stroke-linecap:butt;stroke-linejoin:miter;stroke-opacity:1;filter:url(#filter2852)"
       d="m -1422.2948,408.89501 43.4366,61.6193 16.1624,27.27412 22.2234,24.24366 36.3655,49.49748 26.2639,48.48732 5.0508,24.24366 4.0406,20.20305 -1.0101,27.27412 2.0203,7.07107 5.0507,-1.01015 0,-35.35534 15.1523,-39.39595 33.3351,-47.47717 47.4771,-38.3858 9.0914,-5.05076 17.1726,-32.32488 14.1421,-23.23351 4.0406,-35.35534 11.1117,13.13198 0,23.23351 -3.0304,20.20305 -19.1929,45.45687 0,70.71067 -11.1117,33.33504 -17.1726,35.35534 -16.1625,22.22335 -2.0203,6.06092 32.3249,-18.18275 49.4975,-12.12183 57.5787,-16.16244 57.57871,-39.39595 -62.62951,62.62946 -21.2132,17.17259 -51.5178,55.55839 -34.3451,21.21321 -56.5686,17.17259 44.4467,-1.01015 43.4366,8.08122 65.6599,19.1929 -48.4873,3.03045 -27.2741,5.05077 -50.5077,12.12183 -76.7716,-17.1726 -12.1218,-1.01015 -20.203,21.21321 -33.3351,34.34518 -23.2335,13.13198 -15.1523,10.10153 -24.2436,5.05076 -63.6396,40.4061 32.3248,-35.35533 25.2539,-42.42641 14.1421,-20.20305 19.1929,-12.12183 32.3249,-10.10153 0,-4.04061 -38.3858,6.06092 -34.3452,7.07106 -30.3046,1.01016 -102.0254,-28.28427 -104.0457,-11.11168 102.0254,-8.08122 61.6193,-23.23351 47.4772,-6.06092 13.132,1.01016 -33.3351,-19.1929 -49.4975,-40.4061 -48.4873,-59.599 -12.1218,-19.1929 -68.6904,-62.62946 57.5787,31.31473 35.3554,19.1929 26.2639,8.08122 64.6498,17.17259 33.335,14.14214 24.2437,15.15228 39.3959,50.50763 6.0609,-4.04061 -14.1421,-19.1929 -30.3046,-35.35534 -10.1015,-18.18274 -5.0508,-19.1929 -5.0507,-47.47717 5.0507,-71.72083 -8.0812,-39.39595 -17.1726,-56.56854 z"
       id="path2914" />
    <path
       id="path2916"
       d="m -1422.2948,408.89501 43.4366,61.6193 16.1624,27.27412 22.2234,24.24366 36.3655,49.49748 26.2639,48.48732 5.0508,24.24366 4.0406,20.20305 -1.0101,27.27412 2.0203,7.07107 5.0507,-1.01015 0,-35.35534 15.1523,-39.39595 33.3351,-47.47717 47.4771,-38.3858 9.0914,-5.05076 17.1726,-32.32488 14.1421,-23.23351 4.0406,-35.35534 11.1117,13.13198 0,23.23351 -3.0304,20.20305 -19.1929,45.45687 0,70.71067 -11.1117,33.33504 -17.1726,35.35534 -16.1625,22.22335 -2.0203,6.06092 32.3249,-18.18275 49.4975,-12.12183 57.5787,-16.16244 57.57871,-39.39595 -62.62951,62.62946 -21.2132,17.17259 -51.5178,55.55839 -34.3451,21.21321 -56.5686,17.17259 44.4467,-1.01015 43.4366,8.08122 65.6599,19.1929 -48.4873,3.03045 -27.2741,5.05077 -50.5077,12.12183 -76.7716,-17.1726 -12.1218,-1.01015 -20.203,21.21321 -33.3351,34.34518 -23.2335,13.13198 -15.1523,10.10153 -24.2436,5.05076 -63.6396,40.4061 32.3248,-35.35533 25.2539,-42.42641 14.1421,-20.20305 19.1929,-12.12183 32.3249,-10.10153 0,-4.04061 -38.3858,6.06092 -34.3452,7.07106 -30.3046,1.01016 -102.0254,-28.28427 -104.0457,-11.11168 102.0254,-8.08122 61.6193,-23.23351 47.4772,-6.06092 13.132,1.01016 -33.3351,-19.1929 -49.4975,-40.4061 -48.4873,-59.599 -12.1218,-19.1929 -68.6904,-62.62946 57.5787,31.31473 35.3554,19.1929 26.2639,8.08122 64.6498,17.17259 33.335,14.14214 24.2437,15.15228 39.3959,50.50763 6.0609,-4.04061 -14.1421,-19.1929 -30.3046,-35.35534 -10.1015,-18.18274 -5.0508,-19.1929 -5.0507,-47.47717 5.0507,-71.72083 -8.0812,-39.39595 -17.1726,-56.56854 z"
       style="fill:#ff0000;stroke:#000000;stroke-width:1px;stroke-linecap:butt;stroke-linejoin:miter;stroke-opacity:1;filter:url(#filter2852)"
       transform="matrix(-0.13218227,-0.22301853,0.22301853,-0.13218227,-147.48313,435.94014)" />
    <path
       transform="matrix(-0.17614849,-0.19021337,0.19021337,-0.17614849,-103.75534,563.3121)"
       style="fill:#ff0000;stroke:#000000;stroke-width:1px;stroke-linecap:butt;stroke-linejoin:miter;stroke-opacity:1;filter:url(#filter2852)"
       d="m -1422.2948,408.89501 43.4366,61.6193 16.1624,27.27412 22.2234,24.24366 36.3655,49.49748 26.2639,48.48732 5.0508,24.24366 4.0406,20.20305 -1.0101,27.27412 2.0203,7.07107 5.0507,-1.01015 0,-35.35534 15.1523,-39.39595 33.3351,-47.47717 47.4771,-38.3858 9.0914,-5.05076 17.1726,-32.32488 14.1421,-23.23351 4.0406,-35.35534 11.1117,13.13198 0,23.23351 -3.0304,20.20305 -19.1929,45.45687 0,70.71067 -11.1117,33.33504 -17.1726,35.35534 -16.1625,22.22335 -2.0203,6.06092 32.3249,-18.18275 49.4975,-12.12183 57.5787,-16.16244 57.57871,-39.39595 -62.62951,62.62946 -21.2132,17.17259 -51.5178,55.55839 -34.3451,21.21321 -56.5686,17.17259 44.4467,-1.01015 43.4366,8.08122 65.6599,19.1929 -48.4873,3.03045 -27.2741,5.05077 -50.5077,12.12183 -76.7716,-17.1726 -12.1218,-1.01015 -20.203,21.21321 -33.3351,34.34518 -23.2335,13.13198 -15.1523,10.10153 -24.2436,5.05076 -63.6396,40.4061 32.3248,-35.35533 25.2539,-42.42641 14.1421,-20.20305 19.1929,-12.12183 32.3249,-10.10153 0,-4.04061 -38.3858,6.06092 -34.3452,7.07106 -30.3046,1.01016 -102.0254,-28.28427 -104.0457,-11.11168 102.0254,-8.08122 61.6193,-23.23351 47.4772,-6.06092 13.132,1.01016 -33.3351,-19.1929 -49.4975,-40.4061 -48.4873,-59.599 -12.1218,-19.1929 -68.6904,-62.62946 57.5787,31.31473 35.3554,19.1929 26.2639,8.08122 64.6498,17.17259 33.335,14.14214 24.2437,15.15228 39.3959,50.50763 6.0609,-4.04061 -14.1421,-19.1929 -30.3046,-35.35534 -10.1015,-18.18274 -5.0508,-19.1929 -5.0507,-47.47717 5.0507,-71.72083 -8.0812,-39.39595 -17.1726,-56.56854 z"
       id="path2918" />
    <path
       id="path2920"
       d="m -1422.2948,408.89501 43.4366,61.6193 16.1624,27.27412 22.2234,24.24366 36.3655,49.49748 26.2639,48.48732 5.0508,24.24366 4.0406,20.20305 -1.0101,27.27412 2.0203,7.07107 5.0507,-1.01015 0,-35.35534 15.1523,-39.39595 33.3351,-47.47717 47.4771,-38.3858 9.0914,-5.05076 17.1726,-32.32488 14.1421,-23.23351 4.0406,-35.35534 11.1117,13.13198 0,23.23351 -3.0304,20.20305 -19.1929,45.45687 0,70.71067 -11.1117,33.33504 -17.1726,35.35534 -16.1625,22.22335 -2.0203,6.06092 32.3249,-18.18275 49.4975,-12.12183 57.5787,-16.16244 57.57871,-39.39595 -62.62951,62.62946 -21.2132,17.17259 -51.5178,55.55839 -34.3451,21.21321 -56.5686,17.17259 44.4467,-1.01015 43.4366,8.08122 65.6599,19.1929 -48.4873,3.03045 -27.2741,5.05077 -50.5077,12.12183 -76.7716,-17.1726 -12.1218,-1.01015 -20.203,21.21321 -33.3351,34.34518 -23.2335,13.13198 -15.1523,10.10153 -24.2436,5.05076 -63.6396,40.4061 32.3248,-35.35533 25.2539,-42.42641 14.1421,-20.20305 19.1929,-12.12183 32.3249,-10.10153 0,-4.04061 -38.3858,6.06092 -34.3452,7.07106 -30.3046,1.01016 -102.0254,-28.28427 -104.0457,-11.11168 102.0254,-8.08122 61.6193,-23.23351 47.4772,-6.06092 13.132,1.01016 -33.3351,-19.1929 -49.4975,-40.4061 -48.4873,-59.599 -12.1218,-19.1929 -68.6904,-62.62946 57.5787,31.31473 35.3554,19.1929 26.2639,8.08122 64.6498,17.17259 33.335,14.14214 24.2437,15.15228 39.3959,50.50763 6.0609,-4.04061 -14.1421,-19.1929 -30.3046,-35.35534 -10.1015,-18.18274 -5.0508,-19.1929 -5.0507,-47.47717 5.0507,-71.72083 -8.0812,-39.39595 -17.1726,-56.56854 z"
       style="fill:#ff0000;stroke:#000000;stroke-width:1px;stroke-linecap:butt;stroke-linejoin:miter;stroke-opacity:1;filter:url(#filter2852)"
       transform="matrix(-0.12904632,-0.22484765,0.22484765,-0.12904632,-75.959944,238.95808)" />
    <path
       transform="matrix(-0.18552378,-0.18108104,0.18108104,-0.18552378,-448.79866,485.75581)"
       style="fill:#ff0000;stroke:#000000;stroke-width:1px;stroke-linecap:butt;stroke-linejoin:miter;stroke-opacity:1;filter:url(#filter2852)"
       d="m -1422.2948,408.89501 43.4366,61.6193 16.1624,27.27412 22.2234,24.24366 36.3655,49.49748 26.2639,48.48732 5.0508,24.24366 4.0406,20.20305 -1.0101,27.27412 2.0203,7.07107 5.0507,-1.01015 0,-35.35534 15.1523,-39.39595 33.3351,-47.47717 47.4771,-38.3858 9.0914,-5.05076 17.1726,-32.32488 14.1421,-23.23351 4.0406,-35.35534 11.1117,13.13198 0,23.23351 -3.0304,20.20305 -19.1929,45.45687 0,70.71067 -11.1117,33.33504 -17.1726,35.35534 -16.1625,22.22335 -2.0203,6.06092 32.3249,-18.18275 49.4975,-12.12183 57.5787,-16.16244 57.57871,-39.39595 -62.62951,62.62946 -21.2132,17.17259 -51.5178,55.55839 -34.3451,21.21321 -56.5686,17.17259 44.4467,-1.01015 43.4366,8.08122 65.6599,19.1929 -48.4873,3.03045 -27.2741,5.05077 -50.5077,12.12183 -76.7716,-17.1726 -12.1218,-1.01015 -20.203,21.21321 -33.3351,34.34518 -23.2335,13.13198 -15.1523,10.10153 -24.2436,5.05076 -63.6396,40.4061 32.3248,-35.35533 25.2539,-42.42641 14.1421,-20.20305 19.1929,-12.12183 32.3249,-10.10153 0,-4.04061 -38.3858,6.06092 -34.3452,7.07106 -30.3046,1.01016 -102.0254,-28.28427 -104.0457,-11.11168 102.0254,-8.08122 61.6193,-23.23351 47.4772,-6.06092 13.132,1.01016 -33.3351,-19.1929 -49.4975,-40.4061 -48.4873,-59.599 -12.1218,-19.1929 -68.6904,-62.62946 57.5787,31.31473 35.3554,19.1929 26.2639,8.08122 64.6498,17.17259 33.335,14.14214 24.2437,15.15228 39.3959,50.50763 6.0609,-4.04061 -14.1421,-19.1929 -30.3046,-35.35534 -10.1015,-18.18274 -5.0508,-19.1929 -5.0507,-47.47717 5.0507,-71.72083 -8.0812,-39.39595 -17.1726,-56.56854 z"
       id="path2922" />
    <path
       id="path2924"
       d="m -1422.2948,408.89501 43.4366,61.6193 16.1624,27.27412 22.2234,24.24366 36.3655,49.49748 26.2639,48.48732 5.0508,24.24366 4.0406,20.20305 -1.0101,27.27412 2.0203,7.07107 5.0507,-1.01015 0,-35.35534 15.1523,-39.39595 33.3351,-47.47717 47.4771,-38.3858 9.0914,-5.05076 17.1726,-32.32488 14.1421,-23.23351 4.0406,-35.35534 11.1117,13.13198 0,23.23351 -3.0304,20.20305 -19.1929,45.45687 0,70.71067 -11.1117,33.33504 -17.1726,35.35534 -16.1625,22.22335 -2.0203,6.06092 32.3249,-18.18275 49.4975,-12.12183 57.5787,-16.16244 57.57871,-39.39595 -62.62951,62.62946 -21.2132,17.17259 -51.5178,55.55839 -34.3451,21.21321 -56.5686,17.17259 44.4467,-1.01015 43.4366,8.08122 65.6599,19.1929 -48.4873,3.03045 -27.2741,5.05077 -50.5077,12.12183 -76.7716,-17.1726 -12.1218,-1.01015 -20.203,21.21321 -33.3351,34.34518 -23.2335,13.13198 -15.1523,10.10153 -24.2436,5.05076 -63.6396,40.4061 32.3248,-35.35533 25.2539,-42.42641 14.1421,-20.20305 19.1929,-12.12183 32.3249,-10.10153 0,-4.04061 -38.3858,6.06092 -34.3452,7.07106 -30.3046,1.01016 -102.0254,-28.28427 -104.0457,-11.11168 102.0254,-8.08122 61.6193,-23.23351 47.4772,-6.06092 13.132,1.01016 -33.3351,-19.1929 -49.4975,-40.4061 -48.4873,-59.599 -12.1218,-19.1929 -68.6904,-62.62946 57.5787,31.31473 35.3554,19.1929 26.2639,8.08122 64.6498,17.17259 33.335,14.14214 24.2437,15.15228 39.3959,50.50763 6.0609,-4.04061 -14.1421,-19.1929 -30.3046,-35.35534 -10.1015,-18.18274 -5.0508,-19.1929 -5.0507,-47.47717 5.0507,-71.72083 -8.0812,-39.39595 -17.1726,-56.56854 z"
       style="fill:#ff0000;stroke:#000000;stroke-width:1px;stroke-linecap:butt;stroke-linejoin:miter;stroke-opacity:1;filter:url(#filter2852)"
       transform="matrix(-0.21956159,-0.1378482,0.1378482,-0.21956159,-40.4271,464.83411)" />
    <path
       transform="matrix(-0.13218227,-0.22301853,0.22301853,-0.13218227,232.90061,218.79728)"
       style="fill:#ff0000;stroke:#000000;stroke-width:1px;stroke-linecap:butt;stroke-linejoin:miter;stroke-opacity:1;filter:url(#filter2852)"
       d="m -1422.2948,408.89501 43.4366,61.6193 16.1624,27.27412 22.2234,24.24366 36.3655,49.49748 26.2639,48.48732 5.0508,24.24366 4.0406,20.20305 -1.0101,27.27412 2.0203,7.07107 5.0507,-1.01015 0,-35.35534 15.1523,-39.39595 33.3351,-47.47717 47.4771,-38.3858 9.0914,-5.05076 17.1726,-32.32488 14.1421,-23.23351 4.0406,-35.35534 11.1117,13.13198 0,23.23351 -3.0304,20.20305 -19.1929,45.45687 0,70.71067 -11.1117,33.33504 -17.1726,35.35534 -16.1625,22.22335 -2.0203,6.06092 32.3249,-18.18275 49.4975,-12.12183 57.5787,-16.16244 57.57871,-39.39595 -62.62951,62.62946 -21.2132,17.17259 -51.5178,55.55839 -34.3451,21.21321 -56.5686,17.17259 44.4467,-1.01015 43.4366,8.08122 65.6599,19.1929 -48.4873,3.03045 -27.2741,5.05077 -50.5077,12.12183 -76.7716,-17.1726 -12.1218,-1.01015 -20.203,21.21321 -33.3351,34.34518 -23.2335,13.13198 -15.1523,10.10153 -24.2436,5.05076 -63.6396,40.4061 32.3248,-35.35533 25.2539,-42.42641 14.1421,-20.20305 19.1929,-12.12183 32.3249,-10.10153 0,-4.04061 -38.3858,6.06092 -34.3452,7.07106 -30.3046,1.01016 -102.0254,-28.28427 -104.0457,-11.11168 102.0254,-8.08122 61.6193,-23.23351 47.4772,-6.06092 13.132,1.01016 -33.3351,-19.1929 -49.4975,-40.4061 -48.4873,-59.599 -12.1218,-19.1929 -68.6904,-62.62946 57.5787,31.31473 35.3554,19.1929 26.2639,8.08122 64.6498,17.17259 33.335,14.14214 24.2437,15.15228 39.3959,50.50763 6.0609,-4.04061 -14.1421,-19.1929 -30.3046,-35.35534 -10.1015,-18.18274 -5.0508,-19.1929 -5.0507,-47.47717 5.0507,-71.72083 -8.0812,-39.39595 -17.1726,-56.56854 z"
       id="path2926" />
    <path
       id="path2928"
       d="m -1422.2948,408.89501 43.4366,61.6193 16.1624,27.27412 22.2234,24.24366 36.3655,49.49748 26.2639,48.48732 5.0508,24.24366 4.0406,20.20305 -1.0101,27.27412 2.0203,7.07107 5.0507,-1.01015 0,-35.35534 15.1523,-39.39595 33.3351,-47.47717 47.4771,-38.3858 9.0914,-5.05076 17.1726,-32.32488 14.1421,-23.23351 4.0406,-35.35534 11.1117,13.13198 0,23.23351 -3.0304,20.20305 -19.1929,45.45687 0,70.71067 -11.1117,33.33504 -17.1726,35.35534 -16.1625,22.22335 -2.0203,6.06092 32.3249,-18.18275 49.4975,-12.12183 57.5787,-16.16244 57.57871,-39.39595 -62.62951,62.62946 -21.2132,17.17259 -51.5178,55.55839 -34.3451,21.21321 -56.5686,17.17259 44.4467,-1.01015 43.4366,8.08122 65.6599,19.1929 -48.4873,3.03045 -27.2741,5.05077 -50.5077,12.12183 -76.7716,-17.1726 -12.1218,-1.01015 -20.203,21.21321 -33.3351,34.34518 -23.2335,13.13198 -15.1523,10.10153 -24.2436,5.05076 -63.6396,40.4061 32.3248,-35.35533 25.2539,-42.42641 14.1421,-20.20305 19.1929,-12.12183 32.3249,-10.10153 0,-4.04061 -38.3858,6.06092 -34.3452,7.07106 -30.3046,1.01016 -102.0254,-28.28427 -104.0457,-11.11168 102.0254,-8.08122 61.6193,-23.23351 47.4772,-6.06092 13.132,1.01016 -33.3351,-19.1929 -49.4975,-40.4061 -48.4873,-59.599 -12.1218,-19.1929 -68.6904,-62.62946 57.5787,31.31473 35.3554,19.1929 26.2639,8.08122 64.6498,17.17259 33.335,14.14214 24.2437,15.15228 39.3959,50.50763 6.0609,-4.04061 -14.1421,-19.1929 -30.3046,-35.35534 -10.1015,-18.18274 -5.0508,-19.1929 -5.0507,-47.47717 5.0507,-71.72083 -8.0812,-39.39595 -17.1726,-56.56854 z"
       style="fill:#ff0000;stroke:#000000;stroke-width:1px;stroke-linecap:butt;stroke-linejoin:miter;stroke-opacity:1;filter:url(#filter2852)"
       transform="matrix(-0.13218227,-0.22301853,0.22301853,-0.13218227,-1021.7689,-144.05986)" />
    <path
       transform="matrix(-0.23063154,-0.11839978,0.11839978,-0.23063154,46.534907,378.08011)"
       style="fill:#ff0000;stroke:#000000;stroke-width:1px;stroke-linecap:butt;stroke-linejoin:miter;stroke-opacity:1;filter:url(#filter2852)"
       d="m -1422.2948,408.89501 43.4366,61.6193 16.1624,27.27412 22.2234,24.24366 36.3655,49.49748 26.2639,48.48732 5.0508,24.24366 4.0406,20.20305 -1.0101,27.27412 2.0203,7.07107 5.0507,-1.01015 0,-35.35534 15.1523,-39.39595 33.3351,-47.47717 47.4771,-38.3858 9.0914,-5.05076 17.1726,-32.32488 14.1421,-23.23351 4.0406,-35.35534 11.1117,13.13198 0,23.23351 -3.0304,20.20305 -19.1929,45.45687 0,70.71067 -11.1117,33.33504 -17.1726,35.35534 -16.1625,22.22335 -2.0203,6.06092 32.3249,-18.18275 49.4975,-12.12183 57.5787,-16.16244 57.57871,-39.39595 -62.62951,62.62946 -21.2132,17.17259 -51.5178,55.55839 -34.3451,21.21321 -56.5686,17.17259 44.4467,-1.01015 43.4366,8.08122 65.6599,19.1929 -48.4873,3.03045 -27.2741,5.05077 -50.5077,12.12183 -76.7716,-17.1726 -12.1218,-1.01015 -20.203,21.21321 -33.3351,34.34518 -23.2335,13.13198 -15.1523,10.10153 -24.2436,5.05076 -63.6396,40.4061 32.3248,-35.35533 25.2539,-42.42641 14.1421,-20.20305 19.1929,-12.12183 32.3249,-10.10153 0,-4.04061 -38.3858,6.06092 -34.3452,7.07106 -30.3046,1.01016 -102.0254,-28.28427 -104.0457,-11.11168 102.0254,-8.08122 61.6193,-23.23351 47.4772,-6.06092 13.132,1.01016 -33.3351,-19.1929 -49.4975,-40.4061 -48.4873,-59.599 -12.1218,-19.1929 -68.6904,-62.62946 57.5787,31.31473 35.3554,19.1929 26.2639,8.08122 64.6498,17.17259 33.335,14.14214 24.2437,15.15228 39.3959,50.50763 6.0609,-4.04061 -14.1421,-19.1929 -30.3046,-35.35534 -10.1015,-18.18274 -5.0508,-19.1929 -5.0507,-47.47717 5.0507,-71.72083 -8.0812,-39.39595 -17.1726,-56.56854 z"
       id="path2930" />
    <path
       id="path2932"
       d="m -1422.2948,408.89501 43.4366,61.6193 16.1624,27.27412 22.2234,24.24366 36.3655,49.49748 26.2639,48.48732 5.0508,24.24366 4.0406,20.20305 -1.0101,27.27412 2.0203,7.07107 5.0507,-1.01015 0,-35.35534 15.1523,-39.39595 33.3351,-47.47717 47.4771,-38.3858 9.0914,-5.05076 17.1726,-32.32488 14.1421,-23.23351 4.0406,-35.35534 11.1117,13.13198 0,23.23351 -3.0304,20.20305 -19.1929,45.45687 0,70.71067 -11.1117,33.33504 -17.1726,35.35534 -16.1625,22.22335 -2.0203,6.06092 32.3249,-18.18275 49.4975,-12.12183 57.5787,-16.16244 57.57871,-39.39595 -62.62951,62.62946 -21.2132,17.17259 -51.5178,55.55839 -34.3451,21.21321 -56.5686,17.17259 44.4467,-1.01015 43.4366,8.08122 65.6599,19.1929 -48.4873,3.03045 -27.2741,5.05077 -50.5077,12.12183 -76.7716,-17.1726 -12.1218,-1.01015 -20.203,21.21321 -33.3351,34.34518 -23.2335,13.13198 -15.1523,10.10153 -24.2436,5.05076 -63.6396,40.4061 32.3248,-35.35533 25.2539,-42.42641 14.1421,-20.20305 19.1929,-12.12183 32.3249,-10.10153 0,-4.04061 -38.3858,6.06092 -34.3452,7.07106 -30.3046,1.01016 -102.0254,-28.28427 -104.0457,-11.11168 102.0254,-8.08122 61.6193,-23.23351 47.4772,-6.06092 13.132,1.01016 -33.3351,-19.1929 -49.4975,-40.4061 -48.4873,-59.599 -12.1218,-19.1929 -68.6904,-62.62946 57.5787,31.31473 35.3554,19.1929 26.2639,8.08122 64.6498,17.17259 33.335,14.14214 24.2437,15.15228 39.3959,50.50763 6.0609,-4.04061 -14.1421,-19.1929 -30.3046,-35.35534 -10.1015,-18.18274 -5.0508,-19.1929 -5.0507,-47.47717 5.0507,-71.72083 -8.0812,-39.39595 -17.1726,-56.56854 z"
       style="fill:#ff0000;stroke:#000000;stroke-width:1px;stroke-linecap:butt;stroke-linejoin:miter;stroke-opacity:1;filter:url(#filter2852)"
       transform="matrix(-0.21116036,-0.15040186,0.15040186,-0.21116036,-220.5794,445.3871)" />
    <path
       transform="matrix(-0.22126025,-0.13510484,0.13510484,-0.22126025,176.45929,292.4731)"
       style="fill:#ff0000;stroke:#000000;stroke-width:1px;stroke-linecap:butt;stroke-linejoin:miter;stroke-opacity:1;filter:url(#filter2852)"
       d="m -1422.2948,408.89501 43.4366,61.6193 16.1624,27.27412 22.2234,24.24366 36.3655,49.49748 26.2639,48.48732 5.0508,24.24366 4.0406,20.20305 -1.0101,27.27412 2.0203,7.07107 5.0507,-1.01015 0,-35.35534 15.1523,-39.39595 33.3351,-47.47717 47.4771,-38.3858 9.0914,-5.05076 17.1726,-32.32488 14.1421,-23.23351 4.0406,-35.35534 11.1117,13.13198 0,23.23351 -3.0304,20.20305 -19.1929,45.45687 0,70.71067 -11.1117,33.33504 -17.1726,35.35534 -16.1625,22.22335 -2.0203,6.06092 32.3249,-18.18275 49.4975,-12.12183 57.5787,-16.16244 57.57871,-39.39595 -62.62951,62.62946 -21.2132,17.17259 -51.5178,55.55839 -34.3451,21.21321 -56.5686,17.17259 44.4467,-1.01015 43.4366,8.08122 65.6599,19.1929 -48.4873,3.03045 -27.2741,5.05077 -50.5077,12.12183 -76.7716,-17.1726 -12.1218,-1.01015 -20.203,21.21321 -33.3351,34.34518 -23.2335,13.13198 -15.1523,10.10153 -24.2436,5.05076 -63.6396,40.4061 32.3248,-35.35533 25.2539,-42.42641 14.1421,-20.20305 19.1929,-12.12183 32.3249,-10.10153 0,-4.04061 -38.3858,6.06092 -34.3452,7.07106 -30.3046,1.01016 -102.0254,-28.28427 -104.0457,-11.11168 102.0254,-8.08122 61.6193,-23.23351 47.4772,-6.06092 13.132,1.01016 -33.3351,-19.1929 -49.4975,-40.4061 -48.4873,-59.599 -12.1218,-19.1929 -68.6904,-62.62946 57.5787,31.31473 35.3554,19.1929 26.2639,8.08122 64.6498,17.17259 33.335,14.14214 24.2437,15.15228 39.3959,50.50763 6.0609,-4.04061 -14.1421,-19.1929 -30.3046,-35.35534 -10.1015,-18.18274 -5.0508,-19.1929 -5.0507,-47.47717 5.0507,-71.72083 -8.0812,-39.39595 -17.1726,-56.56854 z"
       id="path2934" />
    <path
       id="path2936"
       d="m -1422.2948,408.89501 43.4366,61.6193 16.1624,27.27412 22.2234,24.24366 36.3655,49.49748 26.2639,48.48732 5.0508,24.24366 4.0406,20.20305 -1.0101,27.27412 2.0203,7.07107 5.0507,-1.01015 0,-35.35534 15.1523,-39.39595 33.3351,-47.47717 47.4771,-38.3858 9.0914,-5.05076 17.1726,-32.32488 14.1421,-23.23351 4.0406,-35.35534 11.1117,13.13198 0,23.23351 -3.0304,20.20305 -19.1929,45.45687 0,70.71067 -11.1117,33.33504 -17.1726,35.35534 -16.1625,22.22335 -2.0203,6.06092 32.3249,-18.18275 49.4975,-12.12183 57.5787,-16.16244 57.57871,-39.39595 -62.62951,62.62946 -21.2132,17.17259 -51.5178,55.55839 -34.3451,21.21321 -56.5686,17.17259 44.4467,-1.01015 43.4366,8.08122 65.6599,19.1929 -48.4873,3.03045 -27.2741,5.05077 -50.5077,12.12183 -76.7716,-17.1726 -12.1218,-1.01015 -20.203,21.21321 -33.3351,34.34518 -23.2335,13.13198 -15.1523,10.10153 -24.2436,5.05076 -63.6396,40.4061 32.3248,-35.35533 25.2539,-42.42641 14.1421,-20.20305 19.1929,-12.12183 32.3249,-10.10153 0,-4.04061 -38.3858,6.06092 -34.3452,7.07106 -30.3046,1.01016 -102.0254,-28.28427 -104.0457,-11.11168 102.0254,-8.08122 61.6193,-23.23351 47.4772,-6.06092 13.132,1.01016 -33.3351,-19.1929 -49.4975,-40.4061 -48.4873,-59.599 -12.1218,-19.1929 -68.6904,-62.62946 57.5787,31.31473 35.3554,19.1929 26.2639,8.08122 64.6498,17.17259 33.335,14.14214 24.2437,15.15228 39.3959,50.50763 6.0609,-4.04061 -14.1421,-19.1929 -30.3046,-35.35534 -10.1015,-18.18274 -5.0508,-19.1929 -5.0507,-47.47717 5.0507,-71.72083 -8.0812,-39.39595 -17.1726,-56.56854 z"
       style="fill:#ff0000;stroke:#000000;stroke-width:1px;stroke-linecap:butt;stroke-linejoin:miter;stroke-opacity:1;filter:url(#filter2852)"
       transform="matrix(-0.13218227,-0.22301853,0.22301853,-0.13218227,-913.19745,55.940133)" />
    <path
       transform="matrix(-0.21185173,-0.14942644,0.14942644,-0.21185173,110.58776,478.57466)"
       style="fill:#ff0000;stroke:#000000;stroke-width:1px;stroke-linecap:butt;stroke-linejoin:miter;stroke-opacity:1;filter:url(#filter2852)"
       d="m -1422.2948,408.89501 43.4366,61.6193 16.1624,27.27412 22.2234,24.24366 36.3655,49.49748 26.2639,48.48732 5.0508,24.24366 4.0406,20.20305 -1.0101,27.27412 2.0203,7.07107 5.0507,-1.01015 0,-35.35534 15.1523,-39.39595 33.3351,-47.47717 47.4771,-38.3858 9.0914,-5.05076 17.1726,-32.32488 14.1421,-23.23351 4.0406,-35.35534 11.1117,13.13198 0,23.23351 -3.0304,20.20305 -19.1929,45.45687 0,70.71067 -11.1117,33.33504 -17.1726,35.35534 -16.1625,22.22335 -2.0203,6.06092 32.3249,-18.18275 49.4975,-12.12183 57.5787,-16.16244 57.57871,-39.39595 -62.62951,62.62946 -21.2132,17.17259 -51.5178,55.55839 -34.3451,21.21321 -56.5686,17.17259 44.4467,-1.01015 43.4366,8.08122 65.6599,19.1929 -48.4873,3.03045 -27.2741,5.05077 -50.5077,12.12183 -76.7716,-17.1726 -12.1218,-1.01015 -20.203,21.21321 -33.3351,34.34518 -23.2335,13.13198 -15.1523,10.10153 -24.2436,5.05076 -63.6396,40.4061 32.3248,-35.35533 25.2539,-42.42641 14.1421,-20.20305 19.1929,-12.12183 32.3249,-10.10153 0,-4.04061 -38.3858,6.06092 -34.3452,7.07106 -30.3046,1.01016 -102.0254,-28.28427 -104.0457,-11.11168 102.0254,-8.08122 61.6193,-23.23351 47.4772,-6.06092 13.132,1.01016 -33.3351,-19.1929 -49.4975,-40.4061 -48.4873,-59.599 -12.1218,-19.1929 -68.6904,-62.62946 57.5787,31.31473 35.3554,19.1929 26.2639,8.08122 64.6498,17.17259 33.335,14.14214 24.2437,15.15228 39.3959,50.50763 6.0609,-4.04061 -14.1421,-19.1929 -30.3046,-35.35534 -10.1015,-18.18274 -5.0508,-19.1929 -5.0507,-47.47717 5.0507,-71.72083 -8.0812,-39.39595 -17.1726,-56.56854 z"
       id="path2938" />
    <path
       id="path2940"
       d="m -1422.2948,408.89501 43.4366,61.6193 16.1624,27.27412 22.2234,24.24366 36.3655,49.49748 26.2639,48.48732 5.0508,24.24366 4.0406,20.20305 -1.0101,27.27412 2.0203,7.07107 5.0507,-1.01015 0,-35.35534 15.1523,-39.39595 33.3351,-47.47717 47.4771,-38.3858 9.0914,-5.05076 17.1726,-32.32488 14.1421,-23.23351 4.0406,-35.35534 11.1117,13.13198 0,23.23351 -3.0304,20.20305 -19.1929,45.45687 0,70.71067 -11.1117,33.33504 -17.1726,35.35534 -16.1625,22.22335 -2.0203,6.06092 32.3249,-18.18275 49.4975,-12.12183 57.5787,-16.16244 57.57871,-39.39595 -62.62951,62.62946 -21.2132,17.17259 -51.5178,55.55839 -34.3451,21.21321 -56.5686,17.17259 44.4467,-1.01015 43.4366,8.08122 65.6599,19.1929 -48.4873,3.03045 -27.2741,5.05077 -50.5077,12.12183 -76.7716,-17.1726 -12.1218,-1.01015 -20.203,21.21321 -33.3351,34.34518 -23.2335,13.13198 -15.1523,10.10153 -24.2436,5.05076 -63.6396,40.4061 32.3248,-35.35533 25.2539,-42.42641 14.1421,-20.20305 19.1929,-12.12183 32.3249,-10.10153 0,-4.04061 -38.3858,6.06092 -34.3452,7.07106 -30.3046,1.01016 -102.0254,-28.28427 -104.0457,-11.11168 102.0254,-8.08122 61.6193,-23.23351 47.4772,-6.06092 13.132,1.01016 -33.3351,-19.1929 -49.4975,-40.4061 -48.4873,-59.599 -12.1218,-19.1929 -68.6904,-62.62946 57.5787,31.31473 35.3554,19.1929 26.2639,8.08122 64.6498,17.17259 33.335,14.14214 24.2437,15.15228 39.3959,50.50763 6.0609,-4.04061 -14.1421,-19.1929 -30.3046,-35.35534 -10.1015,-18.18274 -5.0508,-19.1929 -5.0507,-47.47717 5.0507,-71.72083 -8.0812,-39.39595 -17.1726,-56.56854 z"
       style="fill:#ff0000;stroke:#000000;stroke-width:1px;stroke-linecap:butt;stroke-linejoin:miter;stroke-opacity:1;filter:url(#filter2852)"
       transform="matrix(-0.13218227,-0.22301853,0.22301853,-0.13218227,175.37395,467.36871)" />
    <path
       transform="matrix(-0.23734142,-0.10429988,0.10429988,-0.23734142,27.113657,575.58411)"
       style="fill:#ff0000;stroke:#000000;stroke-width:1px;stroke-linecap:butt;stroke-linejoin:miter;stroke-opacity:1;filter:url(#filter2852)"
       d="m -1422.2948,408.89501 43.4366,61.6193 16.1624,27.27412 22.2234,24.24366 36.3655,49.49748 26.2639,48.48732 5.0508,24.24366 4.0406,20.20305 -1.0101,27.27412 2.0203,7.07107 5.0507,-1.01015 0,-35.35534 15.1523,-39.39595 33.3351,-47.47717 47.4771,-38.3858 9.0914,-5.05076 17.1726,-32.32488 14.1421,-23.23351 4.0406,-35.35534 11.1117,13.13198 0,23.23351 -3.0304,20.20305 -19.1929,45.45687 0,70.71067 -11.1117,33.33504 -17.1726,35.35534 -16.1625,22.22335 -2.0203,6.06092 32.3249,-18.18275 49.4975,-12.12183 57.5787,-16.16244 57.57871,-39.39595 -62.62951,62.62946 -21.2132,17.17259 -51.5178,55.55839 -34.3451,21.21321 -56.5686,17.17259 44.4467,-1.01015 43.4366,8.08122 65.6599,19.1929 -48.4873,3.03045 -27.2741,5.05077 -50.5077,12.12183 -76.7716,-17.1726 -12.1218,-1.01015 -20.203,21.21321 -33.3351,34.34518 -23.2335,13.13198 -15.1523,10.10153 -24.2436,5.05076 -63.6396,40.4061 32.3248,-35.35533 25.2539,-42.42641 14.1421,-20.20305 19.1929,-12.12183 32.3249,-10.10153 0,-4.04061 -38.3858,6.06092 -34.3452,7.07106 -30.3046,1.01016 -102.0254,-28.28427 -104.0457,-11.11168 102.0254,-8.08122 61.6193,-23.23351 47.4772,-6.06092 13.132,1.01016 -33.3351,-19.1929 -49.4975,-40.4061 -48.4873,-59.599 -12.1218,-19.1929 -68.6904,-62.62946 57.5787,31.31473 35.3554,19.1929 26.2639,8.08122 64.6498,17.17259 33.335,14.14214 24.2437,15.15228 39.3959,50.50763 6.0609,-4.04061 -14.1421,-19.1929 -30.3046,-35.35534 -10.1015,-18.18274 -5.0508,-19.1929 -5.0507,-47.47717 5.0507,-71.72083 -8.0812,-39.39595 -17.1726,-56.56854 z"
       id="path2942" />
    <path
       id="path2944"
       d="m -1422.2948,408.89501 43.4366,61.6193 16.1624,27.27412 22.2234,24.24366 36.3655,49.49748 26.2639,48.48732 5.0508,24.24366 4.0406,20.20305 -1.0101,27.27412 2.0203,7.07107 5.0507,-1.01015 0,-35.35534 15.1523,-39.39595 33.3351,-47.47717 47.4771,-38.3858 9.0914,-5.05076 17.1726,-32.32488 14.1421,-23.23351 4.0406,-35.35534 11.1117,13.13198 0,23.23351 -3.0304,20.20305 -19.1929,45.45687 0,70.71067 -11.1117,33.33504 -17.1726,35.35534 -16.1625,22.22335 -2.0203,6.06092 32.3249,-18.18275 49.4975,-12.12183 57.5787,-16.16244 57.57871,-39.39595 -62.62951,62.62946 -21.2132,17.17259 -51.5178,55.55839 -34.3451,21.21321 -56.5686,17.17259 44.4467,-1.01015 43.4366,8.08122 65.6599,19.1929 -48.4873,3.03045 -27.2741,5.05077 -50.5077,12.12183 -76.7716,-17.1726 -12.1218,-1.01015 -20.203,21.21321 -33.3351,34.34518 -23.2335,13.13198 -15.1523,10.10153 -24.2436,5.05076 -63.6396,40.4061 32.3248,-35.35533 25.2539,-42.42641 14.1421,-20.20305 19.1929,-12.12183 32.3249,-10.10153 0,-4.04061 -38.3858,6.06092 -34.3452,7.07106 -30.3046,1.01016 -102.0254,-28.28427 -104.0457,-11.11168 102.0254,-8.08122 61.6193,-23.23351 47.4772,-6.06092 13.132,1.01016 -33.3351,-19.1929 -49.4975,-40.4061 -48.4873,-59.599 -12.1218,-19.1929 -68.6904,-62.62946 57.5787,31.31473 35.3554,19.1929 26.2639,8.08122 64.6498,17.17259 33.335,14.14214 24.2437,15.15228 39.3959,50.50763 6.0609,-4.04061 -14.1421,-19.1929 -30.3046,-35.35534 -10.1015,-18.18274 -5.0508,-19.1929 -5.0507,-47.47717 5.0507,-71.72083 -8.0812,-39.39595 -17.1726,-56.56854 z"
       style="fill:#ff0000;stroke:#000000;stroke-width:1px;stroke-linecap:butt;stroke-linejoin:miter;stroke-opacity:1;filter:url(#filter2852)"
       transform="matrix(-0.23954568,-0.09913267,0.09913267,-0.23954568,-38.050587,709.63598)" />
    <path
       transform="matrix(-0.13218227,-0.22301853,0.22301853,-0.13218227,278.23108,310.22585)"
       style="fill:#ff0000;stroke:#000000;stroke-width:1px;stroke-linecap:butt;stroke-linejoin:miter;stroke-opacity:1;filter:url(#filter2852)"
       d="m -1422.2948,408.89501 43.4366,61.6193 16.1624,27.27412 22.2234,24.24366 36.3655,49.49748 26.2639,48.48732 5.0508,24.24366 4.0406,20.20305 -1.0101,27.27412 2.0203,7.07107 5.0507,-1.01015 0,-35.35534 15.1523,-39.39595 33.3351,-47.47717 47.4771,-38.3858 9.0914,-5.05076 17.1726,-32.32488 14.1421,-23.23351 4.0406,-35.35534 11.1117,13.13198 0,23.23351 -3.0304,20.20305 -19.1929,45.45687 0,70.71067 -11.1117,33.33504 -17.1726,35.35534 -16.1625,22.22335 -2.0203,6.06092 32.3249,-18.18275 49.4975,-12.12183 57.5787,-16.16244 57.57871,-39.39595 -62.62951,62.62946 -21.2132,17.17259 -51.5178,55.55839 -34.3451,21.21321 -56.5686,17.17259 44.4467,-1.01015 43.4366,8.08122 65.6599,19.1929 -48.4873,3.03045 -27.2741,5.05077 -50.5077,12.12183 -76.7716,-17.1726 -12.1218,-1.01015 -20.203,21.21321 -33.3351,34.34518 -23.2335,13.13198 -15.1523,10.10153 -24.2436,5.05076 -63.6396,40.4061 32.3248,-35.35533 25.2539,-42.42641 14.1421,-20.20305 19.1929,-12.12183 32.3249,-10.10153 0,-4.04061 -38.3858,6.06092 -34.3452,7.07106 -30.3046,1.01016 -102.0254,-28.28427 -104.0457,-11.11168 102.0254,-8.08122 61.6193,-23.23351 47.4772,-6.06092 13.132,1.01016 -33.3351,-19.1929 -49.4975,-40.4061 -48.4873,-59.599 -12.1218,-19.1929 -68.6904,-62.62946 57.5787,31.31473 35.3554,19.1929 26.2639,8.08122 64.6498,17.17259 33.335,14.14214 24.2437,15.15228 39.3959,50.50763 6.0609,-4.04061 -14.1421,-19.1929 -30.3046,-35.35534 -10.1015,-18.18274 -5.0508,-19.1929 -5.0507,-47.47717 5.0507,-71.72083 -8.0812,-39.39595 -17.1726,-56.56854 z"
       id="path2946" />
    <path
       id="path2969"
       d="m -1422.2948,408.89501 43.4366,61.6193 16.1624,27.27412 22.2234,24.24366 36.3655,49.49748 26.2639,48.48732 5.0508,24.24366 4.0406,20.20305 -1.0101,27.27412 2.0203,7.07107 5.0507,-1.01015 0,-35.35534 15.1523,-39.39595 33.3351,-47.47717 47.4771,-38.3858 9.0914,-5.05076 17.1726,-32.32488 14.1421,-23.23351 4.0406,-35.35534 11.1117,13.13198 0,23.23351 -3.0304,20.20305 -19.1929,45.45687 0,70.71067 -11.1117,33.33504 -17.1726,35.35534 -16.1625,22.22335 -2.0203,6.06092 32.3249,-18.18275 49.4975,-12.12183 57.5787,-16.16244 57.57871,-39.39595 -62.62951,62.62946 -21.2132,17.17259 -51.5178,55.55839 -34.3451,21.21321 -56.5686,17.17259 44.4467,-1.01015 43.4366,8.08122 65.6599,19.1929 -48.4873,3.03045 -27.2741,5.05077 -50.5077,12.12183 -76.7716,-17.1726 -12.1218,-1.01015 -20.203,21.21321 -33.3351,34.34518 -23.2335,13.13198 -15.1523,10.10153 -24.2436,5.05076 -63.6396,40.4061 32.3248,-35.35533 25.2539,-42.42641 14.1421,-20.20305 19.1929,-12.12183 32.3249,-10.10153 0,-4.04061 -38.3858,6.06092 -34.3452,7.07106 -30.3046,1.01016 -102.0254,-28.28427 -104.0457,-11.11168 102.0254,-8.08122 61.6193,-23.23351 47.4772,-6.06092 13.132,1.01016 -33.3351,-19.1929 -49.4975,-40.4061 -48.4873,-59.599 -12.1218,-19.1929 -68.6904,-62.62946 57.5787,31.31473 35.3554,19.1929 26.2639,8.08122 64.6498,17.17259 33.335,14.14214 24.2437,15.15228 39.3959,50.50763 6.0609,-4.04061 -14.1421,-19.1929 -30.3046,-35.35534 -10.1015,-18.18274 -5.0508,-19.1929 -5.0507,-47.47717 5.0507,-71.72083 -8.0812,-39.39595 -17.1726,-56.56854 z"
       style="fill:#ff2a2a;stroke:#000000;stroke-width:1px;stroke-linecap:butt;stroke-linejoin:miter;stroke-opacity:1;filter:url(#filter2852)"
       transform="matrix(-0.15721474,-0.1552664,0.1552664,-0.15721474,-972.92247,690.30799)" />
    <path
       transform="matrix(-0.15721474,-0.1552664,0.1552664,-0.15721474,-464.35103,353.16513)"
       style="fill:#ff2a2a;stroke:#000000;stroke-width:1px;stroke-linecap:butt;stroke-linejoin:miter;stroke-opacity:1;filter:url(#filter2852)"
       d="m -1422.2948,408.89501 43.4366,61.6193 16.1624,27.27412 22.2234,24.24366 36.3655,49.49748 26.2639,48.48732 5.0508,24.24366 4.0406,20.20305 -1.0101,27.27412 2.0203,7.07107 5.0507,-1.01015 0,-35.35534 15.1523,-39.39595 33.3351,-47.47717 47.4771,-38.3858 9.0914,-5.05076 17.1726,-32.32488 14.1421,-23.23351 4.0406,-35.35534 11.1117,13.13198 0,23.23351 -3.0304,20.20305 -19.1929,45.45687 0,70.71067 -11.1117,33.33504 -17.1726,35.35534 -16.1625,22.22335 -2.0203,6.06092 32.3249,-18.18275 49.4975,-12.12183 57.5787,-16.16244 57.57871,-39.39595 -62.62951,62.62946 -21.2132,17.17259 -51.5178,55.55839 -34.3451,21.21321 -56.5686,17.17259 44.4467,-1.01015 43.4366,8.08122 65.6599,19.1929 -48.4873,3.03045 -27.2741,5.05077 -50.5077,12.12183 -76.7716,-17.1726 -12.1218,-1.01015 -20.203,21.21321 -33.3351,34.34518 -23.2335,13.13198 -15.1523,10.10153 -24.2436,5.05076 -63.6396,40.4061 32.3248,-35.35533 25.2539,-42.42641 14.1421,-20.20305 19.1929,-12.12183 32.3249,-10.10153 0,-4.04061 -38.3858,6.06092 -34.3452,7.07106 -30.3046,1.01016 -102.0254,-28.28427 -104.0457,-11.11168 102.0254,-8.08122 61.6193,-23.23351 47.4772,-6.06092 13.132,1.01016 -33.3351,-19.1929 -49.4975,-40.4061 -48.4873,-59.599 -12.1218,-19.1929 -68.6904,-62.62946 57.5787,31.31473 35.3554,19.1929 26.2639,8.08122 64.6498,17.17259 33.335,14.14214 24.2437,15.15228 39.3959,50.50763 6.0609,-4.04061 -14.1421,-19.1929 -30.3046,-35.35534 -10.1015,-18.18274 -5.0508,-19.1929 -5.0507,-47.47717 5.0507,-71.72083 -8.0812,-39.39595 -17.1726,-56.56854 z"
       id="path2971" />
    <path
       id="path2973"
       d="m -1422.2948,408.89501 43.4366,61.6193 16.1624,27.27412 22.2234,24.24366 36.3655,49.49748 26.2639,48.48732 5.0508,24.24366 4.0406,20.20305 -1.0101,27.27412 2.0203,7.07107 5.0507,-1.01015 0,-35.35534 15.1523,-39.39595 33.3351,-47.47717 47.4771,-38.3858 9.0914,-5.05076 17.1726,-32.32488 14.1421,-23.23351 4.0406,-35.35534 11.1117,13.13198 0,23.23351 -3.0304,20.20305 -19.1929,45.45687 0,70.71067 -11.1117,33.33504 -17.1726,35.35534 -16.1625,22.22335 -2.0203,6.06092 32.3249,-18.18275 49.4975,-12.12183 57.5787,-16.16244 57.57871,-39.39595 -62.62951,62.62946 -21.2132,17.17259 -51.5178,55.55839 -34.3451,21.21321 -56.5686,17.17259 44.4467,-1.01015 43.4366,8.08122 65.6599,19.1929 -48.4873,3.03045 -27.2741,5.05077 -50.5077,12.12183 -76.7716,-17.1726 -12.1218,-1.01015 -20.203,21.21321 -33.3351,34.34518 -23.2335,13.13198 -15.1523,10.10153 -24.2436,5.05076 -63.6396,40.4061 32.3248,-35.35533 25.2539,-42.42641 14.1421,-20.20305 19.1929,-12.12183 32.3249,-10.10153 0,-4.04061 -38.3858,6.06092 -34.3452,7.07106 -30.3046,1.01016 -102.0254,-28.28427 -104.0457,-11.11168 102.0254,-8.08122 61.6193,-23.23351 47.4772,-6.06092 13.132,1.01016 -33.3351,-19.1929 -49.4975,-40.4061 -48.4873,-59.599 -12.1218,-19.1929 -68.6904,-62.62946 57.5787,31.31473 35.3554,19.1929 26.2639,8.08122 64.6498,17.17259 33.335,14.14214 24.2437,15.15228 39.3959,50.50763 6.0609,-4.04061 -14.1421,-19.1929 -30.3046,-35.35534 -10.1015,-18.18274 -5.0508,-19.1929 -5.0507,-47.47717 5.0507,-71.72083 -8.0812,-39.39595 -17.1726,-56.56854 z"
       style="fill:#ff2a2a;stroke:#000000;stroke-width:1px;stroke-linecap:butt;stroke-linejoin:miter;stroke-opacity:1;filter:url(#filter2852)"
       transform="matrix(-0.15721474,-0.1552664,0.1552664,-0.15721474,-498.63675,793.16513)" />
    <path
       transform="matrix(-0.15721474,-0.1552664,0.1552664,-0.15721474,-812.92246,496.02228)"
       style="fill:#ff2a2a;stroke:#000000;stroke-width:1px;stroke-linecap:butt;stroke-linejoin:miter;stroke-opacity:1;filter:url(#filter2852)"
       d="m -1422.2948,408.89501 43.4366,61.6193 16.1624,27.27412 22.2234,24.24366 36.3655,49.49748 26.2639,48.48732 5.0508,24.24366 4.0406,20.20305 -1.0101,27.27412 2.0203,7.07107 5.0507,-1.01015 0,-35.35534 15.1523,-39.39595 33.3351,-47.47717 47.4771,-38.3858 9.0914,-5.05076 17.1726,-32.32488 14.1421,-23.23351 4.0406,-35.35534 11.1117,13.13198 0,23.23351 -3.0304,20.20305 -19.1929,45.45687 0,70.71067 -11.1117,33.33504 -17.1726,35.35534 -16.1625,22.22335 -2.0203,6.06092 32.3249,-18.18275 49.4975,-12.12183 57.5787,-16.16244 57.57871,-39.39595 -62.62951,62.62946 -21.2132,17.17259 -51.5178,55.55839 -34.3451,21.21321 -56.5686,17.17259 44.4467,-1.01015 43.4366,8.08122 65.6599,19.1929 -48.4873,3.03045 -27.2741,5.05077 -50.5077,12.12183 -76.7716,-17.1726 -12.1218,-1.01015 -20.203,21.21321 -33.3351,34.34518 -23.2335,13.13198 -15.1523,10.10153 -24.2436,5.05076 -63.6396,40.4061 32.3248,-35.35533 25.2539,-42.42641 14.1421,-20.20305 19.1929,-12.12183 32.3249,-10.10153 0,-4.04061 -38.3858,6.06092 -34.3452,7.07106 -30.3046,1.01016 -102.0254,-28.28427 -104.0457,-11.11168 102.0254,-8.08122 61.6193,-23.23351 47.4772,-6.06092 13.132,1.01016 -33.3351,-19.1929 -49.4975,-40.4061 -48.4873,-59.599 -12.1218,-19.1929 -68.6904,-62.62946 57.5787,31.31473 35.3554,19.1929 26.2639,8.08122 64.6498,17.17259 33.335,14.14214 24.2437,15.15228 39.3959,50.50763 6.0609,-4.04061 -14.1421,-19.1929 -30.3046,-35.35534 -10.1015,-18.18274 -5.0508,-19.1929 -5.0507,-47.47717 5.0507,-71.72083 -8.0812,-39.39595 -17.1726,-56.56854 z"
       id="path2975" />
    <path
       id="path2977"
       d="m -1422.2948,408.89501 43.4366,61.6193 16.1624,27.27412 22.2234,24.24366 36.3655,49.49748 26.2639,48.48732 5.0508,24.24366 4.0406,20.20305 -1.0101,27.27412 2.0203,7.07107 5.0507,-1.01015 0,-35.35534 15.1523,-39.39595 33.3351,-47.47717 47.4771,-38.3858 9.0914,-5.05076 17.1726,-32.32488 14.1421,-23.23351 4.0406,-35.35534 11.1117,13.13198 0,23.23351 -3.0304,20.20305 -19.1929,45.45687 0,70.71067 -11.1117,33.33504 -17.1726,35.35534 -16.1625,22.22335 -2.0203,6.06092 32.3249,-18.18275 49.4975,-12.12183 57.5787,-16.16244 57.57871,-39.39595 -62.62951,62.62946 -21.2132,17.17259 -51.5178,55.55839 -34.3451,21.21321 -56.5686,17.17259 44.4467,-1.01015 43.4366,8.08122 65.6599,19.1929 -48.4873,3.03045 -27.2741,5.05077 -50.5077,12.12183 -76.7716,-17.1726 -12.1218,-1.01015 -20.203,21.21321 -33.3351,34.34518 -23.2335,13.13198 -15.1523,10.10153 -24.2436,5.05076 -63.6396,40.4061 32.3248,-35.35533 25.2539,-42.42641 14.1421,-20.20305 19.1929,-12.12183 32.3249,-10.10153 0,-4.04061 -38.3858,6.06092 -34.3452,7.07106 -30.3046,1.01016 -102.0254,-28.28427 -104.0457,-11.11168 102.0254,-8.08122 61.6193,-23.23351 47.4772,-6.06092 13.132,1.01016 -33.3351,-19.1929 -49.4975,-40.4061 -48.4873,-59.599 -12.1218,-19.1929 -68.6904,-62.62946 57.5787,31.31473 35.3554,19.1929 26.2639,8.08122 64.6498,17.17259 33.335,14.14214 24.2437,15.15228 39.3959,50.50763 6.0609,-4.04061 -14.1421,-19.1929 -30.3046,-35.35534 -10.1015,-18.18274 -5.0508,-19.1929 -5.0507,-47.47717 5.0507,-71.72083 -8.0812,-39.39595 -17.1726,-56.56854 z"
       style="fill:#ff2a2a;stroke:#000000;stroke-width:1px;stroke-linecap:butt;stroke-linejoin:miter;stroke-opacity:1;filter:url(#filter2852)"
       transform="matrix(-0.15721474,-0.1552664,0.1552664,-0.15721474,-658.63675,267.45085)"
       inkscape:transform-center-x="20" />
  </g>
</svg>
