<?xml version="1.0" encoding="UTF-8" standalone="no"?>
<!-- Created with Inkscape (http://www.inkscape.org/) -->

<svg
   xmlns:dc="http://purl.org/dc/elements/1.1/"
   xmlns:cc="http://creativecommons.org/ns#"
   xmlns:rdf="http://www.w3.org/1999/02/22-rdf-syntax-ns#"
   xmlns:svg="http://www.w3.org/2000/svg"
   xmlns="http://www.w3.org/2000/svg"
   xmlns:sodipodi="http://sodipodi.sourceforge.net/DTD/sodipodi-0.dtd"
   xmlns:inkscape="http://www.inkscape.org/namespaces/inkscape"
   width="744.09448819"
   height="1052.3622047"
   id="svg2932"
   version="1.1"
   inkscape:version="0.47 r22583"
   sodipodi:docname="New document 6">
  <defs
     id="defs2934">
    <inkscape:perspective
       sodipodi:type="inkscape:persp3d"
       inkscape:vp_x="0 : 526.18109 : 1"
       inkscape:vp_y="0 : 1000 : 0"
       inkscape:vp_z="744.09448 : 526.18109 : 1"
       inkscape:persp3d-origin="372.04724 : 350.78739 : 1"
       id="perspective2940" />
    <filter
       id="filter2946"
       inkscape:label="Apparition"
       inkscape:menu="Blurs"
       inkscape:menu-tooltip="Edges are partly feathered out"
       color-interpolation-filters="sRGB"
       x="0"
       y="0"
       width="1"
       height="1">
      <feColorMatrix
         id="feColorMatrix2948"
         values="1 0 0 0 0 0 1 0 0 0 0 0 1 0 0 0 0 0 1 0 "
         result="result7" />
      <feGaussianBlur
         id="feGaussianBlur2950"
         result="result6"
         stdDeviation="5" />
      <feComposite
         id="feComposite2952"
         in2="result7"
         operator="atop"
         in="result6"
         result="result91" />
      <feComposite
         id="feComposite2954"
         in2="result91"
         operator="in"
         result="fbSourceGraphic" />
      <feColorMatrix
         result="fbSourceGraphicAlpha"
         in="fbSourceGraphic"
         values="0 0 0 -1 0 0 0 0 -1 0 0 0 0 -1 0 0 0 0 1 0"
         id="feColorMatrix2956" />
      <feMorphology
         id="feMorphology2958"
         radius="4"
         in="fbSourceGraphic"
         result="result0" />
      <feGaussianBlur
         id="feGaussianBlur2960"
         in="result0"
         stdDeviation="8"
         result="result91" />
      <feComposite
         id="feComposite2962"
         in2="result91"
         operator="in"
         in="fbSourceGraphic" />
    </filter>
  </defs>
  <sodipodi:namedview
     id="base"
     pagecolor="#ffffff"
     bordercolor="#666666"
     borderopacity="1.0"
     inkscape:pageopacity="0.0"
     inkscape:pageshadow="2"
     inkscape:zoom="0.35"
     inkscape:cx="375"
     inkscape:cy="500.63054"
     inkscape:document-units="px"
     inkscape:current-layer="layer1"
     showgrid="false"
     inkscape:window-width="1090"
     inkscape:window-height="682"
     inkscape:window-x="40"
     inkscape:window-y="40"
     inkscape:window-maximized="0" />
  <metadata
     id="metadata2937">
    <rdf:RDF>
      <cc:Work
         rdf:about="">
        <dc:format>image/svg+xml</dc:format>
        <dc:type
           rdf:resource="http://purl.org/dc/dcmitype/StillImage" />
        <dc:title></dc:title>
      </cc:Work>
    </rdf:RDF>
  </metadata>
  <g
     inkscape:label="Layer 1"
     inkscape:groupmode="layer"
     id="layer1">
    <path
       style="fill:#000000;stroke:#000000;stroke-width:1px;stroke-linecap:butt;stroke-linejoin:miter;stroke-opacity:1;filter:url(#filter2946)"
       d="m -840.00001,463.79075 c 39.9562,-57.21586 100.41507,-80.26059 162.85714,-100 20.08711,180.4297 23.8191,318.99016 51.42857,454.28572 -62.96128,-119.04762 -120.86834,-235.2381 -214.28571,-354.28572 z"
       id="path2942"
       sodipodi:nodetypes="cccc" />
    <path
       sodipodi:nodetypes="cccc"
       id="path2944"
       d="m -405.71429,278.07647 c 39.9562,-57.21586 100.41507,-80.26059 162.85714,-100 20.08711,180.4297 23.8191,318.99016 51.42857,454.28572 -62.96128,-119.04762 -120.86834,-235.2381 -214.28571,-354.28572 z"
       style="fill:#ff0000;stroke:#000000;stroke-width:1px;stroke-linecap:butt;stroke-linejoin:miter;stroke-opacity:1" />
    <path
       style="fill:#000000;stroke:#000000;stroke-width:1px;stroke-linecap:butt;stroke-linejoin:miter;stroke-opacity:1"
       d="m -708.57143,63.790756 c 39.9562,-57.2158603 100.41507,-80.26059 162.85714,-100 20.08711,180.429704 23.8191,318.990164 51.42857,454.285724 C -557.247,299.02886 -615.15406,182.83838 -708.57143,63.790756 z"
       id="path2964"
       sodipodi:nodetypes="cccc" />
    <path
       style="fill:none;stroke:#000000;stroke-width:1px;stroke-linecap:butt;stroke-linejoin:miter;stroke-opacity:1"
       d="M -240,206.6479 -380,312.36218"
       id="path2974" />
    <path
       style="fill:none;stroke:#000000;stroke-width:1px;stroke-linecap:butt;stroke-linejoin:miter;stroke-opacity:1"
       d="M -377.14286,326.6479 -240,235.21933"
       id="path2976" />
    <path
       style="fill:none;stroke:#000000;stroke-width:1px;stroke-linecap:butt;stroke-linejoin:miter;stroke-opacity:1"
       d="m -340,372.36218 108.57143,-54.28571"
       id="path2978" />
    <path
       style="fill:#000000;stroke:#000000;stroke-width:1px;stroke-linecap:butt;stroke-linejoin:miter;stroke-opacity:1"
       d="m -225.71429,349.50504 -97.14285,48.57143"
       id="path2980" />
    <path
       style="fill:#000000;stroke-width:0.1;stroke-miterlimit:4;stroke-dasharray:none"
       d="m -373.9102,316.3568 c -2.39418,-2.88481 11.83189,-14.96289 63.76795,-54.13962 36.7673,-27.73453 67.62261,-50.42643 68.56737,-50.42643 0.94475,0 1.68287,4.82143 1.64027,10.71429 l -0.0775,10.71429 -65.40822,43.42533 c -51.42459,34.14142 -66.06705,42.63149 -68.48989,39.71214 z"
       id="path2982" />
    <path
       style="fill:#000000;stroke-width:0.1;stroke-miterlimit:4;stroke-dasharray:none"
       d="m -328.14635,384.48458 c -3.29808,-5.58982 -5.99651,-10.72591 -5.99651,-11.41352 0,-0.68761 22.99554,-12.76143 51.1012,-26.83071 l 51.10119,-25.58051 1.75595,8.77974 c 3.74684,18.73419 4.33147,18.17072 -43.92473,42.33435 -25.12438,12.58068 -46.21167,22.87397 -46.86064,22.87397 -0.64898,0 -3.87839,-4.57349 -7.17646,-10.16332 z"
       id="path2984" />
    <path
       style="fill:none;stroke:#000000;stroke-width:1px;stroke-linecap:butt;stroke-linejoin:miter;stroke-opacity:1"
       d="m -220,429.50504 -54.28571,40"
       id="path2986" />
    <path
       style="fill:none;stroke:#000000;stroke-width:1px;stroke-linecap:butt;stroke-linejoin:miter;stroke-opacity:1"
       d="m -265.71429,495.21933 48.57143,-34.28572"
       id="path2988" />
    <path
       style="fill:none;stroke:#000000;stroke-width:1px;stroke-linecap:butt;stroke-linejoin:miter;stroke-opacity:1"
       d="m -205.71429,535.21933 -25.71428,17.14285"
       id="path2990" />
    <path
       style="fill:#000000;stroke:#000000;stroke-width:1px;stroke-linecap:butt;stroke-linejoin:miter;stroke-opacity:1"
       d="m -228.57143,566.6479 22.85714,-8.57143"
       id="path2992" />
    <path
       style="fill:#000000;stroke-width:0.1;stroke-miterlimit:4;stroke-dasharray:none"
       d="m -269.66005,482.78359 c -6.10954,-10.34262 -7.17087,-8.98322 26.23148,-33.59852 l 23.57143,-17.37057 0,9.75445 c 0,5.36495 0.60797,11.46675 1.35105,13.55955 1.10086,3.10046 -21.16842,20.98334 -42.79671,34.367 -1.87344,1.1593 -5.36323,-1.64343 -8.35725,-6.71191 z"
       id="path2994" />
    <path
       style="fill:#000000;stroke-width:0.1;stroke-miterlimit:4;stroke-dasharray:none"
       d="m -227.63626,558.30581 c -1.65417,-4.31068 2.77844,-9.11413 14.20769,-15.39637 3.72906,-2.04972 5,-1.69278 5,1.40425 0,2.28391 0.69186,5.95553 1.53747,8.15916 1.03832,2.7058 -1.80036,5.031 -8.74346,7.1619 -8.6421,2.65234 -10.55523,2.4405 -12.0017,-1.32894 z"
       id="path2996" />
    <path
       style="fill:#ff0000;stroke:#000000;stroke-width:1px;stroke-linecap:butt;stroke-linejoin:miter;stroke-opacity:1"
       d="m -954.28571,806.6479 c 39.9562,-57.21586 100.4151,-80.26059 162.8571,-100 20.0871,180.4297 23.8191,318.9902 51.4286,454.2857 -62.9613,-119.0476 -120.8683,-235.23808 -214.2857,-354.2857 z"
       id="path2998"
       sodipodi:nodetypes="cccc" />
    <path
       id="path3000"
       d="m -788.57141,735.21933 -140,105.71428"
       style="fill:none;stroke:#000000;stroke-width:1px;stroke-linecap:butt;stroke-linejoin:miter;stroke-opacity:1" />
    <path
       id="path3002"
       d="m -925.71431,855.21933 137.1429,-91.42857"
       style="fill:none;stroke:#000000;stroke-width:1px;stroke-linecap:butt;stroke-linejoin:miter;stroke-opacity:1" />
    <path
       id="path3004"
       d="m -888.57141,900.93361 108.5714,-54.28571"
       style="fill:none;stroke:#000000;stroke-width:1px;stroke-linecap:butt;stroke-linejoin:miter;stroke-opacity:1" />
    <path
       id="path3006"
       d="m -774.28571,878.07647 -97.1429,48.57143"
       style="fill:#000000;stroke:#000000;stroke-width:1px;stroke-linecap:butt;stroke-linejoin:miter;stroke-opacity:1" />
    <path
       id="path3008"
       d="m -922.48161,844.92823 c -2.3942,-2.88481 11.8319,-14.96289 63.7679,-54.13962 36.7673,-27.73453 67.6226,-50.42643 68.5674,-50.42643 0.9448,0 1.6829,4.82143 1.6403,10.71429 l -0.078,10.71429 -65.4082,43.42533 c -51.4246,34.14142 -66.0671,42.63149 -68.4899,39.71214 z"
       style="fill:#000000;stroke-width:0.1;stroke-miterlimit:4;stroke-dasharray:none" />
    <path
       id="path3010"
       d="m -876.71781,913.05601 c -3.298,-5.58982 -5.9965,-10.72591 -5.9965,-11.41352 0,-0.68761 22.9956,-12.76143 51.1012,-26.83071 l 51.1012,-25.58051 1.756,8.77974 c 3.7468,18.73419 4.3314,18.17072 -43.9248,42.33435 -25.1243,12.58068 -46.2116,22.87397 -46.8606,22.87397 -0.649,0 -3.8784,-4.57349 -7.1765,-10.16332 z"
       style="fill:#000000;stroke-width:0.1;stroke-miterlimit:4;stroke-dasharray:none" />
    <path
       id="path3012"
       d="m -768.57141,958.07647 -54.2857,40"
       style="fill:none;stroke:#000000;stroke-width:1px;stroke-linecap:butt;stroke-linejoin:miter;stroke-opacity:1" />
    <path
       id="path3014"
       d="m -814.28571,1023.7908 48.5714,-34.28576"
       style="fill:none;stroke:#000000;stroke-width:1px;stroke-linecap:butt;stroke-linejoin:miter;stroke-opacity:1" />
    <path
       id="path3016"
       d="m -754.28571,1063.7908 -25.7143,17.1428"
       style="fill:none;stroke:#000000;stroke-width:1px;stroke-linecap:butt;stroke-linejoin:miter;stroke-opacity:1" />
    <path
       id="path3018"
       d="m -777.14281,1095.2193 22.8571,-8.5714"
       style="fill:#000000;stroke:#000000;stroke-width:1px;stroke-linecap:butt;stroke-linejoin:miter;stroke-opacity:1" />
    <path
       id="path3020"
       d="m -818.23151,1011.355 c -6.1095,-10.3426 -7.1708,-8.9832 26.2315,-33.5985 l 23.5714,-17.37057 0,9.75445 c 0,5.36495 0.608,11.46675 1.3511,13.55955 1.1009,3.10046 -21.1684,20.98337 -42.7967,34.36697 -1.8735,1.1593 -5.3632,-1.6434 -8.3573,-6.7119 z"
       style="fill:#000000;stroke-width:0.1;stroke-miterlimit:4;stroke-dasharray:none" />
    <path
       id="path3022"
       d="m -776.20771,1086.8772 c -1.6541,-4.3106 2.7785,-9.1141 14.2077,-15.3963 3.7291,-2.0498 5,-1.6928 5,1.4042 0,2.2839 0.6919,5.9555 1.5375,8.1592 1.0383,2.7058 -1.8004,5.031 -8.7435,7.1619 -8.6421,2.6523 -10.5552,2.4405 -12.0017,-1.329 z"
       style="fill:#000000;stroke-width:0.1;stroke-miterlimit:4;stroke-dasharray:none" />
    <path
       style="fill:#000000;stroke-width:0.1;stroke-miterlimit:4;stroke-dasharray:none"
       id="path3028"
       d="m -496.2616,514.78591 c 22.8005,19.28807 47.4459,36.1799 71.5822,53.71091 17.0453,12.41491 35.2632,24.35835 46.5034,42.64941 2.612,4.65742 3.5852,9.72285 4.092,14.95447 0,0 -44.8948,23.22032 -44.8948,23.22032 l 0,0 c -0.095,-4.56746 -0.479,-9.04616 -2.4214,-13.27187 -9.357,-18.25237 -26.409,-30.51773 -42.2478,-42.84422 -24.4171,-18.05076 -49.33606,-35.51853 -75.30574,-51.2774 0,0 42.69214,-27.14162 42.69214,-27.14162 z" />
    <path
       style="fill:#000000;stroke-width:0.1;stroke-miterlimit:4;stroke-dasharray:none"
       id="path3030"
       d="m -417.3425,647.14379 c -11.9108,-11.32525 -27.2792,-18.00503 -42.5236,-23.53028 -23.2796,-7.03227 -47.75853,-8.08099 -71.9115,-8.1428 -10.84613,0.16901 -21.67786,0.76783 -32.5016,1.44745 -5.32523,0.33437 -10.60455,0.13356 -15.35939,2.74404 5.95603,79.81517 27.63873,-31.28458 45.14524,-28.29535 2.12528,0.36289 4.12627,1.25342 6.20282,1.83347 9.96737,2.78424 19.92818,5.56397 29.87133,8.43936 20.8137,7.22239 42.1777,12.67109 63.0613,19.66062 10.6343,2.64511 19.8222,8.84157 30.2369,12.06846 4.5669,1.22551 9.2999,1.31574 13.994,1.38612 0,0 -41.0843,29.59413 -41.0843,29.59413 l 0,0 c -5.0075,-0.3293 -10.0028,-0.90966 -14.7131,-2.76797 -9.7758,-4.02056 -18.6783,-9.99069 -28.9388,-12.86611 -20.5031,-7.34201 -41.50395,-13.23059 -62.24168,-19.86315 -10.26768,-2.77286 -20.51227,-5.37155 -30.93251,-7.51035 -2.25953,-0.46378 -4.57278,-0.69813 -6.79022,-1.33335 -1.80468,-0.51698 -6.6437,-0.88143 -5.22245,-2.10788 12.82762,-11.06946 27.71154,-19.50369 41.56732,-29.25553 15.40434,-0.63217 30.81502,-1.2214 46.24004,-1.1331 24.7187,0.25526 49.8212,1.37259 73.5207,9.05313 16.1757,6.08928 31.9286,13.47805 45.759,23.99606 0,0 -43.3795,26.58303 -43.3795,26.58303 z" />
    <path
       style="fill:#000000;stroke-width:0.1;stroke-miterlimit:4;stroke-dasharray:none"
       id="path3032"
       d="m -411.0571,651.37373 c -22.2139,6.26547 -44.265,13.15986 -66.0524,20.7805 -24.25267,9.17667 -48.65077,18.18629 -71.44467,30.64794 12.06566,-6.89566 24.13133,-13.79132 36.19699,-20.68698 0,0 -46.1362,17.77131 -46.1362,17.77131 l 0,0 c 16.05975,-9.2637 32.1195,-18.5274 48.17925,-27.7911 22.60213,-11.30244 46.44953,-19.77967 70.07193,-28.66457 23.0117,-7.99918 46.2132,-15.43611 69.3717,-22.99885 0,0 -40.1866,30.94175 -40.1866,30.94175 z" />
    <path
       style="fill:#000000;stroke-width:0.1;stroke-miterlimit:4;stroke-dasharray:none"
       id="path3034"
       d="m -416.9871,634.9052 c -0.3788,-14.20223 -3.5495,-28.08467 -6.1081,-41.99071 -2.7134,-14.74708 -3.0443,-17.91377 -5.3328,-33.25753 -4.0636,-29.68169 -7.2054,-59.48271 -9.8055,-89.32572 -0.7402,-9.54025 -0.5176,-5.06266 -0.7559,-13.4281 0,0 44.4088,-22.47792 44.4088,-22.47792 l 0,0 c -0.6904,8.36451 -0.4909,3.83969 -0.4166,13.58124 0.6558,30.09591 2.6588,60.19627 7.5207,89.93427 4.4682,24.67511 10.083,49.07431 15.2086,73.6146 0,0 -44.7192,23.34987 -44.7192,23.34987 z" />
    <path
       style="fill:#000000;stroke-width:0.1;stroke-miterlimit:4;stroke-dasharray:none"
       id="path3038"
       d="m -411.2223,638.99564 c 0.4778,-10.93471 0.4823,-21.83774 1.9189,-32.70394 2.8407,-14.29433 10.3037,-26.96667 19.5431,-38.03853 15.9068,-15.50206 38.4581,-24.95364 56.7987,-35.35324 4.2269,-1.82339 2.2661,-0.77889 5.9143,-3.07347 -67.9485,41.34269 -43.202,27.62891 -27.3427,11.61386 0,0 46.0749,-19.10442 46.0749,-19.10442 l 0,0 c -21.3706,21.46948 -13.2398,15.83518 -58.0592,39.24611 -15.4391,7.58816 -35.6629,20.71109 34.0049,-20.06194 1.1703,-0.6849 -2.4494,1.17272 -3.6137,1.86766 -1.3136,0.78404 -2.5618,1.67437 -3.8078,2.56196 -1.4011,0.99813 -2.754,2.06229 -4.131,3.09343 -9.8807,9.75074 -17.532,21.60496 -20.6463,35.28258 -1.7449,10.45891 -2.3763,21.00508 -1.3524,31.58758 0,0 -45.3017,23.08236 -45.3017,23.08236 z" />
    <path
       d="m -959.11871,626.21448 c 22.8005,19.28807 47.4459,36.1799 71.5822,53.71091 17.0453,12.41491 35.2632,24.35835 46.5034,42.64941 2.612,4.65742 3.5852,9.72285 4.092,14.95447 0,0 -44.8948,23.22032 -44.8948,23.22032 l 0,0 c -0.095,-4.56746 -0.479,-9.04616 -2.4214,-13.27187 -9.357,-18.25237 -26.409,-30.51773 -42.2478,-42.84422 -24.4171,-18.05076 -49.3361,-35.51853 -75.30579,-51.2774 0,0 42.69219,-27.14162 42.69219,-27.14162 z"
       id="path3040"
       style="fill:#000000;stroke-width:0.1;stroke-miterlimit:4;stroke-dasharray:none" />
    <path
       d="m -880.19961,758.57236 c -11.9108,-11.32525 -27.2792,-18.00503 -42.5236,-23.53028 -23.2796,-7.03227 -47.7586,-8.08099 -71.9115,-8.1428 -10.84619,0.16901 -21.67789,0.76783 -32.50159,1.44745 -5.3253,0.33437 -10.6046,0.13356 -15.3594,2.74404 5.956,79.81517 27.6387,-31.28458 45.14519,-28.29535 2.1253,0.36289 4.1263,1.25342 6.2028,1.83347 9.9674,2.78424 19.9282,5.56397 29.8714,8.43936 20.8137,7.22239 42.1777,12.67109 63.0613,19.66062 10.6343,2.64511 19.8222,8.84157 30.2369,12.06846 4.5669,1.22551 9.2999,1.31574 13.994,1.38612 0,0 -41.0843,29.59413 -41.0843,29.59413 l 0,0 c -5.0075,-0.3293 -10.0028,-0.90966 -14.7131,-2.76797 -9.7758,-4.02056 -18.6783,-9.99069 -28.9388,-12.86611 -20.5031,-7.34201 -41.504,-13.23059 -62.24169,-19.86315 -10.2677,-2.77286 -20.5123,-5.37155 -30.9325,-7.51035 -2.2595,-0.46378 -4.5728,-0.69813 -6.7902,-1.33335 -1.8047,-0.51698 -6.6437,-0.88143 -5.2225,-2.10788 12.8276,-11.06946 27.7116,-19.50369 41.5673,-29.25553 15.40439,-0.63217 30.81509,-1.2214 46.24009,-1.1331 24.7187,0.25526 49.8212,1.37259 73.5207,9.05313 16.1757,6.08928 31.9286,13.47805 45.759,23.99606 0,0 -43.3795,26.58303 -43.3795,26.58303 z"
       id="path3042"
       style="fill:#000000;stroke-width:0.1;stroke-miterlimit:4;stroke-dasharray:none" />
    <path
       d="m -873.91421,762.8023 c -22.2139,6.26547 -44.265,13.15986 -66.0524,20.7805 -24.2527,9.17667 -48.6508,18.18629 -71.44469,30.64794 12.06569,-6.89566 24.13129,-13.79132 36.19699,-20.68698 0,0 -46.13619,17.77131 -46.13619,17.77131 l 0,0 c 16.0597,-9.2637 32.11949,-18.5274 48.17919,-27.7911 22.6022,-11.30244 46.4496,-19.77967 70.072,-28.66457 23.0117,-7.99918 46.2132,-15.43611 69.3717,-22.99885 0,0 -40.1866,30.94175 -40.1866,30.94175 z"
       id="path3044"
       style="fill:#000000;stroke-width:0.1;stroke-miterlimit:4;stroke-dasharray:none" />
    <path
       d="m -879.84421,746.33377 c -0.3788,-14.20223 -3.5495,-28.08467 -6.1081,-41.99071 -2.7134,-14.74708 -3.0443,-17.91377 -5.3328,-33.25753 -4.0636,-29.68169 -7.2054,-59.48271 -9.8055,-89.32572 -0.7402,-9.54025 -0.5176,-5.06266 -0.7559,-13.4281 0,0 44.4088,-22.47792 44.4088,-22.47792 l 0,0 c -0.6904,8.36451 -0.4909,3.83969 -0.4166,13.58124 0.6558,30.09591 2.6588,60.19627 7.5207,89.93427 4.4682,24.67511 10.083,49.07431 15.2086,73.6146 0,0 -44.7192,23.34987 -44.7192,23.34987 z"
       id="path3046"
       style="fill:#000000;stroke-width:0.1;stroke-miterlimit:4;stroke-dasharray:none" />
    <path
       d="m -874.07941,750.42421 c 0.4778,-10.93471 0.4823,-21.83774 1.9189,-32.70394 2.8407,-14.29433 10.3037,-26.96667 19.5431,-38.03853 15.9068,-15.50206 38.4581,-24.95364 56.7987,-35.35324 4.2269,-1.82339 2.2661,-0.77889 5.9143,-3.07347 -67.9485,41.34269 -43.202,27.62891 -27.3427,11.61386 0,0 46.0749,-19.10442 46.0749,-19.10442 l 0,0 c -21.3706,21.46948 -13.2398,15.83518 -58.0592,39.24611 -15.4391,7.58816 -35.6629,20.71109 34.0049,-20.06194 1.1703,-0.6849 -2.4494,1.17272 -3.6137,1.86766 -1.3136,0.78404 -2.5618,1.67437 -3.8078,2.56196 -1.4011,0.99813 -2.754,2.06229 -4.131,3.09343 -9.8807,9.75074 -17.532,21.60496 -20.6463,35.28258 -1.7449,10.45891 -2.3763,21.00508 -1.3524,31.58758 0,0 -45.3017,23.08236 -45.3017,23.08236 z"
       id="path3048"
       style="fill:#000000;stroke-width:0.1;stroke-miterlimit:4;stroke-dasharray:none" />
    <g
       id="g3086"
       transform="matrix(-0.14746546,-0.98906721,0.98906721,-0.14746546,49.91452,1470.4977)">
      <path
         style="fill:#ff0000;stroke:#000000;stroke-width:0.51234472px;stroke-linecap:butt;stroke-linejoin:miter;stroke-opacity:1"
         d="m 1104.7414,302.51819 c 20.4713,-29.31425 51.4471,-41.12109 83.4389,-51.23447 10.2915,92.4422 12.2036,163.43287 26.3492,232.75087 -32.2579,-60.9934 -61.9262,-120.523 -109.7881,-181.5164 z"
         id="path3050"
         sodipodi:nodetypes="cccc" />
      <path
         id="path3052"
         d="m 1189.6442,265.92214 -71.7283,54.16215"
         style="fill:none;stroke:#000000;stroke-width:0.51234472px;stroke-linecap:butt;stroke-linejoin:miter;stroke-opacity:1" />
      <path
         id="path3054"
         d="m 1119.3798,327.4035 70.2644,-46.84294"
         style="fill:none;stroke:#000000;stroke-width:0.51234472px;stroke-linecap:butt;stroke-linejoin:miter;stroke-opacity:1" />
      <path
         id="path3056"
         d="m 1138.4097,350.82499 55.626,-27.81301"
         style="fill:none;stroke:#000000;stroke-width:0.51234472px;stroke-linecap:butt;stroke-linejoin:miter;stroke-opacity:1" />
      <path
         id="path3058"
         d="m 1196.9634,339.11424 -49.7706,24.88535"
         style="fill:#000000;stroke:#000000;stroke-width:0.51234472px;stroke-linecap:butt;stroke-linejoin:miter;stroke-opacity:1" />
      <path
         id="path3060"
         d="m 1121.036,322.13091 c -1.2266,-1.47802 6.062,-7.66616 32.6712,-27.73815 18.8375,-14.20964 34.646,-25.83571 35.1301,-25.83571 0.4841,0 0.8622,2.47023 0.8404,5.48941 l -0.04,5.48941 -33.5115,22.24874 c -26.3471,17.49217 -33.8491,21.84202 -35.0904,20.3463 z"
         style="fill:#000000;stroke-width:0.1;stroke-miterlimit:4;stroke-dasharray:none" />
      <path
         id="path3062"
         d="m 1144.4829,357.03579 c -1.6898,-2.8639 -3.0723,-5.4953 -3.0723,-5.8476 0,-0.3523 11.7817,-6.53828 26.1814,-13.7466 l 26.1814,-13.10604 0.8997,4.49826 c 1.9197,9.59836 2.2192,9.30967 -22.5046,21.68978 -12.8723,6.4456 -23.6763,11.7194 -24.0088,11.7194 -0.3325,0 -1.9871,-2.3433 -3.6768,-5.2072 z"
         style="fill:#000000;stroke-width:0.1;stroke-miterlimit:4;stroke-dasharray:none" />
      <path
         id="path3064"
         d="m 1199.8911,380.10179 -27.813,20.4938"
         style="fill:none;stroke:#000000;stroke-width:0.51234472px;stroke-linecap:butt;stroke-linejoin:miter;stroke-opacity:1" />
      <path
         id="path3066"
         d="m 1176.4696,413.77019 24.8853,-17.5661"
         style="fill:none;stroke:#000000;stroke-width:0.51234472px;stroke-linecap:butt;stroke-linejoin:miter;stroke-opacity:1" />
      <path
         id="path3068"
         d="m 1207.2103,434.26399 -13.1746,8.7831"
         style="fill:none;stroke:#000000;stroke-width:0.51234472px;stroke-linecap:butt;stroke-linejoin:miter;stroke-opacity:1" />
      <path
         id="path3070"
         d="m 1195.4996,450.36629 11.7107,-4.3916"
         style="fill:#000000;stroke:#000000;stroke-width:0.51234472px;stroke-linecap:butt;stroke-linejoin:miter;stroke-opacity:1" />
      <path
         id="path3072"
         d="m 1174.448,407.39879 c -3.1302,-5.299 -3.6739,-4.6025 13.4396,-17.214 l 12.0767,-8.8997 0,4.9976 c 0,2.7487 0.3115,5.8749 0.6922,6.9472 0.564,1.5885 -10.8455,10.7507 -21.9267,17.6077 -0.9599,0.594 -2.7478,-0.842 -4.2818,-3.4388 z"
         style="fill:#000000;stroke-width:0.1;stroke-miterlimit:4;stroke-dasharray:none" />
      <path
         id="path3074"
         d="m 1195.9787,446.09219 c -0.8475,-2.2085 1.4235,-4.6695 7.2792,-7.8882 1.9106,-1.0502 2.5617,-0.8673 2.5617,0.7194 0,1.1702 0.3545,3.0513 0.7878,4.1803 0.5319,1.3863 -0.9225,2.5776 -4.4797,3.6694 -4.4278,1.3589 -5.4079,1.2504 -6.149,-0.6809 z"
         style="fill:#000000;stroke-width:0.1;stroke-miterlimit:4;stroke-dasharray:none" />
      <path
         d="m 1102.2652,210.07408 c 11.6817,9.88214 24.3086,18.53658 36.6748,27.5185 8.733,6.36071 18.0669,12.47987 23.8257,21.8512 1.3383,2.3862 1.8369,4.98145 2.0965,7.66184 0,0 -23.0016,11.89681 -23.0016,11.89681 l 0,0 c -0.049,-2.34011 -0.2454,-4.63475 -1.2406,-6.79977 -4.794,-9.35151 -13.5305,-15.6356 -21.6454,-21.95101 -12.51,-9.24821 -25.2771,-18.19773 -38.5825,-26.27171 0,0 21.8731,-13.90586 21.8731,-13.90586 z"
         id="path3076"
         style="fill:#000000;stroke-width:0.1;stroke-miterlimit:4;stroke-dasharray:none" />
      <path
         d="m 1142.699,277.88694 c -6.1025,-5.80243 -13.9764,-9.22478 -21.7868,-12.05562 -11.9271,-3.60294 -24.4688,-4.14025 -36.8434,-4.17192 -5.557,0.0866 -11.1066,0.3934 -16.6521,0.7416 -2.7284,0.17131 -5.4332,0.0684 -7.8693,1.40589 3.0516,40.89288 14.1606,-16.02849 23.1299,-14.49697 1.0889,0.18592 2.1141,0.64218 3.178,0.93937 5.1067,1.42649 10.2101,2.85067 15.3045,4.32386 10.6637,3.70035 21.6095,6.49196 32.3091,10.07301 5.4484,1.35521 10.1558,4.52993 15.4917,6.18321 2.3398,0.62789 4.7648,0.67412 7.1697,0.71018 0,0 -21.0493,15.16239 -21.0493,15.16239 l 0,0 c -2.5655,-0.16871 -5.1249,-0.46606 -7.5382,-1.41815 -5.0085,-2.05992 -9.5697,-5.11868 -14.8266,-6.59189 -10.5047,-3.76164 -21.2644,-6.77862 -31.8892,-10.17678 -5.2606,-1.42066 -10.5094,-2.75208 -15.8481,-3.84788 -1.1576,-0.23762 -2.3429,-0.35769 -3.4789,-0.68314 -0.9247,-0.26487 -3.4039,-0.45159 -2.6757,-1.07996 6.5721,-5.67138 14.1978,-9.99261 21.2967,-14.98892 7.8924,-0.32389 15.788,-0.62577 23.6909,-0.58053 12.6645,0.13078 25.5256,0.70324 37.668,4.63832 8.2875,3.11981 16.3584,6.90541 23.4443,12.29425 0,0 -22.2252,13.61968 -22.2252,13.61968 z"
         id="path3078"
         style="fill:#000000;stroke-width:0.1;stroke-miterlimit:4;stroke-dasharray:none" />
      <path
         d="m 1145.9193,280.05413 c -11.3812,3.21008 -22.679,6.74238 -33.8416,10.64678 -12.4258,4.70161 -24.926,9.31764 -36.6043,15.70231 6.1818,-3.53296 12.3635,-7.06591 18.5453,-10.59887 0,0 -23.6376,9.10504 -23.6376,9.10504 l 0,0 c 8.2281,-4.74621 16.4562,-9.49242 24.6843,-14.23863 11.5801,-5.79074 23.7982,-10.13401 35.901,-14.68614 11.79,-4.09833 23.6771,-7.90861 35.5423,-11.78334 0,0 -20.5894,15.85285 -20.5894,15.85285 z"
         id="path3080"
         style="fill:#000000;stroke-width:0.1;stroke-miterlimit:4;stroke-dasharray:none" />
      <path
         d="m 1142.8811,271.61656 c -0.1941,-7.27644 -1.8186,-14.38903 -3.1295,-21.51372 -1.3902,-7.55558 -1.5597,-9.17802 -2.7322,-17.03932 -2.082,-15.20725 -3.6917,-30.47565 -5.0238,-45.76556 -0.3793,-4.88789 -0.2652,-2.59382 -0.3873,-6.87981 0,0 22.7526,-11.51645 22.7526,-11.51645 l 0,0 c -0.3537,4.28552 -0.2515,1.96725 -0.2134,6.95828 0.336,15.41948 1.3622,30.84124 3.8532,46.07735 2.2892,12.64216 5.1659,25.14296 7.792,37.71605 0,0 -22.9116,11.96318 -22.9116,11.96318 z"
         id="path3082"
         style="fill:#000000;stroke-width:0.1;stroke-miterlimit:4;stroke-dasharray:none" />
      <path
         d="m 1145.8346,273.71228 c 0.2448,-5.60234 0.2471,-11.18845 0.9832,-16.75569 1.4554,-7.32363 5.279,-13.81623 10.0128,-19.48884 8.1497,-7.9424 19.7038,-12.78487 29.1005,-18.11305 2.1656,-0.9342 1.161,-0.39906 3.0301,-1.57468 -34.813,21.18171 -22.1343,14.15553 -14.0088,5.9503 0,0 23.6062,-9.78804 23.6062,-9.78804 l 0,0 c -10.9491,10.99977 -6.7834,8.11307 -29.7463,20.10753 -7.9102,3.88776 -18.2717,10.61122 17.4222,-10.27863 0.5996,-0.3509 -1.2549,0.60084 -1.8515,0.95689 -0.673,0.4017 -1.3125,0.85785 -1.9509,1.31261 -0.7178,0.51138 -1.411,1.0566 -2.1165,1.5849 -5.0623,4.99574 -8.9824,11.06919 -10.578,18.07684 -0.894,5.35857 -1.2175,10.76184 -0.6929,16.18373 0,0 -23.2101,11.82613 -23.2101,11.82613 z"
         id="path3084"
         style="fill:#000000;stroke-width:0.1;stroke-miterlimit:4;stroke-dasharray:none" />
    </g>
    <g
       transform="matrix(0.5270074,-0.8498607,0.8498607,0.5270074,-666.48988,1024.3414)"
       id="g3106">
      <path
         sodipodi:nodetypes="cccc"
         id="path3108"
         d="m 1104.7414,302.51819 c 20.4713,-29.31425 51.4471,-41.12109 83.4389,-51.23447 10.2915,92.4422 12.2036,163.43287 26.3492,232.75087 -32.2579,-60.9934 -61.9262,-120.523 -109.7881,-181.5164 z"
         style="fill:#ff0000;stroke:#000000;stroke-width:0.51234472px;stroke-linecap:butt;stroke-linejoin:miter;stroke-opacity:1" />
      <path
         style="fill:none;stroke:#000000;stroke-width:0.51234472px;stroke-linecap:butt;stroke-linejoin:miter;stroke-opacity:1"
         d="m 1189.6442,265.92214 -71.7283,54.16215"
         id="path3110" />
      <path
         style="fill:none;stroke:#000000;stroke-width:0.51234472px;stroke-linecap:butt;stroke-linejoin:miter;stroke-opacity:1"
         d="m 1119.3798,327.4035 70.2644,-46.84294"
         id="path3112" />
      <path
         style="fill:none;stroke:#000000;stroke-width:0.51234472px;stroke-linecap:butt;stroke-linejoin:miter;stroke-opacity:1"
         d="m 1138.4097,350.82499 55.626,-27.81301"
         id="path3114" />
      <path
         style="fill:#000000;stroke:#000000;stroke-width:0.51234472px;stroke-linecap:butt;stroke-linejoin:miter;stroke-opacity:1"
         d="m 1196.9634,339.11424 -49.7706,24.88535"
         id="path3116" />
      <path
         style="fill:#000000;stroke-width:0.1;stroke-miterlimit:4;stroke-dasharray:none"
         d="m 1121.036,322.13091 c -1.2266,-1.47802 6.062,-7.66616 32.6712,-27.73815 18.8375,-14.20964 34.646,-25.83571 35.1301,-25.83571 0.4841,0 0.8622,2.47023 0.8404,5.48941 l -0.04,5.48941 -33.5115,22.24874 c -26.3471,17.49217 -33.8491,21.84202 -35.0904,20.3463 z"
         id="path3118" />
      <path
         style="fill:#000000;stroke-width:0.1;stroke-miterlimit:4;stroke-dasharray:none"
         d="m 1144.4829,357.03579 c -1.6898,-2.8639 -3.0723,-5.4953 -3.0723,-5.8476 0,-0.3523 11.7817,-6.53828 26.1814,-13.7466 l 26.1814,-13.10604 0.8997,4.49826 c 1.9197,9.59836 2.2192,9.30967 -22.5046,21.68978 -12.8723,6.4456 -23.6763,11.7194 -24.0088,11.7194 -0.3325,0 -1.9871,-2.3433 -3.6768,-5.2072 z"
         id="path3120" />
      <path
         style="fill:none;stroke:#000000;stroke-width:0.51234472px;stroke-linecap:butt;stroke-linejoin:miter;stroke-opacity:1"
         d="m 1199.8911,380.10179 -27.813,20.4938"
         id="path3122" />
      <path
         style="fill:none;stroke:#000000;stroke-width:0.51234472px;stroke-linecap:butt;stroke-linejoin:miter;stroke-opacity:1"
         d="m 1176.4696,413.77019 24.8853,-17.5661"
         id="path3124" />
      <path
         style="fill:none;stroke:#000000;stroke-width:0.51234472px;stroke-linecap:butt;stroke-linejoin:miter;stroke-opacity:1"
         d="m 1207.2103,434.26399 -13.1746,8.7831"
         id="path3126" />
      <path
         style="fill:#000000;stroke:#000000;stroke-width:0.51234472px;stroke-linecap:butt;stroke-linejoin:miter;stroke-opacity:1"
         d="m 1195.4996,450.36629 11.7107,-4.3916"
         id="path3128" />
      <path
         style="fill:#000000;stroke-width:0.1;stroke-miterlimit:4;stroke-dasharray:none"
         d="m 1174.448,407.39879 c -3.1302,-5.299 -3.6739,-4.6025 13.4396,-17.214 l 12.0767,-8.8997 0,4.9976 c 0,2.7487 0.3115,5.8749 0.6922,6.9472 0.564,1.5885 -10.8455,10.7507 -21.9267,17.6077 -0.9599,0.594 -2.7478,-0.842 -4.2818,-3.4388 z"
         id="path3130" />
      <path
         style="fill:#000000;stroke-width:0.1;stroke-miterlimit:4;stroke-dasharray:none"
         d="m 1195.9787,446.09219 c -0.8475,-2.2085 1.4235,-4.6695 7.2792,-7.8882 1.9106,-1.0502 2.5617,-0.8673 2.5617,0.7194 0,1.1702 0.3545,3.0513 0.7878,4.1803 0.5319,1.3863 -0.9225,2.5776 -4.4797,3.6694 -4.4278,1.3589 -5.4079,1.2504 -6.149,-0.6809 z"
         id="path3132" />
      <path
         style="fill:#000000;stroke-width:0.1;stroke-miterlimit:4;stroke-dasharray:none"
         id="path3134"
         d="m 1102.2652,210.07408 c 11.6817,9.88214 24.3086,18.53658 36.6748,27.5185 8.733,6.36071 18.0669,12.47987 23.8257,21.8512 1.3383,2.3862 1.8369,4.98145 2.0965,7.66184 0,0 -23.0016,11.89681 -23.0016,11.89681 l 0,0 c -0.049,-2.34011 -0.2454,-4.63475 -1.2406,-6.79977 -4.794,-9.35151 -13.5305,-15.6356 -21.6454,-21.95101 -12.51,-9.24821 -25.2771,-18.19773 -38.5825,-26.27171 0,0 21.8731,-13.90586 21.8731,-13.90586 z" />
      <path
         style="fill:#000000;stroke-width:0.1;stroke-miterlimit:4;stroke-dasharray:none"
         id="path3136"
         d="m 1142.699,277.88694 c -6.1025,-5.80243 -13.9764,-9.22478 -21.7868,-12.05562 -11.9271,-3.60294 -24.4688,-4.14025 -36.8434,-4.17192 -5.557,0.0866 -11.1066,0.3934 -16.6521,0.7416 -2.7284,0.17131 -5.4332,0.0684 -7.8693,1.40589 3.0516,40.89288 14.1606,-16.02849 23.1299,-14.49697 1.0889,0.18592 2.1141,0.64218 3.178,0.93937 5.1067,1.42649 10.2101,2.85067 15.3045,4.32386 10.6637,3.70035 21.6095,6.49196 32.3091,10.07301 5.4484,1.35521 10.1558,4.52993 15.4917,6.18321 2.3398,0.62789 4.7648,0.67412 7.1697,0.71018 0,0 -21.0493,15.16239 -21.0493,15.16239 l 0,0 c -2.5655,-0.16871 -5.1249,-0.46606 -7.5382,-1.41815 -5.0085,-2.05992 -9.5697,-5.11868 -14.8266,-6.59189 -10.5047,-3.76164 -21.2644,-6.77862 -31.8892,-10.17678 -5.2606,-1.42066 -10.5094,-2.75208 -15.8481,-3.84788 -1.1576,-0.23762 -2.3429,-0.35769 -3.4789,-0.68314 -0.9247,-0.26487 -3.4039,-0.45159 -2.6757,-1.07996 6.5721,-5.67138 14.1978,-9.99261 21.2967,-14.98892 7.8924,-0.32389 15.788,-0.62577 23.6909,-0.58053 12.6645,0.13078 25.5256,0.70324 37.668,4.63832 8.2875,3.11981 16.3584,6.90541 23.4443,12.29425 0,0 -22.2252,13.61968 -22.2252,13.61968 z" />
      <path
         style="fill:#000000;stroke-width:0.1;stroke-miterlimit:4;stroke-dasharray:none"
         id="path3138"
         d="m 1145.9193,280.05413 c -11.3812,3.21008 -22.679,6.74238 -33.8416,10.64678 -12.4258,4.70161 -24.926,9.31764 -36.6043,15.70231 6.1818,-3.53296 12.3635,-7.06591 18.5453,-10.59887 0,0 -23.6376,9.10504 -23.6376,9.10504 l 0,0 c 8.2281,-4.74621 16.4562,-9.49242 24.6843,-14.23863 11.5801,-5.79074 23.7982,-10.13401 35.901,-14.68614 11.79,-4.09833 23.6771,-7.90861 35.5423,-11.78334 0,0 -20.5894,15.85285 -20.5894,15.85285 z" />
      <path
         style="fill:#000000;stroke-width:0.1;stroke-miterlimit:4;stroke-dasharray:none"
         id="path3140"
         d="m 1142.8811,271.61656 c -0.1941,-7.27644 -1.8186,-14.38903 -3.1295,-21.51372 -1.3902,-7.55558 -1.5597,-9.17802 -2.7322,-17.03932 -2.082,-15.20725 -3.6917,-30.47565 -5.0238,-45.76556 -0.3793,-4.88789 -0.2652,-2.59382 -0.3873,-6.87981 0,0 22.7526,-11.51645 22.7526,-11.51645 l 0,0 c -0.3537,4.28552 -0.2515,1.96725 -0.2134,6.95828 0.336,15.41948 1.3622,30.84124 3.8532,46.07735 2.2892,12.64216 5.1659,25.14296 7.792,37.71605 0,0 -22.9116,11.96318 -22.9116,11.96318 z" />
      <path
         style="fill:#000000;stroke-width:0.1;stroke-miterlimit:4;stroke-dasharray:none"
         id="path3142"
         d="m 1145.8346,273.71228 c 0.2448,-5.60234 0.2471,-11.18845 0.9832,-16.75569 1.4554,-7.32363 5.279,-13.81623 10.0128,-19.48884 8.1497,-7.9424 19.7038,-12.78487 29.1005,-18.11305 2.1656,-0.9342 1.161,-0.39906 3.0301,-1.57468 -34.813,21.18171 -22.1343,14.15553 -14.0088,5.9503 0,0 23.6062,-9.78804 23.6062,-9.78804 l 0,0 c -10.9491,10.99977 -6.7834,8.11307 -29.7463,20.10753 -7.9102,3.88776 -18.2717,10.61122 17.4222,-10.27863 0.5996,-0.3509 -1.2549,0.60084 -1.8515,0.95689 -0.673,0.4017 -1.3125,0.85785 -1.9509,1.31261 -0.7178,0.51138 -1.411,1.0566 -2.1165,1.5849 -5.0623,4.99574 -8.9824,11.06919 -10.578,18.07684 -0.894,5.35857 -1.2175,10.76184 -0.6929,16.18373 0,0 -23.2101,11.82613 -23.2101,11.82613 z" />
    </g>
    <g
       id="g3144"
       transform="matrix(0.77820209,0.62801396,-0.62801396,0.77820209,-253.74779,-384.41832)">
      <path
         style="fill:#ff0000;stroke:#000000;stroke-width:0.51234472px;stroke-linecap:butt;stroke-linejoin:miter;stroke-opacity:1"
         d="m 1104.7414,302.51819 c 20.4713,-29.31425 51.4471,-41.12109 83.4389,-51.23447 10.2915,92.4422 12.2036,163.43287 26.3492,232.75087 -32.2579,-60.9934 -61.9262,-120.523 -109.7881,-181.5164 z"
         id="path3146"
         sodipodi:nodetypes="cccc" />
      <path
         id="path3148"
         d="m 1189.6442,265.92214 -71.7283,54.16215"
         style="fill:none;stroke:#000000;stroke-width:0.51234472px;stroke-linecap:butt;stroke-linejoin:miter;stroke-opacity:1" />
      <path
         id="path3150"
         d="m 1119.3798,327.4035 70.2644,-46.84294"
         style="fill:none;stroke:#000000;stroke-width:0.51234472px;stroke-linecap:butt;stroke-linejoin:miter;stroke-opacity:1" />
      <path
         id="path3152"
         d="m 1138.4097,350.82499 55.626,-27.81301"
         style="fill:none;stroke:#000000;stroke-width:0.51234472px;stroke-linecap:butt;stroke-linejoin:miter;stroke-opacity:1" />
      <path
         id="path3154"
         d="m 1196.9634,339.11424 -49.7706,24.88535"
         style="fill:#000000;stroke:#000000;stroke-width:0.51234472px;stroke-linecap:butt;stroke-linejoin:miter;stroke-opacity:1" />
      <path
         id="path3156"
         d="m 1121.036,322.13091 c -1.2266,-1.47802 6.062,-7.66616 32.6712,-27.73815 18.8375,-14.20964 34.646,-25.83571 35.1301,-25.83571 0.4841,0 0.8622,2.47023 0.8404,5.48941 l -0.04,5.48941 -33.5115,22.24874 c -26.3471,17.49217 -33.8491,21.84202 -35.0904,20.3463 z"
         style="fill:#000000;stroke-width:0.1;stroke-miterlimit:4;stroke-dasharray:none" />
      <path
         id="path3158"
         d="m 1144.4829,357.03579 c -1.6898,-2.8639 -3.0723,-5.4953 -3.0723,-5.8476 0,-0.3523 11.7817,-6.53828 26.1814,-13.7466 l 26.1814,-13.10604 0.8997,4.49826 c 1.9197,9.59836 2.2192,9.30967 -22.5046,21.68978 -12.8723,6.4456 -23.6763,11.7194 -24.0088,11.7194 -0.3325,0 -1.9871,-2.3433 -3.6768,-5.2072 z"
         style="fill:#000000;stroke-width:0.1;stroke-miterlimit:4;stroke-dasharray:none" />
      <path
         id="path3160"
         d="m 1199.8911,380.10179 -27.813,20.4938"
         style="fill:none;stroke:#000000;stroke-width:0.51234472px;stroke-linecap:butt;stroke-linejoin:miter;stroke-opacity:1" />
      <path
         id="path3162"
         d="m 1176.4696,413.77019 24.8853,-17.5661"
         style="fill:none;stroke:#000000;stroke-width:0.51234472px;stroke-linecap:butt;stroke-linejoin:miter;stroke-opacity:1" />
      <path
         id="path3164"
         d="m 1207.2103,434.26399 -13.1746,8.7831"
         style="fill:none;stroke:#000000;stroke-width:0.51234472px;stroke-linecap:butt;stroke-linejoin:miter;stroke-opacity:1" />
      <path
         id="path3166"
         d="m 1195.4996,450.36629 11.7107,-4.3916"
         style="fill:#000000;stroke:#000000;stroke-width:0.51234472px;stroke-linecap:butt;stroke-linejoin:miter;stroke-opacity:1" />
      <path
         id="path3168"
         d="m 1174.448,407.39879 c -3.1302,-5.299 -3.6739,-4.6025 13.4396,-17.214 l 12.0767,-8.8997 0,4.9976 c 0,2.7487 0.3115,5.8749 0.6922,6.9472 0.564,1.5885 -10.8455,10.7507 -21.9267,17.6077 -0.9599,0.594 -2.7478,-0.842 -4.2818,-3.4388 z"
         style="fill:#000000;stroke-width:0.1;stroke-miterlimit:4;stroke-dasharray:none" />
      <path
         id="path3170"
         d="m 1195.9787,446.09219 c -0.8475,-2.2085 1.4235,-4.6695 7.2792,-7.8882 1.9106,-1.0502 2.5617,-0.8673 2.5617,0.7194 0,1.1702 0.3545,3.0513 0.7878,4.1803 0.5319,1.3863 -0.9225,2.5776 -4.4797,3.6694 -4.4278,1.3589 -5.4079,1.2504 -6.149,-0.6809 z"
         style="fill:#000000;stroke-width:0.1;stroke-miterlimit:4;stroke-dasharray:none" />
      <path
         d="m 1102.2652,210.07408 c 11.6817,9.88214 24.3086,18.53658 36.6748,27.5185 8.733,6.36071 18.0669,12.47987 23.8257,21.8512 1.3383,2.3862 1.8369,4.98145 2.0965,7.66184 0,0 -23.0016,11.89681 -23.0016,11.89681 l 0,0 c -0.049,-2.34011 -0.2454,-4.63475 -1.2406,-6.79977 -4.794,-9.35151 -13.5305,-15.6356 -21.6454,-21.95101 -12.51,-9.24821 -25.2771,-18.19773 -38.5825,-26.27171 0,0 21.8731,-13.90586 21.8731,-13.90586 z"
         id="path3172"
         style="fill:#000000;stroke-width:0.1;stroke-miterlimit:4;stroke-dasharray:none" />
      <path
         d="m 1142.699,277.88694 c -6.1025,-5.80243 -13.9764,-9.22478 -21.7868,-12.05562 -11.9271,-3.60294 -24.4688,-4.14025 -36.8434,-4.17192 -5.557,0.0866 -11.1066,0.3934 -16.6521,0.7416 -2.7284,0.17131 -5.4332,0.0684 -7.8693,1.40589 3.0516,40.89288 14.1606,-16.02849 23.1299,-14.49697 1.0889,0.18592 2.1141,0.64218 3.178,0.93937 5.1067,1.42649 10.2101,2.85067 15.3045,4.32386 10.6637,3.70035 21.6095,6.49196 32.3091,10.07301 5.4484,1.35521 10.1558,4.52993 15.4917,6.18321 2.3398,0.62789 4.7648,0.67412 7.1697,0.71018 0,0 -21.0493,15.16239 -21.0493,15.16239 l 0,0 c -2.5655,-0.16871 -5.1249,-0.46606 -7.5382,-1.41815 -5.0085,-2.05992 -9.5697,-5.11868 -14.8266,-6.59189 -10.5047,-3.76164 -21.2644,-6.77862 -31.8892,-10.17678 -5.2606,-1.42066 -10.5094,-2.75208 -15.8481,-3.84788 -1.1576,-0.23762 -2.3429,-0.35769 -3.4789,-0.68314 -0.9247,-0.26487 -3.4039,-0.45159 -2.6757,-1.07996 6.5721,-5.67138 14.1978,-9.99261 21.2967,-14.98892 7.8924,-0.32389 15.788,-0.62577 23.6909,-0.58053 12.6645,0.13078 25.5256,0.70324 37.668,4.63832 8.2875,3.11981 16.3584,6.90541 23.4443,12.29425 0,0 -22.2252,13.61968 -22.2252,13.61968 z"
         id="path3174"
         style="fill:#000000;stroke-width:0.1;stroke-miterlimit:4;stroke-dasharray:none" />
      <path
         d="m 1145.9193,280.05413 c -11.3812,3.21008 -22.679,6.74238 -33.8416,10.64678 -12.4258,4.70161 -24.926,9.31764 -36.6043,15.70231 6.1818,-3.53296 12.3635,-7.06591 18.5453,-10.59887 0,0 -23.6376,9.10504 -23.6376,9.10504 l 0,0 c 8.2281,-4.74621 16.4562,-9.49242 24.6843,-14.23863 11.5801,-5.79074 23.7982,-10.13401 35.901,-14.68614 11.79,-4.09833 23.6771,-7.90861 35.5423,-11.78334 0,0 -20.5894,15.85285 -20.5894,15.85285 z"
         id="path3176"
         style="fill:#000000;stroke-width:0.1;stroke-miterlimit:4;stroke-dasharray:none" />
      <path
         d="m 1142.8811,271.61656 c -0.1941,-7.27644 -1.8186,-14.38903 -3.1295,-21.51372 -1.3902,-7.55558 -1.5597,-9.17802 -2.7322,-17.03932 -2.082,-15.20725 -3.6917,-30.47565 -5.0238,-45.76556 -0.3793,-4.88789 -0.2652,-2.59382 -0.3873,-6.87981 0,0 22.7526,-11.51645 22.7526,-11.51645 l 0,0 c -0.3537,4.28552 -0.2515,1.96725 -0.2134,6.95828 0.336,15.41948 1.3622,30.84124 3.8532,46.07735 2.2892,12.64216 5.1659,25.14296 7.792,37.71605 0,0 -22.9116,11.96318 -22.9116,11.96318 z"
         id="path3178"
         style="fill:#000000;stroke-width:0.1;stroke-miterlimit:4;stroke-dasharray:none" />
      <path
         d="m 1145.8346,273.71228 c 0.2448,-5.60234 0.2471,-11.18845 0.9832,-16.75569 1.4554,-7.32363 5.279,-13.81623 10.0128,-19.48884 8.1497,-7.9424 19.7038,-12.78487 29.1005,-18.11305 2.1656,-0.9342 1.161,-0.39906 3.0301,-1.57468 -34.813,21.18171 -22.1343,14.15553 -14.0088,5.9503 0,0 23.6062,-9.78804 23.6062,-9.78804 l 0,0 c -10.9491,10.99977 -6.7834,8.11307 -29.7463,20.10753 -7.9102,3.88776 -18.2717,10.61122 17.4222,-10.27863 0.5996,-0.3509 -1.2549,0.60084 -1.8515,0.95689 -0.673,0.4017 -1.3125,0.85785 -1.9509,1.31261 -0.7178,0.51138 -1.411,1.0566 -2.1165,1.5849 -5.0623,4.99574 -8.9824,11.06919 -10.578,18.07684 -0.894,5.35857 -1.2175,10.76184 -0.6929,16.18373 0,0 -23.2101,11.82613 -23.2101,11.82613 z"
         id="path3180"
         style="fill:#000000;stroke-width:0.1;stroke-miterlimit:4;stroke-dasharray:none" />
    </g>
    <g
       transform="matrix(0.5270074,-0.8498607,0.8498607,0.5270074,-495.06131,1452.9128)"
       id="g3182">
      <path
         sodipodi:nodetypes="cccc"
         id="path3184"
         d="m 1104.7414,302.51819 c 20.4713,-29.31425 51.4471,-41.12109 83.4389,-51.23447 10.2915,92.4422 12.2036,163.43287 26.3492,232.75087 -32.2579,-60.9934 -61.9262,-120.523 -109.7881,-181.5164 z"
         style="fill:#ff0000;stroke:#000000;stroke-width:0.51234472px;stroke-linecap:butt;stroke-linejoin:miter;stroke-opacity:1" />
      <path
         style="fill:none;stroke:#000000;stroke-width:0.51234472px;stroke-linecap:butt;stroke-linejoin:miter;stroke-opacity:1"
         d="m 1189.6442,265.92214 -71.7283,54.16215"
         id="path3186" />
      <path
         style="fill:none;stroke:#000000;stroke-width:0.51234472px;stroke-linecap:butt;stroke-linejoin:miter;stroke-opacity:1"
         d="m 1119.3798,327.4035 70.2644,-46.84294"
         id="path3188" />
      <path
         style="fill:none;stroke:#000000;stroke-width:0.51234472px;stroke-linecap:butt;stroke-linejoin:miter;stroke-opacity:1"
         d="m 1138.4097,350.82499 55.626,-27.81301"
         id="path3190" />
      <path
         style="fill:#000000;stroke:#000000;stroke-width:0.51234472px;stroke-linecap:butt;stroke-linejoin:miter;stroke-opacity:1"
         d="m 1196.9634,339.11424 -49.7706,24.88535"
         id="path3192" />
      <path
         style="fill:#000000;stroke-width:0.1;stroke-miterlimit:4;stroke-dasharray:none"
         d="m 1121.036,322.13091 c -1.2266,-1.47802 6.062,-7.66616 32.6712,-27.73815 18.8375,-14.20964 34.646,-25.83571 35.1301,-25.83571 0.4841,0 0.8622,2.47023 0.8404,5.48941 l -0.04,5.48941 -33.5115,22.24874 c -26.3471,17.49217 -33.8491,21.84202 -35.0904,20.3463 z"
         id="path3194" />
      <path
         style="fill:#000000;stroke-width:0.1;stroke-miterlimit:4;stroke-dasharray:none"
         d="m 1144.4829,357.03579 c -1.6898,-2.8639 -3.0723,-5.4953 -3.0723,-5.8476 0,-0.3523 11.7817,-6.53828 26.1814,-13.7466 l 26.1814,-13.10604 0.8997,4.49826 c 1.9197,9.59836 2.2192,9.30967 -22.5046,21.68978 -12.8723,6.4456 -23.6763,11.7194 -24.0088,11.7194 -0.3325,0 -1.9871,-2.3433 -3.6768,-5.2072 z"
         id="path3196" />
      <path
         style="fill:none;stroke:#000000;stroke-width:0.51234472px;stroke-linecap:butt;stroke-linejoin:miter;stroke-opacity:1"
         d="m 1199.8911,380.10179 -27.813,20.4938"
         id="path3198" />
      <path
         style="fill:none;stroke:#000000;stroke-width:0.51234472px;stroke-linecap:butt;stroke-linejoin:miter;stroke-opacity:1"
         d="m 1176.4696,413.77019 24.8853,-17.5661"
         id="path3200" />
      <path
         style="fill:none;stroke:#000000;stroke-width:0.51234472px;stroke-linecap:butt;stroke-linejoin:miter;stroke-opacity:1"
         d="m 1207.2103,434.26399 -13.1746,8.7831"
         id="path3202" />
      <path
         style="fill:#000000;stroke:#000000;stroke-width:0.51234472px;stroke-linecap:butt;stroke-linejoin:miter;stroke-opacity:1"
         d="m 1195.4996,450.36629 11.7107,-4.3916"
         id="path3204" />
      <path
         style="fill:#000000;stroke-width:0.1;stroke-miterlimit:4;stroke-dasharray:none"
         d="m 1174.448,407.39879 c -3.1302,-5.299 -3.6739,-4.6025 13.4396,-17.214 l 12.0767,-8.8997 0,4.9976 c 0,2.7487 0.3115,5.8749 0.6922,6.9472 0.564,1.5885 -10.8455,10.7507 -21.9267,17.6077 -0.9599,0.594 -2.7478,-0.842 -4.2818,-3.4388 z"
         id="path3206" />
      <path
         style="fill:#000000;stroke-width:0.1;stroke-miterlimit:4;stroke-dasharray:none"
         d="m 1195.9787,446.09219 c -0.8475,-2.2085 1.4235,-4.6695 7.2792,-7.8882 1.9106,-1.0502 2.5617,-0.8673 2.5617,0.7194 0,1.1702 0.3545,3.0513 0.7878,4.1803 0.5319,1.3863 -0.9225,2.5776 -4.4797,3.6694 -4.4278,1.3589 -5.4079,1.2504 -6.149,-0.6809 z"
         id="path3208" />
      <path
         style="fill:#000000;stroke-width:0.1;stroke-miterlimit:4;stroke-dasharray:none"
         id="path3210"
         d="m 1102.2652,210.07408 c 11.6817,9.88214 24.3086,18.53658 36.6748,27.5185 8.733,6.36071 18.0669,12.47987 23.8257,21.8512 1.3383,2.3862 1.8369,4.98145 2.0965,7.66184 0,0 -23.0016,11.89681 -23.0016,11.89681 l 0,0 c -0.049,-2.34011 -0.2454,-4.63475 -1.2406,-6.79977 -4.794,-9.35151 -13.5305,-15.6356 -21.6454,-21.95101 -12.51,-9.24821 -25.2771,-18.19773 -38.5825,-26.27171 0,0 21.8731,-13.90586 21.8731,-13.90586 z" />
      <path
         style="fill:#000000;stroke-width:0.1;stroke-miterlimit:4;stroke-dasharray:none"
         id="path3212"
         d="m 1142.699,277.88694 c -6.1025,-5.80243 -13.9764,-9.22478 -21.7868,-12.05562 -11.9271,-3.60294 -24.4688,-4.14025 -36.8434,-4.17192 -5.557,0.0866 -11.1066,0.3934 -16.6521,0.7416 -2.7284,0.17131 -5.4332,0.0684 -7.8693,1.40589 3.0516,40.89288 14.1606,-16.02849 23.1299,-14.49697 1.0889,0.18592 2.1141,0.64218 3.178,0.93937 5.1067,1.42649 10.2101,2.85067 15.3045,4.32386 10.6637,3.70035 21.6095,6.49196 32.3091,10.07301 5.4484,1.35521 10.1558,4.52993 15.4917,6.18321 2.3398,0.62789 4.7648,0.67412 7.1697,0.71018 0,0 -21.0493,15.16239 -21.0493,15.16239 l 0,0 c -2.5655,-0.16871 -5.1249,-0.46606 -7.5382,-1.41815 -5.0085,-2.05992 -9.5697,-5.11868 -14.8266,-6.59189 -10.5047,-3.76164 -21.2644,-6.77862 -31.8892,-10.17678 -5.2606,-1.42066 -10.5094,-2.75208 -15.8481,-3.84788 -1.1576,-0.23762 -2.3429,-0.35769 -3.4789,-0.68314 -0.9247,-0.26487 -3.4039,-0.45159 -2.6757,-1.07996 6.5721,-5.67138 14.1978,-9.99261 21.2967,-14.98892 7.8924,-0.32389 15.788,-0.62577 23.6909,-0.58053 12.6645,0.13078 25.5256,0.70324 37.668,4.63832 8.2875,3.11981 16.3584,6.90541 23.4443,12.29425 0,0 -22.2252,13.61968 -22.2252,13.61968 z" />
      <path
         style="fill:#000000;stroke-width:0.1;stroke-miterlimit:4;stroke-dasharray:none"
         id="path3214"
         d="m 1145.9193,280.05413 c -11.3812,3.21008 -22.679,6.74238 -33.8416,10.64678 -12.4258,4.70161 -24.926,9.31764 -36.6043,15.70231 6.1818,-3.53296 12.3635,-7.06591 18.5453,-10.59887 0,0 -23.6376,9.10504 -23.6376,9.10504 l 0,0 c 8.2281,-4.74621 16.4562,-9.49242 24.6843,-14.23863 11.5801,-5.79074 23.7982,-10.13401 35.901,-14.68614 11.79,-4.09833 23.6771,-7.90861 35.5423,-11.78334 0,0 -20.5894,15.85285 -20.5894,15.85285 z" />
      <path
         style="fill:#000000;stroke-width:0.1;stroke-miterlimit:4;stroke-dasharray:none"
         id="path3216"
         d="m 1142.8811,271.61656 c -0.1941,-7.27644 -1.8186,-14.38903 -3.1295,-21.51372 -1.3902,-7.55558 -1.5597,-9.17802 -2.7322,-17.03932 -2.082,-15.20725 -3.6917,-30.47565 -5.0238,-45.76556 -0.3793,-4.88789 -0.2652,-2.59382 -0.3873,-6.87981 0,0 22.7526,-11.51645 22.7526,-11.51645 l 0,0 c -0.3537,4.28552 -0.2515,1.96725 -0.2134,6.95828 0.336,15.41948 1.3622,30.84124 3.8532,46.07735 2.2892,12.64216 5.1659,25.14296 7.792,37.71605 0,0 -22.9116,11.96318 -22.9116,11.96318 z" />
      <path
         style="fill:#000000;stroke-width:0.1;stroke-miterlimit:4;stroke-dasharray:none"
         id="path3218"
         d="m 1145.8346,273.71228 c 0.2448,-5.60234 0.2471,-11.18845 0.9832,-16.75569 1.4554,-7.32363 5.279,-13.81623 10.0128,-19.48884 8.1497,-7.9424 19.7038,-12.78487 29.1005,-18.11305 2.1656,-0.9342 1.161,-0.39906 3.0301,-1.57468 -34.813,21.18171 -22.1343,14.15553 -14.0088,5.9503 0,0 23.6062,-9.78804 23.6062,-9.78804 l 0,0 c -10.9491,10.99977 -6.7834,8.11307 -29.7463,20.10753 -7.9102,3.88776 -18.2717,10.61122 17.4222,-10.27863 0.5996,-0.3509 -1.2549,0.60084 -1.8515,0.95689 -0.673,0.4017 -1.3125,0.85785 -1.9509,1.31261 -0.7178,0.51138 -1.411,1.0566 -2.1165,1.5849 -5.0623,4.99574 -8.9824,11.06919 -10.578,18.07684 -0.894,5.35857 -1.2175,10.76184 -0.6929,16.18373 0,0 -23.2101,11.82613 -23.2101,11.82613 z" />
    </g>
    <g
       transform="matrix(0.71321761,0.70094269,-0.70094269,0.71321761,10.734501,-889.34646)"
       id="g3220">
      <path
         sodipodi:nodetypes="cccc"
         id="path3222"
         d="m 1104.7414,302.51819 c 20.4713,-29.31425 51.4471,-41.12109 83.4389,-51.23447 10.2915,92.4422 12.2036,163.43287 26.3492,232.75087 -32.2579,-60.9934 -61.9262,-120.523 -109.7881,-181.5164 z"
         style="fill:#ff0000;stroke:#000000;stroke-width:0.51234472px;stroke-linecap:butt;stroke-linejoin:miter;stroke-opacity:1" />
      <path
         style="fill:none;stroke:#000000;stroke-width:0.51234472px;stroke-linecap:butt;stroke-linejoin:miter;stroke-opacity:1"
         d="m 1189.6442,265.92214 -71.7283,54.16215"
         id="path3224" />
      <path
         style="fill:none;stroke:#000000;stroke-width:0.51234472px;stroke-linecap:butt;stroke-linejoin:miter;stroke-opacity:1"
         d="m 1119.3798,327.4035 70.2644,-46.84294"
         id="path3226" />
      <path
         style="fill:none;stroke:#000000;stroke-width:0.51234472px;stroke-linecap:butt;stroke-linejoin:miter;stroke-opacity:1"
         d="m 1138.4097,350.82499 55.626,-27.81301"
         id="path3228" />
      <path
         style="fill:#000000;stroke:#000000;stroke-width:0.51234472px;stroke-linecap:butt;stroke-linejoin:miter;stroke-opacity:1"
         d="m 1196.9634,339.11424 -49.7706,24.88535"
         id="path3230" />
      <path
         style="fill:#000000;stroke-width:0.1;stroke-miterlimit:4;stroke-dasharray:none"
         d="m 1121.036,322.13091 c -1.2266,-1.47802 6.062,-7.66616 32.6712,-27.73815 18.8375,-14.20964 34.646,-25.83571 35.1301,-25.83571 0.4841,0 0.8622,2.47023 0.8404,5.48941 l -0.04,5.48941 -33.5115,22.24874 c -26.3471,17.49217 -33.8491,21.84202 -35.0904,20.3463 z"
         id="path3232" />
      <path
         style="fill:#000000;stroke-width:0.1;stroke-miterlimit:4;stroke-dasharray:none"
         d="m 1144.4829,357.03579 c -1.6898,-2.8639 -3.0723,-5.4953 -3.0723,-5.8476 0,-0.3523 11.7817,-6.53828 26.1814,-13.7466 l 26.1814,-13.10604 0.8997,4.49826 c 1.9197,9.59836 2.2192,9.30967 -22.5046,21.68978 -12.8723,6.4456 -23.6763,11.7194 -24.0088,11.7194 -0.3325,0 -1.9871,-2.3433 -3.6768,-5.2072 z"
         id="path3234" />
      <path
         style="fill:none;stroke:#000000;stroke-width:0.51234472px;stroke-linecap:butt;stroke-linejoin:miter;stroke-opacity:1"
         d="m 1199.8911,380.10179 -27.813,20.4938"
         id="path3236" />
      <path
         style="fill:none;stroke:#000000;stroke-width:0.51234472px;stroke-linecap:butt;stroke-linejoin:miter;stroke-opacity:1"
         d="m 1176.4696,413.77019 24.8853,-17.5661"
         id="path3238" />
      <path
         style="fill:none;stroke:#000000;stroke-width:0.51234472px;stroke-linecap:butt;stroke-linejoin:miter;stroke-opacity:1"
         d="m 1207.2103,434.26399 -13.1746,8.7831"
         id="path3240" />
      <path
         style="fill:#000000;stroke:#000000;stroke-width:0.51234472px;stroke-linecap:butt;stroke-linejoin:miter;stroke-opacity:1"
         d="m 1195.4996,450.36629 11.7107,-4.3916"
         id="path3242" />
      <path
         style="fill:#000000;stroke-width:0.1;stroke-miterlimit:4;stroke-dasharray:none"
         d="m 1174.448,407.39879 c -3.1302,-5.299 -3.6739,-4.6025 13.4396,-17.214 l 12.0767,-8.8997 0,4.9976 c 0,2.7487 0.3115,5.8749 0.6922,6.9472 0.564,1.5885 -10.8455,10.7507 -21.9267,17.6077 -0.9599,0.594 -2.7478,-0.842 -4.2818,-3.4388 z"
         id="path3244" />
      <path
         style="fill:#000000;stroke-width:0.1;stroke-miterlimit:4;stroke-dasharray:none"
         d="m 1195.9787,446.09219 c -0.8475,-2.2085 1.4235,-4.6695 7.2792,-7.8882 1.9106,-1.0502 2.5617,-0.8673 2.5617,0.7194 0,1.1702 0.3545,3.0513 0.7878,4.1803 0.5319,1.3863 -0.9225,2.5776 -4.4797,3.6694 -4.4278,1.3589 -5.4079,1.2504 -6.149,-0.6809 z"
         id="path3246" />
      <path
         style="fill:#000000;stroke-width:0.1;stroke-miterlimit:4;stroke-dasharray:none"
         id="path3248"
         d="m 1102.2652,210.07408 c 11.6817,9.88214 24.3086,18.53658 36.6748,27.5185 8.733,6.36071 18.0669,12.47987 23.8257,21.8512 1.3383,2.3862 1.8369,4.98145 2.0965,7.66184 0,0 -23.0016,11.89681 -23.0016,11.89681 l 0,0 c -0.049,-2.34011 -0.2454,-4.63475 -1.2406,-6.79977 -4.794,-9.35151 -13.5305,-15.6356 -21.6454,-21.95101 -12.51,-9.24821 -25.2771,-18.19773 -38.5825,-26.27171 0,0 21.8731,-13.90586 21.8731,-13.90586 z" />
      <path
         style="fill:#000000;stroke-width:0.1;stroke-miterlimit:4;stroke-dasharray:none"
         id="path3250"
         d="m 1142.699,277.88694 c -6.1025,-5.80243 -13.9764,-9.22478 -21.7868,-12.05562 -11.9271,-3.60294 -24.4688,-4.14025 -36.8434,-4.17192 -5.557,0.0866 -11.1066,0.3934 -16.6521,0.7416 -2.7284,0.17131 -5.4332,0.0684 -7.8693,1.40589 3.0516,40.89288 14.1606,-16.02849 23.1299,-14.49697 1.0889,0.18592 2.1141,0.64218 3.178,0.93937 5.1067,1.42649 10.2101,2.85067 15.3045,4.32386 10.6637,3.70035 21.6095,6.49196 32.3091,10.07301 5.4484,1.35521 10.1558,4.52993 15.4917,6.18321 2.3398,0.62789 4.7648,0.67412 7.1697,0.71018 0,0 -21.0493,15.16239 -21.0493,15.16239 l 0,0 c -2.5655,-0.16871 -5.1249,-0.46606 -7.5382,-1.41815 -5.0085,-2.05992 -9.5697,-5.11868 -14.8266,-6.59189 -10.5047,-3.76164 -21.2644,-6.77862 -31.8892,-10.17678 -5.2606,-1.42066 -10.5094,-2.75208 -15.8481,-3.84788 -1.1576,-0.23762 -2.3429,-0.35769 -3.4789,-0.68314 -0.9247,-0.26487 -3.4039,-0.45159 -2.6757,-1.07996 6.5721,-5.67138 14.1978,-9.99261 21.2967,-14.98892 7.8924,-0.32389 15.788,-0.62577 23.6909,-0.58053 12.6645,0.13078 25.5256,0.70324 37.668,4.63832 8.2875,3.11981 16.3584,6.90541 23.4443,12.29425 0,0 -22.2252,13.61968 -22.2252,13.61968 z" />
      <path
         style="fill:#000000;stroke-width:0.1;stroke-miterlimit:4;stroke-dasharray:none"
         id="path3252"
         d="m 1145.9193,280.05413 c -11.3812,3.21008 -22.679,6.74238 -33.8416,10.64678 -12.4258,4.70161 -24.926,9.31764 -36.6043,15.70231 6.1818,-3.53296 12.3635,-7.06591 18.5453,-10.59887 0,0 -23.6376,9.10504 -23.6376,9.10504 l 0,0 c 8.2281,-4.74621 16.4562,-9.49242 24.6843,-14.23863 11.5801,-5.79074 23.7982,-10.13401 35.901,-14.68614 11.79,-4.09833 23.6771,-7.90861 35.5423,-11.78334 0,0 -20.5894,15.85285 -20.5894,15.85285 z" />
      <path
         style="fill:#000000;stroke-width:0.1;stroke-miterlimit:4;stroke-dasharray:none"
         id="path3254"
         d="m 1142.8811,271.61656 c -0.1941,-7.27644 -1.8186,-14.38903 -3.1295,-21.51372 -1.3902,-7.55558 -1.5597,-9.17802 -2.7322,-17.03932 -2.082,-15.20725 -3.6917,-30.47565 -5.0238,-45.76556 -0.3793,-4.88789 -0.2652,-2.59382 -0.3873,-6.87981 0,0 22.7526,-11.51645 22.7526,-11.51645 l 0,0 c -0.3537,4.28552 -0.2515,1.96725 -0.2134,6.95828 0.336,15.41948 1.3622,30.84124 3.8532,46.07735 2.2892,12.64216 5.1659,25.14296 7.792,37.71605 0,0 -22.9116,11.96318 -22.9116,11.96318 z" />
      <path
         style="fill:#000000;stroke-width:0.1;stroke-miterlimit:4;stroke-dasharray:none"
         id="path3256"
         d="m 1145.8346,273.71228 c 0.2448,-5.60234 0.2471,-11.18845 0.9832,-16.75569 1.4554,-7.32363 5.279,-13.81623 10.0128,-19.48884 8.1497,-7.9424 19.7038,-12.78487 29.1005,-18.11305 2.1656,-0.9342 1.161,-0.39906 3.0301,-1.57468 -34.813,21.18171 -22.1343,14.15553 -14.0088,5.9503 0,0 23.6062,-9.78804 23.6062,-9.78804 l 0,0 c -10.9491,10.99977 -6.7834,8.11307 -29.7463,20.10753 -7.9102,3.88776 -18.2717,10.61122 17.4222,-10.27863 0.5996,-0.3509 -1.2549,0.60084 -1.8515,0.95689 -0.673,0.4017 -1.3125,0.85785 -1.9509,1.31261 -0.7178,0.51138 -1.411,1.0566 -2.1165,1.5849 -5.0623,4.99574 -8.9824,11.06919 -10.578,18.07684 -0.894,5.35857 -1.2175,10.76184 -0.6929,16.18373 0,0 -23.2101,11.82613 -23.2101,11.82613 z" />
    </g>
    <g
       id="g3258"
       transform="matrix(0.23661028,0.97160464,-0.97160464,0.23661028,629.84151,-959.72459)">
      <path
         style="fill:#ff0000;stroke:#000000;stroke-width:0.51234472px;stroke-linecap:butt;stroke-linejoin:miter;stroke-opacity:1"
         d="m 1104.7414,302.51819 c 20.4713,-29.31425 51.4471,-41.12109 83.4389,-51.23447 10.2915,92.4422 12.2036,163.43287 26.3492,232.75087 -32.2579,-60.9934 -61.9262,-120.523 -109.7881,-181.5164 z"
         id="path3260"
         sodipodi:nodetypes="cccc" />
      <path
         id="path3262"
         d="m 1189.6442,265.92214 -71.7283,54.16215"
         style="fill:none;stroke:#000000;stroke-width:0.51234472px;stroke-linecap:butt;stroke-linejoin:miter;stroke-opacity:1" />
      <path
         id="path3264"
         d="m 1119.3798,327.4035 70.2644,-46.84294"
         style="fill:none;stroke:#000000;stroke-width:0.51234472px;stroke-linecap:butt;stroke-linejoin:miter;stroke-opacity:1" />
      <path
         id="path3266"
         d="m 1138.4097,350.82499 55.626,-27.81301"
         style="fill:none;stroke:#000000;stroke-width:0.51234472px;stroke-linecap:butt;stroke-linejoin:miter;stroke-opacity:1" />
      <path
         id="path3268"
         d="m 1196.9634,339.11424 -49.7706,24.88535"
         style="fill:#000000;stroke:#000000;stroke-width:0.51234472px;stroke-linecap:butt;stroke-linejoin:miter;stroke-opacity:1" />
      <path
         id="path3270"
         d="m 1121.036,322.13091 c -1.2266,-1.47802 6.062,-7.66616 32.6712,-27.73815 18.8375,-14.20964 34.646,-25.83571 35.1301,-25.83571 0.4841,0 0.8622,2.47023 0.8404,5.48941 l -0.04,5.48941 -33.5115,22.24874 c -26.3471,17.49217 -33.8491,21.84202 -35.0904,20.3463 z"
         style="fill:#000000;stroke-width:0.1;stroke-miterlimit:4;stroke-dasharray:none" />
      <path
         id="path3272"
         d="m 1144.4829,357.03579 c -1.6898,-2.8639 -3.0723,-5.4953 -3.0723,-5.8476 0,-0.3523 11.7817,-6.53828 26.1814,-13.7466 l 26.1814,-13.10604 0.8997,4.49826 c 1.9197,9.59836 2.2192,9.30967 -22.5046,21.68978 -12.8723,6.4456 -23.6763,11.7194 -24.0088,11.7194 -0.3325,0 -1.9871,-2.3433 -3.6768,-5.2072 z"
         style="fill:#000000;stroke-width:0.1;stroke-miterlimit:4;stroke-dasharray:none" />
      <path
         id="path3274"
         d="m 1199.8911,380.10179 -27.813,20.4938"
         style="fill:none;stroke:#000000;stroke-width:0.51234472px;stroke-linecap:butt;stroke-linejoin:miter;stroke-opacity:1" />
      <path
         id="path3276"
         d="m 1176.4696,413.77019 24.8853,-17.5661"
         style="fill:none;stroke:#000000;stroke-width:0.51234472px;stroke-linecap:butt;stroke-linejoin:miter;stroke-opacity:1" />
      <path
         id="path3278"
         d="m 1207.2103,434.26399 -13.1746,8.7831"
         style="fill:none;stroke:#000000;stroke-width:0.51234472px;stroke-linecap:butt;stroke-linejoin:miter;stroke-opacity:1" />
      <path
         id="path3280"
         d="m 1195.4996,450.36629 11.7107,-4.3916"
         style="fill:#000000;stroke:#000000;stroke-width:0.51234472px;stroke-linecap:butt;stroke-linejoin:miter;stroke-opacity:1" />
      <path
         id="path3282"
         d="m 1174.448,407.39879 c -3.1302,-5.299 -3.6739,-4.6025 13.4396,-17.214 l 12.0767,-8.8997 0,4.9976 c 0,2.7487 0.3115,5.8749 0.6922,6.9472 0.564,1.5885 -10.8455,10.7507 -21.9267,17.6077 -0.9599,0.594 -2.7478,-0.842 -4.2818,-3.4388 z"
         style="fill:#000000;stroke-width:0.1;stroke-miterlimit:4;stroke-dasharray:none" />
      <path
         id="path3284"
         d="m 1195.9787,446.09219 c -0.8475,-2.2085 1.4235,-4.6695 7.2792,-7.8882 1.9106,-1.0502 2.5617,-0.8673 2.5617,0.7194 0,1.1702 0.3545,3.0513 0.7878,4.1803 0.5319,1.3863 -0.9225,2.5776 -4.4797,3.6694 -4.4278,1.3589 -5.4079,1.2504 -6.149,-0.6809 z"
         style="fill:#000000;stroke-width:0.1;stroke-miterlimit:4;stroke-dasharray:none" />
      <path
         d="m 1102.2652,210.07408 c 11.6817,9.88214 24.3086,18.53658 36.6748,27.5185 8.733,6.36071 18.0669,12.47987 23.8257,21.8512 1.3383,2.3862 1.8369,4.98145 2.0965,7.66184 0,0 -23.0016,11.89681 -23.0016,11.89681 l 0,0 c -0.049,-2.34011 -0.2454,-4.63475 -1.2406,-6.79977 -4.794,-9.35151 -13.5305,-15.6356 -21.6454,-21.95101 -12.51,-9.24821 -25.2771,-18.19773 -38.5825,-26.27171 0,0 21.8731,-13.90586 21.8731,-13.90586 z"
         id="path3286"
         style="fill:#000000;stroke-width:0.1;stroke-miterlimit:4;stroke-dasharray:none" />
      <path
         d="m 1142.699,277.88694 c -6.1025,-5.80243 -13.9764,-9.22478 -21.7868,-12.05562 -11.9271,-3.60294 -24.4688,-4.14025 -36.8434,-4.17192 -5.557,0.0866 -11.1066,0.3934 -16.6521,0.7416 -2.7284,0.17131 -5.4332,0.0684 -7.8693,1.40589 3.0516,40.89288 14.1606,-16.02849 23.1299,-14.49697 1.0889,0.18592 2.1141,0.64218 3.178,0.93937 5.1067,1.42649 10.2101,2.85067 15.3045,4.32386 10.6637,3.70035 21.6095,6.49196 32.3091,10.07301 5.4484,1.35521 10.1558,4.52993 15.4917,6.18321 2.3398,0.62789 4.7648,0.67412 7.1697,0.71018 0,0 -21.0493,15.16239 -21.0493,15.16239 l 0,0 c -2.5655,-0.16871 -5.1249,-0.46606 -7.5382,-1.41815 -5.0085,-2.05992 -9.5697,-5.11868 -14.8266,-6.59189 -10.5047,-3.76164 -21.2644,-6.77862 -31.8892,-10.17678 -5.2606,-1.42066 -10.5094,-2.75208 -15.8481,-3.84788 -1.1576,-0.23762 -2.3429,-0.35769 -3.4789,-0.68314 -0.9247,-0.26487 -3.4039,-0.45159 -2.6757,-1.07996 6.5721,-5.67138 14.1978,-9.99261 21.2967,-14.98892 7.8924,-0.32389 15.788,-0.62577 23.6909,-0.58053 12.6645,0.13078 25.5256,0.70324 37.668,4.63832 8.2875,3.11981 16.3584,6.90541 23.4443,12.29425 0,0 -22.2252,13.61968 -22.2252,13.61968 z"
         id="path3288"
         style="fill:#000000;stroke-width:0.1;stroke-miterlimit:4;stroke-dasharray:none" />
      <path
         d="m 1145.9193,280.05413 c -11.3812,3.21008 -22.679,6.74238 -33.8416,10.64678 -12.4258,4.70161 -24.926,9.31764 -36.6043,15.70231 6.1818,-3.53296 12.3635,-7.06591 18.5453,-10.59887 0,0 -23.6376,9.10504 -23.6376,9.10504 l 0,0 c 8.2281,-4.74621 16.4562,-9.49242 24.6843,-14.23863 11.5801,-5.79074 23.7982,-10.13401 35.901,-14.68614 11.79,-4.09833 23.6771,-7.90861 35.5423,-11.78334 0,0 -20.5894,15.85285 -20.5894,15.85285 z"
         id="path3290"
         style="fill:#000000;stroke-width:0.1;stroke-miterlimit:4;stroke-dasharray:none" />
      <path
         d="m 1142.8811,271.61656 c -0.1941,-7.27644 -1.8186,-14.38903 -3.1295,-21.51372 -1.3902,-7.55558 -1.5597,-9.17802 -2.7322,-17.03932 -2.082,-15.20725 -3.6917,-30.47565 -5.0238,-45.76556 -0.3793,-4.88789 -0.2652,-2.59382 -0.3873,-6.87981 0,0 22.7526,-11.51645 22.7526,-11.51645 l 0,0 c -0.3537,4.28552 -0.2515,1.96725 -0.2134,6.95828 0.336,15.41948 1.3622,30.84124 3.8532,46.07735 2.2892,12.64216 5.1659,25.14296 7.792,37.71605 0,0 -22.9116,11.96318 -22.9116,11.96318 z"
         id="path3292"
         style="fill:#000000;stroke-width:0.1;stroke-miterlimit:4;stroke-dasharray:none" />
      <path
         d="m 1145.8346,273.71228 c 0.2448,-5.60234 0.2471,-11.18845 0.9832,-16.75569 1.4554,-7.32363 5.279,-13.81623 10.0128,-19.48884 8.1497,-7.9424 19.7038,-12.78487 29.1005,-18.11305 2.1656,-0.9342 1.161,-0.39906 3.0301,-1.57468 -34.813,21.18171 -22.1343,14.15553 -14.0088,5.9503 0,0 23.6062,-9.78804 23.6062,-9.78804 l 0,0 c -10.9491,10.99977 -6.7834,8.11307 -29.7463,20.10753 -7.9102,3.88776 -18.2717,10.61122 17.4222,-10.27863 0.5996,-0.3509 -1.2549,0.60084 -1.8515,0.95689 -0.673,0.4017 -1.3125,0.85785 -1.9509,1.31261 -0.7178,0.51138 -1.411,1.0566 -2.1165,1.5849 -5.0623,4.99574 -8.9824,11.06919 -10.578,18.07684 -0.894,5.35857 -1.2175,10.76184 -0.6929,16.18373 0,0 -23.2101,11.82613 -23.2101,11.82613 z"
         id="path3294"
         style="fill:#000000;stroke-width:0.1;stroke-miterlimit:4;stroke-dasharray:none" />
    </g>
    <g
       id="g3296"
       transform="matrix(0.44863442,0.89371537,-0.89371537,0.44863442,287.8764,-567.99026)">
      <path
         style="fill:#ff0000;stroke:#000000;stroke-width:0.51234472px;stroke-linecap:butt;stroke-linejoin:miter;stroke-opacity:1"
         d="m 1104.7414,302.51819 c 20.4713,-29.31425 51.4471,-41.12109 83.4389,-51.23447 10.2915,92.4422 12.2036,163.43287 26.3492,232.75087 -32.2579,-60.9934 -61.9262,-120.523 -109.7881,-181.5164 z"
         id="path3298"
         sodipodi:nodetypes="cccc" />
      <path
         id="path3300"
         d="m 1189.6442,265.92214 -71.7283,54.16215"
         style="fill:none;stroke:#000000;stroke-width:0.51234472px;stroke-linecap:butt;stroke-linejoin:miter;stroke-opacity:1" />
      <path
         id="path3302"
         d="m 1119.3798,327.4035 70.2644,-46.84294"
         style="fill:none;stroke:#000000;stroke-width:0.51234472px;stroke-linecap:butt;stroke-linejoin:miter;stroke-opacity:1" />
      <path
         id="path3304"
         d="m 1138.4097,350.82499 55.626,-27.81301"
         style="fill:none;stroke:#000000;stroke-width:0.51234472px;stroke-linecap:butt;stroke-linejoin:miter;stroke-opacity:1" />
      <path
         id="path3306"
         d="m 1196.9634,339.11424 -49.7706,24.88535"
         style="fill:#000000;stroke:#000000;stroke-width:0.51234472px;stroke-linecap:butt;stroke-linejoin:miter;stroke-opacity:1" />
      <path
         id="path3308"
         d="m 1121.036,322.13091 c -1.2266,-1.47802 6.062,-7.66616 32.6712,-27.73815 18.8375,-14.20964 34.646,-25.83571 35.1301,-25.83571 0.4841,0 0.8622,2.47023 0.8404,5.48941 l -0.04,5.48941 -33.5115,22.24874 c -26.3471,17.49217 -33.8491,21.84202 -35.0904,20.3463 z"
         style="fill:#000000;stroke-width:0.1;stroke-miterlimit:4;stroke-dasharray:none" />
      <path
         id="path3310"
         d="m 1144.4829,357.03579 c -1.6898,-2.8639 -3.0723,-5.4953 -3.0723,-5.8476 0,-0.3523 11.7817,-6.53828 26.1814,-13.7466 l 26.1814,-13.10604 0.8997,4.49826 c 1.9197,9.59836 2.2192,9.30967 -22.5046,21.68978 -12.8723,6.4456 -23.6763,11.7194 -24.0088,11.7194 -0.3325,0 -1.9871,-2.3433 -3.6768,-5.2072 z"
         style="fill:#000000;stroke-width:0.1;stroke-miterlimit:4;stroke-dasharray:none" />
      <path
         id="path3312"
         d="m 1199.8911,380.10179 -27.813,20.4938"
         style="fill:none;stroke:#000000;stroke-width:0.51234472px;stroke-linecap:butt;stroke-linejoin:miter;stroke-opacity:1" />
      <path
         id="path3314"
         d="m 1176.4696,413.77019 24.8853,-17.5661"
         style="fill:none;stroke:#000000;stroke-width:0.51234472px;stroke-linecap:butt;stroke-linejoin:miter;stroke-opacity:1" />
      <path
         id="path3316"
         d="m 1207.2103,434.26399 -13.1746,8.7831"
         style="fill:none;stroke:#000000;stroke-width:0.51234472px;stroke-linecap:butt;stroke-linejoin:miter;stroke-opacity:1" />
      <path
         id="path3318"
         d="m 1195.4996,450.36629 11.7107,-4.3916"
         style="fill:#000000;stroke:#000000;stroke-width:0.51234472px;stroke-linecap:butt;stroke-linejoin:miter;stroke-opacity:1" />
      <path
         id="path3320"
         d="m 1174.448,407.39879 c -3.1302,-5.299 -3.6739,-4.6025 13.4396,-17.214 l 12.0767,-8.8997 0,4.9976 c 0,2.7487 0.3115,5.8749 0.6922,6.9472 0.564,1.5885 -10.8455,10.7507 -21.9267,17.6077 -0.9599,0.594 -2.7478,-0.842 -4.2818,-3.4388 z"
         style="fill:#000000;stroke-width:0.1;stroke-miterlimit:4;stroke-dasharray:none" />
      <path
         id="path3322"
         d="m 1195.9787,446.09219 c -0.8475,-2.2085 1.4235,-4.6695 7.2792,-7.8882 1.9106,-1.0502 2.5617,-0.8673 2.5617,0.7194 0,1.1702 0.3545,3.0513 0.7878,4.1803 0.5319,1.3863 -0.9225,2.5776 -4.4797,3.6694 -4.4278,1.3589 -5.4079,1.2504 -6.149,-0.6809 z"
         style="fill:#000000;stroke-width:0.1;stroke-miterlimit:4;stroke-dasharray:none" />
      <path
         d="m 1102.2652,210.07408 c 11.6817,9.88214 24.3086,18.53658 36.6748,27.5185 8.733,6.36071 18.0669,12.47987 23.8257,21.8512 1.3383,2.3862 1.8369,4.98145 2.0965,7.66184 0,0 -23.0016,11.89681 -23.0016,11.89681 l 0,0 c -0.049,-2.34011 -0.2454,-4.63475 -1.2406,-6.79977 -4.794,-9.35151 -13.5305,-15.6356 -21.6454,-21.95101 -12.51,-9.24821 -25.2771,-18.19773 -38.5825,-26.27171 0,0 21.8731,-13.90586 21.8731,-13.90586 z"
         id="path3324"
         style="fill:#000000;stroke-width:0.1;stroke-miterlimit:4;stroke-dasharray:none" />
      <path
         d="m 1142.699,277.88694 c -6.1025,-5.80243 -13.9764,-9.22478 -21.7868,-12.05562 -11.9271,-3.60294 -24.4688,-4.14025 -36.8434,-4.17192 -5.557,0.0866 -11.1066,0.3934 -16.6521,0.7416 -2.7284,0.17131 -5.4332,0.0684 -7.8693,1.40589 3.0516,40.89288 14.1606,-16.02849 23.1299,-14.49697 1.0889,0.18592 2.1141,0.64218 3.178,0.93937 5.1067,1.42649 10.2101,2.85067 15.3045,4.32386 10.6637,3.70035 21.6095,6.49196 32.3091,10.07301 5.4484,1.35521 10.1558,4.52993 15.4917,6.18321 2.3398,0.62789 4.7648,0.67412 7.1697,0.71018 0,0 -21.0493,15.16239 -21.0493,15.16239 l 0,0 c -2.5655,-0.16871 -5.1249,-0.46606 -7.5382,-1.41815 -5.0085,-2.05992 -9.5697,-5.11868 -14.8266,-6.59189 -10.5047,-3.76164 -21.2644,-6.77862 -31.8892,-10.17678 -5.2606,-1.42066 -10.5094,-2.75208 -15.8481,-3.84788 -1.1576,-0.23762 -2.3429,-0.35769 -3.4789,-0.68314 -0.9247,-0.26487 -3.4039,-0.45159 -2.6757,-1.07996 6.5721,-5.67138 14.1978,-9.99261 21.2967,-14.98892 7.8924,-0.32389 15.788,-0.62577 23.6909,-0.58053 12.6645,0.13078 25.5256,0.70324 37.668,4.63832 8.2875,3.11981 16.3584,6.90541 23.4443,12.29425 0,0 -22.2252,13.61968 -22.2252,13.61968 z"
         id="path3326"
         style="fill:#000000;stroke-width:0.1;stroke-miterlimit:4;stroke-dasharray:none" />
      <path
         d="m 1145.9193,280.05413 c -11.3812,3.21008 -22.679,6.74238 -33.8416,10.64678 -12.4258,4.70161 -24.926,9.31764 -36.6043,15.70231 6.1818,-3.53296 12.3635,-7.06591 18.5453,-10.59887 0,0 -23.6376,9.10504 -23.6376,9.10504 l 0,0 c 8.2281,-4.74621 16.4562,-9.49242 24.6843,-14.23863 11.5801,-5.79074 23.7982,-10.13401 35.901,-14.68614 11.79,-4.09833 23.6771,-7.90861 35.5423,-11.78334 0,0 -20.5894,15.85285 -20.5894,15.85285 z"
         id="path3328"
         style="fill:#000000;stroke-width:0.1;stroke-miterlimit:4;stroke-dasharray:none" />
      <path
         d="m 1142.8811,271.61656 c -0.1941,-7.27644 -1.8186,-14.38903 -3.1295,-21.51372 -1.3902,-7.55558 -1.5597,-9.17802 -2.7322,-17.03932 -2.082,-15.20725 -3.6917,-30.47565 -5.0238,-45.76556 -0.3793,-4.88789 -0.2652,-2.59382 -0.3873,-6.87981 0,0 22.7526,-11.51645 22.7526,-11.51645 l 0,0 c -0.3537,4.28552 -0.2515,1.96725 -0.2134,6.95828 0.336,15.41948 1.3622,30.84124 3.8532,46.07735 2.2892,12.64216 5.1659,25.14296 7.792,37.71605 0,0 -22.9116,11.96318 -22.9116,11.96318 z"
         id="path3330"
         style="fill:#000000;stroke-width:0.1;stroke-miterlimit:4;stroke-dasharray:none" />
      <path
         d="m 1145.8346,273.71228 c 0.2448,-5.60234 0.2471,-11.18845 0.9832,-16.75569 1.4554,-7.32363 5.279,-13.81623 10.0128,-19.48884 8.1497,-7.9424 19.7038,-12.78487 29.1005,-18.11305 2.1656,-0.9342 1.161,-0.39906 3.0301,-1.57468 -34.813,21.18171 -22.1343,14.15553 -14.0088,5.9503 0,0 23.6062,-9.78804 23.6062,-9.78804 l 0,0 c -10.9491,10.99977 -6.7834,8.11307 -29.7463,20.10753 -7.9102,3.88776 -18.2717,10.61122 17.4222,-10.27863 0.5996,-0.3509 -1.2549,0.60084 -1.8515,0.95689 -0.673,0.4017 -1.3125,0.85785 -1.9509,1.31261 -0.7178,0.51138 -1.411,1.0566 -2.1165,1.5849 -5.0623,4.99574 -8.9824,11.06919 -10.578,18.07684 -0.894,5.35857 -1.2175,10.76184 -0.6929,16.18373 0,0 -23.2101,11.82613 -23.2101,11.82613 z"
         id="path3332"
         style="fill:#000000;stroke-width:0.1;stroke-miterlimit:4;stroke-dasharray:none" />
    </g>
    <g
       transform="matrix(0.5270074,-0.8498607,0.8498607,0.5270074,-700.7756,1724.3414)"
       id="g3334">
      <path
         sodipodi:nodetypes="cccc"
         id="path3336"
         d="m 1104.7414,302.51819 c 20.4713,-29.31425 51.4471,-41.12109 83.4389,-51.23447 10.2915,92.4422 12.2036,163.43287 26.3492,232.75087 -32.2579,-60.9934 -61.9262,-120.523 -109.7881,-181.5164 z"
         style="fill:#ff0000;stroke:#000000;stroke-width:0.51234472px;stroke-linecap:butt;stroke-linejoin:miter;stroke-opacity:1" />
      <path
         style="fill:none;stroke:#000000;stroke-width:0.51234472px;stroke-linecap:butt;stroke-linejoin:miter;stroke-opacity:1"
         d="m 1189.6442,265.92214 -71.7283,54.16215"
         id="path3338" />
      <path
         style="fill:none;stroke:#000000;stroke-width:0.51234472px;stroke-linecap:butt;stroke-linejoin:miter;stroke-opacity:1"
         d="m 1119.3798,327.4035 70.2644,-46.84294"
         id="path3340" />
      <path
         style="fill:none;stroke:#000000;stroke-width:0.51234472px;stroke-linecap:butt;stroke-linejoin:miter;stroke-opacity:1"
         d="m 1138.4097,350.82499 55.626,-27.81301"
         id="path3342" />
      <path
         style="fill:#000000;stroke:#000000;stroke-width:0.51234472px;stroke-linecap:butt;stroke-linejoin:miter;stroke-opacity:1"
         d="m 1196.9634,339.11424 -49.7706,24.88535"
         id="path3344" />
      <path
         style="fill:#000000;stroke-width:0.1;stroke-miterlimit:4;stroke-dasharray:none"
         d="m 1121.036,322.13091 c -1.2266,-1.47802 6.062,-7.66616 32.6712,-27.73815 18.8375,-14.20964 34.646,-25.83571 35.1301,-25.83571 0.4841,0 0.8622,2.47023 0.8404,5.48941 l -0.04,5.48941 -33.5115,22.24874 c -26.3471,17.49217 -33.8491,21.84202 -35.0904,20.3463 z"
         id="path3346" />
      <path
         style="fill:#000000;stroke-width:0.1;stroke-miterlimit:4;stroke-dasharray:none"
         d="m 1144.4829,357.03579 c -1.6898,-2.8639 -3.0723,-5.4953 -3.0723,-5.8476 0,-0.3523 11.7817,-6.53828 26.1814,-13.7466 l 26.1814,-13.10604 0.8997,4.49826 c 1.9197,9.59836 2.2192,9.30967 -22.5046,21.68978 -12.8723,6.4456 -23.6763,11.7194 -24.0088,11.7194 -0.3325,0 -1.9871,-2.3433 -3.6768,-5.2072 z"
         id="path3348" />
      <path
         style="fill:none;stroke:#000000;stroke-width:0.51234472px;stroke-linecap:butt;stroke-linejoin:miter;stroke-opacity:1"
         d="m 1199.8911,380.10179 -27.813,20.4938"
         id="path3350" />
      <path
         style="fill:none;stroke:#000000;stroke-width:0.51234472px;stroke-linecap:butt;stroke-linejoin:miter;stroke-opacity:1"
         d="m 1176.4696,413.77019 24.8853,-17.5661"
         id="path3352" />
      <path
         style="fill:none;stroke:#000000;stroke-width:0.51234472px;stroke-linecap:butt;stroke-linejoin:miter;stroke-opacity:1"
         d="m 1207.2103,434.26399 -13.1746,8.7831"
         id="path3354" />
      <path
         style="fill:#000000;stroke:#000000;stroke-width:0.51234472px;stroke-linecap:butt;stroke-linejoin:miter;stroke-opacity:1"
         d="m 1195.4996,450.36629 11.7107,-4.3916"
         id="path3356" />
      <path
         style="fill:#000000;stroke-width:0.1;stroke-miterlimit:4;stroke-dasharray:none"
         d="m 1174.448,407.39879 c -3.1302,-5.299 -3.6739,-4.6025 13.4396,-17.214 l 12.0767,-8.8997 0,4.9976 c 0,2.7487 0.3115,5.8749 0.6922,6.9472 0.564,1.5885 -10.8455,10.7507 -21.9267,17.6077 -0.9599,0.594 -2.7478,-0.842 -4.2818,-3.4388 z"
         id="path3358" />
      <path
         style="fill:#000000;stroke-width:0.1;stroke-miterlimit:4;stroke-dasharray:none"
         d="m 1195.9787,446.09219 c -0.8475,-2.2085 1.4235,-4.6695 7.2792,-7.8882 1.9106,-1.0502 2.5617,-0.8673 2.5617,0.7194 0,1.1702 0.3545,3.0513 0.7878,4.1803 0.5319,1.3863 -0.9225,2.5776 -4.4797,3.6694 -4.4278,1.3589 -5.4079,1.2504 -6.149,-0.6809 z"
         id="path3360" />
      <path
         style="fill:#000000;stroke-width:0.1;stroke-miterlimit:4;stroke-dasharray:none"
         id="path3362"
         d="m 1102.2652,210.07408 c 11.6817,9.88214 24.3086,18.53658 36.6748,27.5185 8.733,6.36071 18.0669,12.47987 23.8257,21.8512 1.3383,2.3862 1.8369,4.98145 2.0965,7.66184 0,0 -23.0016,11.89681 -23.0016,11.89681 l 0,0 c -0.049,-2.34011 -0.2454,-4.63475 -1.2406,-6.79977 -4.794,-9.35151 -13.5305,-15.6356 -21.6454,-21.95101 -12.51,-9.24821 -25.2771,-18.19773 -38.5825,-26.27171 0,0 21.8731,-13.90586 21.8731,-13.90586 z" />
      <path
         style="fill:#000000;stroke-width:0.1;stroke-miterlimit:4;stroke-dasharray:none"
         id="path3364"
         d="m 1142.699,277.88694 c -6.1025,-5.80243 -13.9764,-9.22478 -21.7868,-12.05562 -11.9271,-3.60294 -24.4688,-4.14025 -36.8434,-4.17192 -5.557,0.0866 -11.1066,0.3934 -16.6521,0.7416 -2.7284,0.17131 -5.4332,0.0684 -7.8693,1.40589 3.0516,40.89288 14.1606,-16.02849 23.1299,-14.49697 1.0889,0.18592 2.1141,0.64218 3.178,0.93937 5.1067,1.42649 10.2101,2.85067 15.3045,4.32386 10.6637,3.70035 21.6095,6.49196 32.3091,10.07301 5.4484,1.35521 10.1558,4.52993 15.4917,6.18321 2.3398,0.62789 4.7648,0.67412 7.1697,0.71018 0,0 -21.0493,15.16239 -21.0493,15.16239 l 0,0 c -2.5655,-0.16871 -5.1249,-0.46606 -7.5382,-1.41815 -5.0085,-2.05992 -9.5697,-5.11868 -14.8266,-6.59189 -10.5047,-3.76164 -21.2644,-6.77862 -31.8892,-10.17678 -5.2606,-1.42066 -10.5094,-2.75208 -15.8481,-3.84788 -1.1576,-0.23762 -2.3429,-0.35769 -3.4789,-0.68314 -0.9247,-0.26487 -3.4039,-0.45159 -2.6757,-1.07996 6.5721,-5.67138 14.1978,-9.99261 21.2967,-14.98892 7.8924,-0.32389 15.788,-0.62577 23.6909,-0.58053 12.6645,0.13078 25.5256,0.70324 37.668,4.63832 8.2875,3.11981 16.3584,6.90541 23.4443,12.29425 0,0 -22.2252,13.61968 -22.2252,13.61968 z" />
      <path
         style="fill:#000000;stroke-width:0.1;stroke-miterlimit:4;stroke-dasharray:none"
         id="path3366"
         d="m 1145.9193,280.05413 c -11.3812,3.21008 -22.679,6.74238 -33.8416,10.64678 -12.4258,4.70161 -24.926,9.31764 -36.6043,15.70231 6.1818,-3.53296 12.3635,-7.06591 18.5453,-10.59887 0,0 -23.6376,9.10504 -23.6376,9.10504 l 0,0 c 8.2281,-4.74621 16.4562,-9.49242 24.6843,-14.23863 11.5801,-5.79074 23.7982,-10.13401 35.901,-14.68614 11.79,-4.09833 23.6771,-7.90861 35.5423,-11.78334 0,0 -20.5894,15.85285 -20.5894,15.85285 z" />
      <path
         style="fill:#000000;stroke-width:0.1;stroke-miterlimit:4;stroke-dasharray:none"
         id="path3368"
         d="m 1142.8811,271.61656 c -0.1941,-7.27644 -1.8186,-14.38903 -3.1295,-21.51372 -1.3902,-7.55558 -1.5597,-9.17802 -2.7322,-17.03932 -2.082,-15.20725 -3.6917,-30.47565 -5.0238,-45.76556 -0.3793,-4.88789 -0.2652,-2.59382 -0.3873,-6.87981 0,0 22.7526,-11.51645 22.7526,-11.51645 l 0,0 c -0.3537,4.28552 -0.2515,1.96725 -0.2134,6.95828 0.336,15.41948 1.3622,30.84124 3.8532,46.07735 2.2892,12.64216 5.1659,25.14296 7.792,37.71605 0,0 -22.9116,11.96318 -22.9116,11.96318 z" />
      <path
         style="fill:#000000;stroke-width:0.1;stroke-miterlimit:4;stroke-dasharray:none"
         id="path3370"
         d="m 1145.8346,273.71228 c 0.2448,-5.60234 0.2471,-11.18845 0.9832,-16.75569 1.4554,-7.32363 5.279,-13.81623 10.0128,-19.48884 8.1497,-7.9424 19.7038,-12.78487 29.1005,-18.11305 2.1656,-0.9342 1.161,-0.39906 3.0301,-1.57468 -34.813,21.18171 -22.1343,14.15553 -14.0088,5.9503 0,0 23.6062,-9.78804 23.6062,-9.78804 l 0,0 c -10.9491,10.99977 -6.7834,8.11307 -29.7463,20.10753 -7.9102,3.88776 -18.2717,10.61122 17.4222,-10.27863 0.5996,-0.3509 -1.2549,0.60084 -1.8515,0.95689 -0.673,0.4017 -1.3125,0.85785 -1.9509,1.31261 -0.7178,0.51138 -1.411,1.0566 -2.1165,1.5849 -5.0623,4.99574 -8.9824,11.06919 -10.578,18.07684 -0.894,5.35857 -1.2175,10.76184 -0.6929,16.18373 0,0 -23.2101,11.82613 -23.2101,11.82613 z" />
    </g>
  </g>
</svg>
