<?xml version="1.0" encoding="UTF-8" standalone="no"?>
<!-- Created with Inkscape (http://www.inkscape.org/) -->

<svg
   xmlns:dc="http://purl.org/dc/elements/1.1/"
   xmlns:cc="http://creativecommons.org/ns#"
   xmlns:rdf="http://www.w3.org/1999/02/22-rdf-syntax-ns#"
   xmlns:svg="http://www.w3.org/2000/svg"
   xmlns="http://www.w3.org/2000/svg"
   xmlns:xlink="http://www.w3.org/1999/xlink"
   xmlns:sodipodi="http://sodipodi.sourceforge.net/DTD/sodipodi-0.dtd"
   xmlns:inkscape="http://www.inkscape.org/namespaces/inkscape"
   width="744.09448819"
   height="1052.3622047"
   id="svg2"
   version="1.1"
   inkscape:version="0.47 r22583"
   sodipodi:docname="scout2.svg">
  <defs
     id="defs4">
    <inkscape:perspective
       sodipodi:type="inkscape:persp3d"
       inkscape:vp_x="0 : 526.18109 : 1"
       inkscape:vp_y="0 : 1000 : 0"
       inkscape:vp_z="744.09448 : 526.18109 : 1"
       inkscape:persp3d-origin="372.04724 : 350.78739 : 1"
       id="perspective10" />
    <inkscape:perspective
       id="perspective2887"
       inkscape:persp3d-origin="0.5 : 0.33333333 : 1"
       inkscape:vp_z="1 : 0.5 : 1"
       inkscape:vp_y="0 : 1000 : 0"
       inkscape:vp_x="0 : 0.5 : 1"
       sodipodi:type="inkscape:persp3d" />
  </defs>
  <sodipodi:namedview
     id="base"
     pagecolor="#ffffff"
     bordercolor="#666666"
     borderopacity="1.0"
     inkscape:pageopacity="0.0"
     inkscape:pageshadow="2"
     inkscape:zoom="0.24748737"
     inkscape:cx="375.87303"
     inkscape:cy="907.4401"
     inkscape:document-units="px"
     inkscape:current-layer="layer1"
     showgrid="false"
     inkscape:window-width="1046"
     inkscape:window-height="725"
     inkscape:window-x="11"
     inkscape:window-y="0"
     inkscape:window-maximized="0" />
  <metadata
     id="metadata7">
    <rdf:RDF>
      <cc:Work
         rdf:about="">
        <dc:format>image/svg+xml</dc:format>
        <dc:type
           rdf:resource="http://purl.org/dc/dcmitype/StillImage" />
        <dc:title></dc:title>
      </cc:Work>
    </rdf:RDF>
  </metadata>
  <g
     inkscape:label="Layer 1"
     inkscape:groupmode="layer"
     id="layer1">
    <image
       y="-554.45691"
       x="1406.4917"
       id="image2889"
       height="1339.8572"
       width="974.57141"
       xlink:href="file:///Users/adleefayyaz/Desktop/inkscape_pasted_image_20100710_190401.png" />
    <path
       style="fill:#241c1c;stroke:#000000;stroke-width:0.50829846px;stroke-linecap:butt;stroke-linejoin:miter;stroke-opacity:1"
       d="m 378.46846,477.45535 -7.2615,7.98755 -0.726,16.70124 7.2613,43.56844 3.6308,21.78422 15.975,20.33194 15.9752,15.97509 -5.083,18.87966 -3.6307,21.78422 -0.7262,31.9502 -0.7261,27.59334 -5.083,25.41492 -10.166,12.3444 -20.3319,10.16597 -10.166,16.70123 -15.2489,21.78422 -6.5353,9.43983 -22.5103,21.78422 -15.249,21.05808 -22.5104,26.14106 -21.0581,33.40247 -14.5228,22.51036 -7.2614,31.22406 -9.4398,20.33193 2.1784,34.1286 7.2614,25.415 7.9876,15.2489 201.1409,1.4523 7.2614,-37.7593 7.2614,-21.05812 4.3569,-15.97509 4.3568,-18.87967 21.0581,8.71369 -2.1784,10.89211 -5.8092,11.61826 2.1785,10.89212 16.7012,22.5104 13.7967,13.7967 5.8091,5.8091 4.3569,-11.6183 6.5352,-12.3444 -3.6307,-20.33194 4.3569,-37.03317 -2.1784,-15.97509 -21.0581,-30.49792 1.4522,-15.97509 18.8797,-44.29458 6.5353,-54.46055 -2.9046,-23.2365 -18.1535,-29.04562 6.5353,-24.68879 -5.8092,-6.53527 42.1162,-8.71369 24.6888,-18.15352 3.6307,-15.97509 -7.9876,-19.6058 -51.556,-53.73441 -41.39,-13.79667 -26.8671,-7.26141 -8.7138,-13.79667 -2.9045,-41.39002 -7.9875,-19.6058 -26.1411,-23.2365 -11.6183,9.43983 -18.1535,-13.79668 z"
       id="path2893" />
    <path
       style="fill:#000000;stroke-width:0.1;stroke-miterlimit:4;stroke-dasharray:none"
       d="m 308.26775,1057.8039 -64.95161,-0.6345 -3.80674,-7.3613 c -6.33517,-12.2509 -10.44531,-28.5484 -12.08503,-47.9192 -1.33042,-15.7176 -0.81547,-20.11099 3.54548,-30.24829 2.8061,-6.52291 6.71147,-18.79986 8.67862,-27.28206 3.95501,-17.05363 30.28844,-60.99943 50.978,-85.07316 6.2006,-7.21484 13.86807,-16.87437 17.03885,-21.46562 3.17077,-4.59125 13.3602,-16.39733 22.64315,-26.23573 9.283,-9.83841 23.13501,-27.32759 30.78225,-38.86486 11.05512,-16.6787 16.16571,-22.14222 24.94167,-26.66436 6.07074,-3.12813 13.36056,-9.25112 16.19972,-13.60664 6.36073,-9.75793 9.87256,-32.77817 10.27849,-67.37596 0.27832,-23.72318 4.80016,-57.53313 8.49399,-63.50986 0.81576,-1.31985 -4.55669,-8.92343 -11.93865,-16.89684 -7.38196,-7.97341 -15.02578,-16.94512 -16.98619,-19.93712 -4.68128,-7.14458 -15.71558,-71.88799 -13.82038,-81.09106 2.5782,-12.51977 5.36748,-13.93212 14.20406,-7.19214 9.1915,7.01071 12.24682,7.37921 18.00158,2.17119 3.93748,-3.56337 5.13951,-3.04351 17.36196,7.5086 16.22475,14.0074 20.87576,24.66725 22.32871,51.17637 1.53464,27.99895 6.51267,36.82409 22.9933,40.76301 6.6927,1.59957 22.36465,6.35441 34.82663,10.56631 l 22.65813,7.65801 26.23574,26.62631 c 39.67955,40.27025 43.8977,56.00705 19.51386,72.80085 -12.77344,8.7974 -18.28972,10.81845 -42.89767,15.71676 -11.68816,2.32657 -13.39587,3.29503 -10.96812,6.22029 2.24555,2.7057 2.22664,6.36383 -0.0863,16.69921 l -2.96174,13.23452 9.06491,14.68634 c 11.72241,18.99182 13.28089,30.97896 8.72586,67.11554 -2.85752,22.66949 -5.45524,32.8213 -12.6337,49.37211 -4.97013,11.45915 -9.76316,25.1356 -10.65128,30.39213 -1.47859,8.75187 -0.66258,10.89155 9.68271,25.38918 12.89906,18.07642 15.0065,28.33926 11.04481,53.78601 -1.34884,8.66403 -1.58008,20.03346 -0.52481,25.80436 1.50738,8.2433 0.85161,12.6612 -3.26349,21.9855 l -5.14998,11.6693 -10.87461,-11.3698 c -15.7916,-16.5106 -26.00002,-30.4962 -25.95889,-35.5637 0.0189,-2.43477 1.58258,-8.71999 3.47288,-13.96713 4.98131,-13.82691 4.75513,-14.41107 -7.68265,-19.83787 l -11.32908,-4.94308 -3.05938,11.19794 c -1.68271,6.15885 -5.70294,19.78417 -8.93387,30.27844 -3.23097,10.4943 -7.00183,24.9836 -8.37975,32.1984 -5.1587,27.0117 0.38048,23.9635 -42.2841,23.2689 -20.63362,-0.3359 -66.74394,-0.8962 -102.46731,-1.2453 l 0,0 z"
       id="path2895" />
  </g>
</svg>
