<?xml version="1.0" encoding="UTF-8" standalone="no"?>
<!-- Created with Inkscape (http://www.inkscape.org/) -->

<svg
   xmlns:dc="http://purl.org/dc/elements/1.1/"
   xmlns:cc="http://creativecommons.org/ns#"
   xmlns:rdf="http://www.w3.org/1999/02/22-rdf-syntax-ns#"
   xmlns:svg="http://www.w3.org/2000/svg"
   xmlns="http://www.w3.org/2000/svg"
   xmlns:sodipodi="http://sodipodi.sourceforge.net/DTD/sodipodi-0.dtd"
   xmlns:inkscape="http://www.inkscape.org/namespaces/inkscape"
   width="744.09448819"
   height="1052.3622047"
   id="svg2900"
   version="1.1"
   inkscape:version="0.47 r22583"
   sodipodi:docname="New document 3">
  <defs
     id="defs2902">
    <inkscape:perspective
       sodipodi:type="inkscape:persp3d"
       inkscape:vp_x="0 : 526.18109 : 1"
       inkscape:vp_y="0 : 1000 : 0"
       inkscape:vp_z="744.09448 : 526.18109 : 1"
       inkscape:persp3d-origin="372.04724 : 350.78739 : 1"
       id="perspective2908" />
    <filter
       id="filter2928"
       inkscape:menu-tooltip="Draws a black outline around"
       inkscape:menu="ABCs"
       inkscape:label="Black outline"
       color-interpolation-filters="sRGB">
      <feGaussianBlur
         id="feGaussianBlur2930"
         stdDeviation="2"
         in="SourceAlpha"
         result="result0" />
      <feComposite
         id="feComposite2932"
         in2="result0"
         result="result3"
         operator="arithmetic"
         in="SourceGraphic"
         k2="1"
         k3="10" />
      <feComposite
         id="feComposite2934"
         in2="result3"
         k2="1"
         operator="in"
         in="result3"
         result="result4" />
    </filter>
  </defs>
  <sodipodi:namedview
     id="base"
     pagecolor="#ffffff"
     bordercolor="#666666"
     borderopacity="1.0"
     inkscape:pageopacity="0.0"
     inkscape:pageshadow="2"
     inkscape:zoom="0.35"
     inkscape:cx="408.2781"
     inkscape:cy="520"
     inkscape:document-units="px"
     inkscape:current-layer="layer1"
     showgrid="false"
     inkscape:window-width="1105"
     inkscape:window-height="699"
     inkscape:window-x="20"
     inkscape:window-y="20"
     inkscape:window-maximized="0" />
  <metadata
     id="metadata2905">
    <rdf:RDF>
      <cc:Work
         rdf:about="">
        <dc:format>image/svg+xml</dc:format>
        <dc:type
           rdf:resource="http://purl.org/dc/dcmitype/StillImage" />
        <dc:title></dc:title>
      </cc:Work>
    </rdf:RDF>
  </metadata>
  <g
     inkscape:label="Layer 1"
     inkscape:groupmode="layer"
     id="layer1">
    <path
       style="fill:#ffffff;stroke-width:0.1;stroke-miterlimit:4;stroke-dasharray:none"
       d="m -689.7954,485.54222 c -82.77425,-17.78914 -150.78433,-83.37737 -167.1316,-161.18003 -5.93255,-28.23517 -3.861,-71.51485 4.64968,-97.14286 23.29894,-70.15961 83.48678,-123.74871 159.29554,-141.831057 28.47917,-6.79302 78.94748,-6.0353 107.83131,1.61896 71.79783,19.026527 128.3062,68.520857 151.64697,132.823927 41.73289,114.97281 -33.6338,239.0312 -161.5622,265.94177 -25.21996,5.30517 -69.47219,5.1974 -94.7297,-0.23057 l 0,-1.4e-4 z"
       id="path2922" />
    <g
       id="g2948"
       transform="translate(894.28571,100)">
      <path
         d="m -302.85716,466.64789 c 0,100.98921 -92.10142,182.85715 -205.71428,182.85715 -113.61286,0 -205.71428,-81.86794 -205.71428,-182.85715 0,-100.98922 92.10142,-182.85715 205.71428,-182.85715 113.61286,0 205.71428,81.86793 205.71428,182.85715 z"
         sodipodi:ry="182.85715"
         sodipodi:rx="205.71428"
         sodipodi:cy="466.64789"
         sodipodi:cx="-508.57144"
         id="path2944"
         style="fill:#000000;stroke-width:0.1;stroke-miterlimit:4;stroke-dasharray:none"
         sodipodi:type="arc" />
      <path
         id="path2946"
         d="m -507.25139,606.29794 c -53.70294,-11.10842 -103.36599,-46.94954 -127.17185,-91.77817 -41.45039,-78.05485 -7.05778,-171.30099 78.63809,-213.20571 30.78983,-15.05603 54.86094,-20.39727 92.0453,-20.42433 56.6379,-0.0413 99.75207,17.13895 138.70854,55.27265 17.44031,17.07198 24.92399,26.73865 32.33677,41.76949 12.76338,25.88017 18.45738,53.04027 16.28388,77.67344 -5.94039,67.32506 -55.54614,123.56223 -129.32086,146.60887 -23.41165,7.31359 -75.73084,9.4182 -101.51987,4.08376 l 0,0 z"
         style="fill:#ffffff;stroke-width:0.1;stroke-miterlimit:4;stroke-dasharray:none" />
    </g>
  </g>
</svg>
