<?xml version="1.0" encoding="UTF-8" standalone="no"?>
<!-- Created with Inkscape (http://www.inkscape.org/) -->

<svg
   xmlns:dc="http://purl.org/dc/elements/1.1/"
   xmlns:cc="http://creativecommons.org/ns#"
   xmlns:rdf="http://www.w3.org/1999/02/22-rdf-syntax-ns#"
   xmlns:svg="http://www.w3.org/2000/svg"
   xmlns="http://www.w3.org/2000/svg"
   xmlns:sodipodi="http://sodipodi.sourceforge.net/DTD/sodipodi-0.dtd"
   xmlns:inkscape="http://www.inkscape.org/namespaces/inkscape"
   width="744.09448819"
   height="1052.3622047"
   id="svg2"
   version="1.1"
   inkscape:version="0.47 r22583"
   sodipodi:docname="New document 1">
  <defs
     id="defs4">
    <inkscape:perspective
       sodipodi:type="inkscape:persp3d"
       inkscape:vp_x="0 : 526.18109 : 1"
       inkscape:vp_y="0 : 1000 : 0"
       inkscape:vp_z="744.09448 : 526.18109 : 1"
       inkscape:persp3d-origin="372.04724 : 350.78739 : 1"
       id="perspective10" />
  </defs>
  <sodipodi:namedview
     id="base"
     pagecolor="#ffffff"
     bordercolor="#666666"
     borderopacity="1.0"
     inkscape:pageopacity="0.0"
     inkscape:pageshadow="2"
     inkscape:zoom="0.35"
     inkscape:cx="375"
     inkscape:cy="648.59169"
     inkscape:document-units="px"
     inkscape:current-layer="layer1"
     showgrid="false"
     inkscape:window-width="1222"
     inkscape:window-height="708"
     inkscape:window-x="0"
     inkscape:window-y="0"
     inkscape:window-maximized="0" />
  <metadata
     id="metadata7">
    <rdf:RDF>
      <cc:Work
         rdf:about="">
        <dc:format>image/svg+xml</dc:format>
        <dc:type
           rdf:resource="http://purl.org/dc/dcmitype/StillImage" />
        <dc:title></dc:title>
      </cc:Work>
    </rdf:RDF>
  </metadata>
  <g
     inkscape:label="Layer 1"
     inkscape:groupmode="layer"
     id="layer1">
    <path
       sodipodi:type="arc"
       style="fill:#ff0000;stroke-width:0.1;stroke-miterlimit:4;stroke-dasharray:none"
       id="path2816"
       sodipodi:cx="-790"
       sodipodi:cy="548.07648"
       sodipodi:rx="192.85715"
       sodipodi:ry="172.85715"
       d="m -597.14285,548.07648 a 192.85715,172.85715 0 1 1 -385.7143,0 192.85715,172.85715 0 1 1 385.7143,0 z"
       transform="translate(-260,-460)" />
    <path
       style="fill:#ff0000;stroke:#000000;stroke-width:0.77657777px;stroke-linecap:butt;stroke-linejoin:miter;stroke-opacity:1"
       d="m 1670.1843,462.07514 54.3497,-24.33498 -21.0107,456.33345 -174.7475,54.75408 141.4085,-486.75255 z"
       id="path2820"
       sodipodi:nodetypes="ccccc" />
    <path
       id="path2822"
       d="M 1800.2107,363.24067 1743.644,344.63187 2160.9692,-41.996523 2326.3315,-8.9443513 1800.2107,363.24067 z"
       style="fill:#ff0000;stroke:#000000;stroke-width:0.77657777px;stroke-linecap:butt;stroke-linejoin:miter;stroke-opacity:1"
       sodipodi:nodetypes="ccccc" />
    <path
       style="fill:#ff0000;stroke:#000000;stroke-width:0.77657777px;stroke-linecap:butt;stroke-linejoin:miter;stroke-opacity:1"
       d="m 1670.4009,243.40249 -45.0359,38.9596 -119.8349,-476.3347 151.884,-37.1806 12.9868,474.5557 z"
       id="path2824"
       sodipodi:nodetypes="ccccc" />
    <path
       id="path2826"
       d="m 1597.2156,296.84544 12.3955,58.24458 -467.1089,-95.38461 -90.0745,-177.594954 544.7879,214.734984 z"
       style="fill:#ff0000;stroke:#000000;stroke-width:0.77657777px;stroke-linecap:butt;stroke-linejoin:miter;stroke-opacity:1"
       sodipodi:nodetypes="ccccc" />
    <path
       style="fill:#ff0000;stroke:#000000;stroke-width:0.77657777px;stroke-linecap:butt;stroke-linejoin:miter;stroke-opacity:1"
       d="m 1763.1589,272.95747 -58.9073,8.71849 157.0919,-455.52021 205.4395,-66.36713 -303.6241,513.16885 z"
       id="path2828"
       sodipodi:nodetypes="ccccc" />
    <path
       id="path2832"
       d="m 1751.1095,456.76322 32.4617,-49.92321 475.5251,358.18795 -52.4446,129.78033 -455.5422,-438.04507 z"
       style="fill:#ff0000;stroke:#000000;stroke-width:0.77657777px;stroke-linecap:butt;stroke-linejoin:miter;stroke-opacity:1"
       sodipodi:nodetypes="ccccc" />
    <path
       style="fill:#ff0000;stroke:#000000;stroke-width:0.77657777px;stroke-linecap:butt;stroke-linejoin:miter;stroke-opacity:1"
       d="m 1574.8641,401.70681 50.8379,31.00962 -495.4221,337.52566 33.7368,-194.30443 410.8474,-174.23085 z"
       id="path2834"
       sodipodi:nodetypes="ccccc" />
    <path
       id="path2836"
       d="m 1829.4567,400.78759 -18.8495,-56.48698 467.4063,-6.93406 143.6866,152.32065 -592.2434,-88.89961 z"
       style="fill:#ff0000;stroke:#000000;stroke-width:0.77657777px;stroke-linecap:butt;stroke-linejoin:miter;stroke-opacity:1"
       sodipodi:nodetypes="ccccc" />
    <path
       style="fill:#ff0000;stroke-width:0.1;stroke-miterlimit:4;stroke-dasharray:none"
       d="m 1647.6656,492.9666 c -40.0268,-14.12989 -74.369,-44.55945 -92.648,-82.09268 -8.2828,-17.00763 -9.314,-22.84471 -9.314,-52.7235 0,-29.95325 1.0201,-35.69368 9.4022,-52.90979 11.3506,-23.31337 36.8435,-51.96852 58.5205,-65.77973 51.8509,-33.03595 131.0876,-33.40379 181.8275,-0.84407 79.8323,51.22827 94.9811,145.4588 33.7865,210.16306 -35.9324,37.99325 -70.1058,52.2078 -125.2385,52.09336 -27.0461,-0.0561 -38.751,-1.69891 -56.3362,-7.90665 z"
       id="path2848" />
    <g
       id="g2868"
       transform="matrix(0.51733217,0,0,0.51733217,302.70945,303.9618)">
      <path
         style="fill:#ff0000;stroke:#000000;stroke-width:0.77657777px;stroke-linecap:butt;stroke-linejoin:miter;stroke-opacity:1"
         d="M 67.327114,539.21799 121.67681,514.88301 100.66611,971.21646 -74.081376,1025.9705 67.327114,539.21799 z"
         id="path2850"
         sodipodi:nodetypes="ccccc" />
      <path
         id="path2852"
         d="m 197.35351,440.38352 -56.5667,-18.6088 417.3252,-386.628386 165.3623,33.052172 -526.1208,372.185014 z"
         style="fill:#ff0000;stroke:#000000;stroke-width:0.77657777px;stroke-linecap:butt;stroke-linejoin:miter;stroke-opacity:1"
         sodipodi:nodetypes="ccccc" />
      <path
         style="fill:#ff0000;stroke:#000000;stroke-width:0.77657777px;stroke-linecap:butt;stroke-linejoin:miter;stroke-opacity:1"
         d="m 67.543714,320.54534 -45.0359,38.9596 -119.83485,-476.3347 151.88395,-37.1806 12.9868,474.5557 z"
         id="path2854"
         sodipodi:nodetypes="ccccc" />
      <path
         id="path2856"
         d="M -5.6415557,373.98829 6.7539943,432.23287 -460.35493,336.84826 -550.42941,159.25331 -5.6415557,373.98829 z"
         style="fill:#ff0000;stroke:#000000;stroke-width:0.77657777px;stroke-linecap:butt;stroke-linejoin:miter;stroke-opacity:1"
         sodipodi:nodetypes="ccccc" />
      <path
         style="fill:#ff0000;stroke:#000000;stroke-width:0.77657777px;stroke-linecap:butt;stroke-linejoin:miter;stroke-opacity:1"
         d="m 160.30171,350.10032 -58.9073,8.71849 157.0919,-455.520207 205.4395,-66.367133 -303.6241,513.16885 z"
         id="path2858"
         sodipodi:nodetypes="ccccc" />
      <path
         id="path2860"
         d="m 148.25231,533.90607 32.4617,-49.92321 475.5251,358.18795 -52.4446,129.78033 -455.5422,-438.04507 z"
         style="fill:#ff0000;stroke:#000000;stroke-width:0.77657777px;stroke-linecap:butt;stroke-linejoin:miter;stroke-opacity:1"
         sodipodi:nodetypes="ccccc" />
      <path
         style="fill:#ff0000;stroke:#000000;stroke-width:0.77657777px;stroke-linecap:butt;stroke-linejoin:miter;stroke-opacity:1"
         d="m -27.993036,478.84966 50.83785,31.00962 -495.422104,337.52566 33.73688,-194.30443 410.847374,-174.23085 z"
         id="path2862"
         sodipodi:nodetypes="ccccc" />
      <path
         id="path2864"
         d="m 226.59951,477.93044 -18.8495,-56.48698 467.4063,-6.93406 143.6866,152.32065 -592.2434,-88.89961 z"
         style="fill:#ff0000;stroke:#000000;stroke-width:0.77657777px;stroke-linecap:butt;stroke-linejoin:miter;stroke-opacity:1"
         sodipodi:nodetypes="ccccc" />
      <path
         style="fill:#ff0000;stroke-width:0.1;stroke-miterlimit:4;stroke-dasharray:none"
         d="M 44.808414,570.10945 C 4.7816143,555.97956 -29.560556,525.55 -47.839516,488.01677 c -8.28285,-17.00763 -9.314,-22.84471 -9.314,-52.7235 0,-29.95325 1.02008,-35.69368 9.40214,-52.90979 11.35065,-23.31337 36.84356,-51.96852 58.52049,-65.77973 51.8509,-33.03595 131.087596,-33.40379 181.827496,-0.84407 79.8323,51.22827 94.9811,145.4588 33.7865,210.16306 -35.9324,37.99325 -70.1058,52.2078 -125.2385,52.09336 -27.046096,-0.0561 -38.750996,-1.69891 -56.336196,-7.90665 z"
         id="path2866" />
    </g>
  </g>
</svg>
