<?xml version="1.0" encoding="UTF-8" standalone="no"?>
<!-- Created with Inkscape (http://www.inkscape.org/) -->

<svg
   xmlns:dc="http://purl.org/dc/elements/1.1/"
   xmlns:cc="http://creativecommons.org/ns#"
   xmlns:rdf="http://www.w3.org/1999/02/22-rdf-syntax-ns#"
   xmlns:svg="http://www.w3.org/2000/svg"
   xmlns="http://www.w3.org/2000/svg"
   xmlns:sodipodi="http://sodipodi.sourceforge.net/DTD/sodipodi-0.dtd"
   xmlns:inkscape="http://www.inkscape.org/namespaces/inkscape"
   width="744.09448819"
   height="1052.3622047"
   id="svg2"
   version="1.1"
   inkscape:version="0.47 r22583"
   sodipodi:docname="warrenb.svg">
  <defs
     id="defs4">
    <inkscape:perspective
       sodipodi:type="inkscape:persp3d"
       inkscape:vp_x="0 : 526.18109 : 1"
       inkscape:vp_y="0 : 1000 : 0"
       inkscape:vp_z="744.09448 : 526.18109 : 1"
       inkscape:persp3d-origin="372.04724 : 350.78739 : 1"
       id="perspective10" />
    <inkscape:perspective
       id="perspective2824"
       inkscape:persp3d-origin="0.5 : 0.33333333 : 1"
       inkscape:vp_z="1 : 0.5 : 1"
       inkscape:vp_y="0 : 1000 : 0"
       inkscape:vp_x="0 : 0.5 : 1"
       sodipodi:type="inkscape:persp3d" />
  </defs>
  <sodipodi:namedview
     id="base"
     pagecolor="#ffffff"
     bordercolor="#666666"
     borderopacity="1.0"
     inkscape:pageopacity="0.0"
     inkscape:pageshadow="2"
     inkscape:zoom="0.24748737"
     inkscape:cx="-145.49466"
     inkscape:cy="-88.9631"
     inkscape:document-units="px"
     inkscape:current-layer="layer1"
     showgrid="false"
     inkscape:window-width="1037"
     inkscape:window-height="725"
     inkscape:window-x="97"
     inkscape:window-y="51"
     inkscape:window-maximized="0" />
  <metadata
     id="metadata7">
    <rdf:RDF>
      <cc:Work
         rdf:about="">
        <dc:format>image/svg+xml</dc:format>
        <dc:type
           rdf:resource="http://purl.org/dc/dcmitype/StillImage" />
        <dc:title></dc:title>
      </cc:Work>
    </rdf:RDF>
  </metadata>
  <g
     inkscape:label="Layer 1"
     inkscape:groupmode="layer"
     id="layer1">
    <path
       style="fill:#ffffff;stroke:#000000;stroke-width:1px;stroke-linecap:butt;stroke-linejoin:miter;stroke-opacity:1"
       d="m 48.633888,1739.9099 35,-34.2857 -10,-9.2857 -3.57143,-19.2857 15,-12.8571 61.428582,-8.5715 56.42857,0 16.42857,-15.7143 12.85714,-24.2857 17.85714,-34.2857 25.71429,-15 26.42857,5.7143 22.14286,21.4286 15.71428,47.8571 40,22.8572 20.71429,26.4285 8.57143,35.7143 -2.85715,16.4286 -48.57142,12.1428 -26.42858,4.2858 -40,-2.1429 -36.42857,10.7143 -32.85714,10.7143 -67.14286,6.4285 -40,-7.1428 -54.285712,-5 -11.42857,-14.2857 -0.71429,-18.5715 z"
       id="path2832" />
    <g
       id="g2838"
       transform="translate(323.24881,395.9798)">
      <path
         id="path2830"
         d="m -1755.7827,567.29251 37.1428,-45 42.8572,-34.28572 49.2857,-36.42857 39.2857,-27.85714 38.5714,-27.14286 65.7143,-42.14286 57.8572,-27.14285 46.4285,-12.14286 72.8572,-7.14286 87.1428,-5 57.8572,-2.14286 76.4285,7.14286 103.57148,29.28572 79.28571,31.42857 52.14285,27.14286 67.14286,45 85.71429,69.28571 77.14285,59.28571 39.28572,33.57143 45,27.85715 22.14286,25 -9.28572,31.42857 -29.28571,25.71428 -57.14286,31.42857 -157.14286,38.57144 -122.85714,1.4286 -117.85713,-0.7143 -95.7143,-5 -68.5714,-17.85716 -150,-35.71429 -60,-10 -25.7143,20 -46.4286,34.28575 -47.8571,-5 -42.1429,-30.00004 -66.4286,-5.71428 -119.2857,-30.71429 -37.8571,-45 -6.4286,-46.42857 17.1429,-39.28571 z"
         style="fill:#000000;stroke:#000000;stroke-width:1px;stroke-linecap:butt;stroke-linejoin:miter;stroke-opacity:1" />
      <path
         id="path2834"
         d="m -1111.03,735.43557 c -27.3536,-1.7978 -55.3414,-7.08579 -111.2919,-21.02724 -79.262,-19.75014 -137.4249,-32.30817 -149.6365,-32.30817 -4.0709,0 -20.6053,9.831 -36.743,21.84671 l -29.3414,21.84664 -18.3736,-2.29564 c -13.5735,-1.69593 -22.9318,-5.54221 -35.8222,-14.72302 -15.7708,-11.23217 -20.1646,-12.64543 -45.6871,-14.6949 -15.5311,-1.24718 -49.8046,-7.94079 -76.1635,-14.87472 l -47.9252,-12.60712 -15.6143,-18.5938 c -39.3071,-46.80772 -18.5329,-91.89805 74.4902,-161.68091 104.3655,-78.29161 169.2635,-116.4943 216.5408,-127.46832 42.8513,-9.94665 175.5347,-17.41307 221.6847,-12.47474 51.4062,5.50077 145.4738,34.82904 199.49789,62.19916 27.76299,14.06554 73.57435,45.94512 125.26262,87.16879 26.56155,21.18403 61.44096,48.98118 77.50978,61.77148 16.06882,12.79022 40.68056,31.19484 54.69278,40.89914 38.9377,26.96665 41.37436,29.80213 38.90894,45.27803 -1.56936,9.8509 -5.48978,16.01633 -15.84365,24.91611 -27.68789,23.79942 -55.78773,35.86701 -121.6099,52.2257 l -62.01884,15.4135 -102.98651,0.79259 c -56.64261,0.43592 -119.43111,-0.28835 -139.53011,-1.60927 l 0,0 z"
         style="fill:#ffffff;stroke-width:0.1;stroke-miterlimit:4;stroke-dasharray:none" />
    </g>
    <path
       style="fill:#ffffff;stroke-width:0.1;stroke-miterlimit:4;stroke-dasharray:none"
       d="m 124.01404,1777.3411 c -8.88935,-1.9792 -23.43554,-3.7303 -32.324886,-3.8911 -21.138159,-0.3824 -35.384144,-7.9079 -38.63461,-20.4086 -2.14209,-8.2382 0.715668,-13.5371 15.715087,-29.1394 17.403702,-18.1032 17.988589,-19.451 11.535035,-26.5821 -8.492889,-9.3846 -8.672572,-18.4728 -0.499336,-25.256 7.882961,-6.5422 67.79611,-15.7617 103.18146,-15.8776 31.26836,-0.1024 32.60362,-1.1818 53.71366,-43.4191 15.18216,-30.3767 28.22561,-41.521 48.59674,-41.521 17.01993,0 36.41677,20.8392 44.62237,47.9404 6.63822,21.9246 9.03639,25.0356 26.71701,34.6586 28.12005,15.3048 44.19633,37.3617 46.99495,64.4778 l 2.26606,21.956 -15.68285,4.3836 c -29.95485,8.3728 -67.04123,13.4016 -83.02435,11.2578 -11.27655,-1.5125 -27.14032,1.3192 -53.15778,9.4887 -40.61621,12.7535 -101.31242,18.3237 -130.01856,11.932 z"
       id="path2844" />
    <path
       style="fill:#ffffff;stroke-width:0.1;stroke-miterlimit:4;stroke-dasharray:none"
       d="m 124.01404,1777.3498 c -8.88935,-1.984 -23.43554,-3.739 -32.324886,-3.8998 -21.138159,-0.3824 -35.384144,-7.9079 -38.63461,-20.4086 -2.14209,-8.2382 0.715668,-13.5371 15.715087,-29.1394 17.403702,-18.1032 17.988589,-19.451 11.535035,-26.5821 -8.492889,-9.3846 -8.672572,-18.4728 -0.499336,-25.256 7.565422,-6.2787 67.27418,-15.756 100.03273,-15.8776 12.92453,-0.048 27.0324,-1.9782 31.35083,-4.2894 4.31842,-2.3111 15.10423,-18.6267 23.96846,-36.2568 16.75742,-33.3288 29.25466,-44.3939 50.13984,-44.3939 17.01993,0 36.41677,20.8392 44.62237,47.9404 6.63822,21.9246 9.03639,25.0356 26.71701,34.6586 28.12005,15.3048 44.19633,37.3617 46.99495,64.4778 l 2.26606,21.956 -15.68285,4.3836 c -28.93441,8.0876 -66.24829,13.33 -81.43655,11.4415 -9.55985,-1.1887 -29.25158,2.2992 -53.92726,9.5518 -42.4882,12.488 -103.03385,17.8995 -130.83688,11.6939 z"
       id="path2846" />
    <path
       style="fill:#ffffff;stroke-width:0.1;stroke-miterlimit:4;stroke-dasharray:none"
       d="m 124.01404,1777.3411 c -8.88935,-1.9792 -23.43554,-3.7303 -32.324886,-3.8911 -21.138159,-0.3824 -35.384144,-7.9079 -38.63461,-20.4086 -2.14209,-8.2382 0.715668,-13.5371 15.715087,-29.1394 17.403702,-18.1032 17.988589,-19.451 11.535035,-26.5821 -8.492889,-9.3846 -8.672572,-18.4728 -0.499336,-25.256 7.668409,-6.3642 67.44215,-15.758 101.03144,-15.8776 21.44395,-0.076 25.79809,-1.4725 34.92815,-11.199 5.73667,-6.1114 16.08089,-22.431 22.98715,-36.2657 13.08965,-26.2215 27.06726,-37.4754 46.54512,-37.4754 16.31626,0 36.11549,20.6406 44.10174,45.976 6.96424,22.0931 14.12729,30.2594 38.05341,43.3834 19.95373,10.9451 33.59153,32.6455 36.16075,57.5388 l 2.29209,22.2082 -16.05441,4.323 c -30.45151,8.1997 -58.92332,12.4387 -83.55063,12.4392 -14.84879,4e-4 -37.5964,3.9815 -57.02719,9.9806 -35.8689,11.0741 -98.52193,16.199 -125.25891,10.2457 l 0,0 z"
       id="path2848" />
    <path
       style="fill:#000000;stroke-width:0.1;stroke-miterlimit:4;stroke-dasharray:none"
       d="m 21.481705,1528.8846 c -20.83539965,-2.9743 -40.2334,-7.8422 -43.1068,-10.8175 -11.0863,-11.4799 -8.3766,-22.7181 9.998,-41.4651 16.9853003,-17.3296 17.5542003,-18.6491 11.11160035,-25.7681 -8.48540005,-9.3763 -8.66230005,-18.4659 -0.49140005,-25.2472 7.7088,-6.3976 39.2239897,-48.0836 73.1439597,-48.2025 22.91332,-0.08 43.272055,8.9925 35.601125,-28.9736 -5.97852,-29.5898 44.3385,25.1695 50.87464,12.2215 18.55316,-36.7536 44.70555,-45.8094 69.47862,-24.0583 8.89742,7.812 15.87243,19.5058 20.62209,34.5735 6.3598,20.1756 9.65186,24.3517 28.90551,36.6681 30.17213,19.3009 42.36172,36.5274 45.18184,63.8518 l 2.29209,22.2082 -16.05441,4.323 c -29.98943,8.0753 -26.46046,44.7636 -49.76358,44.7636 -12.78209,0 -71.09284,8.5404 -90.07128,14.0401 -43.07787,12.4835 -96.972295,-20.8728 -147.722005,-28.1175 l 0,0 z"
       id="path2850"
       sodipodi:nodetypes="csssscssssscccsscc" />
    <g
       id="g2860"
       transform="matrix(1,0,0,1.0311327,-658.61947,-699.77718)">
      <path
         id="path2842"
         d="m -457.14329,1708.0304 c -11.008,-2.4664 -30.31733,-4.6142 -42.90962,-4.7728 -23.57715,-0.2969 -44.65404,-14.6745 -44.65404,-30.4608 0,-3.8561 10.69528,-17.9241 23.76728,-31.2622 21.79709,-22.2408 23.04142,-24.7894 15.01091,-30.7454 -11.21854,-8.3202 -11.21854,-24.232 0,-33.9111 9.8867,-8.5301 78.42561,-19.0304 124.15482,-19.0207 26.63177,0 31.91396,-1.6741 43.25282,-13.7537 7.10393,-7.568 19.79278,-27.5379 28.19744,-44.3776 18.64856,-37.3643 39.65498,-53.0121 62.40686,-46.4869 23.50489,6.7411 41.16175,27.2215 50.7389,58.8527 7.83964,25.8925 11.15473,30.1551 33.00485,42.4377 31.03469,17.4455 53.14401,44.3241 57.90424,70.3951 3.5387,19.381 3.20553,33.1659 -0.90409,37.407 -6.10016,6.2954 -85.38417,20.5632 -114.7994,20.659 -23.05551,0.076 -48.70542,4.3854 -75.05456,12.6123 -44.34393,13.8453 -125.63088,20.1544 -160.11641,12.4274 l 0,0 z"
         style="fill:#000000;stroke-width:0.1;stroke-miterlimit:4;stroke-dasharray:none" />
      <path
         id="path2852"
         d="m -430.09505,1687.111 c -37.62074,-4.8773 -44.22917,-7.7626 -46.91072,-20.4815 -1.31066,-6.2165 1.81381,-11.3758 12.75646,-21.0641 14.20263,-12.5746 18.21791,-22.6057 10.72848,-26.8026 -5.70181,-3.1952 -4.50564,-13.9629 2.1036,-18.9363 6.93264,-5.2167 62.47986,-13.3051 92.09461,-13.4099 26.98706,-0.096 34.09514,-4.9513 53.02271,-36.2207 15.88452,-26.242 27.97556,-35.5182 46.29633,-35.5182 15.30874,0 33.6398,17.4286 41.19847,39.1703 5.92409,17.0399 8.99061,20.567 26.9252,30.9692 28.10504,16.3012 39.45953,30.8503 42.08644,53.928 l 2.13506,18.7567 -14.95453,3.6511 c -27.81638,6.7913 -38.5613,41.8544 -59.94496,41.8544 -11.70994,0 -51.85779,-27.5626 -69.46336,-22.9347 -39.99927,10.5142 -91.15073,13.1217 -138.07379,7.0383 l 0,0 z"
         style="fill:#ffffff;stroke-width:0.1;stroke-miterlimit:4;stroke-dasharray:none"
         sodipodi:nodetypes="csssscsssscccsscc" />
    </g>
    <path
       style="fill:#ffffff;stroke-width:0.1;stroke-miterlimit:4;stroke-dasharray:none"
       d="m 157.34907,1653.2474 c 5.00025,-0.9631 13.18249,-0.9631 18.18275,0 5.00025,0.9631 0.90913,1.7511 -9.09138,1.7511 -10.00051,0 -14.09163,-0.788 -9.09137,-1.7511 z"
       id="path2854" />
    <path
       sodipodi:type="arc"
       style="fill:#000000;stroke-width:0.1;stroke-miterlimit:4;stroke-dasharray:none"
       id="path2864"
       sodipodi:cx="-470.73108"
       sodipodi:cy="1751.3877"
       sodipodi:rx="107.07617"
       sodipodi:ry="60.609154"
       d="m -363.65491,1751.3877 a 107.07617,60.609154 0 1 1 -214.15234,0 107.07617,60.609154 0 1 1 214.15234,0 z"
       transform="translate(20.203048,-125.25891)" />
  </g>
</svg>
