<?xml version="1.0" encoding="UTF-8" standalone="no"?>
<!-- Created with Inkscape (http://www.inkscape.org/) -->

<svg
   xmlns:dc="http://purl.org/dc/elements/1.1/"
   xmlns:cc="http://creativecommons.org/ns#"
   xmlns:rdf="http://www.w3.org/1999/02/22-rdf-syntax-ns#"
   xmlns:svg="http://www.w3.org/2000/svg"
   xmlns="http://www.w3.org/2000/svg"
   xmlns:xlink="http://www.w3.org/1999/xlink"
   xmlns:sodipodi="http://sodipodi.sourceforge.net/DTD/sodipodi-0.dtd"
   xmlns:inkscape="http://www.inkscape.org/namespaces/inkscape"
   width="744.09448819"
   height="1052.3622047"
   id="svg2"
   version="1.1"
   inkscape:version="0.47 r22583"
   sodipodi:docname="New document 1">
  <defs
     id="defs4">
    <inkscape:perspective
       sodipodi:type="inkscape:persp3d"
       inkscape:vp_x="0 : 526.18109 : 1"
       inkscape:vp_y="0 : 1000 : 0"
       inkscape:vp_z="744.09448 : 526.18109 : 1"
       inkscape:persp3d-origin="372.04724 : 350.78739 : 1"
       id="perspective10" />
    <inkscape:perspective
       id="perspective2887"
       inkscape:persp3d-origin="0.5 : 0.33333333 : 1"
       inkscape:vp_z="1 : 0.5 : 1"
       inkscape:vp_y="0 : 1000 : 0"
       inkscape:vp_x="0 : 0.5 : 1"
       sodipodi:type="inkscape:persp3d" />
  </defs>
  <sodipodi:namedview
     id="base"
     pagecolor="#ffffff"
     bordercolor="#666666"
     borderopacity="1.0"
     inkscape:pageopacity="0.0"
     inkscape:pageshadow="2"
     inkscape:zoom="0.24748737"
     inkscape:cx="375.87303"
     inkscape:cy="907.4401"
     inkscape:document-units="px"
     inkscape:current-layer="layer1"
     showgrid="false"
     inkscape:window-width="1046"
     inkscape:window-height="725"
     inkscape:window-x="11"
     inkscape:window-y="0"
     inkscape:window-maximized="0" />
  <metadata
     id="metadata7">
    <rdf:RDF>
      <cc:Work
         rdf:about="">
        <dc:format>image/svg+xml</dc:format>
        <dc:type
           rdf:resource="http://purl.org/dc/dcmitype/StillImage" />
        <dc:title></dc:title>
      </cc:Work>
    </rdf:RDF>
  </metadata>
  <g
     inkscape:label="Layer 1"
     inkscape:groupmode="layer"
     id="layer1">
    <image
       y="-554.45691"
       x="1406.4917"
       id="image2889"
       height="1339.8572"
       width="974.57141"
       xlink:href="file:///Users/adleefayyaz/Desktop/inkscape_pasted_image_20100710_190401.png" />
    <path
       style="fill:#241c1c;stroke:#000000;stroke-width:0.88565081000000001px;stroke-linecap:butt;stroke-linejoin:miter;stroke-opacity:1"
       d="m 328.3541,46.278837 -12.65223,13.917373 -1.26515,29.099953 12.65214,75.912927 6.32603,37.95646 27.83477,35.42604 27.83476,27.83474 -8.85651,32.8956 -6.32611,37.95646 -1.26515,55.66949 -1.26525,48.07818 -8.8565,44.28254 -17.71302,21.50867 -35.42603,17.71302 -17.71302,29.09995 -26.56952,37.95646 -11.3869,16.4478 -39.22167,37.95646 -26.56953,36.69125 -39.22175,45.54776 -36.69118,58.19991 -25.304378,39.22168 -12.65214,54.40427 -16.44777,35.42603 3.79563,59.46512 12.65214,44.28262 13.91738,26.5695 350.464698,2.5304 12.65214,-65.79123 12.65214,-36.69124 7.59127,-27.83474 7.59135,-32.89561 36.69119,15.18259 -3.79564,18.97823 -10.12174,20.24345 3.79572,18.97824 29.09992,39.22169 24.03913,24.03912 10.12166,10.1217 7.59135,-20.2434 11.3869,-21.50873 -6.32611,-35.42604 7.59135,-64.52598 -3.79563,-27.83474 -36.69127,-53.13905 2.53039,-27.83474 32.89564,-77.17814 11.3869,-94.89116 -5.06087,-40.48689 -31.63031,-50.60862 11.3869,-43.01733 -10.12175,-11.38694 73.38255,-15.18259 43.0173,-31.63039 6.32611,-27.83473 -13.91738,-34.16082 -89.83032,-93.62594 -72.11731,-24.0391 -46.81293,-12.65216 -15.18263,-24.03908 -5.06087,-72.11728 -13.9173,-34.16082 -45.54778,-40.4869 -20.24349,16.447802 -31.63032,-24.039095 z"
       id="path2893" />
    <path
       style="fill:#000000;stroke-width:0.10000000000000001;stroke-miterlimit:4;stroke-dasharray:none"
       d="m 199.16658,1044.4991 -110.03638,-1.0749 -6.449041,-12.4711 c -10.732603,-20.7546 -17.695748,-48.36461 -20.473575,-81.18119 -2.253958,-26.6277 -1.381557,-34.07067 6.006448,-51.24455 4.753876,-11.05067 11.370095,-31.84938 14.70271,-46.21933 6.70028,-28.89105 51.312508,-103.34087 86.363298,-144.12489 10.50461,-12.22284 23.49431,-28.58731 28.86599,-36.36549 5.37168,-7.77817 22.63387,-27.77919 38.36042,-44.44671 15.72655,-16.66752 39.19362,-46.29646 52.14905,-65.84207 18.72885,-28.25586 27.38676,-37.51177 42.25444,-45.17285 10.28452,-5.29946 22.63449,-15.67259 27.44437,-23.0514 10.77593,-16.53118 16.72544,-55.53044 17.41312,-114.14356 0.47152,-40.1901 8.13211,-97.46853 14.38991,-107.59387 1.38193,-2.236 -7.7196,-15.11744 -20.22561,-28.62543 -12.50602,-13.50799 -25.45558,-28.70721 -28.7768,-33.77604 -7.93075,-12.10385 -26.62419,-121.787509 -23.41352,-137.378681 4.36778,-21.210114 9.09323,-23.602821 24.06353,-12.18442 15.5716,11.87704 20.74765,12.501329 30.49701,3.678281 6.67059,-6.036798 8.70698,-5.156113 29.4134,12.720516 27.48675,23.730338 35.36612,41.789494 37.82769,86.699354 2.59991,47.43384 11.0333,62.38476 38.95357,69.0578 11.33827,2.70988 37.88864,10.76519 59.00082,17.90069 l 38.3858,12.97364 44.44671,45.1084 c 67.22226,68.22298 74.36836,94.88316 33.05898,123.33401 -21.63985,14.90394 -30.98513,18.32785 -72.67417,26.62621 -19.80125,3.94153 -22.69429,5.58222 -18.58139,10.53799 3.80423,4.58379 3.77219,10.78115 -0.14627,28.29061 l -5.01759,22.42098 15.35715,24.88055 c 19.85927,32.17457 22.49953,52.48235 14.78273,113.70236 -4.84101,38.40503 -9.24189,55.60349 -21.40311,83.64269 -8.42003,19.41328 -16.54008,42.58294 -18.0446,51.48817 -2.50498,14.82681 -1.12256,18.45169 16.40371,43.01253 21.85267,30.62379 25.42295,48.01037 18.71133,91.12045 -2.28512,14.67796 -2.67686,33.93927 -0.88909,43.71593 2.5537,13.96511 1.44274,21.4497 -5.52877,37.24632 l -8.72473,19.7692 -18.423,-19.2618 c -26.75304,-27.97124 -44.04738,-51.66449 -43.97772,-60.2495 0.0323,-4.12489 2.68107,-14.77287 5.88354,-23.66221 8.43901,-23.42455 8.05572,-24.41418 -13.01545,-33.6079 l -19.1929,-8.3742 -5.18301,18.97074 c -2.85066,10.43391 -9.66147,33.51694 -15.13512,51.29563 -5.47365,17.77868 -11.862,42.32539 -14.19633,54.54824 -8.73952,45.7613 0.64455,40.5972 -71.63471,39.4205 -34.95605,-0.5691 -113.07283,-1.5184 -173.59284,-2.1097 l 0,0 z"
       id="path2895" />
  </g>
</svg>
