<?xml version="1.0" encoding="UTF-8" standalone="no"?>
<!-- Created with Inkscape (http://www.inkscape.org/) -->

<svg
   xmlns:dc="http://purl.org/dc/elements/1.1/"
   xmlns:cc="http://creativecommons.org/ns#"
   xmlns:rdf="http://www.w3.org/1999/02/22-rdf-syntax-ns#"
   xmlns:svg="http://www.w3.org/2000/svg"
   xmlns="http://www.w3.org/2000/svg"
   xmlns:sodipodi="http://sodipodi.sourceforge.net/DTD/sodipodi-0.dtd"
   xmlns:inkscape="http://www.inkscape.org/namespaces/inkscape"
   width="744.09448819"
   height="1052.3622047"
   id="svg2"
   version="1.1"
   inkscape:version="0.47 r22583"
   sodipodi:docname="New document 1">
  <defs
     id="defs4">
    <inkscape:perspective
       sodipodi:type="inkscape:persp3d"
       inkscape:vp_x="0 : 526.18109 : 1"
       inkscape:vp_y="0 : 1000 : 0"
       inkscape:vp_z="744.09448 : 526.18109 : 1"
       inkscape:persp3d-origin="372.04724 : 350.78739 : 1"
       id="perspective10" />
  </defs>
  <sodipodi:namedview
     id="base"
     pagecolor="#ffffff"
     bordercolor="#666666"
     borderopacity="1.0"
     inkscape:pageopacity="0.0"
     inkscape:pageshadow="2"
     inkscape:zoom="0.35"
     inkscape:cx="946.42857"
     inkscape:cy="520"
     inkscape:document-units="px"
     inkscape:current-layer="layer1"
     showgrid="false"
     inkscape:window-width="1450"
     inkscape:window-height="771"
     inkscape:window-x="0"
     inkscape:window-y="0"
     inkscape:window-maximized="0" />
  <metadata
     id="metadata7">
    <rdf:RDF>
      <cc:Work
         rdf:about="">
        <dc:format>image/svg+xml</dc:format>
        <dc:type
           rdf:resource="http://purl.org/dc/dcmitype/StillImage" />
        <dc:title></dc:title>
      </cc:Work>
    </rdf:RDF>
  </metadata>
  <g
     inkscape:label="Layer 1"
     inkscape:groupmode="layer"
     id="layer1">
    <g
       id="g2852"
       transform="matrix(0.88978352,0,0,0.92455421,228.3031,-42.891487)">
      <path
         sodipodi:nodetypes="ccccccccccccc"
         id="path2816"
         d="m 802.26993,697.06367 47.99564,-135.30954 c 35.48498,-81.92772 182.19573,-102.8991 334.01013,-92.07618 l 201.3214,28.57615 119.7517,71.61658 61.5592,86.50973 c 30.7887,62.69981 35.7107,197.44755 15.2359,270.6975 l -144.9263,71.39518 -210.2644,16.11701 -157.8901,6.9486 -188.29587,-13.9235 -79.08846,-114.9894 0.59116,-195.56213 z"
         style="fill:#000000;stroke:#000000;stroke-width:1px;stroke-linecap:butt;stroke-linejoin:miter;stroke-opacity:1" />
      <path
         sodipodi:nodetypes="cccccc"
         id="path2818"
         d="m 1377.6907,476.4526 c -32.0843,-65.21831 -110.4106,-119.25676 -120.954,-213.19631 -0.5545,-62.4904 -22.6914,-124.98081 18.439,-187.47121 87.4698,28.19471 122.2167,91.53807 166.1393,148.76427 l 39.6718,292.73104 -103.2961,-40.82779 z"
         style="fill:#000000;stroke:#000000;stroke-width:1px;stroke-linecap:butt;stroke-linejoin:miter;stroke-opacity:1" />
      <path
         sodipodi:nodetypes="cccccc"
         id="path2820"
         d="m 1491.7645,398.2593 c 17.6845,-63.93749 12.8596,-127.87499 57.5682,-191.81249 7.4779,-56.33753 79.5126,-69.63717 128.4456,-98.33796 20.9692,65.26158 60.9354,111.5261 54.7327,203.95959 l -71.0993,113.95486 -169.6472,-27.764 z"
         style="fill:#000000;stroke:#000000;stroke-width:1px;stroke-linecap:butt;stroke-linejoin:miter;stroke-opacity:1" />
      <path
         sodipodi:nodetypes="ccccccccc"
         id="path2822"
         d="m 1317.1429,495.21933 211.4285,-108.57143 214.2857,60 168.5715,134.28571 c 3.3963,49.65861 11.5304,100.50165 -14.2858,142.85714 l -148.5714,65.71429 -225.7143,-31.42857 -168.5714,-91.42857 -37.1428,-171.42857 z"
         style="fill:#000000;stroke:#000000;stroke-width:1px;stroke-linecap:butt;stroke-linejoin:miter;stroke-opacity:1" />
    </g>
    <path
       style="fill:#000000;stroke:#000000;stroke-width:1px;stroke-linecap:butt;stroke-linejoin:miter;stroke-opacity:1"
       d="m -1128.1309,737.76449 -172.5172,102.82268 76.6026,64.2174 396.23363,91.7569 30.0446,-61.7713 -49.1055,-91.6786 -89.4414,34.996 -92.81213,-34.9665 -99.0046,-105.37658 z"
       id="path2850" />
    <path
       style="fill:#ff0000;stroke-width:0.1;stroke-miterlimit:4;stroke-dasharray:none"
       d="m 1105.7522,870.75619 -68.4322,-5.42349 -32.8743,-49.81217 -32.87427,-49.81219 0,-82.901 0,-82.90096 19.98783,-57.55807 c 23.88484,-68.77998 26.63254,-74.45082 43.82554,-90.44968 35.267,-32.81757 86.8151,-46.80102 181.7376,-49.29987 58.2152,-1.53251 59.9737,-1.416 125.9486,8.3453 l 66.9091,9.89955 19.3766,-10.18801 19.3767,-10.18801 -4.8721,-9.39635 c -2.6798,-5.16802 -17.786,-26.81641 -33.5695,-48.10757 -49.2278,-66.4057 -56.469,-85.78796 -60.9944,-163.26001 -3.4646,-59.31215 -1.8036,-75.17338 10.6144,-101.357156 l 7.4931,-15.79937 22.5261,11.22255 c 29.6072,14.75027 61.4426,44.789496 91.2713,86.121626 l 22.3666,30.99212 10.82,83.38189 c 5.951,45.86005 11.1571,83.79891 11.569,84.3086 0.4119,0.50968 8.3806,-3.37628 17.7082,-8.63548 12.6112,-7.11061 15.3366,-9.57271 10.6301,-9.60334 -5.2086,-0.0339 -6.0654,-1.10458 -4.8397,-6.04807 0.8192,-3.30381 3.5042,-16.81935 5.9668,-30.03455 11.5902,-62.19657 17.2666,-83.06255 29.0513,-106.78948 6.5638,-13.2152 12.8086,-27.03108 13.8775,-30.70198 5.9747,-20.51853 22.9687,-34.73523 69.0114,-57.73265 30.1869,-15.077736 34.4783,-16.558416 35.9363,-12.399176 0.9107,2.5978 8.1928,20.891296 16.1825,40.652196 19.5204,48.2803 24.9121,68.57594 26.6257,100.22767 l 1.4453,26.69737 -29.8224,49.07376 c -16.4024,26.99057 -29.4782,49.38889 -29.0573,49.77403 0.421,0.38513 15.803,5.15811 34.1824,10.60659 l 33.4171,9.90633 70.2743,57.78809 70.2743,57.78806 1.9544,32.55093 c 2.2195,36.96414 -0.6839,59.48177 -10.0313,77.80041 -6.0434,11.84352 -6.5067,12.117 -66.9712,39.52722 l -60.8857,27.60118 -64.9413,-9.31519 c -35.7177,-5.12336 -65.0777,-9.3152 -65.2443,-9.3152 -0.1666,0 -0.3029,20.12314 -0.3029,44.7181 0,46.6579 -4.7248,86.41336 -11.0134,92.66943 -1.9788,1.96864 -29.8973,16.77217 -62.0409,32.89677 l -58.443,29.31745 -89.9011,6.94425 c -97.9378,7.56502 -188.558,12.58257 -216.8492,12.00677 -9.882,-0.2012 -48.7618,-2.80632 -86.3996,-5.78922 z"
       id="path2858" />
    <path
       style="fill:#000000;stroke-width:0.1;stroke-miterlimit:4;stroke-dasharray:none"
       d="m -1029.1322,948.59445 c -106.4584,-24.77289 -195.8156,-46.92985 -198.5714,-49.23769 -2.7559,-2.30783 -17.8678,-14.91999 -33.5821,-28.02702 -15.7143,-13.10702 -30.2425,-25.35361 -32.2848,-27.21465 -3.7385,-3.40661 9.6217,-11.96437 130.0936,-83.33035 l 34.9516,-20.70489 48.8243,51.99831 48.8244,51.99831 47.3764,17.88654 47.37643,17.88653 44.17503,-17.32102 c 24.29625,-9.52655 44.46345,-16.93264 44.816,-16.45796 0.35254,0.47468 11.15383,20.63584 24.00285,44.80257 l 23.36186,43.93953 -14.15486,29.6319 c -7.78517,16.29755 -15.84094,29.53282 -17.90168,29.41171 -2.06077,-0.12111 -90.8492,-20.48892 -197.30763,-45.26182 l 0,0 z"
       id="path2860" />
    <path
       style="fill:#000000;stroke-width:0.1;stroke-miterlimit:4;stroke-dasharray:none"
       d="m -1028.6761,948.73919 c -136.1705,-31.69164 -195.1803,-46.58576 -200.1448,-50.51674 -34.6041,-27.39987 -67.9475,-56.89991 -66.1264,-58.50406 1.2282,-1.08178 36.3044,-22.24609 77.9473,-47.03179 41.6429,-24.7857 78.5413,-46.81335 81.9965,-48.95032 5.9838,-3.70089 8.6113,-1.41047 55.3243,48.22739 l 49.0421,52.1128 47.25664,17.88654 47.25669,17.88653 44.17503,-17.32102 c 24.29625,-9.52655 44.47411,-16.93264 44.83965,-16.45796 0.36555,0.47468 11.24358,20.65565 24.17338,44.84661 l 23.50874,43.98356 -14.38549,29.58787 c -7.912,16.27333 -16.04451,29.49898 -18.07223,29.39033 -2.02771,-0.10866 -90.58382,-20.42153 -196.79141,-45.13974 l 0,0 z"
       id="path2862" />
    <path
       style="fill:#000000;stroke:#000000;stroke-width:0.93734556000000002px;stroke-linecap:butt;stroke-linejoin:miter;stroke-opacity:1"
       d="m -939.09595,-61.946464 218.37431,-74.294106 180.7236,91.438906 35.1407,168.590484 -138.0528,102.86877 143.0729,71.43664 145.5829,-8.57239 -35.1407,128.58595 -215.8643,0 -296.18587,-80.00904 87.85177,-60.00678 -155.6231,-120.01356 -25.1005,-165.7330143 55.22109,-54.2918597 z"
       id="path2866" />
    <path
       style="fill:#000000;stroke-width:0.1;stroke-miterlimit:4;stroke-dasharray:none"
       d="m -750.57143,377.48033 c -78.96428,-21.47175 -143.57143,-39.79609 -143.57143,-40.72075 0,-0.92468 18.64286,-14.3684 41.42857,-29.87497 22.78572,-15.50654 41.42858,-28.42934 41.42858,-28.71731 0,-0.28797 -35.1779,-27.63532 -78.1731,-60.77183 l -78.17311,-60.2482 -5.9114,-37.96398 c -3.25128,-20.880182 -8.82037,-57.63731 -12.37576,-81.68251 l -6.46434,-43.718546 27.02352,-27.02352 27.02352,-27.02352 108.52533,-37.115554 108.52534,-37.11555 89.93525,45.479013 89.93523,45.479017 17.43717,83.198817 17.43715,83.198813 -67.3724,50.18603 c -37.05483,27.60232 -67.78426,51.29017 -68.2876,52.63969 -0.50338,1.34951 31.29825,18.57034 70.67025,38.26846 l 71.58549,35.81477 70.42448,-4.37043 c 38.73343,-2.40372 70.93135,-3.86352 71.55089,-3.244 0.61951,0.61954 -6.39929,28.62691 -15.59734,62.2386 l -16.72377,61.11217 -108.35455,0.5074 L -607,416.51984 -750.57143,377.48033 z"
       id="path2868" />
    <g
       id="g2878"
       transform="translate(500,-214.28571)">
      <path
         id="path2870"
         d="m 669.42857,1203.2478 c -78.96428,-21.475 -143.57143,-39.8127 -143.57143,-40.7503 0,-0.9377 18.65954,-14.4034 41.46565,-29.9238 32.48825,-22.1095 40.6844,-28.943 37.85714,-31.563 -1.98468,-1.8391 -37.18861,-29.1773 -78.23096,-60.7514 -59.99757,-46.1564 -74.91216,-58.96728 -76.10063,-65.36654 -0.813,-4.37753 -6.39481,-41.11041 -12.40403,-81.62863 l -10.92586,-73.66948 27.14399,-27.14399 27.14399,-27.14399 108.53444,-37.11925 108.53444,-37.11925 89.91949,45.62904 89.91949,45.62905 17.34065,83.07716 17.34063,83.07717 -67.93937,50.65508 c -37.36666,27.86033 -67.99137,51.56673 -68.05494,52.68093 -0.0634,1.1142 31.96805,18.1474 71.18137,37.8515 l 71.29691,35.8258 70.51212,-4.3759 c 38.78164,-2.4067 71.01904,-3.869 71.63854,-3.2494 0.6195,0.6195 -6.3993,28.6269 -15.5973,62.2386 l -16.7238,61.1121 -108.35456,0.5371 L 813,1242.2934 669.42857,1203.2478 z"
         style="fill:#000000;stroke-width:0.1;stroke-miterlimit:4;stroke-dasharray:none" />
      <path
         id="path2872"
         d="m 655.76461,1216.3394 c -70.79298,-20.5963 -128.41646,-38.3716 -128.05218,-39.5009 0.36429,-1.1294 16.22068,-13.5137 35.23643,-27.5207 19.01575,-14.0069 34.57409,-26.8637 34.57409,-28.5706 0,-1.7068 -30.67441,-28.4296 -68.16536,-59.384 -54.71205,-45.1731 -68.43422,-57.7909 -69.5277,-63.93217 -0.7493,-4.20828 -5.75482,-39.48127 -11.12339,-78.38442 l -9.76102,-70.73299 25.50682,-26.64767 25.50681,-26.64766 96.32619,-34.88064 96.32619,-34.88064 80.51348,43.88656 80.51347,43.88655 7.0107,36.33939 c 3.85586,19.98667 10.81704,55.72623 15.46923,79.42127 l 8.45853,43.08188 -59.62427,47.98094 c -32.79335,26.3896 -60.2789,49.1136 -61.07902,50.498 -0.80012,1.3845 27.26115,18.009 62.35842,36.9435 l 63.81318,34.4263 63.30179,-4.1945 c 34.81599,-2.307 63.7657,-3.6984 64.3328,-3.0919 0.5671,0.6063 -5.7147,27.463 -13.95958,59.6813 l -14.99064,58.5789 -97.1252,0.5459 -97.12525,0.5458 -128.71452,-37.4475 z"
         style="fill:#ff0000;stroke-width:0.1;stroke-miterlimit:4;stroke-dasharray:none" />
    </g>
    <g
       id="g2886"
       transform="translate(-885.71429,-245.71429)">
      <path
         id="path2882"
         d="m -348.57143,589.50504 91.42857,-28.57143 91.42857,62.85715 42.85715,88.57142 -20,120 -91.42857,-11.42857 25.71428,-48.57143 -28.57143,-80 -125.71428,5.71429 -60,-62.85714 74.28571,-45.71429 z"
         style="fill:#000000;stroke:#000000;stroke-width:1px;stroke-linecap:butt;stroke-linejoin:miter;stroke-opacity:1" />
      <path
         id="path2884"
         d="m -181.82144,802.63062 c -17.65199,-2.37259 -34.12868,-4.40806 -36.61488,-4.52303 -3.89092,-0.18013 -2.98313,-3.06263 6.51923,-20.70094 l 11.0396,-20.49175 -12.65781,-35.6723 -12.65781,-35.67229 -43.23765,1.59388 c -23.78069,0.87663 -48.29385,2.19358 -54.47368,2.92653 l -11.23603,1.33262 -24.94651,-26.99007 -24.9465,-26.99004 31.48224,-19.24832 c 26.65984,-16.29989 36.92931,-20.96691 67.04267,-30.46791 19.55824,-6.17079 37.23291,-11.36292 39.27706,-11.53808 2.04414,-0.17517 20.99958,11.67909 42.12318,26.34282 l 38.40657,26.66131 17.98356,38.16021 17.98357,38.16018 -8.0091,49.29732 c -4.40499,27.1134 -8.67826,49.93544 -9.49614,50.7155 -0.81786,0.77997 -15.92957,-0.52306 -33.58157,-2.89564 z"
         style="fill:#ff0000;stroke-width:0.1;stroke-miterlimit:4;stroke-dasharray:none" />
    </g>
    <g
       id="g2894"
       transform="matrix(1.2073255,0,0,1.2073255,2352.3398,-333.26793)">
      <path
         id="path2890"
         d="M -734.28571,886.6479 -620,863.79075 l 88.57143,117.14286 8.57143,88.57139 -211.42857,-182.8571 z"
         style="fill:#000000;stroke:#000000;stroke-width:1px;stroke-linecap:butt;stroke-linejoin:miter;stroke-opacity:1" />
      <path
         id="path2892"
         d="m -615.41091,963.69017 c -46.51658,-40.22105 -84.60666,-73.97232 -84.64461,-75.00281 -0.0564,-1.53068 88.28497,-20.61903 89.58142,-19.3563 0.21662,0.21099 16.92224,22.15861 37.12359,48.7725 23.8744,31.45288 37.15807,51.08554 37.95358,56.09368 2.3838,15.00727 6.4812,60.70256 5.5285,61.65526 -0.53178,0.5318 -39.02589,-31.9413 -85.54248,-72.16233 z"
         style="fill:#ff0000;stroke-width:0.1;stroke-miterlimit:4;stroke-dasharray:none" />
    </g>
    <g
       id="g2902"
       transform="matrix(0.55825029,-0.49495179,0.49495179,0.55825029,730.95635,-224.43057)">
      <path
         id="path2898"
         d="m -557.14286,1038.0765 -105.71429,-131.4286 0,-91.42857 57.14286,45.71428 -28.57143,-82.85714 48.57143,94.28572 L -620,720.93361 l 48.57143,74.28572 14.28571,-100 25.71429,82.85714 40,-80 2.85714,102.85714 31.42857,-45.71428 22.85714,94.28571 14.28572,-54.28571 0,-48.57143 25.71428,57.14286 2.85715,-68.57143 28.57142,194.28571 25.71429,-37.14285 2.85714,45.71428 -222.85714,100.00003 z"
         style="fill:#000000;stroke:#000000;stroke-width:1px;stroke-linecap:butt;stroke-linejoin:miter;stroke-opacity:1" />
      <path
         id="path2900"
         d="m -590.06916,967.75473 -41.21656,-51.1813 0,-32.7655 c 0,-18.021 0.54648,-32.7654 1.2144,-32.7654 0.66791,0 10.39875,7.4177 21.62408,16.4838 11.22534,9.0661 20.72475,15.6062 21.1098,14.5336 0.38505,-1.0726 -1.88886,-9.1274 -5.05313,-17.8994 -3.16427,-8.7721 -5.28733,-16.4152 -4.71791,-16.9846 0.56941,-0.5694 6.53453,9.7984 13.25582,23.0397 6.72129,13.2413 12.27194,22.4462 12.33478,20.4553 0.0629,-1.9908 -4.87591,-25.6156 -10.97502,-52.4995 -6.0991,-26.8838 -11.08928,-50.15781 -11.08928,-51.71987 0,-1.56206 7.42418,8.58057 16.49817,22.53917 10.23347,15.7422 16.91218,24.1233 17.58848,22.0717 0.59967,-1.8191 2.73036,-15.7829 4.73487,-31.0306 5.54566,-42.18458 5.45302,-42.13079 15.48073,-8.9878 4.81726,15.9216 9.30833,28.9485 9.98017,28.9485 0.67184,0 7.88329,-13.224 16.02543,-29.3866 l 14.80389,-29.38661 0.12802,38.25801 c 0.0704,21.0419 0.91087,38.258 1.86769,38.258 0.95682,0 3.37912,-2.7446 5.3829,-6.0991 2.00378,-3.3545 7.11279,-10.9506 11.35335,-16.8801 l 7.71013,-10.7811 8.40931,35.7428 c 4.62511,19.6586 9.13527,34.9894 10.02259,34.0685 3.75552,-3.8974 9.50714,-32.0956 10.67637,-52.3424 l 1.26101,-21.8361 8.76606,20.0932 c 4.82133,11.0513 9.31248,19.5511 9.98035,18.8885 0.66785,-0.6627 1.7133,-9.3597 2.32321,-19.3268 1.08632,-17.7525 1.31124,-16.7314 11.03078,50.0771 5.45701,37.5094 10.44718,68.1715 11.08927,68.1378 0.64209,-0.033 5.15958,-6.041 10.03885,-13.3499 l 8.87143,-13.2886 0.66342,14.7934 c 0.36489,8.1363 -0.13417,15.5725 -1.10892,16.5247 -0.97479,0.9523 -39.36437,18.617 -85.31017,39.255 l -83.53781,37.52367 -41.21656,-51.18117 z"
         style="fill:#ffffff;stroke-width:0.1;stroke-miterlimit:4;stroke-dasharray:none" />
    </g>
    <g
       id="g2953"
       transform="matrix(0.49368901,0,0,0.49368901,-848.12858,167.10016)">
      <g
         id="g2923"
         transform="matrix(0.88978352,0,0,0.92455421,1265.446,308.53708)">
        <path
           sodipodi:nodetypes="ccccccccccccc"
           id="path2925"
           d="m 802.26993,697.06367 47.99564,-135.30954 c 35.48498,-81.92772 182.19573,-102.8991 334.01013,-92.07618 l 201.3214,28.57615 119.7517,71.61658 61.5592,86.50973 c 30.7887,62.69981 35.7107,197.44755 15.2359,270.6975 l -144.9263,71.39518 -210.2644,16.11701 -157.8901,6.9486 -188.29587,-13.9235 -79.08846,-114.9894 0.59116,-195.56213 z"
           style="fill:#000000;stroke:#000000;stroke-width:1px;stroke-linecap:butt;stroke-linejoin:miter;stroke-opacity:1" />
        <path
           sodipodi:nodetypes="cccccc"
           id="path2927"
           d="m 1377.6907,476.4526 c -32.0843,-65.21831 -110.4106,-119.25676 -120.954,-213.19631 -0.5545,-62.4904 -22.6914,-124.98081 18.439,-187.47121 87.4698,28.19471 122.2167,91.53807 166.1393,148.76427 l 39.6718,292.73104 -103.2961,-40.82779 z"
           style="fill:#000000;stroke:#000000;stroke-width:1px;stroke-linecap:butt;stroke-linejoin:miter;stroke-opacity:1" />
        <path
           sodipodi:nodetypes="cccccc"
           id="path2929"
           d="m 1491.7645,398.2593 c 17.6845,-63.93749 12.8596,-127.87499 57.5682,-191.81249 7.4779,-56.33753 79.5126,-69.63717 128.4456,-98.33796 20.9692,65.26158 60.9354,111.5261 54.7327,203.95959 l -71.0993,113.95486 -169.6472,-27.764 z"
           style="fill:#000000;stroke:#000000;stroke-width:1px;stroke-linecap:butt;stroke-linejoin:miter;stroke-opacity:1" />
        <path
           sodipodi:nodetypes="ccccccccc"
           id="path2931"
           d="m 1317.1429,495.21933 211.4285,-108.57143 214.2857,60 168.5715,134.28571 c 3.3963,49.65861 11.5304,100.50165 -14.2858,142.85714 l -148.5714,65.71429 -225.7143,-31.42857 -168.5714,-91.42857 -37.1428,-171.42857 z"
           style="fill:#000000;stroke:#000000;stroke-width:1px;stroke-linecap:butt;stroke-linejoin:miter;stroke-opacity:1" />
      </g>
      <path
         style="fill:#ff0000;stroke-width:0.1;stroke-miterlimit:4;stroke-dasharray:none"
         d="m 2142.8951,1222.1848 -68.4322,-5.4235 -32.8743,-49.8122 -32.8743,-49.8122 0,-82.901 0,-82.90095 19.9878,-57.55807 c 23.8849,-68.77998 26.6326,-74.45082 43.8256,-90.44968 35.267,-32.81757 86.8151,-46.80102 181.7376,-49.29987 58.2152,-1.53251 59.9737,-1.416 125.9486,8.3453 l 66.9091,9.89955 19.3766,-10.18801 19.3767,-10.18801 -4.8721,-9.39635 c -2.6798,-5.16802 -17.786,-26.81641 -33.5695,-48.10757 -49.2278,-66.4057 -56.469,-85.78796 -60.9944,-163.26001 -3.4646,-59.31215 -1.8036,-75.17338 10.6144,-101.35715 l 7.4931,-15.79937 22.5261,11.22255 c 29.6072,14.75027 61.4426,44.78949 91.2713,86.12162 l 22.3666,30.99212 10.82,83.38189 c 5.951,45.86005 11.1571,83.79891 11.569,84.3086 0.4119,0.50968 8.3806,-3.37628 17.7082,-8.63548 12.6112,-7.11061 15.3366,-9.57271 10.6301,-9.60334 -5.2086,-0.0339 -6.0654,-1.10458 -4.8397,-6.04807 0.8192,-3.30381 3.5042,-16.81935 5.9668,-30.03455 11.5902,-62.19657 17.2666,-83.06255 29.0513,-106.78948 6.5638,-13.2152 12.8086,-27.03108 13.8775,-30.70198 5.9747,-20.51853 22.9687,-34.73523 69.0114,-57.73265 30.1869,-15.07773 34.4783,-16.55841 35.9363,-12.39917 0.9107,2.5978 8.1928,20.89129 16.1825,40.65219 19.5204,48.2803 24.9121,68.57594 26.6257,100.22767 l 1.4453,26.69737 -29.8224,49.07376 c -16.4024,26.99057 -29.4782,49.38889 -29.0573,49.77403 0.421,0.38513 15.803,5.15811 34.1824,10.60659 l 33.4171,9.90633 70.2743,57.78809 70.2743,57.78806 1.9544,32.55093 c 2.2195,36.96414 -0.6839,59.48177 -10.0313,77.80041 -6.0434,11.84352 -6.5067,12.117 -66.9712,39.5272 l -60.8857,27.6012 -64.9413,-9.3152 c -35.7177,-5.1233 -65.0777,-9.3152 -65.2443,-9.3152 -0.1666,0 -0.3029,20.1232 -0.3029,44.7181 0,46.6579 -4.7248,86.4134 -11.0134,92.6694 -1.9788,1.9687 -29.8973,16.7722 -62.0409,32.8968 l -58.443,29.3175 -89.9011,6.9442 c -97.9378,7.565 -188.558,12.5826 -216.8492,12.0068 -9.882,-0.2012 -48.7618,-2.8063 -86.3996,-5.7892 z"
         id="path2933" />
      <g
         id="g2935"
         transform="translate(1537.1429,137.14286)">
        <path
           id="path2937"
           d="m 669.42857,1203.2478 c -78.96428,-21.475 -143.57143,-39.8127 -143.57143,-40.7503 0,-0.9377 18.65954,-14.4034 41.46565,-29.9238 32.48825,-22.1095 40.6844,-28.943 37.85714,-31.563 -1.98468,-1.8391 -37.18861,-29.1773 -78.23096,-60.7514 -59.99757,-46.1564 -74.91216,-58.96728 -76.10063,-65.36654 -0.813,-4.37753 -6.39481,-41.11041 -12.40403,-81.62863 l -10.92586,-73.66948 27.14399,-27.14399 27.14399,-27.14399 108.53444,-37.11925 108.53444,-37.11925 89.91949,45.62904 89.91949,45.62905 17.34065,83.07716 17.34063,83.07717 -67.93937,50.65508 c -37.36666,27.86033 -67.99137,51.56673 -68.05494,52.68093 -0.0634,1.1142 31.96805,18.1474 71.18137,37.8515 l 71.29691,35.8258 70.51212,-4.3759 c 38.78164,-2.4067 71.01904,-3.869 71.63854,-3.2494 0.6195,0.6195 -6.3993,28.6269 -15.5973,62.2386 l -16.7238,61.1121 -108.35456,0.5371 L 813,1242.2934 669.42857,1203.2478 z"
           style="fill:#000000;stroke-width:0.1;stroke-miterlimit:4;stroke-dasharray:none" />
        <path
           id="path2939"
           d="m 655.76461,1216.3394 c -70.79298,-20.5963 -128.41646,-38.3716 -128.05218,-39.5009 0.36429,-1.1294 16.22068,-13.5137 35.23643,-27.5207 19.01575,-14.0069 34.57409,-26.8637 34.57409,-28.5706 0,-1.7068 -30.67441,-28.4296 -68.16536,-59.384 -54.71205,-45.1731 -68.43422,-57.7909 -69.5277,-63.93217 -0.7493,-4.20828 -5.75482,-39.48127 -11.12339,-78.38442 l -9.76102,-70.73299 25.50682,-26.64767 25.50681,-26.64766 96.32619,-34.88064 96.32619,-34.88064 80.51348,43.88656 80.51347,43.88655 7.0107,36.33939 c 3.85586,19.98667 10.81704,55.72623 15.46923,79.42127 l 8.45853,43.08188 -59.62427,47.98094 c -32.79335,26.3896 -60.2789,49.1136 -61.07902,50.498 -0.80012,1.3845 27.26115,18.009 62.35842,36.9435 l 63.81318,34.4263 63.30179,-4.1945 c 34.81599,-2.307 63.7657,-3.6984 64.3328,-3.0919 0.5671,0.6063 -5.7147,27.463 -13.95958,59.6813 l -14.99064,58.5789 -97.1252,0.5459 -97.12525,0.5458 -128.71452,-37.4475 z"
           style="fill:#ff0000;stroke-width:0.1;stroke-miterlimit:4;stroke-dasharray:none" />
      </g>
      <g
         id="g2941"
         transform="matrix(1.2073255,0,0,1.2073255,3389.4827,18.160641)">
        <path
           id="path2943"
           d="M -734.28571,886.6479 -620,863.79075 l 88.57143,117.14286 8.57143,88.57139 -211.42857,-182.8571 z"
           style="fill:#000000;stroke:#000000;stroke-width:1px;stroke-linecap:butt;stroke-linejoin:miter;stroke-opacity:1" />
        <path
           id="path2945"
           d="m -615.41091,963.69017 c -46.51658,-40.22105 -84.60666,-73.97232 -84.64461,-75.00281 -0.0564,-1.53068 88.28497,-20.61903 89.58142,-19.3563 0.21662,0.21099 16.92224,22.15861 37.12359,48.7725 23.8744,31.45288 37.15807,51.08554 37.95358,56.09368 2.3838,15.00727 6.4812,60.70256 5.5285,61.65526 -0.53178,0.5318 -39.02589,-31.9413 -85.54248,-72.16233 z"
           style="fill:#ff0000;stroke-width:0.1;stroke-miterlimit:4;stroke-dasharray:none" />
      </g>
      <g
         id="g2947"
         transform="matrix(0.55825029,-0.49495179,0.49495179,0.55825029,1768.0992,126.998)">
        <path
           id="path2949"
           d="m -557.14286,1038.0765 -105.71429,-131.4286 0,-91.42857 57.14286,45.71428 -28.57143,-82.85714 48.57143,94.28572 L -620,720.93361 l 48.57143,74.28572 14.28571,-100 25.71429,82.85714 40,-80 2.85714,102.85714 31.42857,-45.71428 22.85714,94.28571 14.28572,-54.28571 0,-48.57143 25.71428,57.14286 2.85715,-68.57143 28.57142,194.28571 25.71429,-37.14285 2.85714,45.71428 -222.85714,100.00003 z"
           style="fill:#000000;stroke:#000000;stroke-width:1px;stroke-linecap:butt;stroke-linejoin:miter;stroke-opacity:1" />
        <path
           id="path2951"
           d="m -590.06916,967.75473 -41.21656,-51.1813 0,-32.7655 c 0,-18.021 0.54648,-32.7654 1.2144,-32.7654 0.66791,0 10.39875,7.4177 21.62408,16.4838 11.22534,9.0661 20.72475,15.6062 21.1098,14.5336 0.38505,-1.0726 -1.88886,-9.1274 -5.05313,-17.8994 -3.16427,-8.7721 -5.28733,-16.4152 -4.71791,-16.9846 0.56941,-0.5694 6.53453,9.7984 13.25582,23.0397 6.72129,13.2413 12.27194,22.4462 12.33478,20.4553 0.0629,-1.9908 -4.87591,-25.6156 -10.97502,-52.4995 -6.0991,-26.8838 -11.08928,-50.15781 -11.08928,-51.71987 0,-1.56206 7.42418,8.58057 16.49817,22.53917 10.23347,15.7422 16.91218,24.1233 17.58848,22.0717 0.59967,-1.8191 2.73036,-15.7829 4.73487,-31.0306 5.54566,-42.18458 5.45302,-42.13079 15.48073,-8.9878 4.81726,15.9216 9.30833,28.9485 9.98017,28.9485 0.67184,0 7.88329,-13.224 16.02543,-29.3866 l 14.80389,-29.38661 0.12802,38.25801 c 0.0704,21.0419 0.91087,38.258 1.86769,38.258 0.95682,0 3.37912,-2.7446 5.3829,-6.0991 2.00378,-3.3545 7.11279,-10.9506 11.35335,-16.8801 l 7.71013,-10.7811 8.40931,35.7428 c 4.62511,19.6586 9.13527,34.9894 10.02259,34.0685 3.75552,-3.8974 9.50714,-32.0956 10.67637,-52.3424 l 1.26101,-21.8361 8.76606,20.0932 c 4.82133,11.0513 9.31248,19.5511 9.98035,18.8885 0.66785,-0.6627 1.7133,-9.3597 2.32321,-19.3268 1.08632,-17.7525 1.31124,-16.7314 11.03078,50.0771 5.45701,37.5094 10.44718,68.1715 11.08927,68.1378 0.64209,-0.033 5.15958,-6.041 10.03885,-13.3499 l 8.87143,-13.2886 0.66342,14.7934 c 0.36489,8.1363 -0.13417,15.5725 -1.10892,16.5247 -0.97479,0.9523 -39.36437,18.617 -85.31017,39.255 l -83.53781,37.52367 -41.21656,-51.18117 z"
           style="fill:#ffffff;stroke-width:0.1;stroke-miterlimit:4;stroke-dasharray:none" />
      </g>
    </g>
  </g>
</svg>
