<?xml version="1.0" encoding="UTF-8" standalone="no"?>
<!-- Created with Inkscape (http://www.inkscape.org/) -->

<svg
   xmlns:dc="http://purl.org/dc/elements/1.1/"
   xmlns:cc="http://creativecommons.org/ns#"
   xmlns:rdf="http://www.w3.org/1999/02/22-rdf-syntax-ns#"
   xmlns:svg="http://www.w3.org/2000/svg"
   xmlns="http://www.w3.org/2000/svg"
   xmlns:sodipodi="http://sodipodi.sourceforge.net/DTD/sodipodi-0.dtd"
   xmlns:inkscape="http://www.inkscape.org/namespaces/inkscape"
   width="744.09448819"
   height="1052.3622047"
   id="svg4056"
   version="1.1"
   inkscape:version="0.47 r22583"
   sodipodi:docname="New document 6">
  <defs
     id="defs4058">
    <inkscape:perspective
       sodipodi:type="inkscape:persp3d"
       inkscape:vp_x="0 : 526.18109 : 1"
       inkscape:vp_y="0 : 1000 : 0"
       inkscape:vp_z="744.09448 : 526.18109 : 1"
       inkscape:persp3d-origin="372.04724 : 350.78739 : 1"
       id="perspective4064" />
  </defs>
  <sodipodi:namedview
     id="base"
     pagecolor="#ffffff"
     bordercolor="#666666"
     borderopacity="1.0"
     inkscape:pageopacity="0.0"
     inkscape:pageshadow="2"
     inkscape:zoom="0.35"
     inkscape:cx="375"
     inkscape:cy="520"
     inkscape:document-units="px"
     inkscape:current-layer="layer1"
     showgrid="false"
     inkscape:window-width="788"
     inkscape:window-height="589"
     inkscape:window-x="555"
     inkscape:window-y="54"
     inkscape:window-maximized="0" />
  <metadata
     id="metadata4061">
    <rdf:RDF>
      <cc:Work
         rdf:about="">
        <dc:format>image/svg+xml</dc:format>
        <dc:type
           rdf:resource="http://purl.org/dc/dcmitype/StillImage" />
        <dc:title></dc:title>
      </cc:Work>
    </rdf:RDF>
  </metadata>
  <g
     inkscape:label="Layer 1"
     inkscape:groupmode="layer"
     id="layer1">
    <path
       sodipodi:type="arc"
       style="fill:#000000"
       id="path4068"
       sodipodi:cx="275.71429"
       sodipodi:cy="529.50507"
       sodipodi:rx="144.28572"
       sodipodi:ry="137.14285"
       d="m 420.00002,529.50507 a 144.28572,137.14285 0 1 1 -288.57145,0 144.28572,137.14285 0 1 1 288.57145,0 z"
       transform="translate(-8.5714286,42.857143)" />
    <path
       sodipodi:type="arc"
       style="fill:#000000"
       id="path4070"
       sodipodi:cx="411.42856"
       sodipodi:cy="879.50507"
       sodipodi:rx="125.71429"
       sodipodi:ry="67.14286"
       d="m 537.14285,879.50507 a 125.71429,67.14286 0 1 1 -251.42858,0 125.71429,67.14286 0 1 1 251.42858,0 z"
       transform="matrix(0.65055809,-1.0789375,1.2003289,0.49248561,-913.35349,577.41002)" />
    <path
       sodipodi:type="arc"
       style="fill:#000000"
       id="path4072"
       sodipodi:cx="380"
       sodipodi:cy="198.07646"
       sodipodi:rx="105.71429"
       sodipodi:ry="51.42857"
       d="m 485.71429,198.07646 a 105.71429,51.42857 0 1 1 -211.42858,0 105.71429,51.42857 0 1 1 211.42858,0 z"
       transform="matrix(0.93833114,0.34573785,-0.34573785,0.93833114,63.345267,177.97762)" />
    <path
       sodipodi:type="arc"
       style="fill:#000000"
       id="path4074"
       sodipodi:cx="135.71428"
       sodipodi:cy="235.21933"
       sodipodi:rx="81.428574"
       sodipodi:ry="97.14286"
       d="m 217.14285,235.21933 a 81.428574,97.14286 0 1 1 -162.857144,0 81.428574,97.14286 0 1 1 162.857144,0 z"
       transform="matrix(0.75848811,-0.82468295,1.0388677,0.73140439,159.84343,425.10013)" />
    <path
       sodipodi:type="arc"
       style="fill:#000000"
       id="path4076"
       sodipodi:cx="162.85715"
       sodipodi:cy="195.21933"
       sodipodi:rx="57.142857"
       sodipodi:ry="91.428574"
       d="m 220,195.21933 a 57.142857,91.428574 0 1 1 -114.28571,0 57.142857,91.428574 0 1 1 114.28571,0 z"
       transform="translate(260,125.71429)" />
    <path
       sodipodi:type="arc"
       style="fill:#000000"
       id="path4078"
       sodipodi:cx="430"
       sodipodi:cy="263.79074"
       sodipodi:rx="21.428572"
       sodipodi:ry="74.285713"
       d="m 451.42857,263.79074 a 21.428572,74.285713 0 1 1 -42.85714,0 21.428572,74.285713 0 1 1 42.85714,0 z"
       transform="matrix(0.93495526,0.35476564,-0.35476564,0.93495526,212.98169,-66.819595)" />
    <path
       sodipodi:type="arc"
       style="fill:#000000"
       id="path4080"
       sodipodi:cx="131.42857"
       sodipodi:cy="245.21933"
       sodipodi:rx="37.142857"
       sodipodi:ry="38.57143"
       d="m 168.57143,245.21933 a 37.142857,38.57143 0 1 1 -74.285713,0 37.142857,38.57143 0 1 1 74.285713,0 z"
       transform="translate(-17.142857,271.42857)" />
    <path
       sodipodi:type="arc"
       style="fill:#000000"
       id="path4082"
       sodipodi:cx="364.28571"
       sodipodi:cy="915.2193"
       sodipodi:rx="32.857143"
       sodipodi:ry="71.428574"
       d="m 397.14285,915.2193 a 32.857143,71.428574 0 1 1 -65.71429,0 32.857143,71.428574 0 1 1 65.71429,0 z"
       transform="matrix(1.3913043,0,0,1.2,-55.403726,-471.61528)" />
    <path
       sodipodi:type="arc"
       style="fill:#000000"
       id="path4084"
       sodipodi:cx="594.28571"
       sodipodi:cy="880.93359"
       sodipodi:rx="88.571426"
       sodipodi:ry="82.85714"
       d="m 682.85713,880.93359 a 88.571426,82.85714 0 1 1 -177.14285,0 88.571426,82.85714 0 1 1 177.14285,0 z"
       transform="translate(-360,-240)" />
    <path
       sodipodi:type="arc"
       style="fill:#000000"
       id="path4086"
       sodipodi:cx="147.14285"
       sodipodi:cy="193.79076"
       sodipodi:rx="78.571426"
       sodipodi:ry="70"
       d="m 225.71428,193.79076 a 78.571426,70 0 1 1 -157.142854,0 78.571426,70 0 1 1 157.142854,0 z"
       transform="matrix(0.5143826,0.83109514,-0.27957752,0.12482417,489.92039,490.16842)" />
    <path
       sodipodi:type="arc"
       style="fill:#000000"
       id="path4088"
       sodipodi:cx="502.85715"
       sodipodi:cy="113.79076"
       sodipodi:rx="60"
       sodipodi:ry="15.714286"
       d="m 562.85715,113.79076 a 60,15.714286 0 1 1 -120,0 60,15.714286 0 1 1 120,0 z"
       transform="matrix(0.97854978,0.20601048,-0.20601048,0.97854978,-225.77152,501.70413)" />
    <path
       sodipodi:type="arc"
       style="fill:#000000"
       id="path4090"
       sodipodi:cx="634.28571"
       sodipodi:cy="205.21933"
       sodipodi:rx="65.714287"
       sodipodi:ry="18.571428"
       d="m 699.99999,205.21933 a 65.714287,18.571428 0 1 1 -131.42857,0 65.714287,18.571428 0 1 1 131.42857,0 z"
       transform="matrix(0.6525529,0.16814947,-0.26460301,0.96458883,-26.53649,404.22459)"
       inkscape:transform-center-x="-74.517953"
       inkscape:transform-center-y="40.755192" />
  </g>
</svg>
