<?xml version="1.0" encoding="UTF-8" standalone="no"?>
<!-- Created with Inkscape (http://www.inkscape.org/) -->

<svg
   xmlns:dc="http://purl.org/dc/elements/1.1/"
   xmlns:cc="http://creativecommons.org/ns#"
   xmlns:rdf="http://www.w3.org/1999/02/22-rdf-syntax-ns#"
   xmlns:svg="http://www.w3.org/2000/svg"
   xmlns="http://www.w3.org/2000/svg"
   xmlns:xlink="http://www.w3.org/1999/xlink"
   xmlns:sodipodi="http://sodipodi.sourceforge.net/DTD/sodipodi-0.dtd"
   xmlns:inkscape="http://www.inkscape.org/namespaces/inkscape"
   width="744.09448819"
   height="1052.3622047"
   id="svg2"
   version="1.1"
   inkscape:version="0.47 r22583"
   sodipodi:docname="im2.svg">
  <defs
     id="defs4">
    <inkscape:perspective
       sodipodi:type="inkscape:persp3d"
       inkscape:vp_x="0 : 526.18109 : 1"
       inkscape:vp_y="0 : 1000 : 0"
       inkscape:vp_z="744.09448 : 526.18109 : 1"
       inkscape:persp3d-origin="372.04724 : 350.78739 : 1"
       id="perspective10" />
    <inkscape:perspective
       id="perspective2887"
       inkscape:persp3d-origin="0.5 : 0.33333333 : 1"
       inkscape:vp_z="1 : 0.5 : 1"
       inkscape:vp_y="0 : 1000 : 0"
       inkscape:vp_x="0 : 0.5 : 1"
       sodipodi:type="inkscape:persp3d" />
  </defs>
  <sodipodi:namedview
     id="base"
     pagecolor="#ffffff"
     bordercolor="#666666"
     borderopacity="1.0"
     inkscape:pageopacity="0.0"
     inkscape:pageshadow="2"
     inkscape:zoom="0.24748737"
     inkscape:cx="375.87303"
     inkscape:cy="907.4401"
     inkscape:document-units="px"
     inkscape:current-layer="layer1"
     showgrid="false"
     inkscape:window-width="1046"
     inkscape:window-height="725"
     inkscape:window-x="11"
     inkscape:window-y="0"
     inkscape:window-maximized="0" />
  <metadata
     id="metadata7">
    <rdf:RDF>
      <cc:Work
         rdf:about="">
        <dc:format>image/svg+xml</dc:format>
        <dc:type
           rdf:resource="http://purl.org/dc/dcmitype/StillImage" />
        <dc:title></dc:title>
      </cc:Work>
    </rdf:RDF>
  </metadata>
  <g
     inkscape:label="Layer 1"
     inkscape:groupmode="layer"
     id="layer1">
    <image
       y="-554.45691"
       x="1406.4917"
       id="image2889"
       height="1339.8572"
       width="974.57141"
       xlink:href="file:///Users/adleefayyaz/Desktop/inkscape_pasted_image_20100710_190401.png" />
    <path
       style="fill:#241c1c;stroke:#000000;stroke-width:0.50829846px;stroke-linecap:butt;stroke-linejoin:miter;stroke-opacity:1"
       d="m 414.83395,247.14057 -7.2615,7.98755 -0.726,16.70124 7.2613,43.56844 3.6308,21.78422 15.975,20.33194 15.9752,15.97509 -5.083,18.87966 -3.6307,21.78422 -0.7262,31.9502 -0.7261,27.59334 -5.083,25.41492 -10.166,12.3444 -20.3319,10.16597 -10.166,16.70123 -15.2489,21.78422 -6.5353,9.43983 -22.5103,21.78422 -15.249,21.05808 -22.5104,26.14106 -21.0581,33.40247 -14.5228,22.51036 -7.2614,31.22406 -9.4398,20.33193 2.1784,34.1286 7.2614,25.415 7.9876,15.2489 201.1409,1.4523 7.2614,-37.7593 7.2614,-21.05812 4.3569,-15.97509 4.3568,-18.87967 21.0581,8.71369 -2.1784,10.89211 -5.8092,11.61826 2.1785,10.89212 16.7012,22.5104 13.7967,13.7967 5.8091,5.8091 4.3569,-11.6183 6.5352,-12.3444 -3.6307,-20.33194 4.3569,-37.03317 -2.1784,-15.97509 -21.0581,-30.49792 1.4522,-15.97509 18.8797,-44.29458 6.5353,-54.46055 -2.9046,-23.2365 -18.1535,-29.04562 6.5353,-24.68879 -5.8092,-6.53527 42.1162,-8.71369 24.6888,-18.15352 3.6307,-15.97509 -7.9876,-19.6058 -51.556,-53.73441 -41.39,-13.79667 -26.8671,-7.26141 -8.7138,-13.79667 -2.9045,-41.39002 -7.9875,-19.6058 -26.1411,-23.2365 -11.6183,9.43983 -18.1535,-13.79668 z"
       id="path2893" />
    <path
       style="fill:#000000;stroke-width:0.1;stroke-miterlimit:4;stroke-dasharray:none"
       d="m 367.19427,795.19943 -63.61045,-0.6214 -3.72815,-7.2093 c -6.20435,-11.99793 -10.22962,-27.95892 -11.83548,-46.92973 -1.30295,-15.39306 -0.79863,-19.69573 3.47227,-29.62371 2.74815,-6.38822 6.57289,-18.41167 8.49941,-26.71872 3.87335,-16.7015 29.66304,-59.73988 49.92538,-83.31652 6.07257,-7.06587 13.58172,-16.52594 16.68703,-21.02239 3.10529,-4.49644 13.08433,-16.05874 22.17559,-25.694 9.09133,-9.63525 22.65731,-26.76332 30.14664,-38.06235 10.82686,-16.33431 15.83192,-21.68502 24.42666,-26.11378 5.94539,-3.06354 13.08469,-9.0601 15.86523,-13.32568 6.22939,-9.55644 9.6687,-32.10135 10.06625,-65.98475 0.27257,-23.23332 4.70104,-56.34515 8.3186,-62.19847 0.79892,-1.2926 -4.4626,-8.73917 -11.69213,-16.54794 -7.22954,-7.80877 -14.71552,-16.59523 -16.63545,-19.52545 -4.58462,-6.99705 -15.39108,-70.4036 -13.53501,-79.41664 2.52496,-12.26126 5.25665,-13.64444 13.91077,-7.04363 9.0017,6.86594 11.99393,7.22684 17.62987,2.12635 3.85617,-3.48979 5.03339,-2.98066 17.00346,7.35356 15.88973,13.71817 20.4447,24.15791 21.86765,50.11965 1.50295,27.42082 6.37819,36.06372 22.51852,39.92131 6.55451,1.56655 21.90285,6.2232 34.10752,10.34813 l 22.19027,7.49989 25.69401,26.07651 c 38.86022,39.43873 42.99127,54.85059 19.11092,71.29761 -12.50968,8.61575 -17.91206,10.59507 -42.01189,15.39224 -11.44682,2.27852 -13.11927,3.22699 -10.74164,6.09184 2.19917,2.64983 2.18066,6.23244 -0.0846,16.35441 l -2.90058,12.96124 8.87773,14.38309 c 11.48036,18.59966 13.00666,30.33928 8.54568,65.72969 -2.79851,22.2014 -5.3426,32.14359 -12.37283,48.35265 -4.8675,11.22254 -9.56156,24.61659 -10.43134,29.76458 -1.44806,8.57115 -0.64891,10.66665 9.48277,24.86493 12.63271,17.70316 14.69663,27.75409 10.81675,52.67541 -1.32098,8.48512 -1.54745,19.61979 -0.51398,25.27153 1.47627,8.07309 0.83403,12.39976 -3.19609,21.53153 l -5.04364,11.42834 -10.65007,-11.13502 c -15.46553,-16.16969 -25.46315,-29.8665 -25.42288,-34.82936 0.0185,-2.3845 1.54991,-8.53994 3.40117,-13.67873 4.87846,-13.5414 4.65695,-14.11351 -7.52401,-19.42825 l -11.09515,-4.84102 -2.99621,10.96673 c -1.64796,6.03167 -5.58518,19.37565 -8.7494,29.65323 -3.16425,10.2776 -6.85725,24.46772 -8.20671,31.53355 -5.05219,26.45395 0.37262,23.46869 -41.411,22.78842 -20.20757,-0.32895 -65.36577,-0.87769 -100.35151,-1.21958 l 0,0 z"
       id="path2895" />
  </g>
</svg>
