<?xml version="1.0" encoding="utf-8"?>
<!-- Generator: Adobe Illustrator 15.0.0, SVG Export Plug-In . SVG Version: 6.00 Build 0)  -->
<!DOCTYPE svg PUBLIC "-//W3C//DTD SVG 1.1//EN" "http://www.w3.org/Graphics/SVG/1.1/DTD/svg11.dtd">
<svg version="1.1" id="Layer_1" xmlns="http://www.w3.org/2000/svg" xmlns:xlink="http://www.w3.org/1999/xlink" x="0px" y="0px"
	 width="1024px" height="768px" viewBox="0 0 1024 768" enable-background="new 0 0 1024 768" xml:space="preserve">
<rect x="181" y="658" fill="#231F20" width="662.667" height="25"/>
<rect x="177" y="627" fill="#231F20" width="671.334" height="25"/>
<rect x="188" y="597" fill="#231F20" width="653.334" height="25"/>
<rect x="210" y="567" fill="#231F20" width="622.001" height="25"/>
<rect x="313" y="536" fill="#231F20" width="407.334" height="25"/>
<rect x="308" y="506" fill="#231F20" width="413.999" height="25"/>
<rect x="303" y="477" fill="#231F20" width="417.334" height="25"/>
<rect x="305" y="447.5" fill="#231F20" width="416.001" height="25"/>
<rect x="307" y="421" fill="#231F20" width="414" height="25"/>
<rect x="310.667" y="393.333" fill="#231F20" width="406.667" height="25"/>
<rect x="314" y="366" fill="#231F20" width="400.667" height="25"/>
<rect x="319" y="337.833" fill="#231F20" width="390" height="25"/>
<rect x="336" y="317.667" fill="#231F20" width="360.333" height="18"/>
<rect x="366.667" y="300.333" fill="#231F20" width="307" height="14.666"/>
<rect x="396" y="283" fill="#231F20" width="237" height="15.333"/>
<rect x="465" y="260.666" fill="#231F20" width="101.666" height="23"/>
<rect x="447.333" y="244.478" fill="#231F20" width="144.275" height="14.521"/>
<rect x="435.333" y="207.333" fill="#231F20" width="162" height="25"/>
<rect x="434.334" y="181.833" fill="#231F20" width="163.333" height="25"/>
<rect x="430.334" y="166.5" fill="#231F20" width="172" height="15.667"/>
<rect x="428.333" y="151.167" fill="#231F20" width="175.333" height="15.667"/>
<rect x="435.667" y="134.834" fill="#231F20" width="165.333" height="15.667"/>
<rect x="439" y="118.5" fill="#231F20" width="155.333" height="15.667"/>
<rect x="451" y="101.834" fill="#231F20" width="130" height="15.667"/>
<rect x="464.334" y="85.167" fill="#231F20" width="108" height="15.667"/>
<rect x="578.667" y="259.167" fill="#231F20" width="14" height="13"/>
<rect x="447" y="258.167" fill="#231F20" width="14" height="13"/>
<rect x="440.124" y="231.783" fill="#231F20" width="155.144" height="14.522"/>
</svg>
