<?xml version="1.0" encoding="utf-8"?>
<!-- Generator: Adobe Illustrator 15.0.0, SVG Export Plug-In . SVG Version: 6.00 Build 0)  -->
<!DOCTYPE svg PUBLIC "-//W3C//DTD SVG 1.1//EN" "http://www.w3.org/Graphics/SVG/1.1/DTD/svg11.dtd">
<svg version="1.1" id="Layer_1" xmlns="http://www.w3.org/2000/svg" xmlns:xlink="http://www.w3.org/1999/xlink" x="0px" y="0px"
	 width="800px" height="600px" viewBox="0 0 800 600" enable-background="new 0 0 800 600" xml:space="preserve">
<g>
	<path d="M474.459,282.697c-21.005-1.73-48.686-5.13-49.429-6.071c-1.025-1.282-4.979-20.869-5.472-26.998
		c-0.321-4.002,0.361-5.273,8.661-16.302c5.274-6.994,10.034-12.219,11.445-12.568c1.336-0.335,9.142-1.108,17.344-1.711
		l14.916-1.089l10.288,9.776c5.655,5.37,16.387,15.794,23.842,23.159l13.552,13.383l0.843,6.881
		c0.452,3.795,0.787,7.568,0.744,8.399c-0.047,0.88-3.125,2.211-7.438,3.204C506.733,284.386,494.673,284.371,474.459,282.697
		L474.459,282.697z"/>
	<path fill="#FF0000" d="M472.381,277.903c-19.992-1.543-44.064-4.243-44.763-5.022c-0.967-1.052-4.746-16.817-5.247-21.814
		c-0.325-3.226,0.309-4.251,7.916-13.125c4.834-5.609,9.207-9.819,10.506-10.101c1.245-0.249,8.461-0.843,16.038-1.305l13.813-0.837
		l11.415,9.454c6.281,5.193,16.25,13.618,22.167,18.713l10.754,9.258l0.82,5.607c0.458,3.07,0.811,6.139,0.777,6.809
		c-0.039,0.725-2.893,1.776-6.878,2.567C503.188,279.394,491.024,279.339,472.381,277.903L472.381,277.903z"/>
	<polygon stroke="#000000" stroke-width="0.5383" stroke-miterlimit="282" points="510.811,255.956 522.842,266.4 514.764,280.951 
		510.811,255.956 	"/>
</g>
<g>
	<path d="M443.709,208.054c-34.061-41.346-32.117-38.362-32.625-50.013c-0.888-20.679-0.471-51.555,0.735-54.27
		c0.4-0.9,2.28-0.254,6.356,2.151c5.687,3.35,5.979,3.824,13.269,20.672c4.747,10.948,9.899,26.338,14.128,42.196
		c3.659,13.742,9.176,32.969,12.278,42.741c3.088,9.764,5.521,17.996,5.394,18.285C462.744,230.94,460.608,228.566,443.709,208.054
		L443.709,208.054L443.709,208.054z"/>
	<path fill="#FF0000" d="M449.262,208.619c-11.376-12.919-28.999-35.153-31.546-39.823c-2.506-4.59-2.854-6.893-3.267-21.764
		c-0.404-14.28-0.183-32.011,0.424-33.376c0.101-0.226,1.188,0.072,2.395,0.663c7.324,3.583,14.19,20.38,30.297,74.009
		c8.182,27.2,7.975,26.492,7.057,25.945C454.189,214.023,451.782,211.477,449.262,208.619L449.262,208.619z"/>
</g>
<g>
	<polygon stroke="#000000" stroke-width="0.6516" stroke-miterlimit="282" points="455.203,220.022 463.545,149.417 
		480.769,119.922 495.558,108.351 497.163,123.099 468.6,222.357 455.203,220.022 	"/>
	<path fill="#FF0000" d="M457.633,212.851c0.212-2.033,2.045-16.53,4.069-32.203l3.676-28.531l7.455-13.339
		c6.425-11.517,8.314-14.088,13.624-18.67l6.166-5.314l0.547,6.247l0.528,6.242L480.85,172.12
		c-7.062,24.663-13.132,45.089-13.478,45.378c-0.346,0.288-2.754,0.198-5.373-0.208C457.377,216.56,457.274,216.457,457.633,212.851
		L457.633,212.851z"/>
</g>
<g>
	<path stroke="#000000" stroke-width="0.4816" stroke-miterlimit="282" d="M427.463,278.962
		c-45.177,42.103-84.234,88.758-118.42,133.078l5.821,31.819l25.576,9.909c-22.105,12.303-40.513,28.345-60.672,42.614
		l98.363-33.539l-7.188-9.075l20.634,0.903l-5.383,7.269l106.674,25.811c-24.736-12.924-46.456-27.068-81.553-35.791l32.309-18.153
		l-0.911-15.422l-16.584-39.761l33.764-38.113c14.848-20.298,4.926-38.947,5.627-59.262L427.463,278.962L427.463,278.962z"/>
	<path fill="#FF0000" d="M290.486,488.467c0-1.136,41.354-30.687,48.524-34.676c1.84-1.027,3.226-2.214,3.103-2.639
		c-0.141-0.409-5.364-2.731-11.605-5.143c-6.241-2.427-11.482-4.483-11.622-4.59c-0.159-0.108-1.508-6.754-3.016-14.75
		c-1.929-10.317-2.489-14.926-1.945-15.83c1.296-2.127,27.242-34.531,36.182-45.187c21.107-25.209,47.104-53.376,64.793-70.216
		l10.746-10.229l17.495,1.01l17.496,1.009l1.35,13.988c1.666,17.036,1.684,22.194,0.123,28.258
		c-2.016,7.817-4.698,11.611-21.687,30.811c-8.992,10.156-16.373,18.933-16.373,19.481c-0.017,0.549,3.488,9.413,7.767,19.677
		c7.59,18.188,7.801,18.844,8.029,25.527l0.228,6.861l-14.849,8.419c-8.169,4.627-14.796,8.74-14.743,9.147
		c0.07,0.407,3.401,1.685,7.416,2.818c12.552,3.564,24.787,8.614,41.617,17.142c17.495,8.882,22.088,11.471,20.37,11.471
		c-0.946,0-81.92-19.394-89.878-21.521l-2.981-0.797l2.438-3.334l2.437-3.332l-6.521-0.514c-3.594-0.301-8.415-0.568-10.711-0.604
		l-4.189-0.089l3.208,4.078c1.771,2.251,3.208,4.308,3.208,4.573c-0.018,0.461-84.55,29.516-85.829,29.497
		C290.749,488.785,290.486,488.626,290.486,488.467L290.486,488.467z"/>
</g>
<g>
	<path d="M486.446,368.876c-19.577-21.791-24.726-28.482-31.886-41.468l-5.953-10.8l2.909-16.795
		c1.958-11.305,3.214-16.371,3.863-15.528c0.535,0.669,3.199,7.586,5.931,15.369c9.537,27.18,23.227,57.066,35.039,76.545
		c2.88,4.744,5.196,8.777,5.135,8.975C501.429,385.345,494.675,378.019,486.446,368.876L486.446,368.876z"/>
	<g>
		<path fill="#FF0000" d="M484.38,364.796c-18.083-19.882-26.017-30.023-32.595-41.726l-3.332-5.93l1.909-10.964
			c1.061-6.027,2.169-11.568,2.476-12.292c0.699-1.708,0.4-2.376,6.473,14.035c4.196,11.313,6.884,17.307,16.568,36.84
			c6.361,12.815,11.548,23.337,11.548,23.337C487.412,368.105,486.037,366.628,484.38,364.796L484.38,364.796L484.38,364.796z"/>
	</g>
</g>
<g>
	<path d="M441.476,377.473c-6.398-27.281-7.661-35.24-7.8-49.298l-0.107-11.701l9.748-12.214c6.574-8.226,9.818-11.734,9.992-10.725
		c0.122,0.798-0.736,7.729-1.928,15.387c-4.155,26.751-6.117,57.736-5.031,79.346c0.263,5.265,0.367,9.679,0.245,9.803
		C446.472,398.196,444.175,388.925,441.476,377.473L441.476,377.473z"/>
	<path fill="#FF0000" d="M443.991,377.217c-6.031-24.994-8.046-37.121-8.274-49.867l-0.105-6.434l6.382-7.978
		c3.523-4.396,6.854-8.349,7.416-8.792c1.332-1.046,1.365-1.719-0.878,14.59c-1.559,11.237-1.998,17.425-2.681,38.04
		c-0.439,13.526-0.807,24.604-0.825,24.604C445.008,381.381,444.553,379.504,443.991,377.217L443.991,377.217L443.991,377.217z"/>
</g>
<g>
	<polygon stroke="#000000" stroke-width="0.1983" stroke-miterlimit="282" points="299.887,416.205 286.336,411.634 
		290.859,411.262 283.706,408.973 288.229,408.211 279.569,402.132 279.184,393.374 278.062,389.936 280.691,392.612 
		279.569,383.854 282.952,388.8 288.229,381.178 282.952,372.439 287.844,373.945 284.46,367.104 290.473,372.812 293.874,368.237 
		295.75,364.054 296.504,371.286 301.78,376.993 305.164,372.439 304.41,369.39 307.426,373.573 310.055,384.227 313.438,380.044 
		313.438,371.676 315.7,378.908 316.839,374.335 319.469,389.562 321.345,386.513 323.237,392.984 322.483,401.368 307.426,419.256 
		299.887,416.205 	"/>
	<g>
		<path fill="#FFFFFF" d="M305.206,414.839c-1.139-0.479-5.084-1.951-8.765-3.244c-5.224-1.844-6.416-2.357-5.382-2.375
			c1.998-0.035,1.401-0.744-1.351-1.578c-1.735-0.532-2.208-0.798-1.752-0.975c0.35-0.142,0.929-0.248,1.279-0.248
			c1.455,0,0.807-0.762-2.893-3.35l-3.892-2.731l-0.211-4.218c-0.122-2.305-0.332-4.503-0.456-4.857
			c-0.245-0.657-0.227-0.657,0.51,0c0.402,0.354,0.841,0.567,0.946,0.461c0.122-0.124,0.034-1.578-0.193-3.228
			c-0.21-1.665-0.332-3.084-0.263-3.155c0.069-0.07,0.613,0.585,1.227,1.455c0.597,0.867,1.246,1.487,1.438,1.363
			c0.367-0.23,4.436-5.938,4.662-6.56c0.088-0.23-0.771-2.001-1.91-3.952c-1.14-1.933-2.068-3.599-2.068-3.688s0.771,0.089,1.7,0.39
			c0.946,0.303,1.806,0.462,1.928,0.356c0.105-0.106-0.279-1.153-0.858-2.322c-0.597-1.172-0.946-2.128-0.807-2.128
			c0.123,0,1.069,0.814,2.086,1.826l1.842,1.824l1.349-1.559c0.737-0.869,1.771-2.375,2.297-3.368
			c1.017-1.985,1.438-1.88,1.473,0.407c0.034,2.217,0.7,3.492,3.032,5.921c1.753,1.791,2.296,2.181,2.683,1.862
			c0.823-0.691,2.788-3.582,2.928-4.309c0.264-1.419,1.736,1.915,2.875,6.489c0.613,2.481,1.21,4.609,1.314,4.697
			c0.158,0.159,1.701-1.437,2.875-2.979c0.246-0.337,0.438-1.824,0.456-3.687l0.034-3.121l0.859,2.52
			c0.474,1.381,1,2.446,1.157,2.34c0.158-0.089,0.386-0.835,0.543-1.649c0.229-1.33,0.369-0.797,1.368,4.893
			c0.613,3.509,1.227,6.489,1.35,6.613c0.123,0.123,0.351-0.019,0.525-0.304c1.123-1.983,1.193-1.948,1.981,0.923
			c0.666,2.5,0.701,3.049,0.368,6.383c-0.368,3.65-0.368,3.668-1.963,5.565c-6.066,7.269-11.887,14.094-12.062,14.129
			C307.363,415.708,306.346,415.334,305.206,414.839L305.206,414.839z"/>
	</g>
</g>
<path fill="#FF0000" d="M310.868,387.991"/>
</svg>
