<?xml version="1.0" encoding="utf-8"?>
<!-- Generator: Adobe Illustrator 15.0.0, SVG Export Plug-In . SVG Version: 6.00 Build 0)  -->
<!DOCTYPE svg PUBLIC "-//W3C//DTD SVG 1.1//EN" "http://www.w3.org/Graphics/SVG/1.1/DTD/svg11.dtd">
<svg version="1.1" id="Layer_1" xmlns="http://www.w3.org/2000/svg" xmlns:xlink="http://www.w3.org/1999/xlink" x="0px" y="0px"
	 width="800px" height="600px" viewBox="0 0 800 600" enable-background="new 0 0 800 600" xml:space="preserve">
<g>
	<path d="M483.642,280.493c-21.416,4.555-49.986,9.497-51.016,8.825c-1.417-0.913-11.406-18.307-13.792-23.969
		c-1.559-3.698-1.273-5.104,3.565-18.002c3.079-8.183,6.195-14.537,7.489-15.285c1.225-0.711,8.745-3.746,16.712-6.736l14.492-5.431
		l13.252,6.229c7.284,3.421,21.177,10.134,30.866,14.914l17.613,8.686l2.967,6.272c1.625,3.462,3.125,6.939,3.339,7.738
		c0.227,0.849-2.423,3.017-6.403,5.23C516.249,272.575,504.256,276.117,483.642,280.493L483.642,280.493z"/>
	<path fill="#FF0000" d="M480.094,276.563c-20.353,4.435-45.118,8.975-46.054,8.443c-1.287-0.712-9.922-14.536-11.965-19.124
		c-1.322-2.96-1.009-4.119,3.809-14.772c3.068-6.74,6.114-12.02,7.318-12.669c1.161-0.603,8.15-3.295,15.54-5.967l13.473-4.867
		l14.272,5.592c7.852,3.068,20.368,8.111,27.827,11.194l13.556,5.602l2.55,5.072c1.405,2.774,2.704,5.578,2.878,6.223
		c0.187,0.698-2.325,2.536-6.042,4.46C511.181,268.89,499.071,272.425,480.094,276.563L480.094,276.563z"/>
	<polygon stroke="#000000" stroke-width="0.5383" stroke-miterlimit="282" points="511.506,244.433 526.698,250.781 523.17,266.951 
		511.506,244.433 	"/>
</g>
<g>
	<path d="M444.443,208.751c-35.462-41.032-33.438-38.071-33.968-49.634c-0.924-20.521-0.49-51.164,0.766-53.858
		c0.417-0.893,2.374-0.252,6.618,2.134c5.921,3.324,6.225,3.795,13.814,20.515c4.942,10.865,10.307,26.139,14.709,41.876
		c3.811,13.637,9.554,32.719,12.784,42.417c3.215,9.69,5.749,17.859,5.615,18.146C464.262,231.464,462.038,229.107,444.443,208.751
		L444.443,208.751L444.443,208.751z"/>
	<path fill="#FF0000" d="M450.225,209.312c-11.844-12.821-30.192-34.887-32.844-39.521c-2.609-4.555-2.973-6.841-3.401-21.599
		c-0.421-14.171-0.19-31.768,0.441-33.123c0.104-0.224,1.236,0.071,2.493,0.658c7.625,3.556,14.774,20.226,31.544,73.447
		c8.518,26.993,8.302,26.291,7.347,25.749C455.355,214.675,452.849,212.147,450.225,209.312L450.225,209.312z"/>
</g>
<g>
	<polygon stroke="#000000" stroke-width="0.6516" stroke-miterlimit="282" points="456.41,220.628 465.096,150.559 483.028,121.288 
		498.426,109.805 500.097,124.44 470.358,222.945 456.41,220.628 	"/>
	<path fill="#FF0000" d="M458.94,213.511c0.221-2.018,2.129-16.404,4.236-31.958l3.827-28.315L474.766,140
		c6.689-11.43,8.657-13.981,14.185-18.528l6.42-5.273l0.569,6.199l0.55,6.194l-13.377,44.498
		c-7.353,24.476-13.672,44.747-14.032,45.034c-0.359,0.286-2.867,0.196-5.594-0.206C458.674,217.192,458.567,217.09,458.94,213.511
		L458.94,213.511z"/>
</g>
<g>
	<path stroke="#000000" stroke-width="0.4816" stroke-miterlimit="282" d="M427.528,279.121
		c-47.035,41.783-87.7,88.085-123.292,132.067l6.061,31.578l26.629,9.834c-23.016,12.209-42.18,28.129-63.169,42.291l102.411-33.285
		l-7.483-9.006l21.482,0.896l-5.604,7.213l111.063,25.615c-25.754-12.826-48.367-26.863-84.908-35.52l33.639-18.016l-0.949-15.305
		l-17.267-39.459l35.153-37.824c15.459-20.144,5.129-38.651,5.858-58.812L427.528,279.121L427.528,279.121z"/>
	<path fill="#FF0000" d="M284.916,487.035c0-1.127,43.055-30.453,50.521-34.412c1.916-1.02,3.358-2.197,3.23-2.619
		c-0.146-0.406-5.585-2.711-12.083-5.104c-6.498-2.408-11.955-4.449-12.101-4.555c-0.165-0.107-1.569-6.703-3.14-14.639
		c-2.008-10.238-2.592-14.813-2.025-15.709c1.35-2.111,28.363-34.27,37.671-44.844c21.976-25.018,49.043-52.971,67.459-69.684
		l11.188-10.151l18.215,1.002l18.216,1.002l1.405,13.882c1.734,16.906,1.753,22.025,0.128,28.043
		c-2.099,7.758-4.892,11.523-22.578,30.576c-9.362,10.08-17.047,18.789-17.047,19.334c-0.018,0.545,3.632,9.342,8.086,19.527
		c7.902,18.051,8.122,18.701,8.359,25.334l0.237,6.809l-15.46,8.355c-8.505,4.592-15.404,8.674-15.35,9.078
		c0.073,0.404,3.541,1.672,7.721,2.797c13.068,3.537,25.808,8.549,43.33,17.012c18.215,8.814,22.997,11.383,21.208,11.383
		c-0.985,0-85.29-19.246-93.576-21.357l-3.104-0.791l2.537-3.309l2.537-3.307l-6.79-0.51c-3.741-0.299-8.761-0.564-11.151-0.6
		l-4.362-0.088l3.34,4.047c1.844,2.234,3.341,4.275,3.341,4.539c-0.019,0.457-88.029,29.291-89.361,29.273
		C285.189,487.352,284.916,487.193,284.916,487.035L284.916,487.035z"/>
</g>
<g>
	<path d="M488.939,368.353c-20.383-21.626-25.743-28.267-33.198-41.153l-6.198-10.718l3.029-16.668
		c2.039-11.219,3.346-16.246,4.022-15.41c0.557,0.664,3.331,7.529,6.175,15.253c9.93,26.974,24.182,56.633,36.48,75.964
		c2.998,4.708,5.41,8.711,5.347,8.906C504.538,384.696,497.507,377.426,488.939,368.353L488.939,368.353z"/>
	<g>
		<path fill="#FF0000" d="M486.788,364.303c-18.827-19.73-27.087-29.795-33.937-41.408l-3.469-5.885l1.987-10.881
			c1.104-5.981,2.259-11.48,2.578-12.199c0.728-1.695,0.417-2.358,6.738,13.929c4.369,11.228,7.167,17.175,17.25,36.56
			c6.624,12.719,12.023,23.16,12.023,23.16C489.945,367.588,488.514,366.121,486.788,364.303L486.788,364.303L486.788,364.303z"/>
	</g>
</g>
<g>
	<path d="M442.118,376.884c-6.662-27.074-7.977-34.973-8.121-48.924l-0.111-11.612l10.148-12.121
		c6.846-8.163,10.223-11.646,10.404-10.644c0.127,0.792-0.768,7.671-2.008,15.271c-4.326,26.548-6.369,57.298-5.238,78.743
		c0.273,5.225,0.383,9.605,0.256,9.729C447.319,397.45,444.929,388.249,442.118,376.884L442.118,376.884z"/>
	<path fill="#FF0000" d="M444.737,376.63c-6.279-24.805-8.377-36.84-8.615-49.488l-0.109-6.385l6.645-7.917
		c3.668-4.363,7.135-8.286,7.721-8.726c1.387-1.038,1.422-1.706-0.914,14.479c-1.623,11.152-2.08,17.293-2.791,37.752
		c-0.457,13.424-0.84,24.418-0.859,24.418C445.796,380.763,445.321,378.899,444.737,376.63L444.737,376.63L444.737,376.63z"/>
</g>
<g>
	<polygon stroke="#000000" stroke-width="0.1983" stroke-miterlimit="282" points="294.703,415.322 280.595,410.785 
		285.304,410.416 277.856,408.145 282.565,407.389 273.55,401.355 273.147,392.664 271.979,389.252 274.718,391.908 273.55,383.217 
		277.071,388.125 282.565,380.561 277.071,371.889 282.164,373.383 278.642,366.593 284.901,372.258 288.442,367.719 
		290.396,363.566 291.181,370.744 296.675,376.408 300.197,371.889 299.412,368.862 302.552,373.014 305.289,383.586 
		308.812,379.436 308.812,371.131 311.167,378.309 312.353,373.77 315.091,388.881 317.044,385.855 319.015,392.277 
		318.229,400.598 302.552,418.35 294.703,415.322 	"/>
	<g>
		<path fill="#FFFFFF" d="M300.241,413.966c-1.186-0.475-5.293-1.936-9.125-3.219c-5.439-1.83-6.681-2.34-5.604-2.357
			c2.08-0.035,1.459-0.738-1.406-1.566c-1.807-0.527-2.299-0.791-1.824-0.967c0.364-0.141,0.967-0.246,1.332-0.246
			c1.515,0,0.84-0.756-3.012-3.324l-4.052-2.711l-0.22-4.186c-0.127-2.287-0.346-4.469-0.475-4.82c-0.255-0.652-0.236-0.652,0.53,0
			c0.419,0.352,0.876,0.563,0.985,0.457c0.128-0.123,0.036-1.566-0.201-3.203c-0.219-1.652-0.346-3.061-0.273-3.131
			s0.639,0.58,1.277,1.443c0.621,0.861,1.297,1.477,1.497,1.354c0.383-0.229,4.618-5.893,4.854-6.51
			c0.092-0.229-0.803-1.986-1.989-3.922c-1.187-1.918-2.153-3.572-2.153-3.66s0.803,0.088,1.771,0.387
			c0.985,0.301,1.88,0.459,2.007,0.354c0.11-0.105-0.291-1.145-0.894-2.305c-0.621-1.162-0.985-2.111-0.84-2.111
			c0.128,0,1.113,0.809,2.172,1.813l1.917,1.811l1.404-1.547c0.768-0.863,1.844-2.357,2.392-3.343
			c1.059-1.971,1.497-1.865,1.533,0.404c0.036,2.2,0.729,3.466,3.157,5.876c1.825,1.777,2.391,2.164,2.793,1.848
			c0.857-0.686,2.902-3.555,3.048-4.275c0.274-1.408,1.808,1.9,2.993,6.439c0.639,2.463,1.26,4.574,1.369,4.662
			c0.164,0.158,1.771-1.426,2.993-2.957c0.256-0.334,0.456-1.811,0.475-3.658l0.036-3.098l0.895,2.5
			c0.493,1.371,1.041,2.428,1.205,2.322c0.164-0.088,0.401-0.828,0.565-1.637c0.237-1.32,0.384-0.791,1.424,4.855
			c0.639,3.482,1.277,6.439,1.405,6.563s0.365-0.018,0.547-0.301c1.169-1.969,1.242-1.934,2.063,0.916
			c0.693,2.48,0.729,3.025,0.383,6.334c-0.383,3.623-0.383,3.641-2.044,5.523c-6.315,7.213-12.375,13.986-12.558,14.021
			C302.487,414.829,301.428,414.458,300.241,413.966L300.241,413.966z"/>
	</g>
</g>
<path fill="#FF0000" d="M306.136,387.322"/>
</svg>
