<?xml version="1.0" encoding="utf-8"?>
<!-- Generator: Adobe Illustrator 15.0.0, SVG Export Plug-In . SVG Version: 6.00 Build 0)  -->
<!DOCTYPE svg PUBLIC "-//W3C//DTD SVG 1.1//EN" "http://www.w3.org/Graphics/SVG/1.1/DTD/svg11.dtd">
<svg version="1.1" id="Layer_1" xmlns="http://www.w3.org/2000/svg" xmlns:xlink="http://www.w3.org/1999/xlink" x="0px" y="0px"
	 width="800px" height="600px" viewBox="0 0 800 600" enable-background="new 0 0 800 600" xml:space="preserve">
<g>
	<g>
		<path d="M472.627,288.256c-20.824-6.764-48.037-16.769-48.593-17.865c-0.771-1.499-0.725-21.558,0.04-27.654
			c0.5-3.982,1.449-5.057,12.089-13.808c6.759-5.547,12.634-9.492,14.128-9.492c1.417-0.003,9.446,1.129,17.842,2.522l15.266,2.542
			l8.362,12.021c4.598,6.604,13.272,19.365,19.273,28.349l10.911,16.329l-0.567,6.915c-0.323,3.811-0.763,7.572-0.978,8.371
			c-0.228,0.849-3.606,1.401-8.16,1.328C504.825,297.704,492.668,294.773,472.627,288.256L472.627,288.256z"/>
		<path fill="#FF0000" d="M471.52,283.078c-19.843-6.336-43.561-14.786-44.105-15.715c-0.758-1.259-1.324-17.548-0.8-22.543
			c0.335-3.225,1.187-4.071,10.685-10.888c6.027-4.303,11.305-7.352,12.673-7.313c1.307,0.058,8.705,1.222,16.441,2.602
			l14.101,2.521l9.564,11.979c5.266,6.583,13.584,17.208,18.502,23.608l8.939,11.629l-0.328,5.667
			c-0.17,3.104-0.447,6.182-0.619,6.827c-0.188,0.697-3.281,1.034-7.463,0.842C502.278,291.976,490.023,288.983,471.52,283.078
			L471.52,283.078z"/>
		<polygon stroke="#000000" stroke-width="0.5383" stroke-miterlimit="282" points="514.788,270.958 524.771,284.052 
			513.631,296.293 514.788,270.958 		"/>
	</g>
	<g>
		<path d="M431.384,222.87c-49.48-22.201-46.396-20.372-51.762-30.628c-9.51-18.208-22.067-46.163-22.067-49.136
			c0-0.985,2.045-1.231,6.899-0.862c6.771,0.51,7.246,0.809,21.19,12.755c9.071,7.758,20.388,19.334,31.028,31.736
			c9.217,10.749,22.486,25.615,29.513,33.039c7.009,7.424,12.758,13.757,12.758,14.073
			C458.943,235.079,455.933,233.883,431.384,222.87L431.384,222.87L431.384,222.87z"/>
		<path fill="#FF0000" d="M436.859,220.935c-16.152-6.614-42.107-18.858-46.469-21.938c-4.29-3.025-5.585-4.943-12.211-18.138
			c-6.37-12.666-13.598-28.711-13.598-30.206c0-0.247,1.15-0.458,2.537-0.458c8.414,0,21.938,12.086,59.629,53.235
			c19.128,20.864,18.635,20.319,17.54,20.231C443.776,223.627,440.437,222.396,436.859,220.935L436.859,220.935z"/>
	</g>
	<g>
		<polygon stroke="#000000" stroke-width="0.6516" stroke-miterlimit="282" points="445.881,221.377 436.135,151.448 
			445.881,118.533 457.781,103.456 463.184,117.16 459.953,220.005 445.881,221.377 		"/>
		<path fill="#FF0000" d="M446.482,213.848c-0.309-2.006-2.189-16.396-4.18-31.966l-3.631-28.341l4.07-14.795
			c3.504-12.772,4.744-15.746,8.906-21.568l4.836-6.755l2.154,5.841l2.135,5.841l-1.404,46.443
			c-0.768,25.545-1.625,46.761-1.898,47.131c-0.273,0.369-2.719,0.932-5.457,1.249C447.178,217.472,447.049,217.402,446.482,213.848
			L446.482,213.848z"/>
	</g>
	<g>
		<path stroke="#000000" stroke-width="0.4816" stroke-miterlimit="282" d="M431.528,281.121
			c-47.035,41.783-87.7,88.085-123.292,132.067l6.06,31.578l26.629,9.834c-23.015,12.209-42.18,28.129-63.169,42.291l102.411-33.285
			l-7.483-9.006l21.482,0.896l-5.604,7.213l111.063,25.615c-25.754-12.826-48.367-26.863-84.908-35.52l33.639-18.016l-0.949-15.305
			l-17.267-39.459l35.153-37.824c15.459-20.144,5.129-38.651,5.858-58.812L431.528,281.121L431.528,281.121z"/>
		<path fill="#FF0000" d="M288.916,489.035c0-1.127,43.056-30.453,50.521-34.412c1.916-1.02,3.358-2.197,3.23-2.619
			c-0.146-0.406-5.585-2.711-12.083-5.104c-6.498-2.408-11.955-4.449-12.101-4.555c-0.165-0.107-1.57-6.703-3.14-14.639
			c-2.007-10.238-2.592-14.813-2.026-15.709c1.351-2.111,28.364-34.27,37.671-44.844c21.976-25.018,49.043-52.971,67.459-69.684
			l11.188-10.151l18.215,1.002l18.216,1.002l1.405,13.882c1.734,16.906,1.753,22.025,0.128,28.043
			c-2.099,7.758-4.892,11.523-22.578,30.576c-9.362,10.08-17.047,18.789-17.047,19.334c-0.018,0.545,3.632,9.342,8.086,19.527
			c7.902,18.051,8.122,18.701,8.359,25.334l0.237,6.809l-15.46,8.355c-8.505,4.592-15.404,8.674-15.35,9.078
			c0.073,0.404,3.541,1.672,7.721,2.797c13.068,3.537,25.808,8.549,43.33,17.012c18.215,8.814,22.997,11.383,21.208,11.383
			c-0.985,0-85.29-19.246-93.576-21.357l-3.104-0.791l2.537-3.309l2.537-3.307l-6.79-0.51c-3.741-0.299-8.761-0.564-11.151-0.6
			l-4.362-0.088l3.34,4.047c1.844,2.234,3.341,4.275,3.341,4.539c-0.019,0.457-88.029,29.291-89.361,29.273
			C289.189,489.352,288.916,489.193,288.916,489.035L288.916,489.035z"/>
	</g>
	<g>
		<path d="M478.533,385.606c-20.383-21.626-25.743-28.267-33.198-41.153l-6.198-10.718l3.029-16.668
			c2.039-11.219,3.346-16.246,4.022-15.41c0.557,0.664,3.331,7.529,6.175,15.253c9.93,26.974,24.182,56.633,36.48,75.964
			c2.998,4.708,5.41,8.711,5.347,8.906C494.132,401.95,487.101,394.68,478.533,385.606L478.533,385.606z"/>
		<g>
			<path fill="#FF0000" d="M476.382,381.557c-18.827-19.73-27.087-29.795-33.937-41.408l-3.469-5.885l1.987-10.881
				c1.104-5.981,2.259-11.48,2.578-12.199c0.728-1.695,0.417-2.358,6.738,13.929c4.369,11.228,7.167,17.175,17.25,36.56
				c6.624,12.719,12.023,23.16,12.023,23.16C479.539,384.842,478.107,383.375,476.382,381.557L476.382,381.557L476.382,381.557z"/>
		</g>
	</g>
	<g>
		<path d="M435.102,384.815c-6.662-27.074-7.977-34.973-8.121-48.924l-0.111-11.612l10.148-12.121
			c6.846-8.163,10.223-11.646,10.404-10.644c0.127,0.792-0.768,7.671-2.008,15.271c-4.326,26.548-6.369,57.298-5.238,78.743
			c0.273,5.225,0.383,9.605,0.256,9.729C440.303,405.382,437.912,396.181,435.102,384.815L435.102,384.815z"/>
		<path fill="#FF0000" d="M437.721,384.562c-6.279-24.805-8.377-36.84-8.615-49.488l-0.109-6.385l6.645-7.917
			c3.668-4.363,7.135-8.286,7.721-8.726c1.387-1.038,1.422-1.706-0.914,14.479c-1.623,11.152-2.08,17.293-2.791,37.752
			c-0.457,13.424-0.84,24.418-0.859,24.418C438.779,388.694,438.305,386.831,437.721,384.562L437.721,384.562L437.721,384.562z"/>
	</g>
	<g>
		<polygon stroke="#000000" stroke-width="0.1983" stroke-miterlimit="282" points="301.245,410.543 287.136,406.006 
			291.846,405.637 284.399,403.365 289.107,402.609 280.091,396.576 279.69,387.885 278.521,384.473 281.259,387.129 
			280.091,378.438 283.614,383.346 289.107,375.781 283.614,367.109 288.706,368.604 285.184,361.813 291.444,367.479 
			294.985,362.939 296.938,358.787 297.723,365.965 303.216,371.629 306.739,367.109 305.954,364.083 309.093,368.234 
			311.831,378.807 315.354,374.656 315.354,366.352 317.708,373.529 318.895,368.99 321.632,384.102 323.585,381.076 
			325.557,387.498 324.771,395.818 309.093,413.57 301.245,410.543 		"/>
		<g>
			<path fill="#FFFFFF" d="M306.784,409.187c-1.187-0.475-5.293-1.936-9.126-3.219c-5.439-1.83-6.68-2.34-5.603-2.357
				c2.081-0.035,1.459-0.738-1.406-1.566c-1.807-0.527-2.3-0.791-1.825-0.967c0.365-0.141,0.967-0.246,1.332-0.246
				c1.515,0,0.84-0.756-3.011-3.324l-4.052-2.711l-0.219-4.186c-0.128-2.287-0.347-4.469-0.475-4.82
				c-0.255-0.652-0.237-0.652,0.53,0c0.419,0.352,0.876,0.563,0.985,0.457c0.128-0.123,0.036-1.566-0.201-3.203
				c-0.219-1.652-0.346-3.061-0.273-3.131s0.639,0.58,1.277,1.443c0.621,0.861,1.296,1.477,1.497,1.354
				c0.383-0.229,4.618-5.893,4.855-6.51c0.091-0.229-0.803-1.986-1.99-3.922c-1.186-1.918-2.153-3.572-2.153-3.66
				s0.803,0.088,1.771,0.387c0.985,0.301,1.88,0.459,2.007,0.354c0.11-0.105-0.292-1.145-0.894-2.305
				c-0.621-1.162-0.986-2.111-0.84-2.111c0.128,0,1.113,0.809,2.172,1.813l1.917,1.811l1.405-1.547
				c0.767-0.863,1.844-2.357,2.391-3.343c1.059-1.971,1.497-1.865,1.533,0.404c0.037,2.2,0.73,3.466,3.158,5.876
				c1.825,1.777,2.391,2.164,2.792,1.848c0.858-0.686,2.902-3.555,3.048-4.275c0.274-1.408,1.807,1.9,2.993,6.439
				c0.639,2.463,1.26,4.574,1.369,4.662c0.165,0.158,1.771-1.426,2.993-2.957c0.256-0.334,0.457-1.811,0.475-3.658l0.037-3.098
				l0.894,2.5c0.493,1.371,1.041,2.428,1.205,2.322c0.164-0.088,0.401-0.828,0.565-1.637c0.237-1.32,0.383-0.791,1.424,4.855
				c0.639,3.482,1.277,6.439,1.405,6.563s0.365-0.018,0.547-0.301c1.168-1.969,1.241-1.934,2.063,0.916
				c0.693,2.48,0.73,3.025,0.383,6.334c-0.383,3.623-0.383,3.641-2.044,5.523c-6.315,7.213-12.375,13.986-12.558,14.021
				C309.029,410.05,307.97,409.679,306.784,409.187L306.784,409.187z"/>
		</g>
	</g>
	<path fill="#FF0000" d="M310.136,389.322"/>
</g>
</svg>
