<?xml version="1.0" encoding="UTF-8" standalone="no"?>
<!-- Created with Inkscape (http://www.inkscape.org/) -->

<svg
   xmlns:dc="http://purl.org/dc/elements/1.1/"
   xmlns:cc="http://creativecommons.org/ns#"
   xmlns:rdf="http://www.w3.org/1999/02/22-rdf-syntax-ns#"
   xmlns:svg="http://www.w3.org/2000/svg"
   xmlns="http://www.w3.org/2000/svg"
   xmlns:sodipodi="http://sodipodi.sourceforge.net/DTD/sodipodi-0.dtd"
   xmlns:inkscape="http://www.inkscape.org/namespaces/inkscape"
   width="744.09448819"
   height="1052.3622047"
   id="svg2"
   version="1.1"
   inkscape:version="0.47 r22583"
   sodipodi:docname="warrena.svg">
  <defs
     id="defs4">
    <inkscape:perspective
       sodipodi:type="inkscape:persp3d"
       inkscape:vp_x="0 : 526.18109 : 1"
       inkscape:vp_y="0 : 1000 : 0"
       inkscape:vp_z="744.09448 : 526.18109 : 1"
       inkscape:persp3d-origin="372.04724 : 350.78739 : 1"
       id="perspective10" />
    <inkscape:perspective
       id="perspective2824"
       inkscape:persp3d-origin="0.5 : 0.33333333 : 1"
       inkscape:vp_z="1 : 0.5 : 1"
       inkscape:vp_y="0 : 1000 : 0"
       inkscape:vp_x="0 : 0.5 : 1"
       sodipodi:type="inkscape:persp3d" />
  </defs>
  <sodipodi:namedview
     id="base"
     pagecolor="#ffffff"
     bordercolor="#666666"
     borderopacity="1.0"
     inkscape:pageopacity="0.0"
     inkscape:pageshadow="2"
     inkscape:zoom="0.24748737"
     inkscape:cx="-307.11907"
     inkscape:cy="859.43689"
     inkscape:document-units="px"
     inkscape:current-layer="layer1"
     showgrid="false"
     inkscape:window-width="1037"
     inkscape:window-height="725"
     inkscape:window-x="97"
     inkscape:window-y="51"
     inkscape:window-maximized="0" />
  <metadata
     id="metadata7">
    <rdf:RDF>
      <cc:Work
         rdf:about="">
        <dc:format>image/svg+xml</dc:format>
        <dc:type
           rdf:resource="http://purl.org/dc/dcmitype/StillImage" />
        <dc:title></dc:title>
      </cc:Work>
    </rdf:RDF>
  </metadata>
  <g
     inkscape:label="Layer 1"
     inkscape:groupmode="layer"
     id="layer1">
    <path
       style="fill:#ffffff;stroke:#000000;stroke-width:1px;stroke-linecap:butt;stroke-linejoin:miter;stroke-opacity:1"
       d="m 1600.2282,2240.9456 35,-34.2857 -10,-9.2857 -3.5714,-19.2857 15,-12.8571 61.4285,-8.5715 56.4286,0 16.4286,-15.7143 12.8571,-24.2857 17.8572,-34.2857 25.7143,-15 26.4285,5.7143 22.1429,21.4286 15.7143,47.8571 40,22.8572 20.7143,26.4285 8.5714,35.7143 -2.8572,16.4286 -48.5714,12.1428 -26.4286,4.2858 -40,-2.1429 -36.4285,10.7143 -32.8572,10.7143 -67.1428,6.4285 -40,-7.1428 -54.2857,-5 -11.4286,-14.2857 -0.7143,-18.5715 z"
       id="path2832" />
    <g
       id="g2838"
       transform="translate(1874.8431,897.01546)">
      <path
         id="path2830"
         d="m -1755.7827,567.29251 37.1428,-45 42.8572,-34.28572 49.2857,-36.42857 39.2857,-27.85714 38.5714,-27.14286 65.7143,-42.14286 57.8572,-27.14285 46.4285,-12.14286 72.8572,-7.14286 87.1428,-5 57.8572,-2.14286 76.4285,7.14286 103.57148,29.28572 79.28571,31.42857 52.14285,27.14286 67.14286,45 85.71429,69.28571 77.14285,59.28571 39.28572,33.57143 45,27.85715 22.14286,25 -9.28572,31.42857 -29.28571,25.71428 -57.14286,31.42857 -157.14286,38.57144 -122.85714,1.4286 -117.85713,-0.7143 -95.7143,-5 -68.5714,-17.85716 -150,-35.71429 -60,-10 -25.7143,20 -46.4286,34.28575 -47.8571,-5 -42.1429,-30.00004 -66.4286,-5.71428 -119.2857,-30.71429 -37.8571,-45 -6.4286,-46.42857 17.1429,-39.28571 z"
         style="fill:#000000;stroke:#000000;stroke-width:1px;stroke-linecap:butt;stroke-linejoin:miter;stroke-opacity:1" />
      <path
         id="path2834"
         d="m -1111.03,735.43557 c -27.3536,-1.7978 -55.3414,-7.08579 -111.2919,-21.02724 -79.262,-19.75014 -137.4249,-32.30817 -149.6365,-32.30817 -4.0709,0 -20.6053,9.831 -36.743,21.84671 l -29.3414,21.84664 -18.3736,-2.29564 c -13.5735,-1.69593 -22.9318,-5.54221 -35.8222,-14.72302 -15.7708,-11.23217 -20.1646,-12.64543 -45.6871,-14.6949 -15.5311,-1.24718 -49.8046,-7.94079 -76.1635,-14.87472 l -47.9252,-12.60712 -15.6143,-18.5938 c -39.3071,-46.80772 -18.5329,-91.89805 74.4902,-161.68091 104.3655,-78.29161 169.2635,-116.4943 216.5408,-127.46832 42.8513,-9.94665 175.5347,-17.41307 221.6847,-12.47474 51.4062,5.50077 145.4738,34.82904 199.49789,62.19916 27.76299,14.06554 73.57435,45.94512 125.26262,87.16879 26.56155,21.18403 61.44096,48.98118 77.50978,61.77148 16.06882,12.79022 40.68056,31.19484 54.69278,40.89914 38.9377,26.96665 41.37436,29.80213 38.90894,45.27803 -1.56936,9.8509 -5.48978,16.01633 -15.84365,24.91611 -27.68789,23.79942 -55.78773,35.86701 -121.6099,52.2257 l -62.01884,15.4135 -102.98651,0.79259 c -56.64261,0.43592 -119.43111,-0.28835 -139.53011,-1.60927 l 0,0 z"
         style="fill:#ffffff;stroke-width:0.1;stroke-miterlimit:4;stroke-dasharray:none" />
    </g>
    <path
       style="fill:#ffffff;stroke-width:0.1;stroke-miterlimit:4;stroke-dasharray:none"
       d="m 1675.6083,2278.3768 c -8.8893,-1.9792 -23.4355,-3.7303 -32.3248,-3.8911 -21.1382,-0.3824 -35.3842,-7.9079 -38.6346,-20.4086 -2.1421,-8.2382 0.7156,-13.5371 15.715,-29.1394 17.4037,-18.1032 17.9886,-19.451 11.5351,-26.5821 -8.4929,-9.3846 -8.6726,-18.4728 -0.4994,-25.256 7.883,-6.5422 67.7961,-15.7617 103.1815,-15.8776 31.2684,-0.1024 32.6036,-1.1818 53.7137,-43.4191 15.1821,-30.3767 28.2256,-41.521 48.5967,-41.521 17.0199,0 36.4168,20.8392 44.6224,47.9404 6.6382,21.9246 9.0364,25.0356 26.717,34.6586 28.12,15.3048 44.1963,37.3617 46.9949,64.4778 l 2.2661,21.956 -15.6829,4.3836 c -29.9548,8.3728 -67.0412,13.4016 -83.0243,11.2578 -11.2766,-1.5125 -27.1403,1.3192 -53.1578,9.4887 -40.6162,12.7535 -101.3124,18.3237 -130.0186,11.932 z"
       id="path2844" />
    <path
       style="fill:#ffffff;stroke-width:0.1;stroke-miterlimit:4;stroke-dasharray:none"
       d="m 1675.6083,2278.3855 c -8.8893,-1.984 -23.4355,-3.739 -32.3248,-3.8998 -21.1382,-0.3824 -35.3842,-7.9079 -38.6346,-20.4086 -2.1421,-8.2382 0.7156,-13.5371 15.715,-29.1394 17.4037,-18.1032 17.9886,-19.451 11.5351,-26.5821 -8.4929,-9.3846 -8.6726,-18.4728 -0.4994,-25.256 7.5655,-6.2787 67.2742,-15.756 100.0328,-15.8776 12.9245,-0.048 27.0324,-1.9782 31.3508,-4.2894 4.3184,-2.3111 15.1042,-18.6267 23.9685,-36.2568 16.7574,-33.3288 29.2546,-44.3939 50.1398,-44.3939 17.0199,0 36.4168,20.8392 44.6224,47.9404 6.6382,21.9246 9.0364,25.0356 26.717,34.6586 28.12,15.3048 44.1963,37.3617 46.9949,64.4778 l 2.2661,21.956 -15.6829,4.3836 c -28.9344,8.0876 -66.2483,13.33 -81.4365,11.4415 -9.5599,-1.1887 -29.2516,2.2992 -53.9273,9.5518 -42.4882,12.488 -103.0338,17.8995 -130.8369,11.6939 z"
       id="path2846" />
    <path
       style="fill:#ffffff;stroke-width:0.1;stroke-miterlimit:4;stroke-dasharray:none"
       d="m 1675.6083,2278.3768 c -8.8893,-1.9792 -23.4355,-3.7303 -32.3248,-3.8911 -21.1382,-0.3824 -35.3842,-7.9079 -38.6346,-20.4086 -2.1421,-8.2382 0.7156,-13.5371 15.715,-29.1394 17.4037,-18.1032 17.9886,-19.451 11.5351,-26.5821 -8.4929,-9.3846 -8.6726,-18.4728 -0.4994,-25.256 7.6684,-6.3642 67.4422,-15.758 101.0315,-15.8776 21.4439,-0.076 25.7981,-1.4725 34.9281,-11.199 5.7367,-6.1114 16.0809,-22.431 22.9872,-36.2657 13.0896,-26.2215 27.0672,-37.4754 46.5451,-37.4754 16.3163,0 36.1155,20.6406 44.1017,45.976 6.9643,22.0931 14.1273,30.2594 38.0534,43.3834 19.9538,10.9451 33.5916,32.6455 36.1608,57.5388 l 2.2921,22.2082 -16.0544,4.323 c -30.4515,8.1997 -58.9233,12.4387 -83.5507,12.4392 -14.8487,4e-4 -37.5964,3.9815 -57.0271,9.9806 -35.8689,11.0741 -98.522,16.199 -125.259,10.2457 l 0,0 z"
       id="path2848" />
    <path
       style="fill:#000000;stroke-width:0.1;stroke-miterlimit:4;stroke-dasharray:none"
       d="m 1573.076,2029.9203 c -20.8354,-2.9743 -40.2334,-7.8422 -43.1068,-10.8175 -11.0863,-11.4799 -8.3766,-22.7181 9.998,-41.4651 16.9853,-17.3296 17.5542,-18.6491 11.1116,-25.7681 -8.4854,-9.3763 -8.6623,-18.4659 -0.4914,-25.2472 7.7088,-6.3976 39.224,-48.0836 73.144,-48.2025 22.9133,-0.08 43.272,8.9925 35.6011,-28.9736 -5.9785,-29.5898 44.3385,25.1695 50.8746,12.2215 18.5532,-36.7536 44.7056,-45.8094 69.4787,-24.0583 8.8974,7.812 15.8724,19.5058 20.622,34.5735 6.3598,20.1756 9.6519,24.3517 28.9056,36.6681 30.1721,19.3009 42.3617,36.5274 45.1818,63.8518 l 2.2921,22.2082 -16.0544,4.323 c -29.9895,8.0753 -26.4605,44.7636 -49.7636,44.7636 -12.7821,0 -71.0928,8.5404 -90.0713,14.0401 -43.0779,12.4835 -96.9723,-20.8728 -147.722,-28.1175 l 0,0 z"
       id="path2850"
       sodipodi:nodetypes="csssscssssscccsscc" />
    <g
       id="g2860"
       transform="matrix(1,0,0,1.0311327,892.97484,-198.74152)">
      <path
         id="path2842"
         d="m -457.14329,1708.0304 c -11.008,-2.4664 -30.31733,-4.6142 -42.90962,-4.7728 -23.57715,-0.2969 -44.65404,-14.6745 -44.65404,-30.4608 0,-3.8561 10.69528,-17.9241 23.76728,-31.2622 21.79709,-22.2408 23.04142,-24.7894 15.01091,-30.7454 -11.21854,-8.3202 -11.21854,-24.232 0,-33.9111 9.8867,-8.5301 78.42561,-19.0304 124.15482,-19.0207 26.63177,0 31.91396,-1.6741 43.25282,-13.7537 7.10393,-7.568 19.79278,-27.5379 28.19744,-44.3776 18.64856,-37.3643 39.65498,-53.0121 62.40686,-46.4869 23.50489,6.7411 41.16175,27.2215 50.7389,58.8527 7.83964,25.8925 11.15473,30.1551 33.00485,42.4377 31.03469,17.4455 53.14401,44.3241 57.90424,70.3951 3.5387,19.381 3.20553,33.1659 -0.90409,37.407 -6.10016,6.2954 -85.38417,20.5632 -114.7994,20.659 -23.05551,0.076 -48.70542,4.3854 -75.05456,12.6123 -44.34393,13.8453 -125.63088,20.1544 -160.11641,12.4274 l 0,0 z"
         style="fill:#000000;stroke-width:0.1;stroke-miterlimit:4;stroke-dasharray:none" />
      <path
         id="path2852"
         d="m -430.09505,1687.111 c -37.62074,-4.8773 -44.22917,-7.7626 -46.91072,-20.4815 -1.31066,-6.2165 1.81381,-11.3758 12.75646,-21.0641 14.20263,-12.5746 18.21791,-22.6057 10.72848,-26.8026 -5.70181,-3.1952 -4.50564,-13.9629 2.1036,-18.9363 6.93264,-5.2167 62.47986,-13.3051 92.09461,-13.4099 26.98706,-0.096 34.09514,-4.9513 53.02271,-36.2207 15.88452,-26.242 27.97556,-35.5182 46.29633,-35.5182 15.30874,0 33.6398,17.4286 41.19847,39.1703 5.92409,17.0399 8.99061,20.567 26.9252,30.9692 28.10504,16.3012 39.45953,30.8503 42.08644,53.928 l 2.13506,18.7567 -14.95453,3.6511 c -27.81638,6.7913 -38.5613,41.8544 -59.94496,41.8544 -11.70994,0 -51.85779,-27.5626 -69.46336,-22.9347 -39.99927,10.5142 -91.15073,13.1217 -138.07379,7.0383 l 0,0 z"
         style="fill:#ffffff;stroke-width:0.1;stroke-miterlimit:4;stroke-dasharray:none"
         sodipodi:nodetypes="csssscsssscccsscc" />
    </g>
    <path
       style="fill:#ffffff;stroke-width:0.1;stroke-miterlimit:4;stroke-dasharray:none"
       d="m 1708.9434,2154.2831 c 5.0002,-0.9631 13.1825,-0.9631 18.1827,0 5.0003,0.9631 0.9092,1.7511 -9.0914,1.7511 -10.0005,0 -14.0916,-0.788 -9.0913,-1.7511 z"
       id="path2854" />
    <path
       sodipodi:type="arc"
       style="fill:#000000;stroke-width:0.1;stroke-miterlimit:4;stroke-dasharray:none"
       id="path2864"
       sodipodi:cx="-470.73108"
       sodipodi:cy="1751.3877"
       sodipodi:rx="107.07617"
       sodipodi:ry="60.609154"
       d="m -363.65491,1751.3877 a 107.07617,60.609154 0 1 1 -214.15234,0 107.07617,60.609154 0 1 1 214.15234,0 z"
       transform="translate(1571.7974,375.77675)" />
    <path
       style="fill:#000000;stroke:#000000;stroke-width:1px;stroke-linecap:butt;stroke-linejoin:miter;stroke-opacity:1"
       d="m -1745.5436,321.01174 226.2742,-141.42136 c 77.8778,-31.21862 157.124,-61.06889 266.6802,-60.60915 132.0592,-12.94314 202.1267,-13.48793 282.84276,-16.16244 l 242.43661,36.36549 c 109.56445,73.91235 271.55992,104.13219 323.24881,226.27417 107.7496,51.18106 183.17433,129.29952 226.27417,234.35539 -40.14058,61.46652 -59.50955,147.85898 -149.50257,149.50258 l -347.49248,24.24366 -387.8986,16.16244 -577.8072,4.04061 -311.127,-24.24366 20.203,-210.11173 185.8681,-238.396 z"
       id="path2929"
       sodipodi:nodetypes="cccccccccccccc" />
    <path
       style="fill:#ffffff;stroke-width:0.1;stroke-miterlimit:4;stroke-dasharray:none"
       d="m -1690.0836,752.81125 c -66.1072,-5.37365 -125.4422,-9.89808 -131.8556,-10.05429 -14.3206,-0.34882 -14.0447,6.78764 -3.8797,-100.36357 l 7.9625,-83.93391 82.7229,-105.91798 82.7229,-105.91794 101.051,-63.09566 c 102.4978,-63.99913 117.7384,-71.5296 189.2558,-93.51214 53.7318,-16.51573 130.4287,-24.60605 310.6679,-32.7706 l 84.31587,-3.81936 107.05809,16.24055 c 105.95341,16.07297 107.30469,16.38617 130.95866,30.35394 13.14535,7.76236 55.47093,29.52643 94.05691,48.3646 96.08685,46.91082 143.20732,83.32435 163.93858,126.68768 3.8536,8.06052 14.38895,16.25695 38.2555,29.76257 64.46075,36.47708 116.40005,89.7309 150.38959,154.19582 l 17.17939,32.58258 -22.49237,40.44758 c -12.37081,22.24618 -29.8175,48.35959 -38.77029,58.02979 -28.36612,30.63894 -26.09507,30.1863 -218.68113,43.58674 -250.82749,17.45294 -500.9062,26.28638 -784.2717,27.70249 -235.3786,1.17633 -242.8954,0.99769 -360.5848,-8.56889 l 0,0 z"
       id="path2931" />
    <path
       style="fill:#000000;stroke:#000000;stroke-width:1px;stroke-linecap:butt;stroke-linejoin:miter;stroke-opacity:1"
       d="m -1357.645,716.99154 92.934,-177.78685 189.9087,-68.69037 165.66501,32.32488 c 51.16095,65.10543 113.3619,129.22459 105.05587,214.15234 l -149.50258,28.28427 -145.462,12.12183 -145.4619,-20.20305 -113.1371,-20.20305 z"
       id="path2933"
       sodipodi:nodetypes="ccccccccc" />
    <g
       id="g2949"
       transform="matrix(0.50704208,0,0,0.50704208,-1464.2661,866.70683)">
      <path
         d="m 1072.43,-340.16974 c -15.0797,39.04613 -28.8362,79.6067 -34.03,121.35672 -1.263,10.15267 -1.2263,20.42509 -1.8394,30.63763 4.46,29.69374 2.4686,31.21139 15.7921,58.96303 4.4866,9.34505 10.4099,17.9296 15.6148,26.8944 0,0 -39.5648,22.847918 -39.5648,22.847918 l 0,0 c -17.5623,-30.449308 -30.69141,-51.761288 -32.7592,-88.163408 0.61811,-10.41472 0.65097,-20.88075 1.85431,-31.24417 4.72739,-40.71278 17.41159,-80.05671 28.28949,-119.38698 0,0 46.6427,-21.90514 46.6427,-21.90514 z"
         id="path2941"
         style="fill:#000000;stroke-width:0.1;stroke-miterlimit:4;stroke-dasharray:none" />
      <path
         d="m 1119.2496,-282.76408 c -32.636,41.64425 -63.7193,84.5092 -92.9476,128.60976 -14.6106,22.96671 -22.4101,44.73968 -14.8042,71.684008 1.0922,3.869046 2.7656,7.549886 4.1484,11.324828 1.6765,3.126008 3.353,6.252016 5.0295,9.378024 0,0 -43.53721,24.874267 -43.53721,24.874267 l 0,0 c -1.68874,-3.364108 -3.37747,-6.728216 -5.06621,-10.092324 -1.46019,-4.008358 -3.2184,-7.920389 -4.38058,-12.025073 -8.38624,-29.619241 -1.03345,-50.97107 15.29512,-76.22644 29.40598,-42.63597 60.49918,-84.10561 89.08898,-127.29614 0,0 47.1738,-20.23091 47.1738,-20.23091 z"
         id="path2943"
         style="fill:#000000;stroke-width:0.1;stroke-miterlimit:4;stroke-dasharray:none" />
      <path
         d="m 1032.4572,-54.517242 c -35.22033,-18.304329 -59.15982,-50.321268 -81.6124,-81.989818 -18.53447,-28.48956 -38.44049,-57.27339 -48.37133,-90.11196 -3.60859,-17.76839 -4.2828,-36.04905 -3.93417,-54.13483 0,0 45.1739,-22.74982 45.1739,-22.74982 l 0,0 c -1.33123,17.63618 -0.47681,35.46954 2.82571,52.86681 8.7562,32.71079 26.03201,62.29062 44.79612,90.23306 22.36047,31.19215 46.87117,62.892746 83.82097,77.280756 0,0 -42.6988,28.605802 -42.6988,28.605802 z"
         id="path2945"
         style="fill:#000000;stroke-width:0.1;stroke-miterlimit:4;stroke-dasharray:none" />
      <path
         d="m 992.77302,-276.78336 c -1.41509,24.62249 -0.22091,49.25368 3.27643,73.64134 2.25604,20.9387 10.50035,39.23402 21.93485,56.52324 6.675,7.96454 11.8707,17.14533 16.4101,26.46435 5.4753,12.84844 11.1206,25.518187 17.9222,37.718084 0,0 -44.36,25.44595 -44.36,25.44595 l 0,0 c -6.4985,-12.400504 -12.19786,-25.143025 -18.26771,-37.752041 -4.51874,-9.123263 -9.6285,-18.050653 -15.76277,-26.189033 -11.32871,-18.55264 -19.09533,-37.27956 -21.38058,-59.23371 -3.68677,-24.22214 -5.05366,-48.6725 -5.82567,-73.15293 0,0 46.05315,-23.46525 46.05315,-23.46525 z"
         id="path2947"
         style="fill:#000000;stroke-width:0.1;stroke-miterlimit:4;stroke-dasharray:none" />
    </g>
    <g
       transform="matrix(0.50704208,0,0,0.50704208,-1557.2001,866.70683)"
       id="g2955">
      <path
         style="fill:#000000;stroke-width:0.1;stroke-miterlimit:4;stroke-dasharray:none"
         id="path2957"
         d="m 1072.43,-340.16974 c -15.0797,39.04613 -28.8362,79.6067 -34.03,121.35672 -1.263,10.15267 -1.2263,20.42509 -1.8394,30.63763 4.46,29.69374 2.4686,31.21139 15.7921,58.96303 4.4866,9.34505 10.4099,17.9296 15.6148,26.8944 0,0 -39.5648,22.847918 -39.5648,22.847918 l 0,0 c -17.5623,-30.449308 -30.69141,-51.761288 -32.7592,-88.163408 0.61811,-10.41472 0.65097,-20.88075 1.85431,-31.24417 4.72739,-40.71278 17.41159,-80.05671 28.28949,-119.38698 0,0 46.6427,-21.90514 46.6427,-21.90514 z" />
      <path
         style="fill:#000000;stroke-width:0.1;stroke-miterlimit:4;stroke-dasharray:none"
         id="path2959"
         d="m 1119.2496,-282.76408 c -32.636,41.64425 -63.7193,84.5092 -92.9476,128.60976 -14.6106,22.96671 -22.4101,44.73968 -14.8042,71.684008 1.0922,3.869046 2.7656,7.549886 4.1484,11.324828 1.6765,3.126008 3.353,6.252016 5.0295,9.378024 0,0 -43.53721,24.874267 -43.53721,24.874267 l 0,0 c -1.68874,-3.364108 -3.37747,-6.728216 -5.06621,-10.092324 -1.46019,-4.008358 -3.2184,-7.920389 -4.38058,-12.025073 -8.38624,-29.619241 -1.03345,-50.97107 15.29512,-76.22644 29.40598,-42.63597 60.49918,-84.10561 89.08898,-127.29614 0,0 47.1738,-20.23091 47.1738,-20.23091 z" />
      <path
         style="fill:#000000;stroke-width:0.1;stroke-miterlimit:4;stroke-dasharray:none"
         id="path2961"
         d="m 1032.4572,-54.517242 c -35.22033,-18.304329 -59.15982,-50.321268 -81.6124,-81.989818 -18.53447,-28.48956 -38.44049,-57.27339 -48.37133,-90.11196 -3.60859,-17.76839 -4.2828,-36.04905 -3.93417,-54.13483 0,0 45.1739,-22.74982 45.1739,-22.74982 l 0,0 c -1.33123,17.63618 -0.47681,35.46954 2.82571,52.86681 8.7562,32.71079 26.03201,62.29062 44.79612,90.23306 22.36047,31.19215 46.87117,62.892746 83.82097,77.280756 0,0 -42.6988,28.605802 -42.6988,28.605802 z" />
      <path
         style="fill:#000000;stroke-width:0.1;stroke-miterlimit:4;stroke-dasharray:none"
         id="path2963"
         d="m 992.77302,-276.78336 c -1.41509,24.62249 -0.22091,49.25368 3.27643,73.64134 2.25604,20.9387 10.50035,39.23402 21.93485,56.52324 6.675,7.96454 11.8707,17.14533 16.4101,26.46435 5.4753,12.84844 11.1206,25.518187 17.9222,37.718084 0,0 -44.36,25.44595 -44.36,25.44595 l 0,0 c -6.4985,-12.400504 -12.19786,-25.143025 -18.26771,-37.752041 -4.51874,-9.123263 -9.6285,-18.050653 -15.76277,-26.189033 -11.32871,-18.55264 -19.09533,-37.27956 -21.38058,-59.23371 -3.68677,-24.22214 -5.05366,-48.6725 -5.82567,-73.15293 0,0 46.05315,-23.46525 46.05315,-23.46525 z" />
    </g>
    <g
       id="g2965"
       transform="matrix(0.50704208,0,0,0.50704208,-1686.4996,874.78805)">
      <path
         d="m 1072.43,-340.16974 c -15.0797,39.04613 -28.8362,79.6067 -34.03,121.35672 -1.263,10.15267 -1.2263,20.42509 -1.8394,30.63763 4.46,29.69374 2.4686,31.21139 15.7921,58.96303 4.4866,9.34505 10.4099,17.9296 15.6148,26.8944 0,0 -39.5648,22.847918 -39.5648,22.847918 l 0,0 c -17.5623,-30.449308 -30.69141,-51.761288 -32.7592,-88.163408 0.61811,-10.41472 0.65097,-20.88075 1.85431,-31.24417 4.72739,-40.71278 17.41159,-80.05671 28.28949,-119.38698 0,0 46.6427,-21.90514 46.6427,-21.90514 z"
         id="path2967"
         style="fill:#000000;stroke-width:0.1;stroke-miterlimit:4;stroke-dasharray:none" />
      <path
         d="m 1119.2496,-282.76408 c -32.636,41.64425 -63.7193,84.5092 -92.9476,128.60976 -14.6106,22.96671 -22.4101,44.73968 -14.8042,71.684008 1.0922,3.869046 2.7656,7.549886 4.1484,11.324828 1.6765,3.126008 3.353,6.252016 5.0295,9.378024 0,0 -43.53721,24.874267 -43.53721,24.874267 l 0,0 c -1.68874,-3.364108 -3.37747,-6.728216 -5.06621,-10.092324 -1.46019,-4.008358 -3.2184,-7.920389 -4.38058,-12.025073 -8.38624,-29.619241 -1.03345,-50.97107 15.29512,-76.22644 29.40598,-42.63597 60.49918,-84.10561 89.08898,-127.29614 0,0 47.1738,-20.23091 47.1738,-20.23091 z"
         id="path2969"
         style="fill:#000000;stroke-width:0.1;stroke-miterlimit:4;stroke-dasharray:none" />
      <path
         d="m 1032.4572,-54.517242 c -35.22033,-18.304329 -59.15982,-50.321268 -81.6124,-81.989818 -18.53447,-28.48956 -38.44049,-57.27339 -48.37133,-90.11196 -3.60859,-17.76839 -4.2828,-36.04905 -3.93417,-54.13483 0,0 45.1739,-22.74982 45.1739,-22.74982 l 0,0 c -1.33123,17.63618 -0.47681,35.46954 2.82571,52.86681 8.7562,32.71079 26.03201,62.29062 44.79612,90.23306 22.36047,31.19215 46.87117,62.892746 83.82097,77.280756 0,0 -42.6988,28.605802 -42.6988,28.605802 z"
         id="path2971"
         style="fill:#000000;stroke-width:0.1;stroke-miterlimit:4;stroke-dasharray:none" />
      <path
         d="m 992.77302,-276.78336 c -1.41509,24.62249 -0.22091,49.25368 3.27643,73.64134 2.25604,20.9387 10.50035,39.23402 21.93485,56.52324 6.675,7.96454 11.8707,17.14533 16.4101,26.46435 5.4753,12.84844 11.1206,25.518187 17.9222,37.718084 0,0 -44.36,25.44595 -44.36,25.44595 l 0,0 c -6.4985,-12.400504 -12.19786,-25.143025 -18.26771,-37.752041 -4.51874,-9.123263 -9.6285,-18.050653 -15.76277,-26.189033 -11.32871,-18.55264 -19.09533,-37.27956 -21.38058,-59.23371 -3.68677,-24.22214 -5.05366,-48.6725 -5.82567,-73.15293 0,0 46.05315,-23.46525 46.05315,-23.46525 z"
         id="path2973"
         style="fill:#000000;stroke-width:0.1;stroke-miterlimit:4;stroke-dasharray:none" />
    </g>
    <g
       transform="matrix(0.50704208,0,0,0.50704208,-1807.7179,886.90989)"
       id="g2975">
      <path
         style="fill:#000000;stroke-width:0.1;stroke-miterlimit:4;stroke-dasharray:none"
         id="path2977"
         d="m 1072.43,-340.16974 c -15.0797,39.04613 -28.8362,79.6067 -34.03,121.35672 -1.263,10.15267 -1.2263,20.42509 -1.8394,30.63763 4.46,29.69374 2.4686,31.21139 15.7921,58.96303 4.4866,9.34505 10.4099,17.9296 15.6148,26.8944 0,0 -39.5648,22.847918 -39.5648,22.847918 l 0,0 c -17.5623,-30.449308 -30.69141,-51.761288 -32.7592,-88.163408 0.61811,-10.41472 0.65097,-20.88075 1.85431,-31.24417 4.72739,-40.71278 17.41159,-80.05671 28.28949,-119.38698 0,0 46.6427,-21.90514 46.6427,-21.90514 z" />
      <path
         style="fill:#000000;stroke-width:0.1;stroke-miterlimit:4;stroke-dasharray:none"
         id="path2979"
         d="m 1119.2496,-282.76408 c -32.636,41.64425 -63.7193,84.5092 -92.9476,128.60976 -14.6106,22.96671 -22.4101,44.73968 -14.8042,71.684008 1.0922,3.869046 2.7656,7.549886 4.1484,11.324828 1.6765,3.126008 3.353,6.252016 5.0295,9.378024 0,0 -43.53721,24.874267 -43.53721,24.874267 l 0,0 c -1.68874,-3.364108 -3.37747,-6.728216 -5.06621,-10.092324 -1.46019,-4.008358 -3.2184,-7.920389 -4.38058,-12.025073 -8.38624,-29.619241 -1.03345,-50.97107 15.29512,-76.22644 29.40598,-42.63597 60.49918,-84.10561 89.08898,-127.29614 0,0 47.1738,-20.23091 47.1738,-20.23091 z" />
      <path
         style="fill:#000000;stroke-width:0.1;stroke-miterlimit:4;stroke-dasharray:none"
         id="path2981"
         d="m 1032.4572,-54.517242 c -35.22033,-18.304329 -59.15982,-50.321268 -81.6124,-81.989818 -18.53447,-28.48956 -38.44049,-57.27339 -48.37133,-90.11196 -3.60859,-17.76839 -4.2828,-36.04905 -3.93417,-54.13483 0,0 45.1739,-22.74982 45.1739,-22.74982 l 0,0 c -1.33123,17.63618 -0.47681,35.46954 2.82571,52.86681 8.7562,32.71079 26.03201,62.29062 44.79612,90.23306 22.36047,31.19215 46.87117,62.892746 83.82097,77.280756 0,0 -42.6988,28.605802 -42.6988,28.605802 z" />
      <path
         style="fill:#000000;stroke-width:0.1;stroke-miterlimit:4;stroke-dasharray:none"
         id="path2983"
         d="m 992.77302,-276.78336 c -1.41509,24.62249 -0.22091,49.25368 3.27643,73.64134 2.25604,20.9387 10.50035,39.23402 21.93485,56.52324 6.675,7.96454 11.8707,17.14533 16.4101,26.46435 5.4753,12.84844 11.1206,25.518187 17.9222,37.718084 0,0 -44.36,25.44595 -44.36,25.44595 l 0,0 c -6.4985,-12.400504 -12.19786,-25.143025 -18.26771,-37.752041 -4.51874,-9.123263 -9.6285,-18.050653 -15.76277,-26.189033 -11.32871,-18.55264 -19.09533,-37.27956 -21.38058,-59.23371 -3.68677,-24.22214 -5.05366,-48.6725 -5.82567,-73.15293 0,0 46.05315,-23.46525 46.05315,-23.46525 z" />
    </g>
    <g
       id="g2985"
       transform="matrix(0.50704208,0,0,0.50704208,-1945.0987,866.70683)">
      <path
         d="m 1072.43,-340.16974 c -15.0797,39.04613 -28.8362,79.6067 -34.03,121.35672 -1.263,10.15267 -1.2263,20.42509 -1.8394,30.63763 4.46,29.69374 2.4686,31.21139 15.7921,58.96303 4.4866,9.34505 10.4099,17.9296 15.6148,26.8944 0,0 -39.5648,22.847918 -39.5648,22.847918 l 0,0 c -17.5623,-30.449308 -30.69141,-51.761288 -32.7592,-88.163408 0.61811,-10.41472 0.65097,-20.88075 1.85431,-31.24417 4.72739,-40.71278 17.41159,-80.05671 28.28949,-119.38698 0,0 46.6427,-21.90514 46.6427,-21.90514 z"
         id="path2987"
         style="fill:#000000;stroke-width:0.1;stroke-miterlimit:4;stroke-dasharray:none" />
      <path
         d="m 1119.2496,-282.76408 c -32.636,41.64425 -63.7193,84.5092 -92.9476,128.60976 -14.6106,22.96671 -22.4101,44.73968 -14.8042,71.684008 1.0922,3.869046 2.7656,7.549886 4.1484,11.324828 1.6765,3.126008 3.353,6.252016 5.0295,9.378024 0,0 -43.53721,24.874267 -43.53721,24.874267 l 0,0 c -1.68874,-3.364108 -3.37747,-6.728216 -5.06621,-10.092324 -1.46019,-4.008358 -3.2184,-7.920389 -4.38058,-12.025073 -8.38624,-29.619241 -1.03345,-50.97107 15.29512,-76.22644 29.40598,-42.63597 60.49918,-84.10561 89.08898,-127.29614 0,0 47.1738,-20.23091 47.1738,-20.23091 z"
         id="path2989"
         style="fill:#000000;stroke-width:0.1;stroke-miterlimit:4;stroke-dasharray:none" />
      <path
         d="m 1032.4572,-54.517242 c -35.22033,-18.304329 -59.15982,-50.321268 -81.6124,-81.989818 -18.53447,-28.48956 -38.44049,-57.27339 -48.37133,-90.11196 -3.60859,-17.76839 -4.2828,-36.04905 -3.93417,-54.13483 0,0 45.1739,-22.74982 45.1739,-22.74982 l 0,0 c -1.33123,17.63618 -0.47681,35.46954 2.82571,52.86681 8.7562,32.71079 26.03201,62.29062 44.79612,90.23306 22.36047,31.19215 46.87117,62.892746 83.82097,77.280756 0,0 -42.6988,28.605802 -42.6988,28.605802 z"
         id="path2991"
         style="fill:#000000;stroke-width:0.1;stroke-miterlimit:4;stroke-dasharray:none" />
      <path
         d="m 992.77302,-276.78336 c -1.41509,24.62249 -0.22091,49.25368 3.27643,73.64134 2.25604,20.9387 10.50035,39.23402 21.93485,56.52324 6.675,7.96454 11.8707,17.14533 16.4101,26.46435 5.4753,12.84844 11.1206,25.518187 17.9222,37.718084 0,0 -44.36,25.44595 -44.36,25.44595 l 0,0 c -6.4985,-12.400504 -12.19786,-25.143025 -18.26771,-37.752041 -4.51874,-9.123263 -9.6285,-18.050653 -15.76277,-26.189033 -11.32871,-18.55264 -19.09533,-37.27956 -21.38058,-59.23371 -3.68677,-24.22214 -5.05366,-48.6725 -5.82567,-73.15293 0,0 46.05315,-23.46525 46.05315,-23.46525 z"
         id="path2993"
         style="fill:#000000;stroke-width:0.1;stroke-miterlimit:4;stroke-dasharray:none" />
    </g>
    <g
       transform="matrix(0.50704208,0,0,0.50704208,-1860.2459,806.09768)"
       id="g2995">
      <path
         style="fill:#000000;stroke-width:0.1;stroke-miterlimit:4;stroke-dasharray:none"
         id="path2997"
         d="m 1072.43,-340.16974 c -15.0797,39.04613 -28.8362,79.6067 -34.03,121.35672 -1.263,10.15267 -1.2263,20.42509 -1.8394,30.63763 4.46,29.69374 2.4686,31.21139 15.7921,58.96303 4.4866,9.34505 10.4099,17.9296 15.6148,26.8944 0,0 -39.5648,22.847918 -39.5648,22.847918 l 0,0 c -17.5623,-30.449308 -30.69141,-51.761288 -32.7592,-88.163408 0.61811,-10.41472 0.65097,-20.88075 1.85431,-31.24417 4.72739,-40.71278 17.41159,-80.05671 28.28949,-119.38698 0,0 46.6427,-21.90514 46.6427,-21.90514 z" />
      <path
         style="fill:#000000;stroke-width:0.1;stroke-miterlimit:4;stroke-dasharray:none"
         id="path2999"
         d="m 1119.2496,-282.76408 c -32.636,41.64425 -63.7193,84.5092 -92.9476,128.60976 -14.6106,22.96671 -22.4101,44.73968 -14.8042,71.684008 1.0922,3.869046 2.7656,7.549886 4.1484,11.324828 1.6765,3.126008 3.353,6.252016 5.0295,9.378024 0,0 -43.53721,24.874267 -43.53721,24.874267 l 0,0 c -1.68874,-3.364108 -3.37747,-6.728216 -5.06621,-10.092324 -1.46019,-4.008358 -3.2184,-7.920389 -4.38058,-12.025073 -8.38624,-29.619241 -1.03345,-50.97107 15.29512,-76.22644 29.40598,-42.63597 60.49918,-84.10561 89.08898,-127.29614 0,0 47.1738,-20.23091 47.1738,-20.23091 z" />
      <path
         style="fill:#000000;stroke-width:0.1;stroke-miterlimit:4;stroke-dasharray:none"
         id="path3001"
         d="m 1032.4572,-54.517242 c -35.22033,-18.304329 -59.15982,-50.321268 -81.6124,-81.989818 -18.53447,-28.48956 -38.44049,-57.27339 -48.37133,-90.11196 -3.60859,-17.76839 -4.2828,-36.04905 -3.93417,-54.13483 0,0 45.1739,-22.74982 45.1739,-22.74982 l 0,0 c -1.33123,17.63618 -0.47681,35.46954 2.82571,52.86681 8.7562,32.71079 26.03201,62.29062 44.79612,90.23306 22.36047,31.19215 46.87117,62.892746 83.82097,77.280756 0,0 -42.6988,28.605802 -42.6988,28.605802 z" />
      <path
         style="fill:#000000;stroke-width:0.1;stroke-miterlimit:4;stroke-dasharray:none"
         id="path3003"
         d="m 992.77302,-276.78336 c -1.41509,24.62249 -0.22091,49.25368 3.27643,73.64134 2.25604,20.9387 10.50035,39.23402 21.93485,56.52324 6.675,7.96454 11.8707,17.14533 16.4101,26.46435 5.4753,12.84844 11.1206,25.518187 17.9222,37.718084 0,0 -44.36,25.44595 -44.36,25.44595 l 0,0 c -6.4985,-12.400504 -12.19786,-25.143025 -18.26771,-37.752041 -4.51874,-9.123263 -9.6285,-18.050653 -15.76277,-26.189033 -11.32871,-18.55264 -19.09533,-37.27956 -21.38058,-59.23371 -3.68677,-24.22214 -5.05366,-48.6725 -5.82567,-73.15293 0,0 46.05315,-23.46525 46.05315,-23.46525 z" />
    </g>
    <g
       id="g3005"
       transform="matrix(0.50704208,0,0,0.50704208,-1379.4133,822.26012)">
      <path
         d="m 1072.43,-340.16974 c -15.0797,39.04613 -28.8362,79.6067 -34.03,121.35672 -1.263,10.15267 -1.2263,20.42509 -1.8394,30.63763 4.46,29.69374 2.4686,31.21139 15.7921,58.96303 4.4866,9.34505 10.4099,17.9296 15.6148,26.8944 0,0 -39.5648,22.847918 -39.5648,22.847918 l 0,0 c -17.5623,-30.449308 -30.69141,-51.761288 -32.7592,-88.163408 0.61811,-10.41472 0.65097,-20.88075 1.85431,-31.24417 4.72739,-40.71278 17.41159,-80.05671 28.28949,-119.38698 0,0 46.6427,-21.90514 46.6427,-21.90514 z"
         id="path3007"
         style="fill:#000000;stroke-width:0.1;stroke-miterlimit:4;stroke-dasharray:none" />
      <path
         d="m 1119.2496,-282.76408 c -32.636,41.64425 -63.7193,84.5092 -92.9476,128.60976 -14.6106,22.96671 -22.4101,44.73968 -14.8042,71.684008 1.0922,3.869046 2.7656,7.549886 4.1484,11.324828 1.6765,3.126008 3.353,6.252016 5.0295,9.378024 0,0 -43.53721,24.874267 -43.53721,24.874267 l 0,0 c -1.68874,-3.364108 -3.37747,-6.728216 -5.06621,-10.092324 -1.46019,-4.008358 -3.2184,-7.920389 -4.38058,-12.025073 -8.38624,-29.619241 -1.03345,-50.97107 15.29512,-76.22644 29.40598,-42.63597 60.49918,-84.10561 89.08898,-127.29614 0,0 47.1738,-20.23091 47.1738,-20.23091 z"
         id="path3009"
         style="fill:#000000;stroke-width:0.1;stroke-miterlimit:4;stroke-dasharray:none" />
      <path
         d="m 1032.4572,-54.517242 c -35.22033,-18.304329 -59.15982,-50.321268 -81.6124,-81.989818 -18.53447,-28.48956 -38.44049,-57.27339 -48.37133,-90.11196 -3.60859,-17.76839 -4.2828,-36.04905 -3.93417,-54.13483 0,0 45.1739,-22.74982 45.1739,-22.74982 l 0,0 c -1.33123,17.63618 -0.47681,35.46954 2.82571,52.86681 8.7562,32.71079 26.03201,62.29062 44.79612,90.23306 22.36047,31.19215 46.87117,62.892746 83.82097,77.280756 0,0 -42.6988,28.605802 -42.6988,28.605802 z"
         id="path3011"
         style="fill:#000000;stroke-width:0.1;stroke-miterlimit:4;stroke-dasharray:none" />
      <path
         d="m 992.77302,-276.78336 c -1.41509,24.62249 -0.22091,49.25368 3.27643,73.64134 2.25604,20.9387 10.50035,39.23402 21.93485,56.52324 6.675,7.96454 11.8707,17.14533 16.4101,26.46435 5.4753,12.84844 11.1206,25.518187 17.9222,37.718084 0,0 -44.36,25.44595 -44.36,25.44595 l 0,0 c -6.4985,-12.400504 -12.19786,-25.143025 -18.26771,-37.752041 -4.51874,-9.123263 -9.6285,-18.050653 -15.76277,-26.189033 -11.32871,-18.55264 -19.09533,-37.27956 -21.38058,-59.23371 -3.68677,-24.22214 -5.05366,-48.6725 -5.82567,-73.15293 0,0 46.05315,-23.46525 46.05315,-23.46525 z"
         id="path3013"
         style="fill:#000000;stroke-width:0.1;stroke-miterlimit:4;stroke-dasharray:none" />
    </g>
    <g
       transform="matrix(0.50704208,0,0,0.50704208,-1294.5604,830.34134)"
       id="g3015">
      <path
         style="fill:#000000;stroke-width:0.1;stroke-miterlimit:4;stroke-dasharray:none"
         id="path3017"
         d="m 1072.43,-340.16974 c -15.0797,39.04613 -28.8362,79.6067 -34.03,121.35672 -1.263,10.15267 -1.2263,20.42509 -1.8394,30.63763 4.46,29.69374 2.4686,31.21139 15.7921,58.96303 4.4866,9.34505 10.4099,17.9296 15.6148,26.8944 0,0 -39.5648,22.847918 -39.5648,22.847918 l 0,0 c -17.5623,-30.449308 -30.69141,-51.761288 -32.7592,-88.163408 0.61811,-10.41472 0.65097,-20.88075 1.85431,-31.24417 4.72739,-40.71278 17.41159,-80.05671 28.28949,-119.38698 0,0 46.6427,-21.90514 46.6427,-21.90514 z" />
      <path
         style="fill:#000000;stroke-width:0.1;stroke-miterlimit:4;stroke-dasharray:none"
         id="path3019"
         d="m 1119.2496,-282.76408 c -32.636,41.64425 -63.7193,84.5092 -92.9476,128.60976 -14.6106,22.96671 -22.4101,44.73968 -14.8042,71.684008 1.0922,3.869046 2.7656,7.549886 4.1484,11.324828 1.6765,3.126008 3.353,6.252016 5.0295,9.378024 0,0 -43.53721,24.874267 -43.53721,24.874267 l 0,0 c -1.68874,-3.364108 -3.37747,-6.728216 -5.06621,-10.092324 -1.46019,-4.008358 -3.2184,-7.920389 -4.38058,-12.025073 -8.38624,-29.619241 -1.03345,-50.97107 15.29512,-76.22644 29.40598,-42.63597 60.49918,-84.10561 89.08898,-127.29614 0,0 47.1738,-20.23091 47.1738,-20.23091 z" />
      <path
         style="fill:#000000;stroke-width:0.1;stroke-miterlimit:4;stroke-dasharray:none"
         id="path3021"
         d="m 1032.4572,-54.517242 c -35.22033,-18.304329 -59.15982,-50.321268 -81.6124,-81.989818 -18.53447,-28.48956 -38.44049,-57.27339 -48.37133,-90.11196 -3.60859,-17.76839 -4.2828,-36.04905 -3.93417,-54.13483 0,0 45.1739,-22.74982 45.1739,-22.74982 l 0,0 c -1.33123,17.63618 -0.47681,35.46954 2.82571,52.86681 8.7562,32.71079 26.03201,62.29062 44.79612,90.23306 22.36047,31.19215 46.87117,62.892746 83.82097,77.280756 0,0 -42.6988,28.605802 -42.6988,28.605802 z" />
      <path
         style="fill:#000000;stroke-width:0.1;stroke-miterlimit:4;stroke-dasharray:none"
         id="path3023"
         d="m 992.77302,-276.78336 c -1.41509,24.62249 -0.22091,49.25368 3.27643,73.64134 2.25604,20.9387 10.50035,39.23402 21.93485,56.52324 6.675,7.96454 11.8707,17.14533 16.4101,26.46435 5.4753,12.84844 11.1206,25.518187 17.9222,37.718084 0,0 -44.36,25.44595 -44.36,25.44595 l 0,0 c -6.4985,-12.400504 -12.19786,-25.143025 -18.26771,-37.752041 -4.51874,-9.123263 -9.6285,-18.050653 -15.76277,-26.189033 -11.32871,-18.55264 -19.09533,-37.27956 -21.38058,-59.23371 -3.68677,-24.22214 -5.05366,-48.6725 -5.82567,-73.15293 0,0 46.05315,-23.46525 46.05315,-23.46525 z" />
    </g>
    <g
       id="g3111"
       transform="matrix(0.3616352,0,0,0.3616352,237.09843,907.42814)">
      <path
         style="fill:#000000;stroke:#000000;stroke-width:1px;stroke-linecap:butt;stroke-linejoin:miter;stroke-opacity:1"
         d="m -282.84272,-499.23213 226.274204,-141.42136 c 77.8778,-31.21862 157.123996,-61.06889 266.680196,-60.60915 132.0592,-12.94314 202.1267,-13.48793 282.84276,-16.16244 l 242.43661,36.36549 c 109.56445,73.91235 271.55995,104.13219 323.24885,226.27417 107.7496,51.18106 183.1743,129.29952 226.2741,234.35539 -40.1405,61.46652 -59.5095,147.858984 -149.5025,149.502584 l -347.49252,24.24366 -387.8986,16.16244 -577.8072,4.04061 -311.127,-24.24366 20.203,-210.111734 185.8681,-238.396 z"
         id="path3025"
         sodipodi:nodetypes="cccccccccccccc" />
      <path
         style="fill:#ffffff;stroke-width:0.1;stroke-miterlimit:4;stroke-dasharray:none"
         d="m -227.38272,-67.432616 c -66.1072,-5.37365 -125.4422,-9.89808 -131.8556,-10.05429 -14.3206,-0.34882 -14.0447,6.78764 -3.8797,-100.363574 l 7.9625,-83.93391 82.7229,-105.91798 82.7229,-105.91794 101.051004,-63.09566 c 102.4978,-63.99913 117.7384,-71.5296 189.255796,-93.51214 53.7318,-16.51573 130.4287,-24.60605 310.6679,-32.7706 l 84.31587,-3.81936 107.05809,16.24055 c 105.95341,16.07297 107.30469,16.38617 130.95866,30.35394 13.14535,7.76236 55.47093,29.52643 94.05691,48.3646 96.08685,46.91082 143.20732,83.32435 163.93858,126.68768 3.8536,8.06052 14.38891,16.25695 38.25551,29.76257 64.4607,36.47708 116.4,89.7309 150.3896,154.19582 l 17.1794,32.58258 -22.4924,40.44758 c -12.3708,22.24618 -29.8175,48.35959 -38.7703,58.02979 -28.3661,30.638944 -26.0951,30.186304 -218.68112,43.586744 -250.82749,17.45294 -500.9062,26.28638 -784.2717,27.70249 -235.3786,1.17633 -242.8954,0.99769 -360.5848,-8.56889 l 0,0 z"
         id="path3027" />
      <path
         style="fill:#000000;stroke:#000000;stroke-width:1px;stroke-linecap:butt;stroke-linejoin:miter;stroke-opacity:1"
         d="m 105.05588,-103.25233 92.934,-177.78685 189.9087,-68.69037 165.66501,32.32488 c 51.16095,65.10543 113.3619,129.22459 105.05587,214.15234 l -149.50258,28.284274 -145.462,12.12183 -145.4619,-20.20305 -113.1371,-20.203054 z"
         id="path3029"
         sodipodi:nodetypes="ccccccccc" />
      <g
         id="g3031"
         transform="matrix(0.50704208,0,0,0.50704208,-1.5652159,46.462964)">
        <path
           d="m 1072.43,-340.16974 c -15.0797,39.04613 -28.8362,79.6067 -34.03,121.35672 -1.263,10.15267 -1.2263,20.42509 -1.8394,30.63763 4.46,29.69374 2.4686,31.21139 15.7921,58.96303 4.4866,9.34505 10.4099,17.9296 15.6148,26.8944 0,0 -39.5648,22.847918 -39.5648,22.847918 l 0,0 c -17.5623,-30.449308 -30.69141,-51.761288 -32.7592,-88.163408 0.61811,-10.41472 0.65097,-20.88075 1.85431,-31.24417 4.72739,-40.71278 17.41159,-80.05671 28.28949,-119.38698 0,0 46.6427,-21.90514 46.6427,-21.90514 z"
           id="path3033"
           style="fill:#000000;stroke-width:0.1;stroke-miterlimit:4;stroke-dasharray:none" />
        <path
           d="m 1119.2496,-282.76408 c -32.636,41.64425 -63.7193,84.5092 -92.9476,128.60976 -14.6106,22.96671 -22.4101,44.73968 -14.8042,71.684008 1.0922,3.869046 2.7656,7.549886 4.1484,11.324828 1.6765,3.126008 3.353,6.252016 5.0295,9.378024 0,0 -43.53721,24.874267 -43.53721,24.874267 l 0,0 c -1.68874,-3.364108 -3.37747,-6.728216 -5.06621,-10.092324 -1.46019,-4.008358 -3.2184,-7.920389 -4.38058,-12.025073 -8.38624,-29.619241 -1.03345,-50.97107 15.29512,-76.22644 29.40598,-42.63597 60.49918,-84.10561 89.08898,-127.29614 0,0 47.1738,-20.23091 47.1738,-20.23091 z"
           id="path3035"
           style="fill:#000000;stroke-width:0.1;stroke-miterlimit:4;stroke-dasharray:none" />
        <path
           d="m 1032.4572,-54.517242 c -35.22033,-18.304329 -59.15982,-50.321268 -81.6124,-81.989818 -18.53447,-28.48956 -38.44049,-57.27339 -48.37133,-90.11196 -3.60859,-17.76839 -4.2828,-36.04905 -3.93417,-54.13483 0,0 45.1739,-22.74982 45.1739,-22.74982 l 0,0 c -1.33123,17.63618 -0.47681,35.46954 2.82571,52.86681 8.7562,32.71079 26.03201,62.29062 44.79612,90.23306 22.36047,31.19215 46.87117,62.892746 83.82097,77.280756 0,0 -42.6988,28.605802 -42.6988,28.605802 z"
           id="path3037"
           style="fill:#000000;stroke-width:0.1;stroke-miterlimit:4;stroke-dasharray:none" />
        <path
           d="m 992.77302,-276.78336 c -1.41509,24.62249 -0.22091,49.25368 3.27643,73.64134 2.25604,20.9387 10.50035,39.23402 21.93485,56.52324 6.675,7.96454 11.8707,17.14533 16.4101,26.46435 5.4753,12.84844 11.1206,25.518187 17.9222,37.718084 0,0 -44.36,25.44595 -44.36,25.44595 l 0,0 c -6.4985,-12.400504 -12.19786,-25.143025 -18.26771,-37.752041 -4.51874,-9.123263 -9.6285,-18.050653 -15.76277,-26.189033 -11.32871,-18.55264 -19.09533,-37.27956 -21.38058,-59.23371 -3.68677,-24.22214 -5.05366,-48.6725 -5.82567,-73.15293 0,0 46.05315,-23.46525 46.05315,-23.46525 z"
           id="path3039"
           style="fill:#000000;stroke-width:0.1;stroke-miterlimit:4;stroke-dasharray:none" />
      </g>
      <g
         transform="matrix(0.50704208,0,0,0.50704208,-94.499216,46.462964)"
         id="g3041">
        <path
           style="fill:#000000;stroke-width:0.1;stroke-miterlimit:4;stroke-dasharray:none"
           id="path3043"
           d="m 1072.43,-340.16974 c -15.0797,39.04613 -28.8362,79.6067 -34.03,121.35672 -1.263,10.15267 -1.2263,20.42509 -1.8394,30.63763 4.46,29.69374 2.4686,31.21139 15.7921,58.96303 4.4866,9.34505 10.4099,17.9296 15.6148,26.8944 0,0 -39.5648,22.847918 -39.5648,22.847918 l 0,0 c -17.5623,-30.449308 -30.69141,-51.761288 -32.7592,-88.163408 0.61811,-10.41472 0.65097,-20.88075 1.85431,-31.24417 4.72739,-40.71278 17.41159,-80.05671 28.28949,-119.38698 0,0 46.6427,-21.90514 46.6427,-21.90514 z" />
        <path
           style="fill:#000000;stroke-width:0.1;stroke-miterlimit:4;stroke-dasharray:none"
           id="path3045"
           d="m 1119.2496,-282.76408 c -32.636,41.64425 -63.7193,84.5092 -92.9476,128.60976 -14.6106,22.96671 -22.4101,44.73968 -14.8042,71.684008 1.0922,3.869046 2.7656,7.549886 4.1484,11.324828 1.6765,3.126008 3.353,6.252016 5.0295,9.378024 0,0 -43.53721,24.874267 -43.53721,24.874267 l 0,0 c -1.68874,-3.364108 -3.37747,-6.728216 -5.06621,-10.092324 -1.46019,-4.008358 -3.2184,-7.920389 -4.38058,-12.025073 -8.38624,-29.619241 -1.03345,-50.97107 15.29512,-76.22644 29.40598,-42.63597 60.49918,-84.10561 89.08898,-127.29614 0,0 47.1738,-20.23091 47.1738,-20.23091 z" />
        <path
           style="fill:#000000;stroke-width:0.1;stroke-miterlimit:4;stroke-dasharray:none"
           id="path3047"
           d="m 1032.4572,-54.517242 c -35.22033,-18.304329 -59.15982,-50.321268 -81.6124,-81.989818 -18.53447,-28.48956 -38.44049,-57.27339 -48.37133,-90.11196 -3.60859,-17.76839 -4.2828,-36.04905 -3.93417,-54.13483 0,0 45.1739,-22.74982 45.1739,-22.74982 l 0,0 c -1.33123,17.63618 -0.47681,35.46954 2.82571,52.86681 8.7562,32.71079 26.03201,62.29062 44.79612,90.23306 22.36047,31.19215 46.87117,62.892746 83.82097,77.280756 0,0 -42.6988,28.605802 -42.6988,28.605802 z" />
        <path
           style="fill:#000000;stroke-width:0.1;stroke-miterlimit:4;stroke-dasharray:none"
           id="path3049"
           d="m 992.77302,-276.78336 c -1.41509,24.62249 -0.22091,49.25368 3.27643,73.64134 2.25604,20.9387 10.50035,39.23402 21.93485,56.52324 6.675,7.96454 11.8707,17.14533 16.4101,26.46435 5.4753,12.84844 11.1206,25.518187 17.9222,37.718084 0,0 -44.36,25.44595 -44.36,25.44595 l 0,0 c -6.4985,-12.400504 -12.19786,-25.143025 -18.26771,-37.752041 -4.51874,-9.123263 -9.6285,-18.050653 -15.76277,-26.189033 -11.32871,-18.55264 -19.09533,-37.27956 -21.38058,-59.23371 -3.68677,-24.22214 -5.05366,-48.6725 -5.82567,-73.15293 0,0 46.05315,-23.46525 46.05315,-23.46525 z" />
      </g>
      <g
         id="g3051"
         transform="matrix(0.50704208,0,0,0.50704208,-223.79872,54.544184)">
        <path
           d="m 1072.43,-340.16974 c -15.0797,39.04613 -28.8362,79.6067 -34.03,121.35672 -1.263,10.15267 -1.2263,20.42509 -1.8394,30.63763 4.46,29.69374 2.4686,31.21139 15.7921,58.96303 4.4866,9.34505 10.4099,17.9296 15.6148,26.8944 0,0 -39.5648,22.847918 -39.5648,22.847918 l 0,0 c -17.5623,-30.449308 -30.69141,-51.761288 -32.7592,-88.163408 0.61811,-10.41472 0.65097,-20.88075 1.85431,-31.24417 4.72739,-40.71278 17.41159,-80.05671 28.28949,-119.38698 0,0 46.6427,-21.90514 46.6427,-21.90514 z"
           id="path3053"
           style="fill:#000000;stroke-width:0.1;stroke-miterlimit:4;stroke-dasharray:none" />
        <path
           d="m 1119.2496,-282.76408 c -32.636,41.64425 -63.7193,84.5092 -92.9476,128.60976 -14.6106,22.96671 -22.4101,44.73968 -14.8042,71.684008 1.0922,3.869046 2.7656,7.549886 4.1484,11.324828 1.6765,3.126008 3.353,6.252016 5.0295,9.378024 0,0 -43.53721,24.874267 -43.53721,24.874267 l 0,0 c -1.68874,-3.364108 -3.37747,-6.728216 -5.06621,-10.092324 -1.46019,-4.008358 -3.2184,-7.920389 -4.38058,-12.025073 -8.38624,-29.619241 -1.03345,-50.97107 15.29512,-76.22644 29.40598,-42.63597 60.49918,-84.10561 89.08898,-127.29614 0,0 47.1738,-20.23091 47.1738,-20.23091 z"
           id="path3055"
           style="fill:#000000;stroke-width:0.1;stroke-miterlimit:4;stroke-dasharray:none" />
        <path
           d="m 1032.4572,-54.517242 c -35.22033,-18.304329 -59.15982,-50.321268 -81.6124,-81.989818 -18.53447,-28.48956 -38.44049,-57.27339 -48.37133,-90.11196 -3.60859,-17.76839 -4.2828,-36.04905 -3.93417,-54.13483 0,0 45.1739,-22.74982 45.1739,-22.74982 l 0,0 c -1.33123,17.63618 -0.47681,35.46954 2.82571,52.86681 8.7562,32.71079 26.03201,62.29062 44.79612,90.23306 22.36047,31.19215 46.87117,62.892746 83.82097,77.280756 0,0 -42.6988,28.605802 -42.6988,28.605802 z"
           id="path3057"
           style="fill:#000000;stroke-width:0.1;stroke-miterlimit:4;stroke-dasharray:none" />
        <path
           d="m 992.77302,-276.78336 c -1.41509,24.62249 -0.22091,49.25368 3.27643,73.64134 2.25604,20.9387 10.50035,39.23402 21.93485,56.52324 6.675,7.96454 11.8707,17.14533 16.4101,26.46435 5.4753,12.84844 11.1206,25.518187 17.9222,37.718084 0,0 -44.36,25.44595 -44.36,25.44595 l 0,0 c -6.4985,-12.400504 -12.19786,-25.143025 -18.26771,-37.752041 -4.51874,-9.123263 -9.6285,-18.050653 -15.76277,-26.189033 -11.32871,-18.55264 -19.09533,-37.27956 -21.38058,-59.23371 -3.68677,-24.22214 -5.05366,-48.6725 -5.82567,-73.15293 0,0 46.05315,-23.46525 46.05315,-23.46525 z"
           id="path3059"
           style="fill:#000000;stroke-width:0.1;stroke-miterlimit:4;stroke-dasharray:none" />
      </g>
      <g
         transform="matrix(0.50704208,0,0,0.50704208,-345.01702,66.666024)"
         id="g3061">
        <path
           style="fill:#000000;stroke-width:0.1;stroke-miterlimit:4;stroke-dasharray:none"
           id="path3063"
           d="m 1072.43,-340.16974 c -15.0797,39.04613 -28.8362,79.6067 -34.03,121.35672 -1.263,10.15267 -1.2263,20.42509 -1.8394,30.63763 4.46,29.69374 2.4686,31.21139 15.7921,58.96303 4.4866,9.34505 10.4099,17.9296 15.6148,26.8944 0,0 -39.5648,22.847918 -39.5648,22.847918 l 0,0 c -17.5623,-30.449308 -30.69141,-51.761288 -32.7592,-88.163408 0.61811,-10.41472 0.65097,-20.88075 1.85431,-31.24417 4.72739,-40.71278 17.41159,-80.05671 28.28949,-119.38698 0,0 46.6427,-21.90514 46.6427,-21.90514 z" />
        <path
           style="fill:#000000;stroke-width:0.1;stroke-miterlimit:4;stroke-dasharray:none"
           id="path3065"
           d="m 1119.2496,-282.76408 c -32.636,41.64425 -63.7193,84.5092 -92.9476,128.60976 -14.6106,22.96671 -22.4101,44.73968 -14.8042,71.684008 1.0922,3.869046 2.7656,7.549886 4.1484,11.324828 1.6765,3.126008 3.353,6.252016 5.0295,9.378024 0,0 -43.53721,24.874267 -43.53721,24.874267 l 0,0 c -1.68874,-3.364108 -3.37747,-6.728216 -5.06621,-10.092324 -1.46019,-4.008358 -3.2184,-7.920389 -4.38058,-12.025073 -8.38624,-29.619241 -1.03345,-50.97107 15.29512,-76.22644 29.40598,-42.63597 60.49918,-84.10561 89.08898,-127.29614 0,0 47.1738,-20.23091 47.1738,-20.23091 z" />
        <path
           style="fill:#000000;stroke-width:0.1;stroke-miterlimit:4;stroke-dasharray:none"
           id="path3067"
           d="m 1032.4572,-54.517242 c -35.22033,-18.304329 -59.15982,-50.321268 -81.6124,-81.989818 -18.53447,-28.48956 -38.44049,-57.27339 -48.37133,-90.11196 -3.60859,-17.76839 -4.2828,-36.04905 -3.93417,-54.13483 0,0 45.1739,-22.74982 45.1739,-22.74982 l 0,0 c -1.33123,17.63618 -0.47681,35.46954 2.82571,52.86681 8.7562,32.71079 26.03201,62.29062 44.79612,90.23306 22.36047,31.19215 46.87117,62.892746 83.82097,77.280756 0,0 -42.6988,28.605802 -42.6988,28.605802 z" />
        <path
           style="fill:#000000;stroke-width:0.1;stroke-miterlimit:4;stroke-dasharray:none"
           id="path3069"
           d="m 992.77302,-276.78336 c -1.41509,24.62249 -0.22091,49.25368 3.27643,73.64134 2.25604,20.9387 10.50035,39.23402 21.93485,56.52324 6.675,7.96454 11.8707,17.14533 16.4101,26.46435 5.4753,12.84844 11.1206,25.518187 17.9222,37.718084 0,0 -44.36,25.44595 -44.36,25.44595 l 0,0 c -6.4985,-12.400504 -12.19786,-25.143025 -18.26771,-37.752041 -4.51874,-9.123263 -9.6285,-18.050653 -15.76277,-26.189033 -11.32871,-18.55264 -19.09533,-37.27956 -21.38058,-59.23371 -3.68677,-24.22214 -5.05366,-48.6725 -5.82567,-73.15293 0,0 46.05315,-23.46525 46.05315,-23.46525 z" />
      </g>
      <g
         id="g3071"
         transform="matrix(0.50704208,0,0,0.50704208,-482.39782,46.462964)">
        <path
           d="m 1072.43,-340.16974 c -15.0797,39.04613 -28.8362,79.6067 -34.03,121.35672 -1.263,10.15267 -1.2263,20.42509 -1.8394,30.63763 4.46,29.69374 2.4686,31.21139 15.7921,58.96303 4.4866,9.34505 10.4099,17.9296 15.6148,26.8944 0,0 -39.5648,22.847918 -39.5648,22.847918 l 0,0 c -17.5623,-30.449308 -30.69141,-51.761288 -32.7592,-88.163408 0.61811,-10.41472 0.65097,-20.88075 1.85431,-31.24417 4.72739,-40.71278 17.41159,-80.05671 28.28949,-119.38698 0,0 46.6427,-21.90514 46.6427,-21.90514 z"
           id="path3073"
           style="fill:#000000;stroke-width:0.1;stroke-miterlimit:4;stroke-dasharray:none" />
        <path
           d="m 1119.2496,-282.76408 c -32.636,41.64425 -63.7193,84.5092 -92.9476,128.60976 -14.6106,22.96671 -22.4101,44.73968 -14.8042,71.684008 1.0922,3.869046 2.7656,7.549886 4.1484,11.324828 1.6765,3.126008 3.353,6.252016 5.0295,9.378024 0,0 -43.53721,24.874267 -43.53721,24.874267 l 0,0 c -1.68874,-3.364108 -3.37747,-6.728216 -5.06621,-10.092324 -1.46019,-4.008358 -3.2184,-7.920389 -4.38058,-12.025073 -8.38624,-29.619241 -1.03345,-50.97107 15.29512,-76.22644 29.40598,-42.63597 60.49918,-84.10561 89.08898,-127.29614 0,0 47.1738,-20.23091 47.1738,-20.23091 z"
           id="path3075"
           style="fill:#000000;stroke-width:0.1;stroke-miterlimit:4;stroke-dasharray:none" />
        <path
           d="m 1032.4572,-54.517242 c -35.22033,-18.304329 -59.15982,-50.321268 -81.6124,-81.989818 -18.53447,-28.48956 -38.44049,-57.27339 -48.37133,-90.11196 -3.60859,-17.76839 -4.2828,-36.04905 -3.93417,-54.13483 0,0 45.1739,-22.74982 45.1739,-22.74982 l 0,0 c -1.33123,17.63618 -0.47681,35.46954 2.82571,52.86681 8.7562,32.71079 26.03201,62.29062 44.79612,90.23306 22.36047,31.19215 46.87117,62.892746 83.82097,77.280756 0,0 -42.6988,28.605802 -42.6988,28.605802 z"
           id="path3077"
           style="fill:#000000;stroke-width:0.1;stroke-miterlimit:4;stroke-dasharray:none" />
        <path
           d="m 992.77302,-276.78336 c -1.41509,24.62249 -0.22091,49.25368 3.27643,73.64134 2.25604,20.9387 10.50035,39.23402 21.93485,56.52324 6.675,7.96454 11.8707,17.14533 16.4101,26.46435 5.4753,12.84844 11.1206,25.518187 17.9222,37.718084 0,0 -44.36,25.44595 -44.36,25.44595 l 0,0 c -6.4985,-12.400504 -12.19786,-25.143025 -18.26771,-37.752041 -4.51874,-9.123263 -9.6285,-18.050653 -15.76277,-26.189033 -11.32871,-18.55264 -19.09533,-37.27956 -21.38058,-59.23371 -3.68677,-24.22214 -5.05366,-48.6725 -5.82567,-73.15293 0,0 46.05315,-23.46525 46.05315,-23.46525 z"
           id="path3079"
           style="fill:#000000;stroke-width:0.1;stroke-miterlimit:4;stroke-dasharray:none" />
      </g>
      <g
         transform="matrix(0.50704208,0,0,0.50704208,-397.54502,-14.146186)"
         id="g3081">
        <path
           style="fill:#000000;stroke-width:0.1;stroke-miterlimit:4;stroke-dasharray:none"
           id="path3083"
           d="m 1072.43,-340.16974 c -15.0797,39.04613 -28.8362,79.6067 -34.03,121.35672 -1.263,10.15267 -1.2263,20.42509 -1.8394,30.63763 4.46,29.69374 2.4686,31.21139 15.7921,58.96303 4.4866,9.34505 10.4099,17.9296 15.6148,26.8944 0,0 -39.5648,22.847918 -39.5648,22.847918 l 0,0 c -17.5623,-30.449308 -30.69141,-51.761288 -32.7592,-88.163408 0.61811,-10.41472 0.65097,-20.88075 1.85431,-31.24417 4.72739,-40.71278 17.41159,-80.05671 28.28949,-119.38698 0,0 46.6427,-21.90514 46.6427,-21.90514 z" />
        <path
           style="fill:#000000;stroke-width:0.1;stroke-miterlimit:4;stroke-dasharray:none"
           id="path3085"
           d="m 1119.2496,-282.76408 c -32.636,41.64425 -63.7193,84.5092 -92.9476,128.60976 -14.6106,22.96671 -22.4101,44.73968 -14.8042,71.684008 1.0922,3.869046 2.7656,7.549886 4.1484,11.324828 1.6765,3.126008 3.353,6.252016 5.0295,9.378024 0,0 -43.53721,24.874267 -43.53721,24.874267 l 0,0 c -1.68874,-3.364108 -3.37747,-6.728216 -5.06621,-10.092324 -1.46019,-4.008358 -3.2184,-7.920389 -4.38058,-12.025073 -8.38624,-29.619241 -1.03345,-50.97107 15.29512,-76.22644 29.40598,-42.63597 60.49918,-84.10561 89.08898,-127.29614 0,0 47.1738,-20.23091 47.1738,-20.23091 z" />
        <path
           style="fill:#000000;stroke-width:0.1;stroke-miterlimit:4;stroke-dasharray:none"
           id="path3087"
           d="m 1032.4572,-54.517242 c -35.22033,-18.304329 -59.15982,-50.321268 -81.6124,-81.989818 -18.53447,-28.48956 -38.44049,-57.27339 -48.37133,-90.11196 -3.60859,-17.76839 -4.2828,-36.04905 -3.93417,-54.13483 0,0 45.1739,-22.74982 45.1739,-22.74982 l 0,0 c -1.33123,17.63618 -0.47681,35.46954 2.82571,52.86681 8.7562,32.71079 26.03201,62.29062 44.79612,90.23306 22.36047,31.19215 46.87117,62.892746 83.82097,77.280756 0,0 -42.6988,28.605802 -42.6988,28.605802 z" />
        <path
           style="fill:#000000;stroke-width:0.1;stroke-miterlimit:4;stroke-dasharray:none"
           id="path3089"
           d="m 992.77302,-276.78336 c -1.41509,24.62249 -0.22091,49.25368 3.27643,73.64134 2.25604,20.9387 10.50035,39.23402 21.93485,56.52324 6.675,7.96454 11.8707,17.14533 16.4101,26.46435 5.4753,12.84844 11.1206,25.518187 17.9222,37.718084 0,0 -44.36,25.44595 -44.36,25.44595 l 0,0 c -6.4985,-12.400504 -12.19786,-25.143025 -18.26771,-37.752041 -4.51874,-9.123263 -9.6285,-18.050653 -15.76277,-26.189033 -11.32871,-18.55264 -19.09533,-37.27956 -21.38058,-59.23371 -3.68677,-24.22214 -5.05366,-48.6725 -5.82567,-73.15293 0,0 46.05315,-23.46525 46.05315,-23.46525 z" />
      </g>
      <g
         id="g3091"
         transform="matrix(0.50704208,0,0,0.50704208,83.287584,2.016254)">
        <path
           d="m 1072.43,-340.16974 c -15.0797,39.04613 -28.8362,79.6067 -34.03,121.35672 -1.263,10.15267 -1.2263,20.42509 -1.8394,30.63763 4.46,29.69374 2.4686,31.21139 15.7921,58.96303 4.4866,9.34505 10.4099,17.9296 15.6148,26.8944 0,0 -39.5648,22.847918 -39.5648,22.847918 l 0,0 c -17.5623,-30.449308 -30.69141,-51.761288 -32.7592,-88.163408 0.61811,-10.41472 0.65097,-20.88075 1.85431,-31.24417 4.72739,-40.71278 17.41159,-80.05671 28.28949,-119.38698 0,0 46.6427,-21.90514 46.6427,-21.90514 z"
           id="path3093"
           style="fill:#000000;stroke-width:0.1;stroke-miterlimit:4;stroke-dasharray:none" />
        <path
           d="m 1119.2496,-282.76408 c -32.636,41.64425 -63.7193,84.5092 -92.9476,128.60976 -14.6106,22.96671 -22.4101,44.73968 -14.8042,71.684008 1.0922,3.869046 2.7656,7.549886 4.1484,11.324828 1.6765,3.126008 3.353,6.252016 5.0295,9.378024 0,0 -43.53721,24.874267 -43.53721,24.874267 l 0,0 c -1.68874,-3.364108 -3.37747,-6.728216 -5.06621,-10.092324 -1.46019,-4.008358 -3.2184,-7.920389 -4.38058,-12.025073 -8.38624,-29.619241 -1.03345,-50.97107 15.29512,-76.22644 29.40598,-42.63597 60.49918,-84.10561 89.08898,-127.29614 0,0 47.1738,-20.23091 47.1738,-20.23091 z"
           id="path3095"
           style="fill:#000000;stroke-width:0.1;stroke-miterlimit:4;stroke-dasharray:none" />
        <path
           d="m 1032.4572,-54.517242 c -35.22033,-18.304329 -59.15982,-50.321268 -81.6124,-81.989818 -18.53447,-28.48956 -38.44049,-57.27339 -48.37133,-90.11196 -3.60859,-17.76839 -4.2828,-36.04905 -3.93417,-54.13483 0,0 45.1739,-22.74982 45.1739,-22.74982 l 0,0 c -1.33123,17.63618 -0.47681,35.46954 2.82571,52.86681 8.7562,32.71079 26.03201,62.29062 44.79612,90.23306 22.36047,31.19215 46.87117,62.892746 83.82097,77.280756 0,0 -42.6988,28.605802 -42.6988,28.605802 z"
           id="path3097"
           style="fill:#000000;stroke-width:0.1;stroke-miterlimit:4;stroke-dasharray:none" />
        <path
           d="m 992.77302,-276.78336 c -1.41509,24.62249 -0.22091,49.25368 3.27643,73.64134 2.25604,20.9387 10.50035,39.23402 21.93485,56.52324 6.675,7.96454 11.8707,17.14533 16.4101,26.46435 5.4753,12.84844 11.1206,25.518187 17.9222,37.718084 0,0 -44.36,25.44595 -44.36,25.44595 l 0,0 c -6.4985,-12.400504 -12.19786,-25.143025 -18.26771,-37.752041 -4.51874,-9.123263 -9.6285,-18.050653 -15.76277,-26.189033 -11.32871,-18.55264 -19.09533,-37.27956 -21.38058,-59.23371 -3.68677,-24.22214 -5.05366,-48.6725 -5.82567,-73.15293 0,0 46.05315,-23.46525 46.05315,-23.46525 z"
           id="path3099"
           style="fill:#000000;stroke-width:0.1;stroke-miterlimit:4;stroke-dasharray:none" />
      </g>
      <g
         transform="matrix(0.50704208,0,0,0.50704208,168.14048,10.097474)"
         id="g3101">
        <path
           style="fill:#000000;stroke-width:0.1;stroke-miterlimit:4;stroke-dasharray:none"
           id="path3103"
           d="m 1072.43,-340.16974 c -15.0797,39.04613 -28.8362,79.6067 -34.03,121.35672 -1.263,10.15267 -1.2263,20.42509 -1.8394,30.63763 4.46,29.69374 2.4686,31.21139 15.7921,58.96303 4.4866,9.34505 10.4099,17.9296 15.6148,26.8944 0,0 -39.5648,22.847918 -39.5648,22.847918 l 0,0 c -17.5623,-30.449308 -30.69141,-51.761288 -32.7592,-88.163408 0.61811,-10.41472 0.65097,-20.88075 1.85431,-31.24417 4.72739,-40.71278 17.41159,-80.05671 28.28949,-119.38698 0,0 46.6427,-21.90514 46.6427,-21.90514 z" />
        <path
           style="fill:#000000;stroke-width:0.1;stroke-miterlimit:4;stroke-dasharray:none"
           id="path3105"
           d="m 1119.2496,-282.76408 c -32.636,41.64425 -63.7193,84.5092 -92.9476,128.60976 -14.6106,22.96671 -22.4101,44.73968 -14.8042,71.684008 1.0922,3.869046 2.7656,7.549886 4.1484,11.324828 1.6765,3.126008 3.353,6.252016 5.0295,9.378024 0,0 -43.53721,24.874267 -43.53721,24.874267 l 0,0 c -1.68874,-3.364108 -3.37747,-6.728216 -5.06621,-10.092324 -1.46019,-4.008358 -3.2184,-7.920389 -4.38058,-12.025073 -8.38624,-29.619241 -1.03345,-50.97107 15.29512,-76.22644 29.40598,-42.63597 60.49918,-84.10561 89.08898,-127.29614 0,0 47.1738,-20.23091 47.1738,-20.23091 z" />
        <path
           style="fill:#000000;stroke-width:0.1;stroke-miterlimit:4;stroke-dasharray:none"
           id="path3107"
           d="m 1032.4572,-54.517242 c -35.22033,-18.304329 -59.15982,-50.321268 -81.6124,-81.989818 -18.53447,-28.48956 -38.44049,-57.27339 -48.37133,-90.11196 -3.60859,-17.76839 -4.2828,-36.04905 -3.93417,-54.13483 0,0 45.1739,-22.74982 45.1739,-22.74982 l 0,0 c -1.33123,17.63618 -0.47681,35.46954 2.82571,52.86681 8.7562,32.71079 26.03201,62.29062 44.79612,90.23306 22.36047,31.19215 46.87117,62.892746 83.82097,77.280756 0,0 -42.6988,28.605802 -42.6988,28.605802 z" />
        <path
           style="fill:#000000;stroke-width:0.1;stroke-miterlimit:4;stroke-dasharray:none"
           id="path3109"
           d="m 992.77302,-276.78336 c -1.41509,24.62249 -0.22091,49.25368 3.27643,73.64134 2.25604,20.9387 10.50035,39.23402 21.93485,56.52324 6.675,7.96454 11.8707,17.14533 16.4101,26.46435 5.4753,12.84844 11.1206,25.518187 17.9222,37.718084 0,0 -44.36,25.44595 -44.36,25.44595 l 0,0 c -6.4985,-12.400504 -12.19786,-25.143025 -18.26771,-37.752041 -4.51874,-9.123263 -9.6285,-18.050653 -15.76277,-26.189033 -11.32871,-18.55264 -19.09533,-37.27956 -21.38058,-59.23371 -3.68677,-24.22214 -5.05366,-48.6725 -5.82567,-73.15293 0,0 46.05315,-23.46525 46.05315,-23.46525 z" />
      </g>
    </g>
  </g>
</svg>
