<?xml version="1.0" encoding="UTF-8" standalone="no"?>
<!-- Created with Inkscape (http://www.inkscape.org/) -->

<svg
   xmlns:dc="http://purl.org/dc/elements/1.1/"
   xmlns:cc="http://creativecommons.org/ns#"
   xmlns:rdf="http://www.w3.org/1999/02/22-rdf-syntax-ns#"
   xmlns:svg="http://www.w3.org/2000/svg"
   xmlns="http://www.w3.org/2000/svg"
   xmlns:sodipodi="http://sodipodi.sourceforge.net/DTD/sodipodi-0.dtd"
   xmlns:inkscape="http://www.inkscape.org/namespaces/inkscape"
   width="744.09448819"
   height="1052.3622047"
   id="svg2961"
   version="1.1"
   inkscape:version="0.47 r22583"
   sodipodi:docname="stomperwhite.svg">
  <defs
     id="defs2963">
    <inkscape:perspective
       sodipodi:type="inkscape:persp3d"
       inkscape:vp_x="0 : 526.18109 : 1"
       inkscape:vp_y="0 : 1000 : 0"
       inkscape:vp_z="744.09448 : 526.18109 : 1"
       inkscape:persp3d-origin="372.04724 : 350.78739 : 1"
       id="perspective2969" />
  </defs>
  <sodipodi:namedview
     id="base"
     pagecolor="#ffffff"
     bordercolor="#666666"
     borderopacity="1.0"
     inkscape:pageopacity="0.0"
     inkscape:pageshadow="2"
     inkscape:zoom="0.35"
     inkscape:cx="375"
     inkscape:cy="625.49416"
     inkscape:document-units="px"
     inkscape:current-layer="layer1"
     showgrid="false"
     inkscape:window-width="1134"
     inkscape:window-height="706"
     inkscape:window-x="62"
     inkscape:window-y="68"
     inkscape:window-maximized="0" />
  <metadata
     id="metadata2966">
    <rdf:RDF>
      <cc:Work
         rdf:about="">
        <dc:format>image/svg+xml</dc:format>
        <dc:type
           rdf:resource="http://purl.org/dc/dcmitype/StillImage" />
        <dc:title></dc:title>
      </cc:Work>
    </rdf:RDF>
  </metadata>
  <g
     inkscape:label="Layer 1"
     inkscape:groupmode="layer"
     id="layer1">
    <path
       style="fill:none;stroke:#000000;stroke-width:0.84251052px;stroke-linecap:butt;stroke-linejoin:miter;stroke-opacity:1"
       d="m -514.57413,100.85487 40.36716,157.89887 0,110.52921 -38.53229,3.15797 -7.33948,-126.31909 5.50461,-145.26696 z"
       id="path2973" />
    <path
       style="fill:none;stroke:#000000;stroke-width:1px;stroke-linecap:butt;stroke-linejoin:miter;stroke-opacity:1"
       d="m -445.71429,326.6479 111.42858,-102.85715 205.71428,60 -160,-11.42857 -122.85714,94.28572 117.14286,108.57143 -197.14286,5.71428 -14.28572,-91.42857 60,-62.85714 z"
       id="path2975" />
    <path
       style="fill:none;stroke:#000000;stroke-width:1px;stroke-linecap:butt;stroke-linejoin:miter;stroke-opacity:1"
       d="m -497.14286,546.6479 -8.57143,154.28571 20,82.85714 91.42858,2.85715 54.28571,-60 -20,-97.14286 -65.71429,-100 -71.42857,17.14286 z"
       id="path2977" />
    <path
       style="fill:none;stroke:#000000;stroke-width:1px;stroke-linecap:butt;stroke-linejoin:miter;stroke-opacity:1"
       d="m -268.57143,818.07647 51.42857,-25.71429 11.42857,-111.42857 22.85715,205.71429 -48.57143,-45.71429 -40,0 2.85714,-22.85714 z"
       id="path2979" />
    <path
       style="fill:none;stroke:#000000;stroke-width:1px;stroke-linecap:butt;stroke-linejoin:miter;stroke-opacity:1"
       d="m -531.42857,895.21933 57.14286,-37.14286 74.28571,34.28571 -42.85714,68.57143 157.14285,25.71429 -228.57142,5.71428 37.14285,-31.42857 -74.28571,-31.42857 20,-34.28571 z"
       id="path2981" />
    <path
       style="fill:none;stroke:#000000;stroke-width:1px;stroke-linecap:butt;stroke-linejoin:miter;stroke-opacity:1"
       d="M -805.71429,592.36218 -688.57143,623.79075 -800,655.21933 l -5.71429,-62.85715 z"
       id="path2983" />
    <path
       style="fill:none;stroke:#000000;stroke-width:1px;stroke-linecap:butt;stroke-linejoin:miter;stroke-opacity:1"
       d="m -922.85714,643.79075 -68.57143,151.42858 117.14286,-88.57143 -5.71429,-100 -42.85714,37.14285 z"
       id="path2985" />
    <path
       id="path3008"
       d="m 185.40649,483.35224 -76.78622,162.36183 131.17645,-94.96634 -6.39886,-107.22007 -47.99137,39.82458 z"
       style="fill:#000000;stroke:#000000;stroke-width:1.09574139px;stroke-linecap:butt;stroke-linejoin:miter;stroke-opacity:1" />
    <path
       id="path3010"
       d="m 358.0391,443.39707 102.65432,24.63802 -97.64678,24.63804 -5.00754,-49.27606 z"
       style="fill:#000000;stroke:#000000;stroke-width:0.82884145px;stroke-linecap:butt;stroke-linejoin:miter;stroke-opacity:1" />
    <path
       id="path3012"
       d="m 229.87547,23.753245 45.20314,169.299265 0,118.50951 -43.14843,3.38597 -8.21875,-135.43941 6.16404,-155.755335 z"
       style="fill:#000000;stroke:#000000;stroke-width:0.92317361px;stroke-linecap:butt;stroke-linejoin:miter;stroke-opacity:1" />
    <path
       id="path3014"
       d="m 239.79674,419.0202 -9.59835,165.42524 22.39598,88.83948 102.38163,3.06344 60.78906,-64.33204 -22.39598,-104.15663 -73.58679,-107.22008 -79.98555,18.38059 z"
       style="fill:#000000;stroke:#000000;stroke-width:1.09574139px;stroke-linecap:butt;stroke-linejoin:miter;stroke-opacity:1" />
    <path
       id="path3016"
       d="m 412.56562,587.50888 57.58969,-27.57088 12.79762,-119.47378 25.59547,220.56699 -54.3902,-49.01489 -44.79196,0 3.19938,-24.50744 z"
       style="fill:#000000;stroke:#000000;stroke-width:1.09574139px;stroke-linecap:butt;stroke-linejoin:miter;stroke-opacity:1" />
    <path
       id="path3018"
       d="m 252.59446,639.5872 63.98844,-39.8246 83.18504,36.76117 -47.99133,73.52233 175.96833,27.57088 -255.95398,6.12686 41.59256,-33.69774 -83.18504,-33.69774 22.39598,-36.76116 z"
       style="fill:#000000;stroke:#000000;stroke-width:1.09574139px;stroke-linecap:butt;stroke-linejoin:miter;stroke-opacity:1" />
    <path
       id="path3020"
       d="M 290.98747,253.59497 415.7651,143.31146 646.12374,207.6435 466.95592,195.38977 329.38057,296.48299 l 131.17649,116.41036 -220.7604,6.12685 -15.99711,-98.02977 67.18792,-67.39546 z"
       style="fill:#000000;stroke:#000000;stroke-width:1.09574139px;stroke-linecap:butt;stroke-linejoin:miter;stroke-opacity:1" />
    <path
       style="fill:#ff0000;stroke:#000000;stroke-width:0.8257435px;stroke-linecap:butt;stroke-linejoin:miter;stroke-opacity:1"
       d="m 262.05472,323.92177 55.45456,0 12.0553,55.40594 -67.50986,-55.40594 z"
       id="path3156" />
    <path
       style="fill:#ffffff;stroke-width:0.1;stroke-miterlimit:4;stroke-dasharray:none"
       d="m 273.85717,719.0659 c 0,-0.56074 7.74549,-7.23197 17.21227,-14.825 9.4667,-7.593 16.2167,-14.68023 15,-15.74934 -1.2168,-1.06914 -16.998,-8.07863 -35.06944,-15.57666 -18.07143,-7.498 -33.82858,-14.19194 -35.01588,-14.8754 -1.1873,-0.68343 1.00556,-6.64208 4.87302,-13.2414 l 7.03175,-11.99877 -6.95861,-27.10851 c -3.82723,-14.90969 -6.98438,-34.50138 -7.01587,-43.53709 -0.0315,-9.03571 -0.76403,-16.42857 -1.62784,-16.42857 -0.86382,0 -23.62699,16.6654 -50.58484,37.0342 -26.95785,20.36883 -49.56346,36.48503 -50.2347,35.8138 -0.67124,-0.67126 12.77051,-32.26789 29.87055,-70.21477 l 31.09099,-68.99432 20,-17.31754 20,-17.31754 1.42857,19.7838 c 1.88729,26.13651 5.70016,16.85185 5.75804,-14.02132 0.024,-12.83574 1.23623,-25.2232 2.6937,-27.52763 1.45748,-2.30445 1.62973,-5.51874 0.38278,-7.14285 -1.24695,-1.62415 -5.18015,-21.92669 -8.74044,-45.1168 -5.14715,-33.52615 -5.75708,-43.02676 -2.9773,-46.37619 2.75667,-3.32158 2.75149,-16.86296 -0.0245,-64.03438 -2.35816,-40.07118 -2.80556,-83.2451 -1.35511,-130.76667 l 2.16538,-70.944643 19.5468,75.714283 c 18.92114,73.29074 19.54916,76.83668 19.62016,110.7793 l 0.0734,35.06501 63.38269,-58.74044 c 34.8605,-32.30725 64.7533,-58.27025 66.4286,-57.69555 1.6752,0.57469 42.5196,12.46916 90.7653,26.43214 48.2457,13.96299 87.2362,25.87049 86.6456,26.46113 -0.5906,0.59064 -31.452,-1.12621 -68.5809,-3.81522 l -67.5069,-4.88911 -34.8529,26.67609 c -19.1691,14.67185 -46.6986,35.71961 -61.1765,46.7728 -14.478,11.05319 -26.3708,20.99238 -26.4286,22.0871 -0.058,1.09472 25.176,25.52329 56.075,54.28572 l 56.18,52.29531 -55.4657,2.43503 c -30.5062,1.33926 -55.8789,2.82386 -56.3839,3.29909 -0.5049,0.47525 5.2808,10.20977 12.8572,21.63225 12.4827,18.81943 13.8601,20.0514 14.6793,13.12949 0.4973,-4.20129 1.1401,-7.60891 1.4286,-7.57251 4.998,0.63094 77.0489,19.79151 78,20.74265 0.7342,0.73417 -12.8617,4.85683 -30.2132,9.16152 -17.3514,4.30465 -31.5481,9.08811 -31.5481,10.62994 0,1.5418 2.4044,6.21606 5.343,10.3872 3.0734,4.36257 8.8067,24.81443 13.4977,48.14934 7.5383,37.49843 8.5018,40.19866 12.7437,35.71429 2.5238,-2.66814 14.8965,-9.83437 27.4949,-15.92497 l 22.9061,-11.0738 3.3986,-36.06906 c 5.9446,-63.08771 6.4602,-62.2928 16.4463,25.35954 5.1025,44.78572 9.3494,85.07163 9.4377,89.52426 0.1546,7.79554 -0.6537,7.34537 -21.8035,-12.14286 l -21.9641,-20.23854 -19.2244,0 c -18.8989,0 -19.3722,0.18657 -27.9594,11.02886 -4.8042,6.06588 -8.0461,11.71783 -7.204,12.55988 0.842,0.84203 -7.5495,16.08369 -18.6479,33.87032 -11.0984,17.78663 -20.1789,33.2328 -20.1789,34.32483 0,2.04448 4.7255,2.93377 87.1428,16.39897 l 48.5714,7.93554 -57.1428,1.922 c -31.4286,1.05709 -76.75,2.59009 -100.7143,3.40663 -23.9643,0.81657 -43.57137,1.02586 -43.57137,0.46514 z m 42.42577,-363.25126 c -3.0691,-14.09364 -5.9943,-26.03891 -6.5004,-26.54505 -0.5062,-0.50614 -12.267,-0.54641 -26.1353,-0.0895 l -25.21489,0.83077 30.91169,26.56255 c 17.0015,14.6094 31.2734,26.18082 31.7154,25.71428 0.442,-0.46654 -1.7074,-12.37943 -4.7765,-26.47306 l 0,0 z"
       id="path3179" />
  </g>
</svg>
