<?xml version="1.0" encoding="UTF-8" standalone="no"?>
<!-- Generator: Adobe Illustrator 15.0.0, SVG Export Plug-In . SVG Version: 6.00 Build 0)  -->

<svg
   xmlns:dc="http://purl.org/dc/elements/1.1/"
   xmlns:cc="http://creativecommons.org/ns#"
   xmlns:rdf="http://www.w3.org/1999/02/22-rdf-syntax-ns#"
   xmlns:svg="http://www.w3.org/2000/svg"
   xmlns="http://www.w3.org/2000/svg"
   xmlns:sodipodi="http://sodipodi.sourceforge.net/DTD/sodipodi-0.dtd"
   xmlns:inkscape="http://www.inkscape.org/namespaces/inkscape"
   version="1.1"
   id="Layer_1"
   x="0px"
   y="0px"
   width="1024px"
   height="768px"
   viewBox="0 0 1024 768"
   enable-background="new 0 0 1024 768"
   xml:space="preserve"
   inkscape:version="0.47 r22583"
   sodipodi:docname="lantern.svg"><metadata
   id="metadata2914"><rdf:RDF><cc:Work
       rdf:about=""><dc:format>image/svg+xml</dc:format><dc:type
         rdf:resource="http://purl.org/dc/dcmitype/StillImage" /><dc:title></dc:title></cc:Work></rdf:RDF></metadata><defs
   id="defs2912"><inkscape:perspective
     sodipodi:type="inkscape:persp3d"
     inkscape:vp_x="0 : 384 : 1"
     inkscape:vp_y="0 : 1000 : 0"
     inkscape:vp_z="1024 : 384 : 1"
     inkscape:persp3d-origin="512 : 256 : 1"
     id="perspective2916" /></defs><sodipodi:namedview
   pagecolor="#ffffff"
   bordercolor="#666666"
   borderopacity="1"
   objecttolerance="10"
   gridtolerance="10"
   guidetolerance="10"
   inkscape:pageopacity="0"
   inkscape:pageshadow="2"
   inkscape:window-width="640"
   inkscape:window-height="483"
   id="namedview2910"
   showgrid="false"
   inkscape:zoom="0.30729167"
   inkscape:cx="512"
   inkscape:cy="384"
   inkscape:window-x="0"
   inkscape:window-y="0"
   inkscape:window-maximized="0"
   inkscape:current-layer="Layer_1" />
<polygon
   fill="none"
   points="668,155.5 668,261.5 724,242.5 727.5,152.5 "
   id="polygon2868" />
<polygon
   fill="none"
   points="722,219 681,227 680.5,301.5 721.5,291 "
   id="polygon2870" />
<g
   id="g2872">
	<polygon
   fill="#CC3333"
   stroke="#000000"
   stroke-miterlimit="10"
   points="235.594,218.736 244.944,256.136 301.044,300.336    323.145,297.786 346.944,296.936 360.544,297.786 403.895,298.636 441.294,297.786 478.694,297.786 522.044,300.336    558.595,300.336 596.845,299.486 638.494,299.486 644.444,297.786 646.145,289.286 763.444,268.036 774.494,257.836    783.845,243.386 789.794,218.736 750.694,224.686 719.244,222.136 678.444,207.686 644.444,200.036 609.595,203.436    570.494,208.536 539.895,210.236 513.545,210.236 469.344,211.086 420.044,211.086 385.194,202.586 355.444,207.686    323.994,217.036 303.594,223.836 277.244,223.836 254.294,218.736 237.294,215.336  "
   id="polygon2874" />
	<polygon
   fill="#BE2826"
   stroke="#000000"
   stroke-miterlimit="10"
   points="393.694,303.736 391.994,307.986 393.694,386.186    384.344,389.586 379.244,399.786 365.645,401.486 359.694,414.236 346.944,410.836 346.944,430.386 339.294,443.136    357.145,461.836 374.145,486.486 355.444,498.386 343.544,506.886 318.895,530.686 307.844,582.536 302.744,626.736    302.744,648.836 293.395,670.086 307.844,681.136 322.294,689.636 338.444,664.986 341.844,645.436 340.994,608.886    346.944,579.136 355.444,563.836 369.895,560.436 382.645,570.636 392.844,588.486 398.794,596.136 403.895,598.686    420.044,585.086 439.594,585.936 454.044,599.536 463.395,626.736 467.645,665.836 468.494,698.986 470.194,722.786    517.794,740.636 556.044,721.086 556.044,645.436 559.444,612.286 565.395,591.886 575.595,578.286 590.895,574.886    605.345,585.936 610.444,562.136 623.194,547.686 641.044,548.536 646.145,568.936 647.845,586.786 649.544,609.736    658.044,641.186 671.645,656.486 692.044,642.886 675.895,596.136 673.345,557.036 665.694,522.186 655.494,500.936    639.345,490.736 623.194,484.786 612.994,478.836 641.895,469.486 658.044,465.236 659.744,442.286 658.895,424.436    641.895,409.986 624.044,396.386 607.895,387.036 606.194,353.036 607.044,324.986 607.895,304.586  "
   id="polygon2876" />
	<polyline
   fill="#CC3333"
   stroke="#000000"
   stroke-miterlimit="10"
   points="627.444,194.086 595.145,198.336 560.294,204.286    524.595,205.136 486.344,205.136 459.145,205.986 425.994,206.836 389.444,198.336 394.544,189.836 416.645,188.136    410.694,179.636 411.544,169.436 430.244,162.636 457.444,155.836 477.844,134.586 487.194,109.936 487.194,79.336 484.645,62.336    483.794,46.186 502.494,41.936 518.645,45.336 515.244,75.086 517.794,101.436 524.595,133.736 541.595,149.036 561.994,158.386    583.244,159.236 594.294,166.036 594.294,175.386 588.345,185.586 602.794,186.436 620.645,186.436 626.595,187.286  "
   id="polyline2878" />
	<polygon
   fill="#231F20"
   points="454.044,319.886 459.145,409.136 545.845,414.236 546.694,321.586  "
   id="polygon2880" />
	<polygon
   fill="#FFFFFF"
   points="470.194,333.486 469.344,395.536 531.395,398.936 532.244,337.736  "
   id="polygon2882" />
	<polygon
   fill="#231F20"
   points="468.494,350.486 489.744,353.036 487.194,334.336 496.544,331.786 495.694,352.186    507.594,353.036 506.744,335.186 515.244,335.186 515.244,351.336 532.244,353.036 530.544,360.686 513.545,359.836    515.244,370.886 531.395,372.586 531.395,378.536 516.095,378.536 513.545,396.386 507.594,397.236 508.444,377.686    495.694,376.836 495.694,392.136 490.594,394.686 487.194,375.986 469.344,375.136 469.344,368.336 489.744,366.636    491.444,359.836 473.594,357.286 469.344,357.286  "
   id="polygon2884" />
	<polygon
   fill="#FFFFFF"
   points="498.435,358.783 509.697,359.633 509.909,370.47 497.584,370.258  "
   id="polygon2886" />
	<polygon
   fill="#231F20"
   points="526.821,505.437 522.133,583.502 520.676,671.934 517.866,710.945 517.326,741.553    526.028,735.165  "
   id="polygon2888" />
	<polygon
   fill="#231F20"
   points="552.077,321.87 552.077,408.004 598.544,393.27 601.377,317.336  "
   id="polygon2890" />
	<polygon
   fill="#FFFFFF"
   points="560.011,333.203 560.011,394.402 592.877,383.636 594.577,325.836  "
   id="polygon2892" />
	<path
   fill="#231F20"
   d="M562.845,348.503l9.633-1.133l-0.566-19.833l4.533-1.7l1.133,21.534l5.101-1.7v-19.833l6.8,0.567l-1.133,17   l8.5-2.267l-0.567-17.566h3.4l-0.566,58.934l-11.334,3.966c0,0-1.133-8.5-1.7-12.466c-0.566-3.967-8.5-2.267-8.5-2.267   l-0.111,3.359l-0.454,13.641l-3.968,1.133l-0.566-16.433l-10.767,3.4l0.566,17h-3.4l-0.565-61.767l2.833-1.7L562.845,348.503z"
   id="path2894" />
	<polygon
   fill="#FFFFFF"
   points="590.044,368.336 588.344,385.902 596.844,383.636 598.544,365.502  "
   id="polygon2896" />
	<polygon
   fill="#231F20"
   points="427.473,313.915 410.473,306.547 409.907,384.181 430.307,399.48  "
   id="polygon2898" />
	<polygon
   fill="#FFFFFF"
   points="412.74,320.714 412.173,377.381 425.772,388.714 425.772,329.781  "
   id="polygon2900" />
	<polygon
   fill="#231F20"
   points="429.668,350.322 428.535,330.489 425.985,329.922 426.268,348.339 422.585,344.939    422.301,328.223 419.751,326.806 420.318,344.373 416.918,342.672 417.485,324.822 415.573,323.901 414.51,340.264 411.11,337.926    411.323,320.289 408.135,318.376 411.748,379.789 413.235,380.852 413.873,364.064 416.423,365.126 416.848,382.551    418.123,384.464 419.61,367.464 421.522,369.164 421.31,385.738 423.647,387.439 424.71,371.714 428.11,372.989 427.26,389.352    429.81,390.839 429.81,361.514  "
   id="polygon2902" />
	<polygon
   fill="#FFFFFF"
   points="418.307,350.238 422.132,352.023 421.876,361.458 417.797,359.928  "
   id="polygon2904" />
	<polygon
   fill="#FFFFFF"
   points="423.534,362.081 429.145,365.141 429.145,356.216 424.554,353.921  "
   id="polygon2906" />
	<polygon
   fill="#FFFFFF"
   points="410.473,345.081 410.189,354.998 415.006,358.681 415.29,347.914  "
   id="polygon2908" />
</g>
</svg>